M48
; DRILL file {KiCad (6.0.7)} date Thu Sep 15 06:49:06 2022
; FORMAT={-:-/ absolute / inch / decimal}
; #@! TF.CreationDate,2022-09-15T06:49:06-04:00
; #@! TF.GenerationSoftware,Kicad,Pcbnew,(6.0.7)
; #@! TF.FileFunction,Plated,1,2,PTH
FMAT,2
INCH
; #@! TA.AperFunction,Plated,PTH,ViaDrill
T1C0.0157
; #@! TA.AperFunction,Plated,PTH,ComponentDrill
T2C0.0236
; #@! TA.AperFunction,Plated,PTH,ComponentDrill
T3C0.0315
; #@! TA.AperFunction,Plated,PTH,ComponentDrill
T4C0.0354
; #@! TA.AperFunction,Plated,PTH,ComponentDrill
T5C0.0394
; #@! TA.AperFunction,Plated,PTH,ComponentDrill
T6C0.0433
; #@! TA.AperFunction,Plated,PTH,ComponentDrill
T7C0.0469
; #@! TA.AperFunction,Plated,PTH,ComponentDrill
T8C0.1252
%
G90
G05
T1
X6.8477Y-5.107
X7.037Y-5.0253
X7.2096Y-3.8354
X7.2589Y-4.8394
X7.261Y-5.074
X7.5757Y-5.1144
X7.6682Y-5.1873
X7.7164Y-4.0173
X7.7443Y-4.8295
X8.0578Y-4.6906
X8.0676Y-4.5205
X8.0903Y-4.613
X8.0922Y-5.1057
X8.1138Y-7.1143
X8.265Y-4.6345
X8.3018Y-5.5859
X8.3118Y-4.5499
X8.3609Y-5.5769
X8.4143Y-5.128
X8.4366Y-4.7124
X8.4422Y-5.5592
X8.5039Y-6.4731
X8.5719Y-6.5026
X8.5826Y-5.5379
X8.6355Y-4.5065
X8.6651Y-6.656
X8.6879Y-6.3582
X8.708Y-4.477
X8.7113Y-4.4334
X8.7356Y-4.5068
X8.8525Y-6.8292
X8.8843Y-5.0182
X8.9069Y-4.4597
X8.9363Y-6.4828
X9.0407Y-6.4561
X9.1183Y-6.7531
X9.1196Y-6.7926
X9.1798Y-6.6943
X9.2636Y-6.7228
X9.4215Y-5.5788
X9.6359Y-6.3705
X9.7323Y-6.9515
X9.8035Y-6.1756
X9.8735Y-6.6453
X9.8793Y-5.4793
X9.8805Y-6.9574
X9.9906Y-5.0751
X9.9941Y-6.7332
X9.9941Y-6.8796
X10.056Y-7.1566
X10.1089Y-7.2098
X10.2015Y-7.278
X10.2034Y-7.1241
X10.2368Y-7.2023
X10.3224Y-5.1614
X10.448Y-7.313
X10.8492Y-6.7224
X10.8693Y-6.467
X10.9229Y-7.0868
X10.9284Y-7.0284
X10.9609Y-7.1522
X11.0355Y-7.2672
X11.1875Y-7.3432
X11.2169Y-7.026
X11.2408Y-4.7355
X11.2469Y-7.1256
X11.3268Y-7.1049
X11.3311Y-7.0457
X11.3597Y-7.0806
X11.3882Y-7.0457
X11.4276Y-7.0435
X11.4322Y-7.2046
X11.4325Y-5.3831
X11.4939Y-7.1841
X11.6128Y-7.1919
X11.6527Y-7.1892
X11.6542Y-7.0258
X11.6921Y-7.1909
X11.7795Y-3.2276
X11.9378Y-3.6265
X11.978Y-4.2699
X12.1664Y-6.9488
X12.2217Y-3.9527
X12.232Y-6.9942
X12.2354Y-6.9202
X12.2545Y-5.0504
X12.2553Y-4.9431
X12.3023Y-3.924
X12.9155Y-6.6621
T2
X4.1055Y-2.8362
X4.1645Y-2.8362
T3
X3.619Y-4.2782
X3.619Y-4.8782
X3.623Y-5.2802
X3.623Y-5.8802
X3.629Y-6.3862
X3.6479Y-3.3676
X3.6766Y-3.9022
X3.729Y-6.3862
X3.7464Y-3.3676
X3.775Y-3.9022
X3.829Y-6.3862
X3.8448Y-3.3676
X3.8734Y-3.9022
X3.919Y-4.2782
X3.919Y-4.8782
X3.923Y-5.2802
X3.923Y-5.8802
X4.347Y-5.2802
X4.347Y-5.8802
X4.351Y-4.5822
X4.351Y-4.8822
X4.415Y-2.7462
X4.425Y-3.0182
X4.647Y-5.2802
X4.647Y-5.8802
X4.651Y-4.5822
X4.651Y-4.8822
X4.815Y-2.7462
X4.825Y-3.0182
X5.001Y-5.3422
X5.001Y-5.4422
X5.001Y-5.5422
X5.001Y-5.6422
X5.001Y-5.7422
X5.001Y-5.8422
X5.001Y-5.9422
X5.2038Y-5.1642
X5.301Y-5.3422
X5.301Y-5.4422
X5.301Y-5.5422
X5.301Y-5.6422
X5.301Y-5.7422
X5.301Y-5.8422
X5.301Y-5.9422
X5.3022Y-5.1642
X5.5776Y-5.8488
X5.5776Y-5.9472
X5.582Y-4.3428
X5.582Y-4.4412
X5.787Y-4.3442
X5.787Y-4.9442
X5.787Y-5.3442
X5.787Y-5.9442
X5.8022Y-6.4462
X5.8022Y-6.5758
X5.8022Y-6.7114
X5.8022Y-6.8414
X5.887Y-4.3442
X5.887Y-4.9442
X5.887Y-5.3442
X5.887Y-5.9442
X5.987Y-4.3442
X5.987Y-4.9442
X5.987Y-5.3442
X5.987Y-5.9442
X6.087Y-4.3442
X6.087Y-4.9442
X6.087Y-5.3442
X6.087Y-5.9442
X6.0932Y-3.8831
X6.0932Y-3.9816
X6.187Y-4.3442
X6.187Y-4.9442
X6.187Y-5.3442
X6.187Y-5.9442
X6.2022Y-6.4462
X6.2022Y-6.5758
X6.2022Y-6.7114
X6.2022Y-6.8414
X6.287Y-4.3442
X6.287Y-4.9442
X6.287Y-5.3442
X6.287Y-5.9442
X6.3056Y-3.677
X6.3056Y-3.977
X6.387Y-4.3442
X6.387Y-4.9442
X6.387Y-5.3442
X6.387Y-5.9442
X6.4056Y-3.677
X6.4056Y-3.977
X6.487Y-4.3442
X6.487Y-4.9442
X6.487Y-5.3442
X6.487Y-5.9442
X6.5056Y-3.677
X6.5056Y-3.977
X6.587Y-4.3442
X6.587Y-4.9442
X6.587Y-5.3442
X6.587Y-5.9442
X6.6056Y-3.677
X6.6056Y-3.977
X6.687Y-4.3442
X6.687Y-4.9442
X6.687Y-5.3442
X6.687Y-5.9442
X6.7056Y-3.677
X6.7056Y-3.977
X6.787Y-4.3442
X6.787Y-4.9442
X6.787Y-5.3442
X6.787Y-5.9442
X6.8056Y-3.677
X6.8056Y-3.977
X6.887Y-4.3442
X6.887Y-4.9442
X6.887Y-5.3442
X6.887Y-5.9442
X6.9056Y-3.677
X6.9056Y-3.977
X6.987Y-4.3442
X6.987Y-4.9442
X6.987Y-5.3442
X6.987Y-5.9442
X7.0056Y-3.677
X7.0056Y-3.977
X7.087Y-4.3442
X7.087Y-4.9442
X7.087Y-5.3442
X7.087Y-5.9442
X7.1056Y-3.677
X7.1056Y-3.977
X7.187Y-4.3442
X7.187Y-4.9442
X7.187Y-5.3442
X7.187Y-5.9442
X7.2056Y-3.677
X7.2056Y-3.977
X7.2818Y-3.3207
X7.283Y-2.6742
X7.283Y-2.8022
X7.283Y-2.9293
X7.283Y-3.0582
X7.283Y-3.1902
X7.287Y-4.3442
X7.287Y-4.9442
X7.287Y-5.3442
X7.287Y-5.9442
X7.387Y-4.3442
X7.387Y-4.9442
X7.387Y-5.3442
X7.387Y-5.9442
X7.487Y-4.3442
X7.487Y-4.9442
X7.487Y-5.3442
X7.487Y-5.9442
X7.587Y-4.3442
X7.587Y-4.9442
X7.587Y-5.3442
X7.587Y-5.9442
X7.6818Y-3.3207
X7.683Y-2.6742
X7.683Y-2.8022
X7.683Y-2.9293
X7.683Y-3.0582
X7.683Y-3.1902
X7.687Y-4.3442
X7.687Y-4.9442
X7.687Y-5.3442
X7.687Y-5.9442
X8.136Y-3.3766
X8.136Y-3.9766
X8.1366Y-5.3438
X8.1366Y-5.9438
X8.1374Y-4.3438
X8.1374Y-4.9438
X8.236Y-3.3766
X8.236Y-3.9766
X8.2366Y-5.3438
X8.2366Y-5.9438
X8.2374Y-4.3438
X8.2374Y-4.9438
X8.336Y-3.3766
X8.336Y-3.9766
X8.3366Y-5.3438
X8.3366Y-5.9438
X8.3374Y-4.3438
X8.3374Y-4.9438
X8.436Y-3.3766
X8.436Y-3.9766
X8.4366Y-5.3438
X8.4366Y-5.9438
X8.4374Y-4.3438
X8.4374Y-4.9438
X8.536Y-3.3766
X8.536Y-3.9766
X8.5366Y-5.3438
X8.5366Y-5.9438
X8.5374Y-4.3438
X8.5374Y-4.9438
X8.636Y-3.3766
X8.636Y-3.9766
X8.6366Y-5.3438
X8.6366Y-5.9438
X8.6374Y-4.3438
X8.6374Y-4.9438
X8.736Y-3.3766
X8.736Y-3.9766
X8.7366Y-5.3438
X8.7366Y-5.9438
X8.7374Y-4.3438
X8.7374Y-4.9438
X8.836Y-3.3766
X8.836Y-3.9766
X8.8366Y-5.3438
X8.8366Y-5.9438
X8.8374Y-4.3438
X8.8374Y-4.9438
X8.9231Y-5.1616
X8.936Y-3.3766
X8.936Y-3.9766
X8.9366Y-5.3438
X8.9366Y-5.9438
X8.9374Y-4.3438
X8.9374Y-4.9438
X9.036Y-3.3766
X9.036Y-3.9766
X9.0366Y-5.3438
X9.0366Y-5.9438
X9.0374Y-4.3438
X9.0374Y-4.9438
X9.12Y-5.1616
X9.136Y-3.3766
X9.136Y-3.9766
X9.1366Y-5.3438
X9.1366Y-5.9438
X9.1374Y-4.3438
X9.1374Y-4.9438
X9.236Y-3.3766
X9.236Y-3.9766
X9.2366Y-5.3438
X9.2366Y-5.9438
X9.2374Y-4.3438
X9.2374Y-4.9438
X9.336Y-3.3766
X9.336Y-3.9766
X9.3366Y-5.3438
X9.3366Y-5.9438
X9.3374Y-4.3438
X9.3374Y-4.9438
X9.436Y-3.3766
X9.436Y-3.9766
X9.4366Y-5.3438
X9.4366Y-5.9438
X9.4374Y-4.3438
X9.4374Y-4.9438
X9.6296Y-3.8904
X9.6296Y-3.9888
X9.6368Y-4.8448
X9.6368Y-4.9432
X9.6368Y-5.8448
X9.6368Y-5.9432
X10.0536Y-5.6055
X10.0536Y-6.0055
X10.1026Y-6.4279
X10.1026Y-6.7279
X10.1284Y-4.4478
X10.1284Y-4.5478
X10.1284Y-4.6478
X10.1284Y-4.7478
X10.1284Y-4.8478
X10.1284Y-4.9478
X10.1284Y-5.0478
X10.1284Y-5.1478
X10.1374Y-2.9454
X10.1374Y-3.0454
X10.1374Y-3.1454
X10.1374Y-3.2454
X10.1374Y-3.3454
X10.1374Y-3.4454
X10.1374Y-3.5454
X10.1374Y-3.6454
X10.1836Y-5.6055
X10.1836Y-6.0055
X10.2026Y-6.4279
X10.2026Y-6.7279
X10.3026Y-6.4279
X10.3026Y-6.7279
X10.3136Y-5.6055
X10.3136Y-6.0055
X10.3268Y-4.2222
X10.3401Y-2.752
X10.4026Y-6.4279
X10.4026Y-6.7279
X10.4252Y-4.2222
X10.4284Y-4.4478
X10.4284Y-4.5478
X10.4284Y-4.6478
X10.4284Y-4.7478
X10.4284Y-4.8478
X10.4284Y-4.9478
X10.4284Y-5.0478
X10.4284Y-5.1478
X10.4374Y-2.9454
X10.4374Y-3.0454
X10.4374Y-3.1454
X10.4374Y-3.2454
X10.4374Y-3.3454
X10.4374Y-3.4454
X10.4374Y-3.5454
X10.4374Y-3.6454
X10.4386Y-2.752
X10.4476Y-5.6055
X10.4476Y-6.0055
X10.7709Y-4.4478
X10.7709Y-4.5478
X10.7709Y-4.6478
X10.7709Y-4.7478
X10.7709Y-4.8478
X10.7709Y-4.9478
X10.7709Y-5.0478
X10.7709Y-5.1478
X10.7799Y-2.9454
X10.7799Y-3.0454
X10.7799Y-3.1454
X10.7799Y-3.2454
X10.7799Y-3.3454
X10.7799Y-3.4454
X10.7799Y-3.5454
X10.7799Y-3.6454
X10.7819Y-5.8224
X10.7819Y-5.9224
X10.7819Y-6.0224
X10.7819Y-6.1224
X10.7819Y-6.2224
X10.7819Y-6.3224
X10.7819Y-6.4224
X10.7819Y-6.5224
X10.7819Y-6.6224
X10.7819Y-6.7224
X10.9736Y-4.2222
X10.9826Y-2.752
X10.9846Y-5.6142
X11.0709Y-4.4478
X11.0709Y-4.5478
X11.0709Y-4.6478
X11.0709Y-4.7478
X11.0709Y-4.8478
X11.0709Y-4.9478
X11.0709Y-5.0478
X11.0709Y-5.1478
X11.0721Y-4.2222
X11.0799Y-2.9454
X11.0799Y-3.0454
X11.0799Y-3.1454
X11.0799Y-3.2454
X11.0799Y-3.3454
X11.0799Y-3.4454
X11.0799Y-3.5454
X11.0799Y-3.6454
X11.0811Y-2.752
X11.0819Y-5.8224
X11.0819Y-5.9224
X11.0819Y-6.0224
X11.0819Y-6.1224
X11.0819Y-6.2224
X11.0819Y-6.3224
X11.0819Y-6.4224
X11.0819Y-6.5224
X11.0819Y-6.6224
X11.0819Y-6.7224
X11.0831Y-5.6142
X11.4134Y-4.4478
X11.4134Y-4.5478
X11.4134Y-4.6478
X11.4134Y-4.7478
X11.4134Y-4.8478
X11.4134Y-4.9478
X11.4134Y-5.0478
X11.4134Y-5.1478
X11.4224Y-2.9454
X11.4224Y-3.0454
X11.4224Y-3.1454
X11.4224Y-3.2454
X11.4224Y-3.3454
X11.4224Y-3.4454
X11.4224Y-3.5454
X11.4224Y-3.6454
X11.4244Y-5.8224
X11.4244Y-5.9224
X11.4244Y-6.0224
X11.4244Y-6.1224
X11.4244Y-6.2224
X11.4244Y-6.3224
X11.4244Y-6.4224
X11.4244Y-6.5224
X11.4244Y-6.6224
X11.4244Y-6.7224
X11.6128Y-4.2222
X11.6271Y-5.6142
X11.628Y-2.752
X11.7112Y-4.2222
X11.7134Y-4.4478
X11.7134Y-4.5478
X11.7134Y-4.6478
X11.7134Y-4.7478
X11.7134Y-4.8478
X11.7134Y-4.9478
X11.7134Y-5.0478
X11.7134Y-5.1478
X11.7224Y-2.9454
X11.7224Y-3.0454
X11.7224Y-3.1454
X11.7224Y-3.2454
X11.7224Y-3.3454
X11.7224Y-3.4454
X11.7224Y-3.5454
X11.7224Y-3.6454
X11.7244Y-5.8224
X11.7244Y-5.9224
X11.7244Y-6.0224
X11.7244Y-6.1224
X11.7244Y-6.2224
X11.7244Y-6.3224
X11.7244Y-6.4224
X11.7244Y-6.5224
X11.7244Y-6.6224
X11.7244Y-6.7224
X11.7256Y-5.6142
X11.7264Y-2.752
X12.0519Y-4.4478
X12.0519Y-4.5478
X12.0519Y-4.6478
X12.0519Y-4.7478
X12.0519Y-4.8478
X12.0519Y-4.9478
X12.0519Y-5.0478
X12.0519Y-5.1478
X12.0519Y-5.2478
X12.0519Y-5.3478
X12.0609Y-2.9566
X12.0609Y-3.0566
X12.0609Y-3.1566
X12.0609Y-3.2566
X12.0609Y-3.3566
X12.0609Y-3.4566
X12.0609Y-3.5566
X12.0609Y-3.6566
X12.0609Y-3.7566
X12.0609Y-3.8566
X12.0629Y-5.8224
X12.0629Y-5.9224
X12.0629Y-6.0224
X12.0629Y-6.1224
X12.0629Y-6.2224
X12.0629Y-6.3224
X12.0629Y-6.4224
X12.0629Y-6.5224
X12.0629Y-6.6224
X12.0629Y-6.7224
X12.2548Y-4.2222
X12.2638Y-2.752
X12.2688Y-5.6142
X12.3519Y-4.4478
X12.3519Y-4.5478
X12.3519Y-4.6478
X12.3519Y-4.7478
X12.3519Y-4.8478
X12.3519Y-4.9478
X12.3519Y-5.0478
X12.3519Y-5.1478
X12.3519Y-5.2478
X12.3519Y-5.3478
X12.3532Y-4.2222
X12.3609Y-2.9566
X12.3609Y-3.0566
X12.3609Y-3.1566
X12.3609Y-3.2566
X12.3609Y-3.3566
X12.3609Y-3.4566
X12.3609Y-3.5566
X12.3609Y-3.6566
X12.3609Y-3.7566
X12.3609Y-3.8566
X12.3622Y-2.752
X12.3629Y-5.8224
X12.3629Y-5.9224
X12.3629Y-6.0224
X12.3629Y-6.1224
X12.3629Y-6.2224
X12.3629Y-6.3224
X12.3629Y-6.4224
X12.3629Y-6.5224
X12.3629Y-6.6224
X12.3629Y-6.7224
X12.3672Y-5.6142
X12.69Y-4.4478
X12.69Y-4.5478
X12.69Y-4.6478
X12.69Y-4.7478
X12.69Y-4.8478
X12.69Y-4.9478
X12.69Y-5.0478
X12.699Y-2.968
X12.699Y-3.068
X12.699Y-3.168
X12.699Y-3.268
X12.699Y-3.368
X12.699Y-3.468
X12.699Y-3.568
X12.701Y-5.8224
X12.701Y-5.9224
X12.701Y-6.0224
X12.701Y-6.1224
X12.701Y-6.2224
X12.701Y-6.3224
X12.701Y-6.4224
X12.701Y-6.5224
X12.701Y-6.6224
X12.701Y-6.7224
X12.8948Y-4.2222
X12.9014Y-2.7522
X12.9037Y-5.6142
X12.99Y-4.4478
X12.99Y-4.5478
X12.99Y-4.6478
X12.99Y-4.7478
X12.99Y-4.8478
X12.99Y-4.9478
X12.99Y-5.0478
X12.9932Y-4.2222
X12.999Y-2.968
X12.999Y-3.068
X12.999Y-3.168
X12.999Y-3.268
X12.999Y-3.368
X12.999Y-3.468
X12.999Y-3.568
X12.9998Y-2.7522
X13.001Y-5.8224
X13.001Y-5.9224
X13.001Y-6.0224
X13.001Y-6.1224
X13.001Y-6.2224
X13.001Y-6.3224
X13.001Y-6.4224
X13.001Y-6.5224
X13.001Y-6.6224
X13.001Y-6.7224
X13.0022Y-5.6142
T4
X5.1508Y-2.7482
X5.2508Y-2.7482
T5
X3.589Y-7.4762
X3.689Y-7.4762
X3.789Y-7.4762
X3.889Y-7.4762
X3.989Y-7.4762
X4.089Y-7.4762
X4.189Y-7.4762
X4.2214Y-6.4898
X4.2214Y-6.6669
X4.289Y-7.4762
X4.389Y-7.4762
X4.4308Y-3.8728
X4.4308Y-3.9728
X4.4308Y-4.0728
X4.4773Y-6.4898
X4.4773Y-6.6669
X4.489Y-7.4762
X4.5308Y-3.8728
X4.5308Y-3.9728
X4.5308Y-4.0728
X4.589Y-7.4762
X4.689Y-7.4762
X4.749Y-6.1534
X4.749Y-6.3306
X4.7529Y-6.9228
X4.7529Y-7.1
X4.789Y-7.4762
X4.889Y-7.4762
X4.989Y-7.4762
X5.0049Y-6.1534
X5.0049Y-6.3306
X5.0088Y-6.9228
X5.0088Y-7.1
X5.089Y-7.4762
X5.1184Y-3.0862
X5.1184Y-3.3421
X5.245Y-6.4996
X5.245Y-6.6768
X5.2956Y-3.0862
X5.2956Y-3.3421
X5.3367Y-7.4834
X5.4367Y-7.4834
X5.5009Y-6.4996
X5.5009Y-6.6768
X5.5367Y-7.4834
X5.6367Y-7.4834
X5.7367Y-7.4834
X5.8367Y-7.4834
X5.9367Y-7.4834
X6.0367Y-7.4834
X6.1367Y-7.4834
X6.2367Y-7.4834
X6.3367Y-7.4834
X6.4367Y-7.4834
X6.5367Y-7.4834
X6.6367Y-7.4834
X6.7367Y-7.4834
X6.8367Y-7.4834
X7.0863Y-7.4879
X7.1863Y-7.4879
X7.2863Y-7.4879
X7.3863Y-7.4879
X7.4863Y-7.4879
X7.5863Y-7.4879
X7.6863Y-7.4879
X7.7863Y-7.4879
X7.8863Y-7.4879
X7.9863Y-7.4879
X8.0863Y-7.4879
X8.1863Y-7.4879
X8.2863Y-7.4879
X8.3863Y-7.4879
X8.4863Y-7.4879
X8.491Y-2.9002
X8.5863Y-7.4879
X8.591Y-2.9002
X8.691Y-2.9002
X8.791Y-2.9002
X8.8576Y-7.4852
X8.8576Y-7.5852
X8.8704Y-6.536
X8.8704Y-6.636
X8.891Y-2.9002
X8.9576Y-7.4852
X8.9576Y-7.5852
X8.9704Y-6.536
X8.9704Y-6.636
X8.991Y-2.9002
X9.0576Y-7.4852
X9.0576Y-7.5852
X9.0704Y-6.536
X9.0704Y-6.636
X9.1576Y-7.4852
X9.1576Y-7.5852
X9.1704Y-6.536
X9.1704Y-6.636
X9.2576Y-7.4852
X9.2576Y-7.5852
X9.2704Y-6.536
X9.2704Y-6.636
X9.3576Y-7.4852
X9.3576Y-7.5852
X9.3704Y-6.536
X9.3704Y-6.636
X9.4576Y-7.4852
X9.4576Y-7.5852
X9.4704Y-6.536
X9.4704Y-6.636
X9.5576Y-7.4852
X9.5576Y-7.5852
X9.5704Y-6.536
X9.5704Y-6.636
X9.6576Y-7.4852
X9.6576Y-7.5852
X9.7576Y-7.4852
X9.7576Y-7.5852
X9.8576Y-7.4852
X9.8576Y-7.5852
X9.9576Y-7.4852
X9.9576Y-7.5852
X10.0576Y-7.4852
X10.0576Y-7.5852
X10.1576Y-7.4852
X10.1576Y-7.5852
X10.2576Y-7.4852
X10.2576Y-7.5852
X10.3576Y-7.4852
X10.3576Y-7.5852
X10.4576Y-7.4852
X10.4576Y-7.5852
X10.5576Y-7.4852
X10.5576Y-7.5852
X10.6576Y-7.4852
X10.6576Y-7.5852
X10.7576Y-7.4852
X10.7576Y-7.5852
X11.139Y-7.4862
X11.139Y-7.5862
X11.239Y-7.4862
X11.239Y-7.5862
X11.339Y-7.4862
X11.339Y-7.5862
X11.439Y-7.4862
X11.439Y-7.5862
X11.539Y-7.4862
X11.539Y-7.5862
X11.639Y-7.4862
X11.639Y-7.5862
X11.739Y-7.4862
X11.739Y-7.5862
X11.839Y-7.4862
X11.839Y-7.5862
X11.939Y-7.4862
X11.939Y-7.5862
X12.039Y-7.4862
X12.039Y-7.5862
X12.139Y-7.4862
X12.139Y-7.5862
X12.239Y-7.4862
X12.239Y-7.5862
X12.339Y-7.4862
X12.339Y-7.5862
X12.439Y-7.4862
X12.439Y-7.5862
X12.539Y-7.4862
X12.539Y-7.5862
X12.639Y-7.4862
X12.639Y-7.5862
X12.739Y-7.4862
X12.739Y-7.5862
X12.839Y-7.4862
X12.839Y-7.5862
X12.939Y-7.4862
X12.939Y-7.5862
X13.039Y-7.4862
X13.039Y-7.5862
T6
X4.141Y-3.0162
X4.141Y-3.4162
T7
X6.1288Y-3.0035
X6.1737Y-2.9035
X6.1737Y-3.1035
X6.2186Y-3.0035
X6.2635Y-2.9035
X6.2635Y-3.1035
X6.3083Y-3.0035
X6.3532Y-2.9035
X6.3532Y-3.1035
X6.3981Y-3.0035
X6.443Y-2.9035
X6.443Y-3.1035
X6.4879Y-3.0035
X6.5327Y-2.9035
X6.5327Y-3.1035
T8
X5.8514Y-3.0035
X6.8357Y-3.0035
T5
G00X3.5596Y-2.9469
M15
G01X3.5596Y-3.0257
M16
G05
G00X3.7841Y-2.8682
M15
G01X3.7053Y-2.8682
M16
G05
G00X3.7841Y-3.1044
M15
G01X3.7053Y-3.1044
M16
G05
T0
M30
