M48
; DRILL file {KiCad (6.0.7)} date Sat Sep  3 14:48:38 2022
; FORMAT={-:-/ absolute / inch / decimal}
; #@! TF.CreationDate,2022-09-03T14:48:38-04:00
; #@! TF.GenerationSoftware,Kicad,Pcbnew,(6.0.7)
; #@! TF.FileFunction,Plated,1,2,PTH
FMAT,2
INCH
; #@! TA.AperFunction,Plated,PTH,ViaDrill
T1C0.0157
; #@! TA.AperFunction,Plated,PTH,ComponentDrill
T2C0.0236
; #@! TA.AperFunction,Plated,PTH,ComponentDrill
T3C0.0315
; #@! TA.AperFunction,Plated,PTH,ComponentDrill
T4C0.0354
; #@! TA.AperFunction,Plated,PTH,ComponentDrill
T5C0.0394
; #@! TA.AperFunction,Plated,PTH,ComponentDrill
T6C0.0433
%
G90
G05
T1
X3.5739Y-1.7154
X4.4426Y-4.3723
X4.7338Y-4.3723
X4.7889Y-4.292
X4.9153Y-4.3169
X5.092Y-4.3456
X5.1214Y-4.3719
X5.1648Y-4.3723
X5.3189Y-4.3707
X5.4035Y-4.4604
X5.4612Y-4.3717
X5.5438Y-4.498
X5.5608Y-4.3715
X5.573Y-4.4593
X5.6032Y-4.3446
X5.6205Y-3.013
X5.6311Y-4.3723
X5.6321Y-2.8359
X5.66Y-2.8743
X5.8274Y-2.5454
X5.8489Y-4.3723
X5.858Y-4.5794
X5.8759Y-2.1715
X5.899Y-4.4598
X5.9058Y-4.3723
X5.9749Y-4.7099
X5.995Y-4.5748
X6.019Y-1.2834
X6.0863Y-2.574
X6.6112Y-2.3024
X6.6148Y-2.2333
X6.6257Y-2.1635
X6.6643Y-4.3103
X6.9073Y-4.4594
X7.0024Y-3.0825
X7.0983Y-4.544
X7.1296Y-2.5995
X7.2855Y-2.601
X7.3149Y-2.4729
X7.33Y-3.4276
X7.4472Y-2.7104
X7.4565Y-3.399
X7.532Y-2.7782
X7.6013Y-3.0539
X7.7118Y-4.1107
X7.7745Y-4.0009
X8.0732Y-1.2826
X8.1954Y-4.5693
X8.2984Y-4.2487
X8.3294Y-4.8143
X8.3345Y-4.2774
X8.3554Y-2.7112
X8.3556Y-2.0404
X8.3564Y-3.293
X8.3565Y-2.1404
X8.3566Y-2.286
X8.3568Y-1.8767
X8.3591Y-1.7546
X8.3665Y-1.8372
X8.3807Y-2.7447
X8.3832Y-2.6116
X8.389Y-1.9297
X8.3938Y-3.4309
X8.3957Y-4.1548
X8.3962Y-2.288
X8.4118Y-2.5672
X8.4409Y-3.3093
X8.4415Y-2.9379
X8.4419Y-4.1043
X8.442Y-2.5404
X8.4425Y-3.2493
X8.5695Y-4.7682
X8.6224Y-4.7562
T2
X3.1358Y-4.5163
X3.1358Y-4.5753
T3
X3.259Y-5.3604
X3.3298Y-1.7078
X3.3298Y-2.3078
X3.3338Y-2.7338
X3.3338Y-3.3338
X3.3574Y-5.3604
X3.4358Y-4.3198
X3.4358Y-4.7198
X3.6258Y-4.3198
X3.6258Y-4.7198
X3.6298Y-1.7078
X3.6298Y-2.3078
X3.6338Y-2.7338
X3.6338Y-3.3338
X3.6958Y-3.8366
X3.6958Y-3.935
X4.056Y-3.8368
X4.056Y-3.9352
X4.068Y-2.8428
X4.068Y-2.9412
X4.306Y-2.336
X4.306Y-2.936
X4.306Y-3.336
X4.306Y-3.936
X4.3069Y-1.4976
X4.3069Y-1.5976
X4.3069Y-1.6976
X4.3069Y-1.7976
X4.3069Y-1.8976
X4.3069Y-1.9976
X4.3069Y-2.0976
X4.406Y-2.336
X4.406Y-2.936
X4.406Y-3.336
X4.406Y-3.936
X4.506Y-2.336
X4.506Y-2.936
X4.506Y-3.336
X4.506Y-3.936
X4.5093Y-1.3078
X4.606Y-2.336
X4.606Y-2.936
X4.606Y-3.336
X4.606Y-3.936
X4.6069Y-1.4976
X4.6069Y-1.5976
X4.6069Y-1.6976
X4.6069Y-1.7976
X4.6069Y-1.8976
X4.6069Y-1.9976
X4.6069Y-2.0976
X4.6077Y-1.3078
X4.706Y-2.336
X4.706Y-2.936
X4.706Y-3.336
X4.706Y-3.936
X4.806Y-2.336
X4.806Y-2.936
X4.806Y-3.336
X4.806Y-3.936
X4.906Y-2.336
X4.906Y-2.936
X4.906Y-3.336
X4.906Y-3.936
X5.006Y-2.336
X5.006Y-2.936
X5.006Y-3.336
X5.006Y-3.936
X5.106Y-2.336
X5.106Y-2.936
X5.106Y-3.336
X5.106Y-3.936
X5.1079Y-1.4976
X5.1079Y-1.5976
X5.1079Y-1.6976
X5.1079Y-1.7976
X5.1079Y-1.8976
X5.1079Y-1.9976
X5.1079Y-2.0976
X5.206Y-2.336
X5.206Y-2.936
X5.206Y-3.336
X5.206Y-3.936
X5.306Y-2.336
X5.306Y-2.936
X5.306Y-3.336
X5.306Y-3.936
X5.306Y-1.3078
X5.4045Y-1.3078
X5.406Y-2.336
X5.406Y-2.936
X5.406Y-3.336
X5.406Y-3.936
X5.4079Y-1.4976
X5.4079Y-1.5976
X5.4079Y-1.6976
X5.4079Y-1.7976
X5.4079Y-1.8976
X5.4079Y-1.9976
X5.4079Y-2.0976
X5.506Y-2.336
X5.506Y-2.936
X5.506Y-3.336
X5.506Y-3.936
X5.606Y-2.336
X5.606Y-2.936
X5.606Y-3.336
X5.606Y-3.936
X5.706Y-2.336
X5.706Y-2.936
X5.706Y-3.336
X5.706Y-3.936
X5.806Y-2.336
X5.806Y-2.936
X5.806Y-3.336
X5.806Y-3.936
X5.906Y-2.336
X5.906Y-2.936
X5.906Y-3.336
X5.906Y-3.936
X5.9089Y-1.4976
X5.9089Y-1.5976
X5.9089Y-1.6976
X5.9089Y-1.7976
X5.9089Y-1.8976
X5.9089Y-1.9976
X5.9089Y-2.0976
X6.006Y-2.336
X6.006Y-2.936
X6.006Y-3.336
X6.006Y-3.936
X6.0538Y-4.3182
X6.0538Y-4.593
X6.0538Y-4.8686
X6.0538Y-5.1442
X6.106Y-2.336
X6.106Y-2.936
X6.106Y-3.336
X6.106Y-3.936
X6.1073Y-1.3078
X6.2057Y-1.3078
X6.206Y-2.336
X6.206Y-2.936
X6.206Y-3.336
X6.206Y-3.936
X6.2089Y-1.4976
X6.2089Y-1.5976
X6.2089Y-1.6976
X6.2089Y-1.7976
X6.2089Y-1.8976
X6.2089Y-1.9976
X6.2089Y-2.0976
X6.4538Y-4.3182
X6.4538Y-4.593
X6.4538Y-4.8686
X6.4538Y-5.1442
X6.6551Y-1.3684
X6.6551Y-1.9684
X6.6556Y-3.3356
X6.6556Y-3.9356
X6.6564Y-2.3356
X6.6564Y-2.9356
X6.7551Y-1.3684
X6.7551Y-1.9684
X6.7556Y-3.3356
X6.7556Y-3.9356
X6.7564Y-2.3356
X6.7564Y-2.9356
X6.7778Y-5.8058
X6.8551Y-1.3684
X6.8551Y-1.9684
X6.8556Y-3.3356
X6.8556Y-3.9356
X6.8564Y-2.3356
X6.8564Y-2.9356
X6.8778Y-5.8058
X6.9551Y-1.3684
X6.9551Y-1.9684
X6.9556Y-3.3356
X6.9556Y-3.9356
X6.9564Y-2.3356
X6.9564Y-2.9356
X6.9778Y-5.8058
X7.0551Y-1.3684
X7.0551Y-1.9684
X7.0556Y-3.3356
X7.0556Y-3.9356
X7.0564Y-2.3356
X7.0564Y-2.9356
X7.1551Y-1.3684
X7.1551Y-1.9684
X7.1556Y-3.3356
X7.1556Y-3.9356
X7.1564Y-2.3356
X7.1564Y-2.9356
X7.2551Y-1.3684
X7.2551Y-1.9684
X7.2556Y-3.3356
X7.2556Y-3.9356
X7.2564Y-2.3356
X7.2564Y-2.9356
X7.3551Y-1.3684
X7.3551Y-1.9684
X7.3556Y-3.3356
X7.3556Y-3.9356
X7.3564Y-2.3356
X7.3564Y-2.9356
X7.4551Y-1.3684
X7.4551Y-1.9684
X7.4554Y-3.1498
X7.4556Y-3.3356
X7.4556Y-3.9356
X7.4564Y-2.3356
X7.4564Y-2.9356
X7.5551Y-1.3684
X7.5551Y-1.9684
X7.5556Y-3.3356
X7.5556Y-3.9356
X7.5564Y-2.3356
X7.5564Y-2.9356
X7.6522Y-3.1498
X7.6551Y-1.3684
X7.6551Y-1.9684
X7.6556Y-3.3356
X7.6556Y-3.9356
X7.6564Y-2.3356
X7.6564Y-2.9356
X7.7551Y-1.3684
X7.7551Y-1.9684
X7.7556Y-3.3356
X7.7556Y-3.9356
X7.7564Y-2.3356
X7.7564Y-2.9356
X7.8551Y-1.3684
X7.8551Y-1.9684
X7.8556Y-3.3356
X7.8556Y-3.9356
X7.8564Y-2.3356
X7.8564Y-2.9356
X7.9551Y-1.3684
X7.9551Y-1.9684
X7.9556Y-3.3356
X7.9556Y-3.9356
X7.9564Y-2.3356
X7.9564Y-2.9356
X8.1547Y-1.8754
X8.1547Y-1.9738
X8.1558Y-2.8366
X8.1558Y-2.935
X8.1558Y-3.8366
X8.1558Y-3.935
T4
X3.8458Y-4.5136
X3.8458Y-4.6136
T5
X3.0995Y-3.8203
X3.0995Y-4.0762
X3.2767Y-3.8203
X3.2767Y-4.0762
X4.4692Y-4.6233
X4.4692Y-4.8005
X4.5958Y-5.7378
X4.6958Y-5.7378
X4.7251Y-4.6233
X4.7251Y-4.8005
X4.7958Y-5.7378
X4.8958Y-5.7378
X4.9958Y-5.7378
X5.0007Y-4.1706
X5.0007Y-4.3477
X5.0007Y-5.0564
X5.0007Y-5.2336
X5.0958Y-5.7378
X5.1958Y-5.7378
X5.2566Y-4.1706
X5.2566Y-4.3477
X5.2566Y-5.0564
X5.2566Y-5.2336
X5.2958Y-5.7378
X5.3958Y-5.7378
X5.4928Y-4.6332
X5.4928Y-4.8103
X5.4958Y-5.7378
X5.5958Y-5.7378
X5.6958Y-5.7378
X5.7487Y-4.6332
X5.7487Y-4.8103
X5.7958Y-5.7378
X5.8958Y-5.7378
X5.9958Y-5.7378
X6.0958Y-5.7378
X8.7822Y-1.3867
X8.7822Y-1.4867
X8.7822Y-1.5867
X8.7822Y-1.6867
X8.7822Y-1.7867
X8.7822Y-1.8867
X8.7822Y-1.9867
X8.7822Y-2.0867
X8.7822Y-2.1867
X8.7822Y-2.2867
X8.7822Y-2.3867
X8.7822Y-2.4867
X8.7822Y-2.5867
X8.7822Y-2.6867
X8.7822Y-2.7867
X8.7822Y-2.8867
X8.7822Y-2.9867
X8.7822Y-3.0867
X8.7822Y-3.1867
X8.7822Y-3.2867
X8.8808Y-5.4028
X8.8808Y-5.5028
X8.8808Y-5.6028
X8.8808Y-5.7028
X8.8808Y-5.8028
X8.8808Y-5.9028
X8.8818Y-3.6038
X8.8818Y-3.7038
X8.8818Y-3.8038
X8.8818Y-3.9038
X8.8818Y-4.0038
X8.8818Y-4.1038
X8.8818Y-4.2038
X8.8818Y-4.3038
X8.8818Y-4.4038
X8.8818Y-4.5038
X8.8818Y-4.6038
X8.8818Y-4.7038
X8.8818Y-4.8038
X8.8818Y-4.9038
X8.8818Y-5.0038
X8.8818Y-5.1038
X8.8822Y-1.3867
X8.8822Y-1.4867
X8.8822Y-1.5867
X8.8822Y-1.6867
X8.8822Y-1.7867
X8.8822Y-1.8867
X8.8822Y-1.9867
X8.8822Y-2.0867
X8.8822Y-2.1867
X8.8822Y-2.2867
X8.8822Y-2.3867
X8.8822Y-2.4867
X8.8822Y-2.5867
X8.8822Y-2.6867
X8.8822Y-2.7867
X8.8822Y-2.8867
X8.8822Y-2.9867
X8.8822Y-3.0867
X8.8822Y-3.1867
X8.8822Y-3.2867
T6
X3.0924Y-4.9258
X3.0924Y-5.0258
X3.0924Y-5.1258
X3.8633Y-5.4683
X3.8633Y-5.8683
T5
G00X3.3633Y-5.6574
M15
G01X3.3633Y-5.7361
M16
G05
G00X3.442Y-5.8818
M15
G01X3.5208Y-5.8818
M16
G05
G00X3.5995Y-5.6574
M15
G01X3.5995Y-5.7361
M16
G05
T0
M30
