%TF.GenerationSoftware,KiCad,Pcbnew,(6.0.7)*%
%TF.CreationDate,2022-09-03T14:48:31-04:00*%
%TF.ProjectId,6502,36353032-2e6b-4696-9361-645f70636258,1.1*%
%TF.SameCoordinates,Original*%
%TF.FileFunction,Copper,L1,Top*%
%TF.FilePolarity,Positive*%
%FSLAX46Y46*%
G04 Gerber Fmt 4.6, Leading zero omitted, Abs format (unit mm)*
G04 Created by KiCad (PCBNEW (6.0.7)) date 2022-09-03 14:48:31*
%MOMM*%
%LPD*%
G01*
G04 APERTURE LIST*
G04 Aperture macros list*
%AMRoundRect*
0 Rectangle with rounded corners*
0 $1 Rounding radius*
0 $2 $3 $4 $5 $6 $7 $8 $9 X,Y pos of 4 corners*
0 Add a 4 corners polygon primitive as box body*
4,1,4,$2,$3,$4,$5,$6,$7,$8,$9,$2,$3,0*
0 Add four circle primitives for the rounded corners*
1,1,$1+$1,$2,$3*
1,1,$1+$1,$4,$5*
1,1,$1+$1,$6,$7*
1,1,$1+$1,$8,$9*
0 Add four rect primitives between the rounded corners*
20,1,$1+$1,$2,$3,$4,$5,0*
20,1,$1+$1,$4,$5,$6,$7,0*
20,1,$1+$1,$6,$7,$8,$9,0*
20,1,$1+$1,$8,$9,$2,$3,0*%
G04 Aperture macros list end*
%TA.AperFunction,ComponentPad*%
%ADD10C,1.200000*%
%TD*%
%TA.AperFunction,ComponentPad*%
%ADD11R,1.700000X1.700000*%
%TD*%
%TA.AperFunction,ComponentPad*%
%ADD12C,1.700000*%
%TD*%
%TA.AperFunction,ComponentPad*%
%ADD13O,1.700000X1.700000*%
%TD*%
%TA.AperFunction,ComponentPad*%
%ADD14R,1.600000X1.600000*%
%TD*%
%TA.AperFunction,ComponentPad*%
%ADD15O,1.600000X1.600000*%
%TD*%
%TA.AperFunction,ComponentPad*%
%ADD16C,1.600000*%
%TD*%
%TA.AperFunction,ComponentPad*%
%ADD17R,1.800000X1.800000*%
%TD*%
%TA.AperFunction,ComponentPad*%
%ADD18C,1.800000*%
%TD*%
%TA.AperFunction,ComponentPad*%
%ADD19RoundRect,0.875000X-0.875000X-0.875000X0.875000X-0.875000X0.875000X0.875000X-0.875000X0.875000X0*%
%TD*%
%TA.AperFunction,ComponentPad*%
%ADD20RoundRect,0.750000X-0.750000X-1.000000X0.750000X-1.000000X0.750000X1.000000X-0.750000X1.000000X0*%
%TD*%
%TA.AperFunction,ComponentPad*%
%ADD21R,3.500000X3.500000*%
%TD*%
%TA.AperFunction,ComponentPad*%
%ADD22C,1.440000*%
%TD*%
%TA.AperFunction,ComponentPad*%
%ADD23O,2.000000X1.905000*%
%TD*%
%TA.AperFunction,ComponentPad*%
%ADD24R,2.000000X1.905000*%
%TD*%
%TA.AperFunction,ComponentPad*%
%ADD25R,2.200000X2.200000*%
%TD*%
%TA.AperFunction,ComponentPad*%
%ADD26O,2.200000X2.200000*%
%TD*%
%TA.AperFunction,ViaPad*%
%ADD27C,0.800000*%
%TD*%
%TA.AperFunction,Conductor*%
%ADD28C,0.250000*%
%TD*%
%TA.AperFunction,Conductor*%
%ADD29C,1.000000*%
%TD*%
G04 APERTURE END LIST*
D10*
%TO.P,C1,1*%
%TO.N,Net-(C1-Pad1)*%
X79649400Y-116213400D03*
%TO.P,C1,2*%
%TO.N,GND*%
X79649400Y-114713400D03*
%TD*%
D11*
%TO.P,SW4,1,1*%
%TO.N,GND*%
X127016600Y-105932600D03*
D12*
X133516600Y-105932600D03*
%TO.P,SW4,2,2*%
%TO.N,/PA2*%
X127016600Y-110432600D03*
X133516600Y-110432600D03*
%TD*%
%TO.P,SW5,1,1*%
%TO.N,GND*%
X133516600Y-128432600D03*
D11*
X127016600Y-128432600D03*
D12*
%TO.P,SW5,2,2*%
%TO.N,/PA3*%
X133516600Y-132932600D03*
X127016600Y-132932600D03*
%TD*%
D11*
%TO.P,J5,1,Pin_1*%
%TO.N,/PA0*%
X225597800Y-91536600D03*
D13*
%TO.P,J5,2,Pin_2*%
%TO.N,/PA1*%
X225597800Y-94076600D03*
%TO.P,J5,3,Pin_3*%
%TO.N,/PA2*%
X225597800Y-96616600D03*
%TO.P,J5,4,Pin_4*%
%TO.N,/PA3*%
X225597800Y-99156600D03*
%TO.P,J5,5,Pin_5*%
%TO.N,/PA4*%
X225597800Y-101696600D03*
%TO.P,J5,6,Pin_6*%
%TO.N,/PA5*%
X225597800Y-104236600D03*
%TO.P,J5,7,Pin_7*%
%TO.N,/PA6*%
X225597800Y-106776600D03*
%TO.P,J5,8,Pin_8*%
%TO.N,/PA7*%
X225597800Y-109316600D03*
%TO.P,J5,9,Pin_9*%
%TO.N,/PB0*%
X225597800Y-111856600D03*
%TO.P,J5,10,Pin_10*%
%TO.N,/PB1*%
X225597800Y-114396600D03*
%TO.P,J5,11,Pin_11*%
%TO.N,/PB2*%
X225597800Y-116936600D03*
%TO.P,J5,12,Pin_12*%
%TO.N,/PB3*%
X225597800Y-119476600D03*
%TO.P,J5,13,Pin_13*%
%TO.N,/PB4*%
X225597800Y-122016600D03*
%TO.P,J5,14,Pin_14*%
%TO.N,/PB5*%
X225597800Y-124556600D03*
%TO.P,J5,15,Pin_15*%
%TO.N,/PB6*%
X225597800Y-127096600D03*
%TO.P,J5,16,Pin_16*%
%TO.N,/PB7*%
X225597800Y-129636600D03*
%TD*%
D11*
%TO.P,J2,1,Pin_1*%
%TO.N,VCC*%
X223067000Y-35222600D03*
D13*
%TO.P,J2,2,Pin_2*%
%TO.N,GND*%
X225607000Y-35222600D03*
%TO.P,J2,3,Pin_3*%
%TO.N,/A0*%
X223067000Y-37762600D03*
%TO.P,J2,4,Pin_4*%
%TO.N,/D0*%
X225607000Y-37762600D03*
%TO.P,J2,5,Pin_5*%
%TO.N,/A1*%
X223067000Y-40302600D03*
%TO.P,J2,6,Pin_6*%
%TO.N,/D1*%
X225607000Y-40302600D03*
%TO.P,J2,7,Pin_7*%
%TO.N,/A2*%
X223067000Y-42842600D03*
%TO.P,J2,8,Pin_8*%
%TO.N,/D2*%
X225607000Y-42842600D03*
%TO.P,J2,9,Pin_9*%
%TO.N,/A3*%
X223067000Y-45382600D03*
%TO.P,J2,10,Pin_10*%
%TO.N,/D3*%
X225607000Y-45382600D03*
%TO.P,J2,11,Pin_11*%
%TO.N,/A4*%
X223067000Y-47922600D03*
%TO.P,J2,12,Pin_12*%
%TO.N,/D4*%
X225607000Y-47922600D03*
%TO.P,J2,13,Pin_13*%
%TO.N,/A5*%
X223067000Y-50462600D03*
%TO.P,J2,14,Pin_14*%
%TO.N,/D5*%
X225607000Y-50462600D03*
%TO.P,J2,15,Pin_15*%
%TO.N,/A6*%
X223067000Y-53002600D03*
%TO.P,J2,16,Pin_16*%
%TO.N,/D6*%
X225607000Y-53002600D03*
%TO.P,J2,17,Pin_17*%
%TO.N,/A7*%
X223067000Y-55542600D03*
%TO.P,J2,18,Pin_18*%
%TO.N,/D7*%
X225607000Y-55542600D03*
%TO.P,J2,19,Pin_19*%
%TO.N,/A8*%
X223067000Y-58082600D03*
%TO.P,J2,20,Pin_20*%
%TO.N,/CB1*%
X225607000Y-58082600D03*
%TO.P,J2,21,Pin_21*%
%TO.N,/A9*%
X223067000Y-60622600D03*
%TO.P,J2,22,Pin_22*%
%TO.N,/CB2*%
X225607000Y-60622600D03*
%TO.P,J2,23,Pin_23*%
%TO.N,/A10*%
X223067000Y-63162600D03*
%TO.P,J2,24,Pin_24*%
%TO.N,unconnected-(J2-Pad24)*%
X225607000Y-63162600D03*
%TO.P,J2,25,Pin_25*%
%TO.N,/A11*%
X223067000Y-65702600D03*
%TO.P,J2,26,Pin_26*%
%TO.N,unconnected-(J2-Pad26)*%
X225607000Y-65702600D03*
%TO.P,J2,27,Pin_27*%
%TO.N,/A12*%
X223067000Y-68242600D03*
%TO.P,J2,28,Pin_28*%
%TO.N,unconnected-(J2-Pad28)*%
X225607000Y-68242600D03*
%TO.P,J2,29,Pin_29*%
%TO.N,/A13*%
X223067000Y-70782600D03*
%TO.P,J2,30,Pin_30*%
%TO.N,unconnected-(J2-Pad30)*%
X225607000Y-70782600D03*
%TO.P,J2,31,Pin_31*%
%TO.N,/A14*%
X223067000Y-73322600D03*
%TO.P,J2,32,Pin_32*%
%TO.N,/PHI1*%
X225607000Y-73322600D03*
%TO.P,J2,33,Pin_33*%
%TO.N,/A15*%
X223067000Y-75862600D03*
%TO.P,J2,34,Pin_34*%
%TO.N,/PHI2*%
X225607000Y-75862600D03*
%TO.P,J2,35,Pin_35*%
X223067000Y-78402600D03*
%TO.P,J2,36,Pin_36*%
%TO.N,/~{PHI2}*%
X225607000Y-78402600D03*
%TO.P,J2,37,Pin_37*%
%TO.N,/~{IRQ}*%
X223067000Y-80942600D03*
%TO.P,J2,38,Pin_38*%
%TO.N,/RDY*%
X225607000Y-80942600D03*
%TO.P,J2,39,Pin_39*%
%TO.N,/~{RW}*%
X223067000Y-83482600D03*
%TO.P,J2,40,Pin_40*%
%TO.N,VCC*%
X225607000Y-83482600D03*
%TD*%
D14*
%TO.P,U3,1,A14*%
%TO.N,/A14*%
X202058400Y-34756800D03*
D15*
%TO.P,U3,2,A12*%
%TO.N,/A12*%
X199518400Y-34756800D03*
%TO.P,U3,3,A7*%
%TO.N,/A7*%
X196978400Y-34756800D03*
%TO.P,U3,4,A6*%
%TO.N,/A6*%
X194438400Y-34756800D03*
%TO.P,U3,5,A5*%
%TO.N,/A5*%
X191898400Y-34756800D03*
%TO.P,U3,6,A4*%
%TO.N,/A4*%
X189358400Y-34756800D03*
%TO.P,U3,7,A3*%
%TO.N,/A3*%
X186818400Y-34756800D03*
%TO.P,U3,8,A2*%
%TO.N,/A2*%
X184278400Y-34756800D03*
%TO.P,U3,9,A1*%
%TO.N,/A1*%
X181738400Y-34756800D03*
%TO.P,U3,10,A0*%
%TO.N,/A0*%
X179198400Y-34756800D03*
%TO.P,U3,11,D0*%
%TO.N,/D0*%
X176658400Y-34756800D03*
%TO.P,U3,12,D1*%
%TO.N,/D1*%
X174118400Y-34756800D03*
%TO.P,U3,13,D2*%
%TO.N,/D2*%
X171578400Y-34756800D03*
%TO.P,U3,14,GND*%
%TO.N,GND*%
X169038400Y-34756800D03*
%TO.P,U3,15,D3*%
%TO.N,/D3*%
X169038400Y-49996800D03*
%TO.P,U3,16,D4*%
%TO.N,/D4*%
X171578400Y-49996800D03*
%TO.P,U3,17,D5*%
%TO.N,/D5*%
X174118400Y-49996800D03*
%TO.P,U3,18,D6*%
%TO.N,/D6*%
X176658400Y-49996800D03*
%TO.P,U3,19,D7*%
%TO.N,/D7*%
X179198400Y-49996800D03*
%TO.P,U3,20,~{CS}*%
%TO.N,/~{ROMCS}*%
X181738400Y-49996800D03*
%TO.P,U3,21,A10*%
%TO.N,/A10*%
X184278400Y-49996800D03*
%TO.P,U3,22,~{OE}*%
%TO.N,/~{ROMCS}*%
X186818400Y-49996800D03*
%TO.P,U3,23,A11*%
%TO.N,/A11*%
X189358400Y-49996800D03*
%TO.P,U3,24,A9*%
%TO.N,/A9*%
X191898400Y-49996800D03*
%TO.P,U3,25,A8*%
%TO.N,/A8*%
X194438400Y-49996800D03*
%TO.P,U3,26,A13*%
%TO.N,/A13*%
X196978400Y-49996800D03*
%TO.P,U3,27,~{WE}*%
%TO.N,VCC*%
X199518400Y-49996800D03*
%TO.P,U3,28,VCC*%
X202058400Y-49996800D03*
%TD*%
D16*
%TO.P,C11,1*%
%TO.N,GND*%
X155124200Y-33218200D03*
%TO.P,C11,2*%
%TO.N,VCC*%
X157624200Y-33218200D03*
%TD*%
D14*
%TO.P,U2,1,~{VP}*%
%TO.N,unconnected-(U2-Pad1)*%
X109372400Y-74574400D03*
D15*
%TO.P,U2,2,RDY*%
%TO.N,/RDY*%
X111912400Y-74574400D03*
%TO.P,U2,3,\u03D51*%
%TO.N,unconnected-(U2-Pad3)*%
X114452400Y-74574400D03*
%TO.P,U2,4,~{IRQ}*%
%TO.N,/~{IRQ}*%
X116992400Y-74574400D03*
%TO.P,U2,5,~{ML}*%
%TO.N,unconnected-(U2-Pad5)*%
X119532400Y-74574400D03*
%TO.P,U2,6,~{NMI}*%
%TO.N,VCC*%
X122072400Y-74574400D03*
%TO.P,U2,7,SYNC*%
%TO.N,unconnected-(U2-Pad7)*%
X124612400Y-74574400D03*
%TO.P,U2,8,VDD*%
%TO.N,VCC*%
X127152400Y-74574400D03*
%TO.P,U2,9,A0*%
%TO.N,/A0*%
X129692400Y-74574400D03*
%TO.P,U2,10,A1*%
%TO.N,/A1*%
X132232400Y-74574400D03*
%TO.P,U2,11,A2*%
%TO.N,/A2*%
X134772400Y-74574400D03*
%TO.P,U2,12,A3*%
%TO.N,/A3*%
X137312400Y-74574400D03*
%TO.P,U2,13,A4*%
%TO.N,/A4*%
X139852400Y-74574400D03*
%TO.P,U2,14,A5*%
%TO.N,/A5*%
X142392400Y-74574400D03*
%TO.P,U2,15,A6*%
%TO.N,/A6*%
X144932400Y-74574400D03*
%TO.P,U2,16,A7*%
%TO.N,/A7*%
X147472400Y-74574400D03*
%TO.P,U2,17,A8*%
%TO.N,/A8*%
X150012400Y-74574400D03*
%TO.P,U2,18,A9*%
%TO.N,/A9*%
X152552400Y-74574400D03*
%TO.P,U2,19,A10*%
%TO.N,/A10*%
X155092400Y-74574400D03*
%TO.P,U2,20,A11*%
%TO.N,/A11*%
X157632400Y-74574400D03*
%TO.P,U2,21,VSS*%
%TO.N,GND*%
X157632400Y-59334400D03*
%TO.P,U2,22,A12*%
%TO.N,/A12*%
X155092400Y-59334400D03*
%TO.P,U2,23,A13*%
%TO.N,/A13*%
X152552400Y-59334400D03*
%TO.P,U2,24,A14*%
%TO.N,/A14*%
X150012400Y-59334400D03*
%TO.P,U2,25,A15*%
%TO.N,/A15*%
X147472400Y-59334400D03*
%TO.P,U2,26,D7*%
%TO.N,/D7*%
X144932400Y-59334400D03*
%TO.P,U2,27,D6*%
%TO.N,/D6*%
X142392400Y-59334400D03*
%TO.P,U2,28,D5*%
%TO.N,/D5*%
X139852400Y-59334400D03*
%TO.P,U2,29,D4*%
%TO.N,/D4*%
X137312400Y-59334400D03*
%TO.P,U2,30,D3*%
%TO.N,/D3*%
X134772400Y-59334400D03*
%TO.P,U2,31,D2*%
%TO.N,/D2*%
X132232400Y-59334400D03*
%TO.P,U2,32,D1*%
%TO.N,/D1*%
X129692400Y-59334400D03*
%TO.P,U2,33,D0*%
%TO.N,/D0*%
X127152400Y-59334400D03*
%TO.P,U2,34,R/~{W}*%
%TO.N,/~{RW}*%
X124612400Y-59334400D03*
%TO.P,U2,35,nc*%
%TO.N,unconnected-(U2-Pad35)*%
X122072400Y-59334400D03*
%TO.P,U2,36,BE*%
%TO.N,/RDY*%
X119532400Y-59334400D03*
%TO.P,U2,37,\u03D50*%
%TO.N,/PHI2*%
X116992400Y-59334400D03*
%TO.P,U2,38,~{SO}*%
%TO.N,VCC*%
X114452400Y-59334400D03*
%TO.P,U2,39,\u03D52*%
%TO.N,unconnected-(U2-Pad39)*%
X111912400Y-59334400D03*
%TO.P,U2,40,~{RES}*%
%TO.N,/~{RES}*%
X109372400Y-59334400D03*
%TD*%
D17*
%TO.P,D2,1,K*%
%TO.N,Net-(D2-Pad1)*%
X97683400Y-114646400D03*
D18*
%TO.P,D2,2,A*%
%TO.N,VCC*%
X97683400Y-117186400D03*
%TD*%
D16*
%TO.P,C9,1*%
%TO.N,GND*%
X85277400Y-136155400D03*
%TO.P,C9,2*%
%TO.N,VCC*%
X82777400Y-136155400D03*
%TD*%
%TO.P,C5,1*%
%TO.N,GND*%
X207157400Y-97449400D03*
%TO.P,C5,2*%
%TO.N,VCC*%
X207157400Y-99949400D03*
%TD*%
%TO.P,R2,1*%
%TO.N,VCC*%
X87269400Y-119883000D03*
D15*
%TO.P,R2,2*%
%TO.N,/~{RES}*%
X87269400Y-109723000D03*
%TD*%
D16*
%TO.P,C4,1*%
%TO.N,GND*%
X207157400Y-72049400D03*
%TO.P,C4,2*%
%TO.N,VCC*%
X207157400Y-74549400D03*
%TD*%
D12*
%TO.P,SW2,1,1*%
%TO.N,GND*%
X120016600Y-117432600D03*
D11*
X113516600Y-117432600D03*
D12*
%TO.P,SW2,2,2*%
%TO.N,/PA0*%
X113516600Y-121932600D03*
X120016600Y-121932600D03*
%TD*%
D16*
%TO.P,R1,1*%
%TO.N,Net-(D2-Pad1)*%
X92095400Y-109723000D03*
D15*
%TO.P,R1,2*%
%TO.N,GND*%
X92095400Y-119883000D03*
%TD*%
D14*
%TO.P,U5,1,VSS*%
%TO.N,GND*%
X109372400Y-99974400D03*
D15*
%TO.P,U5,2,PA0*%
%TO.N,/PA0*%
X111912400Y-99974400D03*
%TO.P,U5,3,PA1*%
%TO.N,/PA1*%
X114452400Y-99974400D03*
%TO.P,U5,4,PA2*%
%TO.N,/PA2*%
X116992400Y-99974400D03*
%TO.P,U5,5,PA3*%
%TO.N,/PA3*%
X119532400Y-99974400D03*
%TO.P,U5,6,PA4*%
%TO.N,/PA4*%
X122072400Y-99974400D03*
%TO.P,U5,7,PA5*%
%TO.N,/PA5*%
X124612400Y-99974400D03*
%TO.P,U5,8,PA6*%
%TO.N,/PA6*%
X127152400Y-99974400D03*
%TO.P,U5,9,PA7*%
%TO.N,/PA7*%
X129692400Y-99974400D03*
%TO.P,U5,10,PB0*%
%TO.N,/PB0*%
X132232400Y-99974400D03*
%TO.P,U5,11,PB1*%
%TO.N,/PB1*%
X134772400Y-99974400D03*
%TO.P,U5,12,PB2*%
%TO.N,/PB2*%
X137312400Y-99974400D03*
%TO.P,U5,13,PB3*%
%TO.N,/PB3*%
X139852400Y-99974400D03*
%TO.P,U5,14,PB4*%
%TO.N,/PB4*%
X142392400Y-99974400D03*
%TO.P,U5,15,PB5*%
%TO.N,/PB5*%
X144932400Y-99974400D03*
%TO.P,U5,16,PB6*%
%TO.N,/PB6*%
X147472400Y-99974400D03*
%TO.P,U5,17,PB7*%
%TO.N,/PB7*%
X150012400Y-99974400D03*
%TO.P,U5,18,CB1*%
%TO.N,/CB1*%
X152552400Y-99974400D03*
%TO.P,U5,19,CB2*%
%TO.N,/CB2*%
X155092400Y-99974400D03*
%TO.P,U5,20,VCC*%
%TO.N,VCC*%
X157632400Y-99974400D03*
%TO.P,U5,21,~{IRQ}*%
%TO.N,/~{IRQ}*%
X157632400Y-84734400D03*
%TO.P,U5,22,R/~{W}*%
%TO.N,/~{RW}*%
X155092400Y-84734400D03*
%TO.P,U5,23,~{CS2}*%
%TO.N,/~{VIACS2}*%
X152552400Y-84734400D03*
%TO.P,U5,24,CS1*%
%TO.N,/A13*%
X150012400Y-84734400D03*
%TO.P,U5,25,\u03D52*%
%TO.N,/PHI2*%
X147472400Y-84734400D03*
%TO.P,U5,26,D7*%
%TO.N,/D7*%
X144932400Y-84734400D03*
%TO.P,U5,27,D6*%
%TO.N,/D6*%
X142392400Y-84734400D03*
%TO.P,U5,28,D5*%
%TO.N,/D5*%
X139852400Y-84734400D03*
%TO.P,U5,29,D4*%
%TO.N,/D4*%
X137312400Y-84734400D03*
%TO.P,U5,30,D3*%
%TO.N,/D3*%
X134772400Y-84734400D03*
%TO.P,U5,31,D2*%
%TO.N,/D2*%
X132232400Y-84734400D03*
%TO.P,U5,32,D1*%
%TO.N,/D1*%
X129692400Y-84734400D03*
%TO.P,U5,33,D0*%
%TO.N,/D0*%
X127152400Y-84734400D03*
%TO.P,U5,34,~{RES}*%
%TO.N,/~{RES}*%
X124612400Y-84734400D03*
%TO.P,U5,35,RS3*%
%TO.N,/A3*%
X122072400Y-84734400D03*
%TO.P,U5,36,RS2*%
%TO.N,/A2*%
X119532400Y-84734400D03*
%TO.P,U5,37,RS1*%
%TO.N,/A1*%
X116992400Y-84734400D03*
%TO.P,U5,38,RS0*%
%TO.N,/A0*%
X114452400Y-84734400D03*
%TO.P,U5,39,CA2*%
%TO.N,/CA2*%
X111912400Y-84734400D03*
%TO.P,U5,40,CA1*%
%TO.N,/CA1*%
X109372400Y-84734400D03*
%TD*%
D14*
%TO.P,X2,1,EN*%
%TO.N,unconnected-(X2-Pad1)*%
X92197000Y-58618200D03*
D16*
%TO.P,X2,7,GND*%
%TO.N,GND*%
X92197000Y-43378200D03*
%TO.P,X2,8,OUT*%
%TO.N,/PHI3*%
X84577000Y-43378200D03*
%TO.P,X2,14,Vcc*%
%TO.N,VCC*%
X84577000Y-58618200D03*
%TD*%
D19*
%TO.P,J1,3*%
%TO.N,N/C*%
X88427400Y-149397900D03*
D20*
%TO.P,J1,2*%
%TO.N,GND*%
X85427400Y-144697900D03*
D21*
%TO.P,J1,1*%
%TO.N,Net-(D1-Pad2)*%
X91427400Y-144697900D03*
%TD*%
D16*
%TO.P,R4,1*%
%TO.N,VCC*%
X153766600Y-116662600D03*
D15*
%TO.P,R4,2*%
%TO.N,/PA1*%
X163926600Y-116662600D03*
%TD*%
D16*
%TO.P,C3,1*%
%TO.N,GND*%
X103022400Y-97454400D03*
%TO.P,C3,2*%
%TO.N,VCC*%
X103022400Y-99954400D03*
%TD*%
D12*
%TO.P,SW3,1,1*%
%TO.N,GND*%
X146016600Y-117682600D03*
D11*
X139516600Y-117682600D03*
D12*
%TO.P,SW3,2,2*%
%TO.N,/PA1*%
X146016600Y-122182600D03*
X139516600Y-122182600D03*
%TD*%
D15*
%TO.P,U9,14,VCC*%
%TO.N,VCC*%
X117014200Y-38039200D03*
%TO.P,U9,13*%
%TO.N,GND*%
X117014200Y-40579200D03*
%TO.P,U9,12*%
X117014200Y-43119200D03*
%TO.P,U9,11*%
%TO.N,unconnected-(U9-Pad11)*%
X117014200Y-45659200D03*
%TO.P,U9,10*%
%TO.N,GND*%
X117014200Y-48199200D03*
%TO.P,U9,9*%
X117014200Y-50739200D03*
%TO.P,U9,8*%
%TO.N,unconnected-(U9-Pad8)*%
X117014200Y-53279200D03*
%TO.P,U9,7,GND*%
%TO.N,GND*%
X109394200Y-53279200D03*
%TO.P,U9,6*%
%TO.N,unconnected-(U9-Pad6)*%
X109394200Y-50739200D03*
%TO.P,U9,5*%
%TO.N,GND*%
X109394200Y-48199200D03*
%TO.P,U9,4*%
X109394200Y-45659200D03*
%TO.P,U9,3*%
%TO.N,/~{ACIACS}*%
X109394200Y-43119200D03*
%TO.P,U9,2*%
%TO.N,/A13*%
X109394200Y-40579200D03*
D14*
%TO.P,U9,1*%
X109394200Y-38039200D03*
%TD*%
D22*
%TO.P,RV1,1,1*%
%TO.N,/CNTRST*%
X177236200Y-147467400D03*
%TO.P,RV1,2,2*%
%TO.N,GND*%
X174696200Y-147467400D03*
%TO.P,RV1,3,3*%
%TO.N,unconnected-(RV1-Pad3)*%
X172156200Y-147467400D03*
%TD*%
D16*
%TO.P,C7,1*%
%TO.N,GND*%
X93873400Y-99949400D03*
%TO.P,C7,2*%
%TO.N,/~{RES}*%
X93873400Y-97449400D03*
%TD*%
D13*
%TO.P,J4,6,Pin_6*%
%TO.N,GND*%
X225572000Y-149930800D03*
%TO.P,J4,5,Pin_5*%
%TO.N,/~{UART_RTS}*%
X225572000Y-147390800D03*
%TO.P,J4,4,Pin_4*%
%TO.N,unconnected-(J4-Pad4)*%
X225572000Y-144850800D03*
%TO.P,J4,3,Pin_3*%
%TO.N,/UART_RX*%
X225572000Y-142310800D03*
%TO.P,J4,2,Pin_2*%
%TO.N,/UART_TX*%
X225572000Y-139770800D03*
D11*
%TO.P,J4,1,Pin_1*%
%TO.N,GND*%
X225572000Y-137230800D03*
%TD*%
D16*
%TO.P,C12,1*%
%TO.N,GND*%
X207128200Y-50134200D03*
%TO.P,C12,2*%
%TO.N,VCC*%
X207128200Y-47634200D03*
%TD*%
%TO.P,C6,1*%
%TO.N,GND*%
X134773400Y-33218200D03*
%TO.P,C6,2*%
%TO.N,VCC*%
X137273400Y-33218200D03*
%TD*%
D14*
%TO.P,U7,1*%
%TO.N,/PHI2*%
X129739600Y-38039200D03*
D15*
%TO.P,U7,2*%
X129739600Y-40579200D03*
%TO.P,U7,3*%
%TO.N,/~{PHI2}*%
X129739600Y-43119200D03*
%TO.P,U7,4*%
%TO.N,Net-(U7-Pad11)*%
X129739600Y-45659200D03*
%TO.P,U7,5*%
X129739600Y-48199200D03*
%TO.P,U7,6*%
%TO.N,/~{RAMCS}*%
X129739600Y-50739200D03*
%TO.P,U7,7,GND*%
%TO.N,GND*%
X129739600Y-53279200D03*
%TO.P,U7,8*%
%TO.N,Net-(U7-Pad12)*%
X137359600Y-53279200D03*
%TO.P,U7,9*%
%TO.N,/PHI2*%
X137359600Y-50739200D03*
%TO.P,U7,10*%
%TO.N,/~{A14}*%
X137359600Y-48199200D03*
%TO.P,U7,11*%
%TO.N,Net-(U7-Pad11)*%
X137359600Y-45659200D03*
%TO.P,U7,12*%
%TO.N,Net-(U7-Pad12)*%
X137359600Y-43119200D03*
%TO.P,U7,13*%
%TO.N,/RDY*%
X137359600Y-40579200D03*
%TO.P,U7,14,VCC*%
%TO.N,VCC*%
X137359600Y-38039200D03*
%TD*%
D16*
%TO.P,C2,1*%
%TO.N,VCC*%
X103327200Y-72206800D03*
%TO.P,C2,2*%
%TO.N,GND*%
X103327200Y-74706800D03*
%TD*%
%TO.P,R3,1*%
%TO.N,VCC*%
X153766600Y-109682600D03*
D15*
%TO.P,R3,2*%
%TO.N,/PA0*%
X163926600Y-109682600D03*
%TD*%
%TO.P,U6,14,VCC*%
%TO.N,VCC*%
X157705000Y-38039200D03*
%TO.P,U6,13*%
%TO.N,/A15*%
X157705000Y-40579200D03*
%TO.P,U6,12*%
%TO.N,/A14*%
X157705000Y-43119200D03*
%TO.P,U6,11*%
%TO.N,/~{ROMCS}*%
X157705000Y-45659200D03*
%TO.P,U6,10*%
%TO.N,/A15*%
X157705000Y-48199200D03*
%TO.P,U6,9*%
X157705000Y-50739200D03*
%TO.P,U6,8*%
%TO.N,/~{A15}*%
X157705000Y-53279200D03*
%TO.P,U6,7,GND*%
%TO.N,GND*%
X150085000Y-53279200D03*
%TO.P,U6,6*%
%TO.N,/~{VIACS2}*%
X150085000Y-50739200D03*
%TO.P,U6,5*%
%TO.N,/~{A15}*%
X150085000Y-48199200D03*
%TO.P,U6,4*%
%TO.N,/A14*%
X150085000Y-45659200D03*
%TO.P,U6,3*%
%TO.N,/~{A14}*%
X150085000Y-43119200D03*
%TO.P,U6,2*%
%TO.N,/A14*%
X150085000Y-40579200D03*
D14*
%TO.P,U6,1*%
X150085000Y-38039200D03*
%TD*%
D12*
%TO.P,SW1,1,1*%
%TO.N,GND*%
X83227400Y-103535400D03*
D11*
X83227400Y-97035400D03*
D12*
%TO.P,SW1,2,2*%
%TO.N,/~{RES}*%
X78727400Y-97035400D03*
X78727400Y-103535400D03*
%TD*%
D16*
%TO.P,R5,1*%
%TO.N,VCC*%
X153766600Y-123662600D03*
D15*
%TO.P,R5,2*%
%TO.N,/PA2*%
X163926600Y-123662600D03*
%TD*%
D14*
%TO.P,U4,1,A14*%
%TO.N,/A15*%
X202092400Y-59324400D03*
D15*
%TO.P,U4,2,A12*%
%TO.N,/A12*%
X199552400Y-59324400D03*
%TO.P,U4,3,A7*%
%TO.N,/A7*%
X197012400Y-59324400D03*
%TO.P,U4,4,A6*%
%TO.N,/A6*%
X194472400Y-59324400D03*
%TO.P,U4,5,A5*%
%TO.N,/A5*%
X191932400Y-59324400D03*
%TO.P,U4,6,A4*%
%TO.N,/A4*%
X189392400Y-59324400D03*
%TO.P,U4,7,A3*%
%TO.N,/A3*%
X186852400Y-59324400D03*
%TO.P,U4,8,A2*%
%TO.N,/A2*%
X184312400Y-59324400D03*
%TO.P,U4,9,A1*%
%TO.N,/A1*%
X181772400Y-59324400D03*
%TO.P,U4,10,A0*%
%TO.N,/A0*%
X179232400Y-59324400D03*
%TO.P,U4,11,Q0*%
%TO.N,/D0*%
X176692400Y-59324400D03*
%TO.P,U4,12,Q1*%
%TO.N,/D1*%
X174152400Y-59324400D03*
%TO.P,U4,13,Q2*%
%TO.N,/D2*%
X171612400Y-59324400D03*
%TO.P,U4,14,GND*%
%TO.N,GND*%
X169072400Y-59324400D03*
%TO.P,U4,15,Q3*%
%TO.N,/D3*%
X169072400Y-74564400D03*
%TO.P,U4,16,Q4*%
%TO.N,/D4*%
X171612400Y-74564400D03*
%TO.P,U4,17,Q5*%
%TO.N,/D5*%
X174152400Y-74564400D03*
%TO.P,U4,18,Q6*%
%TO.N,/D6*%
X176692400Y-74564400D03*
%TO.P,U4,19,Q7*%
%TO.N,/D7*%
X179232400Y-74564400D03*
%TO.P,U4,20,~{CS}*%
%TO.N,/~{RAMCS}*%
X181772400Y-74564400D03*
%TO.P,U4,21,A10*%
%TO.N,/A10*%
X184312400Y-74564400D03*
%TO.P,U4,22,~{OE}*%
%TO.N,/A14*%
X186852400Y-74564400D03*
%TO.P,U4,23,A11*%
%TO.N,/A11*%
X189392400Y-74564400D03*
%TO.P,U4,24,A9*%
%TO.N,/A9*%
X191932400Y-74564400D03*
%TO.P,U4,25,A8*%
%TO.N,/A8*%
X194472400Y-74564400D03*
%TO.P,U4,26,A13*%
%TO.N,/A13*%
X197012400Y-74564400D03*
%TO.P,U4,27,~{WE}*%
%TO.N,/~{RW}*%
X199552400Y-74564400D03*
%TO.P,U4,28,VCC*%
%TO.N,VCC*%
X202092400Y-74564400D03*
%TD*%
D14*
%TO.P,U8,1,VSS*%
%TO.N,GND*%
X202072400Y-84724400D03*
D15*
%TO.P,U8,2,CS0*%
%TO.N,/~{ACIACS}*%
X199532400Y-84724400D03*
%TO.P,U8,3,~{CS1}*%
%TO.N,/~{VIACS2}*%
X196992400Y-84724400D03*
%TO.P,U8,4,~{RES}*%
%TO.N,/~{RES}*%
X194452400Y-84724400D03*
%TO.P,U8,5,RxC*%
%TO.N,unconnected-(U8-Pad5)*%
X191912400Y-84724400D03*
%TO.P,U8,6,XTLI*%
%TO.N,/PHI3*%
X189372400Y-84724400D03*
%TO.P,U8,7,XTLO*%
%TO.N,unconnected-(U8-Pad7)*%
X186832400Y-84724400D03*
%TO.P,U8,8,~{RTS}*%
%TO.N,/~{UART_RTS}*%
X184292400Y-84724400D03*
%TO.P,U8,9,~{CTS}*%
%TO.N,GND*%
X181752400Y-84724400D03*
%TO.P,U8,10,TxD*%
%TO.N,/UART_TX*%
X179212400Y-84724400D03*
%TO.P,U8,11,~{DTR}*%
%TO.N,GND*%
X176672400Y-84724400D03*
%TO.P,U8,12,RxD*%
%TO.N,/UART_RX*%
X174132400Y-84724400D03*
%TO.P,U8,13,RS0*%
%TO.N,/A0*%
X171592400Y-84724400D03*
%TO.P,U8,14,RS1*%
%TO.N,/A1*%
X169052400Y-84724400D03*
%TO.P,U8,15,VCC*%
%TO.N,VCC*%
X169052400Y-99964400D03*
%TO.P,U8,16,~{DCD}*%
%TO.N,GND*%
X171592400Y-99964400D03*
%TO.P,U8,17,~{DSR}*%
X174132400Y-99964400D03*
%TO.P,U8,18,D0*%
%TO.N,/D0*%
X176672400Y-99964400D03*
%TO.P,U8,19,D1*%
%TO.N,/D1*%
X179212400Y-99964400D03*
%TO.P,U8,20,D2*%
%TO.N,/D2*%
X181752400Y-99964400D03*
%TO.P,U8,21,D3*%
%TO.N,/D3*%
X184292400Y-99964400D03*
%TO.P,U8,22,D4*%
%TO.N,/D4*%
X186832400Y-99964400D03*
%TO.P,U8,23,D5*%
%TO.N,/D5*%
X189372400Y-99964400D03*
%TO.P,U8,24,D6*%
%TO.N,/D6*%
X191912400Y-99964400D03*
%TO.P,U8,25,D7*%
%TO.N,/D7*%
X194452400Y-99964400D03*
%TO.P,U8,26,~{IRQ}*%
%TO.N,/~{IRQ}*%
X196992400Y-99964400D03*
%TO.P,U8,27,\u03D52*%
%TO.N,/PHI2*%
X199532400Y-99964400D03*
%TO.P,U8,28,R/~{W}*%
%TO.N,/~{RW}*%
X202072400Y-99964400D03*
%TD*%
D14*
%TO.P,X1,1,EN*%
%TO.N,unconnected-(X1-Pad1)*%
X92298600Y-84678600D03*
D16*
%TO.P,X1,7,GND*%
%TO.N,GND*%
X92298600Y-69438600D03*
%TO.P,X1,8,OUT*%
%TO.N,/PHI1*%
X84678600Y-69438600D03*
%TO.P,X1,14,Vcc*%
%TO.N,VCC*%
X84678600Y-84678600D03*
%TD*%
%TO.P,C10,1*%
%TO.N,/PHI3*%
X189366600Y-80005000D03*
%TO.P,C10,2*%
%TO.N,GND*%
X194366600Y-80005000D03*
%TD*%
%TO.P,C8,1*%
%TO.N,GND*%
X114535000Y-33218200D03*
%TO.P,C8,2*%
%TO.N,VCC*%
X117035000Y-33218200D03*
%TD*%
D23*
%TO.P,U1,3,OUT*%
%TO.N,VCC*%
X78547400Y-130195400D03*
%TO.P,U1,2,GND*%
%TO.N,GND*%
X78547400Y-127655400D03*
D24*
%TO.P,U1,1,IN*%
%TO.N,Net-(C1-Pad1)*%
X78547400Y-125115400D03*
%TD*%
D16*
%TO.P,R6,1*%
%TO.N,VCC*%
X153766600Y-130662600D03*
D15*
%TO.P,R6,2*%
%TO.N,/PA3*%
X163926600Y-130662600D03*
%TD*%
D25*
%TO.P,D1,1,K*%
%TO.N,Net-(C1-Pad1)*%
X98127400Y-138895400D03*
D26*
%TO.P,D1,2,A*%
%TO.N,Net-(D1-Pad2)*%
X98127400Y-149055400D03*
%TD*%
D11*
%TO.P,J3,1,Pin_1*%
%TO.N,GND*%
X116733400Y-145740200D03*
D13*
%TO.P,J3,2,Pin_2*%
%TO.N,VCC*%
X119273400Y-145740200D03*
%TO.P,J3,3,Pin_3*%
%TO.N,/CNTRST*%
X121813400Y-145740200D03*
%TO.P,J3,4,Pin_4*%
%TO.N,/PA5*%
X124353400Y-145740200D03*
%TO.P,J3,5,Pin_5*%
%TO.N,/PA6*%
X126893400Y-145740200D03*
%TO.P,J3,6,Pin_6*%
%TO.N,/PA7*%
X129433400Y-145740200D03*
%TO.P,J3,7,Pin_7*%
%TO.N,/PB0*%
X131973400Y-145740200D03*
%TO.P,J3,8,Pin_8*%
%TO.N,/PB1*%
X134513400Y-145740200D03*
%TO.P,J3,9,Pin_9*%
%TO.N,/PB2*%
X137053400Y-145740200D03*
%TO.P,J3,10,Pin_10*%
%TO.N,/PB3*%
X139593400Y-145740200D03*
%TO.P,J3,11,Pin_11*%
%TO.N,/PB4*%
X142133400Y-145740200D03*
%TO.P,J3,12,Pin_12*%
%TO.N,/PB5*%
X144673400Y-145740200D03*
%TO.P,J3,13,Pin_13*%
%TO.N,/PB6*%
X147213400Y-145740200D03*
%TO.P,J3,14,Pin_14*%
%TO.N,/PB7*%
X149753400Y-145740200D03*
%TO.P,J3,15,Pin_15*%
%TO.N,VCC*%
X152293400Y-145740200D03*
%TO.P,J3,16,Pin_16*%
%TO.N,GND*%
X154833400Y-145740200D03*
%TD*%
D27*
%TO.N,/UART_RX*%
X211696700Y-108645900D03*
%TO.N,/UART_TX*%
X210780000Y-107918000D03*
X208164000Y-116059200D03*
%TO.N,/PHI3*%
X90776000Y-43570200D03*
%TO.N,/~{UART_RTS}*%
X214424600Y-104248700D03*
%TO.N,/~{PHI2}*%
X152882400Y-32598300D03*
%TO.N,/PA4*%
X195880200Y-104410900D03*
X213251200Y-105532000D03*
%TO.N,/PA3*%
X120238900Y-111057100D03*
X180297300Y-115417200D03*
%TO.N,/PA2*%
X175444600Y-113269900D03*
%TO.N,/PA1*%
X131186000Y-111057100D03*
%TO.N,/~{RAMCS}*%
X143055900Y-72032400D03*
%TO.N,/PA0*%
X112841000Y-111057100D03*
%TO.N,/PB7*%
X152272700Y-116200300D03*
X150008100Y-111057100D03*
%TO.N,/PB6*%
X149834500Y-113277700D03*
X148562800Y-111057100D03*
%TO.N,/PB5*%
X143030500Y-111057100D03*
X151762800Y-119631600D03*
%TO.N,/PHI2*%
X214398200Y-84056400D03*
%TO.N,/PB4*%
X142320800Y-110352100D03*
X148793100Y-116316600D03*
%TO.N,/~{RW}*%
X154591100Y-65379000D03*
X213203100Y-87145000D03*
%TO.N,/D1*%
X168014700Y-56725900D03*
X168292100Y-54954000D03*
%TO.N,/D3*%
X212509200Y-46664000D03*
X167925200Y-58481200D03*
%TO.N,/D4*%
X212262400Y-47668600D03*
%TO.N,/D5*%
X143764400Y-73008300D03*
X213081100Y-49014900D03*
X142761500Y-76531100D03*
%TO.N,/D6*%
X212233400Y-51827300D03*
%TO.N,/D7*%
X212255100Y-54367300D03*
%TO.N,/A15*%
X212227100Y-68864700D03*
%TO.N,/A14*%
X185798700Y-62812700D03*
%TO.N,/A13*%
X149248600Y-55156400D03*
X212869900Y-69715200D03*
%TO.N,/A12*%
X212933600Y-66335400D03*
%TO.N,/A11*%
X214428000Y-64527300D03*
%TO.N,/A10*%
X213660300Y-65205900D03*
%TO.N,/A9*%
X212257100Y-58064100D03*
%TO.N,/A8*%
X213263200Y-58114500D03*
%TO.N,/A7*%
X148016800Y-64653700D03*
%TO.N,/A6*%
X193073100Y-77570100D03*
%TO.N,/A5*%
X191311800Y-70565500D03*
%TO.N,/A4*%
X189159400Y-68845200D03*
%TO.N,/PB3*%
X141553200Y-113266400D03*
X141245200Y-111036400D03*
%TO.N,/~{IRQ}*%
X186183000Y-87060100D03*
X212251700Y-83641500D03*
%TO.N,/PB2*%
X219010000Y-120807300D03*
X140811300Y-114248500D03*
X138714400Y-111042400D03*
%TO.N,/PB1*%
X137248700Y-113293900D03*
X135099400Y-111015000D03*
X217666400Y-121111600D03*
%TO.N,/PB0*%
X130083100Y-111046500D03*
%TO.N,/PA7*%
X129337400Y-110377100D03*
X211567300Y-122284200D03*
%TO.N,/PA6*%
X124847600Y-109648800D03*
%TO.N,/PA5*%
X121639000Y-109018000D03*
%TO.N,/RDY*%
X205058700Y-32577500D03*
%TO.N,/PHI1*%
X214414400Y-74623000D03*
X189395700Y-86334800D03*
%TO.N,/CB2*%
X169272300Y-109482800D03*
%TO.N,/CB1*%
X197471600Y-101622400D03*
X214439100Y-82531300D03*
%TO.N,/A3*%
X185052800Y-66064600D03*
%TO.N,/A2*%
X181091400Y-66026200D03*
%TO.N,/A1*%
X177859800Y-78295400D03*
%TO.N,GND*%
X212320900Y-44567200D03*
%TD*%
D28*
%TO.N,/UART_RX*%
X225939300Y-141135500D02*
X225572000Y-141135500D01*
X227234800Y-139840000D02*
X225939300Y-141135500D01*
X227234800Y-104158600D02*
X227234800Y-139840000D01*
X226132600Y-103056400D02*
X227234800Y-104158600D01*
X222914800Y-103056400D02*
X226132600Y-103056400D01*
X217325300Y-108645900D02*
X222914800Y-103056400D01*
X211696700Y-108645900D02*
X217325300Y-108645900D01*
X225572000Y-142310800D02*
X225572000Y-141135500D01*
%TO.N,/UART_TX*%
X208164000Y-110534000D02*
X208164000Y-116059200D01*
X210780000Y-107918000D02*
X208164000Y-110534000D01*
%TO.N,/PHI3*%
X189372400Y-84724400D02*
X188247100Y-84724400D01*
X107864500Y-60658700D02*
X90776000Y-43570200D01*
X114838600Y-60658700D02*
X107864500Y-60658700D01*
X128422400Y-74242500D02*
X114838600Y-60658700D01*
X128422400Y-74973500D02*
X128422400Y-74242500D01*
X135260100Y-81811200D02*
X128422400Y-74973500D01*
X163179700Y-81811200D02*
X135260100Y-81811200D01*
X167689100Y-86320600D02*
X163179700Y-81811200D01*
X185259900Y-86320600D02*
X167689100Y-86320600D01*
X185696000Y-85884500D02*
X185259900Y-86320600D01*
X187368300Y-85884500D02*
X185696000Y-85884500D01*
X188247100Y-85005700D02*
X187368300Y-85884500D01*
X188247100Y-84724400D02*
X188247100Y-85005700D01*
%TO.N,/~{ACIACS}*%
X199532400Y-84724400D02*
X199532400Y-83599100D01*
X109394200Y-43119200D02*
X109394200Y-44244500D01*
X109675500Y-44244500D02*
X109394200Y-44244500D01*
X115805700Y-50374700D02*
X109675500Y-44244500D01*
X115805700Y-59770600D02*
X115805700Y-50374700D01*
X122141500Y-66106400D02*
X115805700Y-59770600D01*
X155967500Y-66106400D02*
X122141500Y-66106400D01*
X156773000Y-65300900D02*
X155967500Y-66106400D01*
X187126700Y-65300900D02*
X156773000Y-65300900D01*
X195742400Y-73916600D02*
X187126700Y-65300900D01*
X195742400Y-79809100D02*
X195742400Y-73916600D01*
X199532400Y-83599100D02*
X195742400Y-79809100D01*
%TO.N,/~{UART_RTS}*%
X225572000Y-147390800D02*
X225572000Y-146215500D01*
X218160000Y-100513300D02*
X214424600Y-104248700D01*
X226094000Y-100513300D02*
X218160000Y-100513300D01*
X227698700Y-102118000D02*
X226094000Y-100513300D01*
X227698700Y-144456100D02*
X227698700Y-102118000D01*
X225939300Y-146215500D02*
X227698700Y-144456100D01*
X225572000Y-146215500D02*
X225939300Y-146215500D01*
%TO.N,/~{PHI2}*%
X144460600Y-32598300D02*
X152882400Y-32598300D01*
X137749700Y-39309200D02*
X144460600Y-32598300D01*
X134674900Y-39309200D02*
X137749700Y-39309200D01*
X130864900Y-43119200D02*
X134674900Y-39309200D01*
X129739600Y-43119200D02*
X130864900Y-43119200D01*
%TO.N,Net-(U7-Pad11)*%
X137359600Y-45659200D02*
X129739600Y-45659200D01*
%TO.N,/~{A15}*%
X156290300Y-53279200D02*
X157705000Y-53279200D01*
X151210300Y-48199200D02*
X156290300Y-53279200D01*
X150085000Y-48199200D02*
X151210300Y-48199200D01*
%TO.N,/~{A14}*%
X143879700Y-48199200D02*
X137359600Y-48199200D01*
X148959700Y-43119200D02*
X143879700Y-48199200D01*
X150085000Y-43119200D02*
X148959700Y-43119200D01*
%TO.N,/~{VIACS2}*%
X153677700Y-85015700D02*
X153677700Y-84734400D01*
X156903900Y-88241900D02*
X153677700Y-85015700D01*
X192604100Y-88241900D02*
X156903900Y-88241900D01*
X195867100Y-84978900D02*
X192604100Y-88241900D01*
X195867100Y-84724400D02*
X195867100Y-84978900D01*
X196992400Y-84724400D02*
X195867100Y-84724400D01*
X152552400Y-84734400D02*
X153677700Y-84734400D01*
%TO.N,/PA4*%
X127352900Y-104410900D02*
X195880200Y-104410900D01*
X123197700Y-100255700D02*
X127352900Y-104410900D01*
X123197700Y-99974400D02*
X123197700Y-100255700D01*
X221435500Y-101696600D02*
X225597800Y-101696600D01*
X217600100Y-105532000D02*
X221435500Y-101696600D01*
X213251200Y-105532000D02*
X217600100Y-105532000D01*
X122072400Y-99974400D02*
X123197700Y-99974400D01*
%TO.N,/PA3*%
X160531300Y-132932600D02*
X133516600Y-132932600D01*
X162801300Y-130662600D02*
X160531300Y-132932600D01*
X163926600Y-130662600D02*
X162801300Y-130662600D01*
X125841200Y-116659400D02*
X120238900Y-111057100D01*
X125841200Y-131757200D02*
X125841200Y-116659400D01*
X127016600Y-132932600D02*
X125841200Y-131757200D01*
X218491000Y-99156600D02*
X225597800Y-99156600D01*
X202230400Y-115417200D02*
X218491000Y-99156600D01*
X180297300Y-115417200D02*
X202230400Y-115417200D01*
%TO.N,/PA2*%
X225597800Y-96616600D02*
X224422500Y-96616600D01*
X127802700Y-109646500D02*
X127016600Y-110432600D01*
X132730500Y-109646500D02*
X127802700Y-109646500D01*
X133516600Y-110432600D02*
X132730500Y-109646500D01*
X163926600Y-123662600D02*
X162801300Y-123662600D01*
X161676000Y-122537300D02*
X162801300Y-123662600D01*
X148945500Y-122537300D02*
X161676000Y-122537300D01*
X142108800Y-115700600D02*
X148945500Y-122537300D01*
X138571900Y-115700600D02*
X142108800Y-115700600D01*
X133516600Y-110645300D02*
X138571900Y-115700600D01*
X133516600Y-110432600D02*
X133516600Y-110645300D01*
X224422500Y-96616700D02*
X224422500Y-96616600D01*
X220394000Y-96616700D02*
X224422500Y-96616700D01*
X203740800Y-113269900D02*
X220394000Y-96616700D01*
X175444600Y-113269900D02*
X203740800Y-113269900D01*
%TO.N,/PA1*%
X146016600Y-122182600D02*
X139516600Y-122182600D01*
X131186000Y-113852000D02*
X131186000Y-111057100D01*
X139516600Y-122182600D02*
X131186000Y-113852000D01*
X222267300Y-94076600D02*
X225597800Y-94076600D01*
X205311300Y-111032600D02*
X222267300Y-94076600D01*
X170681900Y-111032600D02*
X205311300Y-111032600D01*
X165051900Y-116662600D02*
X170681900Y-111032600D01*
X163926600Y-116662600D02*
X165051900Y-116662600D01*
%TO.N,/~{RAMCS}*%
X178396400Y-72032400D02*
X143055900Y-72032400D01*
X180647100Y-74283100D02*
X178396400Y-72032400D01*
X180647100Y-74564400D02*
X180647100Y-74283100D01*
X181772400Y-74564400D02*
X180647100Y-74564400D01*
%TO.N,/PA0*%
X223533500Y-91536600D02*
X225597800Y-91536600D01*
X206322000Y-108748100D02*
X223533500Y-91536600D01*
X165986400Y-108748100D02*
X206322000Y-108748100D01*
X165051900Y-109682600D02*
X165986400Y-108748100D01*
X163926600Y-109682600D02*
X165051900Y-109682600D01*
X112341200Y-120757200D02*
X113516600Y-121932600D01*
X112341200Y-111556900D02*
X112341200Y-120757200D01*
X112841000Y-111057100D02*
X112341200Y-111556900D01*
X120016600Y-121932600D02*
X113516600Y-121932600D01*
%TO.N,/PB7*%
X152272700Y-113321700D02*
X150008100Y-111057100D01*
X152272700Y-116200300D02*
X152272700Y-113321700D01*
X209494200Y-144564900D02*
X224422500Y-129636600D01*
X151736600Y-144564900D02*
X209494200Y-144564900D01*
X150928700Y-145372800D02*
X151736600Y-144564900D01*
X150928700Y-145740200D02*
X150928700Y-145372800D01*
X149753400Y-145740200D02*
X150928700Y-145740200D01*
X225597800Y-129636600D02*
X224422500Y-129636600D01*
%TO.N,/~{ROMCS}*%
X181738400Y-38103800D02*
X181738400Y-49996800D01*
X180548800Y-36914200D02*
X181738400Y-38103800D01*
X180548800Y-34498100D02*
X180548800Y-36914200D01*
X179231700Y-33181000D02*
X180548800Y-34498100D01*
X169010900Y-33181000D02*
X179231700Y-33181000D01*
X163437500Y-38754400D02*
X169010900Y-33181000D01*
X163437500Y-39223400D02*
X163437500Y-38754400D01*
X158127000Y-44533900D02*
X163437500Y-39223400D01*
X157705000Y-44533900D02*
X158127000Y-44533900D01*
X157705000Y-45659200D02*
X157705000Y-44533900D01*
%TO.N,/~{RES}*%
X87269400Y-104053400D02*
X87269400Y-104712000D01*
X93873400Y-97449400D02*
X87269400Y-104053400D01*
X87269400Y-104712000D02*
X87269400Y-109723000D01*
X79904000Y-104712000D02*
X78727400Y-103535400D01*
X87269400Y-104712000D02*
X79904000Y-104712000D01*
X78727400Y-103535400D02*
X78727400Y-97035400D01*
X194452400Y-84724400D02*
X193327100Y-84724400D01*
X124612400Y-84734400D02*
X125737700Y-84734400D01*
X125737700Y-84453000D02*
X125737700Y-84734400D01*
X126581600Y-83609100D02*
X125737700Y-84453000D01*
X155610400Y-83609100D02*
X126581600Y-83609100D01*
X156362400Y-84361100D02*
X155610400Y-83609100D01*
X156362400Y-85140500D02*
X156362400Y-84361100D01*
X159007500Y-87785600D02*
X156362400Y-85140500D01*
X190519000Y-87785600D02*
X159007500Y-87785600D01*
X193327100Y-84977500D02*
X190519000Y-87785600D01*
X193327100Y-84724400D02*
X193327100Y-84977500D01*
%TO.N,/PB6*%
X213600800Y-137918300D02*
X224422500Y-127096600D01*
X155843300Y-137918300D02*
X213600800Y-137918300D01*
X148388700Y-145372900D02*
X155843300Y-137918300D01*
X148388700Y-145740200D02*
X148388700Y-145372900D01*
X147213400Y-145740200D02*
X148388700Y-145740200D01*
X225597800Y-127096600D02*
X224422500Y-127096600D01*
X148562800Y-112006000D02*
X148562800Y-111057100D01*
X149834500Y-113277700D02*
X148562800Y-112006000D01*
%TO.N,/PB5*%
X225597800Y-124556600D02*
X224422500Y-124556600D01*
X152037900Y-119906700D02*
X151762800Y-119631600D01*
X219772600Y-119906700D02*
X152037900Y-119906700D01*
X224422500Y-124556600D02*
X219772600Y-119906700D01*
X143030500Y-111650700D02*
X143030500Y-111057100D01*
X151011400Y-119631600D02*
X143030500Y-111650700D01*
X151762800Y-119631600D02*
X151011400Y-119631600D01*
%TO.N,/PHI2*%
X137359600Y-50739200D02*
X136234300Y-50739200D01*
X116992400Y-59334400D02*
X118117700Y-59334400D01*
X118117700Y-59100500D02*
X118117700Y-59334400D01*
X122209100Y-55009100D02*
X118117700Y-59100500D01*
X131964400Y-55009100D02*
X122209100Y-55009100D01*
X136234300Y-50739200D02*
X131964400Y-55009100D01*
X223067000Y-78402600D02*
X221891700Y-78402600D01*
X148597700Y-85015700D02*
X148597700Y-84734400D01*
X156207900Y-92625900D02*
X148597700Y-85015700D01*
X191349900Y-92625900D02*
X156207900Y-92625900D01*
X198407100Y-99683100D02*
X191349900Y-92625900D01*
X198407100Y-99964400D02*
X198407100Y-99683100D01*
X199532400Y-99964400D02*
X198407100Y-99964400D01*
X147472400Y-84734400D02*
X148597700Y-84734400D01*
X216237900Y-84056400D02*
X214398200Y-84056400D01*
X221891700Y-78402600D02*
X216237900Y-84056400D01*
%TO.N,/PB4*%
X225597800Y-122016600D02*
X224422500Y-122016600D01*
X142390800Y-110282100D02*
X142320800Y-110352100D01*
X143309700Y-110282100D02*
X142390800Y-110282100D01*
X148793100Y-115765500D02*
X143309700Y-110282100D01*
X148793100Y-116316600D02*
X148793100Y-115765500D01*
X151382800Y-118906300D02*
X148793100Y-116316600D01*
X152452300Y-118906300D02*
X151382800Y-118906300D01*
X153002400Y-119456400D02*
X152452300Y-118906300D01*
X221862300Y-119456400D02*
X153002400Y-119456400D01*
X224422500Y-122016600D02*
X221862300Y-119456400D01*
%TO.N,/~{RW}*%
X124612400Y-59334400D02*
X125737700Y-59334400D01*
X199552400Y-74564400D02*
X198427100Y-74564400D01*
X203238600Y-79375900D02*
X199552400Y-75689700D01*
X203238600Y-97672900D02*
X203238600Y-79375900D01*
X202072400Y-98839100D02*
X203238600Y-97672900D01*
X199552400Y-74564400D02*
X199552400Y-75689700D01*
X202072400Y-99964400D02*
X202072400Y-98839100D01*
X125737700Y-59538700D02*
X125737700Y-59334400D01*
X131578000Y-65379000D02*
X125737700Y-59538700D01*
X154591100Y-65379000D02*
X131578000Y-65379000D01*
X218229300Y-87145000D02*
X221891700Y-83482600D01*
X213203100Y-87145000D02*
X218229300Y-87145000D01*
X223067000Y-83482600D02*
X221891700Y-83482600D01*
X155119500Y-64850600D02*
X154591100Y-65379000D01*
X188994600Y-64850600D02*
X155119500Y-64850600D01*
X198427100Y-74283100D02*
X188994600Y-64850600D01*
X198427100Y-74564400D02*
X198427100Y-74283100D01*
%TO.N,/D0*%
X176692400Y-59324400D02*
X175567100Y-59324400D01*
X176658400Y-34756800D02*
X176658400Y-35882100D01*
X127152400Y-59334400D02*
X128277700Y-59334400D01*
X175567100Y-59144700D02*
X175567100Y-59324400D01*
X172370600Y-55948200D02*
X175567100Y-59144700D01*
X131484200Y-55948200D02*
X172370600Y-55948200D01*
X128277700Y-59154700D02*
X131484200Y-55948200D01*
X128277700Y-59334400D02*
X128277700Y-59154700D01*
X175533100Y-37007400D02*
X176658400Y-35882100D01*
X175533100Y-52785700D02*
X175533100Y-37007400D01*
X172370600Y-55948200D02*
X175533100Y-52785700D01*
X128277700Y-85015700D02*
X128277700Y-84734400D01*
X142101100Y-98839100D02*
X128277700Y-85015700D01*
X174703200Y-98839100D02*
X142101100Y-98839100D01*
X175547100Y-99683000D02*
X174703200Y-98839100D01*
X175547100Y-99964400D02*
X175547100Y-99683000D01*
X176672400Y-99964400D02*
X175547100Y-99964400D01*
X127152400Y-84734400D02*
X128277700Y-84734400D01*
%TO.N,/D1*%
X129692400Y-59334400D02*
X130817700Y-59334400D01*
X133144900Y-56725900D02*
X168014700Y-56725900D01*
X130817700Y-59053100D02*
X133144900Y-56725900D01*
X130817700Y-59334400D02*
X130817700Y-59053100D01*
X171553900Y-56725900D02*
X174152400Y-59324400D01*
X168014700Y-56725900D02*
X171553900Y-56725900D01*
X174118400Y-34756800D02*
X174118400Y-35882100D01*
X172993100Y-37007400D02*
X174118400Y-35882100D01*
X172993100Y-50253000D02*
X172993100Y-37007400D01*
X168292100Y-54954000D02*
X172993100Y-50253000D01*
%TO.N,/D2*%
X171578400Y-34756800D02*
X172703700Y-34756800D01*
X171612400Y-59324400D02*
X172737700Y-59324400D01*
X132232400Y-59334400D02*
X133357700Y-59334400D01*
X171612400Y-59324400D02*
X170487100Y-59324400D01*
X133357700Y-59053100D02*
X133357700Y-59334400D01*
X134662000Y-57748800D02*
X133357700Y-59053100D01*
X169192900Y-57748800D02*
X134662000Y-57748800D01*
X170487100Y-59043000D02*
X169192900Y-57748800D01*
X170487100Y-59324400D02*
X170487100Y-59043000D01*
X172703700Y-34475400D02*
X172703700Y-34756800D01*
X173547600Y-33631500D02*
X172703700Y-34475400D01*
X177156400Y-33631500D02*
X173547600Y-33631500D01*
X177855400Y-34330500D02*
X177156400Y-33631500D01*
X177855400Y-59813000D02*
X177855400Y-34330500D01*
X177206200Y-60462200D02*
X177855400Y-59813000D01*
X173594200Y-60462200D02*
X177206200Y-60462200D01*
X172737700Y-59605700D02*
X173594200Y-60462200D01*
X172737700Y-59324400D02*
X172737700Y-59605700D01*
X181752400Y-99964400D02*
X180627100Y-99964400D01*
X132232400Y-84734400D02*
X133357700Y-84734400D01*
X180627100Y-99727400D02*
X180627100Y-99964400D01*
X179063300Y-98163600D02*
X180627100Y-99727400D01*
X146582600Y-98163600D02*
X179063300Y-98163600D01*
X133357700Y-84938700D02*
X146582600Y-98163600D01*
X133357700Y-84734400D02*
X133357700Y-84938700D01*
%TO.N,/D3*%
X224431700Y-45015200D02*
X224431700Y-45382600D01*
X223623800Y-44207300D02*
X224431700Y-45015200D01*
X214965900Y-44207300D02*
X223623800Y-44207300D01*
X212509200Y-46664000D02*
X214965900Y-44207300D01*
X225607000Y-45382600D02*
X224431700Y-45382600D01*
X134772400Y-59334400D02*
X135897700Y-59334400D01*
X167643100Y-58199100D02*
X167925200Y-58481200D01*
X136835200Y-58199100D02*
X167643100Y-58199100D01*
X135897700Y-59136600D02*
X136835200Y-58199100D01*
X135897700Y-59334400D02*
X135897700Y-59136600D01*
X135897700Y-85015700D02*
X135897700Y-84734400D01*
X148595200Y-97713200D02*
X135897700Y-85015700D01*
X181197200Y-97713200D02*
X148595200Y-97713200D01*
X183167100Y-99683100D02*
X181197200Y-97713200D01*
X183167100Y-99964400D02*
X183167100Y-99683100D01*
X184292400Y-99964400D02*
X183167100Y-99964400D01*
X134772400Y-84734400D02*
X135897700Y-84734400D01*
%TO.N,/D4*%
X186832400Y-99964400D02*
X185707100Y-99964400D01*
X137312400Y-84734400D02*
X138437700Y-84734400D01*
X225607000Y-47922600D02*
X224431700Y-47922600D01*
X212740800Y-47668600D02*
X212262400Y-47668600D01*
X213662100Y-46747300D02*
X212740800Y-47668600D01*
X223623800Y-46747300D02*
X213662100Y-46747300D01*
X224431700Y-47555200D02*
X223623800Y-46747300D01*
X224431700Y-47922600D02*
X224431700Y-47555200D01*
X138437700Y-84938700D02*
X138437700Y-84734400D01*
X148151500Y-94652500D02*
X138437700Y-84938700D01*
X180676500Y-94652500D02*
X148151500Y-94652500D01*
X185707100Y-99683100D02*
X180676500Y-94652500D01*
X185707100Y-99964400D02*
X185707100Y-99683100D01*
%TO.N,/D5*%
X189372400Y-99964400D02*
X188247100Y-99964400D01*
X139852400Y-84734400D02*
X140977700Y-84734400D01*
X174152400Y-74564400D02*
X173027100Y-74564400D01*
X225607000Y-50462600D02*
X224431700Y-50462600D01*
X224431700Y-50095200D02*
X224431700Y-50462600D01*
X223623800Y-49287300D02*
X224431700Y-50095200D01*
X213353500Y-49287300D02*
X223623800Y-49287300D01*
X213081100Y-49014900D02*
X213353500Y-49287300D01*
X143834800Y-72937900D02*
X143764400Y-73008300D01*
X171681900Y-72937900D02*
X143834800Y-72937900D01*
X173027100Y-74283100D02*
X171681900Y-72937900D01*
X173027100Y-74564400D02*
X173027100Y-74283100D01*
X143764400Y-75528200D02*
X142761500Y-76531100D01*
X143764400Y-73008300D02*
X143764400Y-75528200D01*
X140977700Y-84938700D02*
X140977700Y-84734400D01*
X150241200Y-94202200D02*
X140977700Y-84938700D01*
X182766200Y-94202200D02*
X150241200Y-94202200D01*
X188247100Y-99683100D02*
X182766200Y-94202200D01*
X188247100Y-99964400D02*
X188247100Y-99683100D01*
%TO.N,/D6*%
X225607000Y-53002600D02*
X224431700Y-53002600D01*
X223623800Y-51827300D02*
X212233400Y-51827300D01*
X224431700Y-52635200D02*
X223623800Y-51827300D01*
X224431700Y-53002600D02*
X224431700Y-52635200D01*
X191912400Y-99964400D02*
X190787100Y-99964400D01*
X142392400Y-84734400D02*
X143517700Y-84734400D01*
X143517700Y-85015700D02*
X143517700Y-84734400D01*
X152253700Y-93751700D02*
X143517700Y-85015700D01*
X184855700Y-93751700D02*
X152253700Y-93751700D01*
X190787100Y-99683100D02*
X184855700Y-93751700D01*
X190787100Y-99964400D02*
X190787100Y-99683100D01*
%TO.N,/D7*%
X225607000Y-55542600D02*
X224431700Y-55542600D01*
X223623800Y-54367300D02*
X212255100Y-54367300D01*
X224431700Y-55175200D02*
X223623800Y-54367300D01*
X224431700Y-55542600D02*
X224431700Y-55175200D01*
X194452400Y-99964400D02*
X193327100Y-99964400D01*
X144932400Y-84734400D02*
X146057700Y-84734400D01*
X193327100Y-99683100D02*
X193327100Y-99964400D01*
X186720300Y-93076300D02*
X193327100Y-99683100D01*
X154118300Y-93076300D02*
X186720300Y-93076300D01*
X146057700Y-85015700D02*
X154118300Y-93076300D01*
X146057700Y-84734400D02*
X146057700Y-85015700D01*
%TO.N,/A15*%
X223067000Y-75862600D02*
X221891700Y-75862600D01*
X212144600Y-68947200D02*
X212227100Y-68864700D01*
X212144600Y-73399500D02*
X212144600Y-68947200D01*
X214607700Y-75862600D02*
X212144600Y-73399500D01*
X221891700Y-75862600D02*
X214607700Y-75862600D01*
X148597700Y-59615700D02*
X148597700Y-59334400D01*
X152522200Y-63540200D02*
X148597700Y-59615700D01*
X197032600Y-63540200D02*
X152522200Y-63540200D01*
X200967100Y-59605700D02*
X197032600Y-63540200D01*
X200967100Y-59324400D02*
X200967100Y-59605700D01*
X202092400Y-59324400D02*
X200967100Y-59324400D01*
X147472400Y-59334400D02*
X148597700Y-59334400D01*
%TO.N,/A14*%
X150085000Y-45659200D02*
X150085000Y-44533900D01*
X150085000Y-40579200D02*
X150085000Y-41704500D01*
X200933100Y-34475500D02*
X200933100Y-34756800D01*
X199188200Y-32730600D02*
X200933100Y-34475500D01*
X168796900Y-32730600D02*
X199188200Y-32730600D01*
X158830300Y-42697200D02*
X168796900Y-32730600D01*
X158830300Y-43119200D02*
X158830300Y-42697200D01*
X157705000Y-43119200D02*
X158830300Y-43119200D01*
X202058400Y-34756800D02*
X200933100Y-34756800D01*
X157705000Y-43119200D02*
X156579700Y-43119200D01*
X150012400Y-59334400D02*
X151137700Y-59334400D01*
X151210300Y-43119200D02*
X156579700Y-43119200D01*
X151210300Y-43689900D02*
X151210300Y-43119200D01*
X150366300Y-44533900D02*
X151210300Y-43689900D01*
X150085000Y-44533900D02*
X150366300Y-44533900D01*
X150366400Y-41704500D02*
X150085000Y-41704500D01*
X151210300Y-42548400D02*
X150366400Y-41704500D01*
X151210300Y-43119200D02*
X151210300Y-42548400D01*
X151137700Y-59538700D02*
X151137700Y-59334400D01*
X154411700Y-62812700D02*
X151137700Y-59538700D01*
X185798700Y-62812700D02*
X154411700Y-62812700D01*
%TO.N,/A13*%
X150012400Y-84734400D02*
X151137700Y-84734400D01*
X197012400Y-74564400D02*
X197012400Y-75689700D01*
X109394200Y-40579200D02*
X110519500Y-40579200D01*
X143561400Y-49469200D02*
X149248600Y-55156400D01*
X136829400Y-49469200D02*
X143561400Y-49469200D01*
X134289400Y-46929200D02*
X136829400Y-49469200D01*
X116588200Y-46929200D02*
X134289400Y-46929200D01*
X110519500Y-40860500D02*
X116588200Y-46929200D01*
X110519500Y-40579200D02*
X110519500Y-40860500D01*
X220824300Y-69715200D02*
X221891700Y-70782600D01*
X212869900Y-69715200D02*
X220824300Y-69715200D01*
X223067000Y-70782600D02*
X221891700Y-70782600D01*
X200660200Y-79337500D02*
X197012400Y-75689700D01*
X200660200Y-85195100D02*
X200660200Y-79337500D01*
X197163100Y-88692200D02*
X200660200Y-85195100D01*
X154891200Y-88692200D02*
X197163100Y-88692200D01*
X151137700Y-84938700D02*
X154891200Y-88692200D01*
X151137700Y-84734400D02*
X151137700Y-84938700D01*
%TO.N,/A12*%
X223067000Y-68242600D02*
X221891700Y-68242600D01*
X156217700Y-59615700D02*
X156217700Y-59334400D01*
X157521500Y-60919500D02*
X156217700Y-59615700D01*
X197113300Y-60919500D02*
X157521500Y-60919500D01*
X198427100Y-59605700D02*
X197113300Y-60919500D01*
X198427100Y-59324400D02*
X198427100Y-59605700D01*
X199552400Y-59324400D02*
X198427100Y-59324400D01*
X155092400Y-59334400D02*
X156217700Y-59334400D01*
X214840800Y-68242600D02*
X221891700Y-68242600D01*
X212933600Y-66335400D02*
X214840800Y-68242600D01*
%TO.N,/A11*%
X189392400Y-74564400D02*
X188267100Y-74564400D01*
X157632400Y-74574400D02*
X158757700Y-74574400D01*
X223067000Y-65702600D02*
X221891700Y-65702600D01*
X220716400Y-64527300D02*
X214428000Y-64527300D01*
X221891700Y-65702600D02*
X220716400Y-64527300D01*
X160350600Y-76167300D02*
X158757700Y-74574400D01*
X186945500Y-76167300D02*
X160350600Y-76167300D01*
X188267100Y-74845700D02*
X186945500Y-76167300D01*
X188267100Y-74564400D02*
X188267100Y-74845700D01*
%TO.N,/A10*%
X156217700Y-74293000D02*
X156217700Y-74574400D01*
X157061600Y-73449100D02*
X156217700Y-74293000D01*
X166130500Y-73449100D02*
X157061600Y-73449100D01*
X168397400Y-75716000D02*
X166130500Y-73449100D01*
X182258400Y-75716000D02*
X168397400Y-75716000D01*
X183187100Y-74787300D02*
X182258400Y-75716000D01*
X183187100Y-74564400D02*
X183187100Y-74787300D01*
X184312400Y-74564400D02*
X183187100Y-74564400D01*
X155092400Y-74574400D02*
X156217700Y-74574400D01*
X214762400Y-63162600D02*
X223067000Y-63162600D01*
X213660300Y-64264700D02*
X214762400Y-63162600D01*
X213660300Y-65205900D02*
X213660300Y-64264700D01*
%TO.N,/A9*%
X191932400Y-74564400D02*
X190807100Y-74564400D01*
X152552400Y-74574400D02*
X153677700Y-74574400D01*
X153677700Y-74855700D02*
X153677700Y-74574400D01*
X155442100Y-76620100D02*
X153677700Y-74855700D01*
X189032700Y-76620100D02*
X155442100Y-76620100D01*
X190807100Y-74845700D02*
X189032700Y-76620100D01*
X190807100Y-74564400D02*
X190807100Y-74845700D01*
X214745600Y-60622600D02*
X223067000Y-60622600D01*
X212257100Y-58134100D02*
X214745600Y-60622600D01*
X212257100Y-58064100D02*
X212257100Y-58134100D01*
%TO.N,/A8*%
X151137700Y-74855700D02*
X151137700Y-74574400D01*
X153357800Y-77075800D02*
X151137700Y-74855700D01*
X191117000Y-77075800D02*
X153357800Y-77075800D01*
X193347100Y-74845700D02*
X191117000Y-77075800D01*
X193347100Y-74564400D02*
X193347100Y-74845700D01*
X194472400Y-74564400D02*
X193347100Y-74564400D01*
X150012400Y-74574400D02*
X151137700Y-74574400D01*
X221859800Y-58114500D02*
X221891700Y-58082600D01*
X213263200Y-58114500D02*
X221859800Y-58114500D01*
X223067000Y-58082600D02*
X221891700Y-58082600D01*
%TO.N,/A7*%
X197012400Y-59324400D02*
X197012400Y-58199100D01*
X196978400Y-34756800D02*
X196978400Y-35882100D01*
X197012400Y-58199100D02*
X198103700Y-57107800D01*
X198103700Y-37007400D02*
X196978400Y-35882100D01*
X198103700Y-57107800D02*
X198103700Y-37007400D01*
X148270200Y-64400300D02*
X148016800Y-64653700D01*
X199090500Y-64400300D02*
X148270200Y-64400300D01*
X203217800Y-60273000D02*
X199090500Y-64400300D01*
X203217800Y-58331600D02*
X203217800Y-60273000D01*
X201994000Y-57107800D02*
X203217800Y-58331600D01*
X198103700Y-57107800D02*
X201994000Y-57107800D01*
%TO.N,/A6*%
X144932400Y-74574400D02*
X146057700Y-74574400D01*
X195563700Y-37007400D02*
X194438400Y-35882100D01*
X195563700Y-57107800D02*
X195563700Y-37007400D01*
X194472400Y-58199100D02*
X195563700Y-57107800D01*
X194472400Y-59324400D02*
X194472400Y-58199100D01*
X194438400Y-34756800D02*
X194438400Y-35882100D01*
X148772100Y-77570100D02*
X193073100Y-77570100D01*
X146057700Y-74855700D02*
X148772100Y-77570100D01*
X146057700Y-74574400D02*
X146057700Y-74855700D01*
%TO.N,/A5*%
X193023700Y-37007400D02*
X191898400Y-35882100D01*
X193023700Y-57107800D02*
X193023700Y-37007400D01*
X191932400Y-58199100D02*
X193023700Y-57107800D01*
X191932400Y-59324400D02*
X191932400Y-58199100D01*
X191898400Y-34756800D02*
X191898400Y-35882100D01*
X142392400Y-74574400D02*
X142392400Y-73449100D01*
X143480500Y-70565500D02*
X191311800Y-70565500D01*
X142330600Y-71715400D02*
X143480500Y-70565500D01*
X142330600Y-73387300D02*
X142330600Y-71715400D01*
X142392400Y-73449100D02*
X142330600Y-73387300D01*
%TO.N,/A4*%
X190483700Y-37007400D02*
X189358400Y-35882100D01*
X190483700Y-57107800D02*
X190483700Y-37007400D01*
X189392400Y-58199100D02*
X190483700Y-57107800D01*
X189392400Y-59324400D02*
X189392400Y-58199100D01*
X189358400Y-34756800D02*
X189358400Y-35882100D01*
X143654200Y-69647300D02*
X139852400Y-73449100D01*
X188357300Y-69647300D02*
X143654200Y-69647300D01*
X189159400Y-68845200D02*
X188357300Y-69647300D01*
X139852400Y-74574400D02*
X139852400Y-73449100D01*
%TO.N,/PB3*%
X141245200Y-112958400D02*
X141245200Y-111036400D01*
X141553200Y-113266400D02*
X141245200Y-112958400D01*
X225597800Y-119476600D02*
X224422500Y-119476600D01*
X141245200Y-110394500D02*
X141245200Y-111036400D01*
X142012900Y-109626800D02*
X141245200Y-110394500D01*
X143376800Y-109626800D02*
X142012900Y-109626800D01*
X152206000Y-118456000D02*
X143376800Y-109626800D01*
X152638900Y-118456000D02*
X152206000Y-118456000D01*
X153172500Y-118989600D02*
X152638900Y-118456000D01*
X223935500Y-118989600D02*
X153172500Y-118989600D01*
X224422500Y-119476600D02*
X223935500Y-118989600D01*
%TO.N,/~{IRQ}*%
X116992400Y-74574400D02*
X118117700Y-74574400D01*
X118117700Y-74855800D02*
X118117700Y-74574400D01*
X125973900Y-82712000D02*
X118117700Y-74855800D01*
X155610000Y-82712000D02*
X125973900Y-82712000D01*
X157632400Y-84734400D02*
X155610000Y-82712000D01*
X157632400Y-84734400D02*
X158757700Y-84734400D01*
X185957700Y-87285400D02*
X186183000Y-87060100D01*
X161308700Y-87285400D02*
X185957700Y-87285400D01*
X158757700Y-84734400D02*
X161308700Y-87285400D01*
X223067000Y-80942600D02*
X221891700Y-80942600D01*
X213392000Y-84781800D02*
X212251700Y-83641500D01*
X218052500Y-84781800D02*
X213392000Y-84781800D01*
X221891700Y-80942600D02*
X218052500Y-84781800D01*
%TO.N,/PB2*%
X138714400Y-112151600D02*
X138714400Y-111042400D01*
X140811300Y-114248500D02*
X138714400Y-112151600D01*
X144950400Y-114248500D02*
X140811300Y-114248500D01*
X151058900Y-120357000D02*
X144950400Y-114248500D01*
X218559700Y-120357000D02*
X151058900Y-120357000D01*
X219010000Y-120807300D02*
X218559700Y-120357000D01*
%TO.N,/PB1*%
X135099400Y-111144600D02*
X135099400Y-111015000D01*
X137248700Y-113293900D02*
X135099400Y-111144600D01*
X151176600Y-121111600D02*
X217666400Y-121111600D01*
X145315200Y-115250200D02*
X151176600Y-121111600D01*
X139205000Y-115250200D02*
X145315200Y-115250200D01*
X137248700Y-113293900D02*
X139205000Y-115250200D01*
%TO.N,/PB0*%
X131973400Y-145740200D02*
X131973400Y-144564900D01*
X225597800Y-111856600D02*
X225597800Y-113031900D01*
X130083100Y-116782900D02*
X130083100Y-111046500D01*
X139036400Y-125736200D02*
X130083100Y-116782900D01*
X131973400Y-132799200D02*
X139036400Y-125736200D01*
X131973400Y-144564900D02*
X131973400Y-132799200D01*
X225965200Y-113031900D02*
X225597800Y-113031900D01*
X226773100Y-113839800D02*
X225965200Y-113031900D01*
X226773100Y-125103900D02*
X226773100Y-113839800D01*
X226140800Y-125736200D02*
X226773100Y-125103900D01*
X139036400Y-125736200D02*
X226140800Y-125736200D01*
%TO.N,/PA7*%
X129433400Y-145740200D02*
X129433400Y-144564900D01*
X129344300Y-144475800D02*
X129344300Y-110384000D01*
X129433400Y-144564900D02*
X129344300Y-144475800D01*
X129344300Y-110384000D02*
X129337400Y-110377100D01*
X209021400Y-124830100D02*
X211567300Y-122284200D01*
X150332200Y-124830100D02*
X209021400Y-124830100D01*
X141653100Y-116151000D02*
X150332200Y-124830100D01*
X137372200Y-116151000D02*
X141653100Y-116151000D01*
X131533000Y-110311800D02*
X137372200Y-116151000D01*
X129416500Y-110311800D02*
X131533000Y-110311800D01*
X129344300Y-110384000D02*
X129416500Y-110311800D01*
%TO.N,/PA6*%
X126893400Y-145740200D02*
X126893400Y-144564900D01*
X225597800Y-106776600D02*
X224422500Y-106776600D01*
X128192000Y-143266300D02*
X126893400Y-144564900D01*
X128192000Y-113452100D02*
X128192000Y-143266300D01*
X124847600Y-110107700D02*
X128192000Y-113452100D01*
X124847600Y-109648800D02*
X124847600Y-110107700D01*
X125319900Y-109176500D02*
X124847600Y-109648800D01*
X143585200Y-109176500D02*
X125319900Y-109176500D01*
X152414400Y-118005700D02*
X143585200Y-109176500D01*
X152825500Y-118005700D02*
X152414400Y-118005700D01*
X153100100Y-118280300D02*
X152825500Y-118005700D01*
X212918800Y-118280300D02*
X153100100Y-118280300D01*
X224422500Y-106776600D02*
X212918800Y-118280300D01*
%TO.N,/PA5*%
X124353400Y-145740200D02*
X124353400Y-144564900D01*
X121252300Y-109018000D02*
X121639000Y-109018000D01*
X119513600Y-110756700D02*
X121252300Y-109018000D01*
X119513600Y-111994400D02*
X119513600Y-110756700D01*
X124353400Y-116834200D02*
X119513600Y-111994400D01*
X124353400Y-144564900D02*
X124353400Y-116834200D01*
X225597800Y-104236600D02*
X224422500Y-104236600D01*
X121932600Y-108724400D02*
X121639000Y-109018000D01*
X143770100Y-108724400D02*
X121932600Y-108724400D01*
X152601100Y-117555400D02*
X143770100Y-108724400D01*
X153012100Y-117555400D02*
X152601100Y-117555400D01*
X153268000Y-117811300D02*
X153012100Y-117555400D01*
X210847800Y-117811300D02*
X153268000Y-117811300D01*
X224422500Y-104236600D02*
X210847800Y-117811300D01*
%TO.N,/RDY*%
X204735400Y-32254200D02*
X205058700Y-32577500D01*
X166574800Y-32254200D02*
X204735400Y-32254200D01*
X159375100Y-39453900D02*
X166574800Y-32254200D01*
X139610200Y-39453900D02*
X159375100Y-39453900D01*
X138484900Y-40579200D02*
X139610200Y-39453900D01*
X137359600Y-40579200D02*
X138484900Y-40579200D01*
%TO.N,/PHI1*%
X225607000Y-73322600D02*
X224431700Y-73322600D01*
X223498700Y-74623000D02*
X214414400Y-74623000D01*
X224431700Y-73690000D02*
X223498700Y-74623000D01*
X224431700Y-73322600D02*
X224431700Y-73690000D01*
X185882600Y-86334800D02*
X189395700Y-86334800D01*
X185394800Y-86822600D02*
X185882600Y-86334800D01*
X161539400Y-86822600D02*
X185394800Y-86822600D01*
X156978400Y-82261600D02*
X161539400Y-86822600D01*
X133181600Y-82261600D02*
X156978400Y-82261600D01*
X125882400Y-74962400D02*
X133181600Y-82261600D01*
X125882400Y-74205600D02*
X125882400Y-74962400D01*
X122758200Y-71081400D02*
X125882400Y-74205600D01*
X86321400Y-71081400D02*
X122758200Y-71081400D01*
X84678600Y-69438600D02*
X86321400Y-71081400D01*
%TO.N,/CB2*%
X225607000Y-60622600D02*
X225607000Y-61797900D01*
X225974300Y-61797900D02*
X225607000Y-61797900D01*
X227312300Y-63135900D02*
X225974300Y-61797900D01*
X227312300Y-92064000D02*
X227312300Y-63135900D01*
X226664000Y-92712300D02*
X227312300Y-92064000D01*
X222994700Y-92712300D02*
X226664000Y-92712300D01*
X206224200Y-109482800D02*
X222994700Y-92712300D01*
X169272300Y-109482800D02*
X206224200Y-109482800D01*
%TO.N,/CB1*%
X155044400Y-101622400D02*
X197471600Y-101622400D01*
X153677700Y-100255700D02*
X155044400Y-101622400D01*
X153677700Y-99974400D02*
X153677700Y-100255700D01*
X225607000Y-58082600D02*
X225607000Y-59257900D01*
X152552400Y-99974400D02*
X153677700Y-99974400D01*
X225239600Y-59257900D02*
X225607000Y-59257900D01*
X224431700Y-60065800D02*
X225239600Y-59257900D01*
X224431700Y-63733300D02*
X224431700Y-60065800D01*
X225036400Y-64338000D02*
X224431700Y-63733300D01*
X225935700Y-64338000D02*
X225036400Y-64338000D01*
X226861900Y-65264200D02*
X225935700Y-64338000D01*
X226861900Y-73826400D02*
X226861900Y-65264200D01*
X226095700Y-74592600D02*
X226861900Y-73826400D01*
X225212700Y-74592600D02*
X226095700Y-74592600D01*
X224337000Y-75468300D02*
X225212700Y-74592600D01*
X224337000Y-76282500D02*
X224337000Y-75468300D01*
X223581500Y-77038000D02*
X224337000Y-76282500D01*
X219932400Y-77038000D02*
X223581500Y-77038000D01*
X214439100Y-82531300D02*
X219932400Y-77038000D01*
%TO.N,/A3*%
X187943700Y-37007400D02*
X186818400Y-35882100D01*
X187943700Y-57107800D02*
X187943700Y-37007400D01*
X186852400Y-58199100D02*
X187943700Y-57107800D01*
X186852400Y-59324400D02*
X186852400Y-58199100D01*
X186818400Y-34756800D02*
X186818400Y-35882100D01*
X137312400Y-74574400D02*
X138437700Y-74574400D01*
X181920500Y-69196900D02*
X185052800Y-66064600D01*
X143461100Y-69196900D02*
X181920500Y-69196900D01*
X138437700Y-74220300D02*
X143461100Y-69196900D01*
X138437700Y-74574400D02*
X138437700Y-74220300D01*
%TO.N,/A2*%
X185403700Y-37007400D02*
X184278400Y-35882100D01*
X185403700Y-57107800D02*
X185403700Y-37007400D01*
X184312400Y-58199100D02*
X185403700Y-57107800D01*
X184312400Y-59324400D02*
X184312400Y-58199100D01*
X184278400Y-34756800D02*
X184278400Y-35882100D01*
X135897700Y-74293100D02*
X135897700Y-74574400D01*
X143634000Y-66556800D02*
X135897700Y-74293100D01*
X180560800Y-66556800D02*
X143634000Y-66556800D01*
X181091400Y-66026200D02*
X180560800Y-66556800D01*
X134772400Y-74574400D02*
X135897700Y-74574400D01*
%TO.N,/A1*%
X182863700Y-37007400D02*
X181738400Y-35882100D01*
X182863700Y-57107800D02*
X182863700Y-37007400D01*
X181772400Y-58199100D02*
X182863700Y-57107800D01*
X181772400Y-59324400D02*
X181772400Y-58199100D01*
X181738400Y-34756800D02*
X181738400Y-35882100D01*
X132232400Y-74574400D02*
X133357700Y-74574400D01*
X169052400Y-84724400D02*
X169052400Y-83599100D01*
X171964400Y-78295400D02*
X169052400Y-81207400D01*
X177859800Y-78295400D02*
X171964400Y-78295400D01*
X166435500Y-78590500D02*
X169052400Y-81207400D01*
X137169500Y-78590500D02*
X166435500Y-78590500D01*
X133357700Y-74778700D02*
X137169500Y-78590500D01*
X133357700Y-74574400D02*
X133357700Y-74778700D01*
X169052400Y-81207400D02*
X169052400Y-83599100D01*
%TO.N,/A0*%
X179232400Y-59324400D02*
X179232400Y-58199100D01*
X179198400Y-34756800D02*
X179198400Y-35882100D01*
X171592400Y-84724400D02*
X170467100Y-84724400D01*
X129692400Y-74574400D02*
X130817700Y-74574400D01*
X180323700Y-57107800D02*
X179232400Y-58199100D01*
X180323700Y-37644200D02*
X180323700Y-57107800D01*
X179198400Y-36518900D02*
X180323700Y-37644200D01*
X179198400Y-35882100D02*
X179198400Y-36518900D01*
X130817700Y-74855700D02*
X130817700Y-74574400D01*
X135971900Y-80009900D02*
X130817700Y-74855700D01*
X162015300Y-80009900D02*
X135971900Y-80009900D01*
X167875100Y-85869700D02*
X162015300Y-80009900D01*
X169603100Y-85869700D02*
X167875100Y-85869700D01*
X170467100Y-85005700D02*
X169603100Y-85869700D01*
X170467100Y-84724400D02*
X170467100Y-85005700D01*
%TO.N,Net-(D2-Pad1)*%
X96458100Y-114085700D02*
X96458100Y-114646400D01*
X92095400Y-109723000D02*
X96458100Y-114085700D01*
X97683400Y-114646400D02*
X96458100Y-114646400D01*
D29*
%TO.N,Net-(D1-Pad2)*%
X91427400Y-144698000D02*
X91427500Y-144698000D01*
X93769900Y-144698000D02*
X98127400Y-149055000D01*
X91427500Y-144698000D02*
X93769900Y-144698000D01*
D28*
X91427500Y-144698000D02*
X91427400Y-144698000D01*
X98127400Y-149055400D02*
X98127400Y-149055000D01*
X91427500Y-144698000D02*
X91427400Y-144697900D01*
D29*
%TO.N,VCC*%
X211099000Y-74549400D02*
X211125000Y-74523600D01*
X207157400Y-74549400D02*
X211099000Y-74549400D01*
X211125000Y-47193200D02*
X211125000Y-74523600D01*
X216629000Y-35222600D02*
X211125000Y-29718000D01*
X223067000Y-35222600D02*
X216629000Y-35222600D01*
X211125000Y-29718000D02*
X211125000Y-47193200D01*
X117551000Y-29718000D02*
X137516000Y-29718000D01*
X137516000Y-29718000D02*
X157624000Y-29718000D01*
X157624000Y-29718000D02*
X211125000Y-29718000D01*
X210684000Y-47634200D02*
X211125000Y-47193200D01*
X207128200Y-47634200D02*
X210684000Y-47634200D01*
X208306000Y-99949400D02*
X211125000Y-102768000D01*
X207157400Y-99949400D02*
X208306000Y-99949400D01*
X99537200Y-99954400D02*
X97078800Y-102413000D01*
X103022000Y-99954400D02*
X99537200Y-99954400D01*
D28*
X103022000Y-99954400D02*
X103022400Y-99954400D01*
D29*
X78547400Y-131925000D02*
X78547400Y-130195400D01*
X82777400Y-136155000D02*
X78547400Y-131925000D01*
D28*
X82777400Y-136155000D02*
X82777400Y-136155400D01*
X81379000Y-55420200D02*
X76710600Y-55420200D01*
X84577000Y-58618200D02*
X81379000Y-55420200D01*
D29*
X102413000Y-29718000D02*
X117551000Y-29718000D01*
X78812600Y-53318200D02*
X102413000Y-29718000D01*
X76710600Y-55420200D02*
X78812600Y-53318200D01*
X157632000Y-33074200D02*
X157632000Y-32048200D01*
X157632000Y-32048200D02*
X157632000Y-29726400D01*
D28*
X89966000Y-117186400D02*
X97683400Y-117186400D01*
X87269400Y-119883000D02*
X89966000Y-117186400D01*
X102565000Y-112304800D02*
X102565000Y-107899000D01*
X97683400Y-117186400D02*
X102565000Y-112304800D01*
D29*
X102565000Y-107899000D02*
X97078800Y-102413000D01*
D28*
X202058400Y-49996800D02*
X199518400Y-49996800D01*
X157624200Y-32056000D02*
X157624200Y-33218200D01*
X157632000Y-32048200D02*
X157624200Y-32056000D01*
X157624200Y-36833100D02*
X157705000Y-36913900D01*
X157624200Y-33218200D02*
X157624200Y-36833100D01*
X157705000Y-38039200D02*
X157705000Y-36913900D01*
D29*
X211125000Y-74523600D02*
X211125000Y-86924200D01*
X211125000Y-86924200D02*
X211125000Y-102768000D01*
X155550200Y-107899000D02*
X102565000Y-107899000D01*
X205994000Y-107899000D02*
X155550200Y-107899000D01*
X211125000Y-102768000D02*
X205994000Y-107899000D01*
X117035000Y-30234200D02*
X117551000Y-29718000D01*
X117035000Y-33218200D02*
X117035000Y-30234200D01*
D28*
X117035000Y-36893100D02*
X117014200Y-36913900D01*
X117035000Y-33218200D02*
X117035000Y-36893100D01*
X117014200Y-38039200D02*
X117014200Y-36913900D01*
X137273400Y-36827700D02*
X137359600Y-36913900D01*
X137273400Y-33218200D02*
X137273400Y-36827700D01*
X137359600Y-38039200D02*
X137359600Y-36913900D01*
X157624000Y-29718200D02*
X157624000Y-29718100D01*
X157624000Y-29718100D02*
X157624000Y-29718000D01*
X157632000Y-29726100D02*
X157632000Y-29726400D01*
X157624000Y-29718100D02*
X157632000Y-29726100D01*
X225607000Y-83482600D02*
X224431700Y-83482600D01*
X122072400Y-74574400D02*
X120947100Y-74574400D01*
X119273400Y-145740200D02*
X120448700Y-145740200D01*
X167917100Y-99974400D02*
X167927100Y-99964400D01*
X157632400Y-99974400D02*
X167917100Y-99974400D01*
X169052400Y-99964400D02*
X167927100Y-99964400D01*
D29*
X97078800Y-78455200D02*
X103327000Y-72206800D01*
X97078800Y-102413000D02*
X97078800Y-78455200D01*
D28*
X151101600Y-146932000D02*
X152293400Y-145740200D01*
X121275200Y-146932000D02*
X151101600Y-146932000D01*
X120448700Y-146105500D02*
X121275200Y-146932000D01*
X120448700Y-145740200D02*
X120448700Y-146105500D01*
D29*
X207157000Y-74549400D02*
X207157400Y-74549400D01*
D28*
X203232700Y-74549400D02*
X203217700Y-74564400D01*
X207157000Y-74549400D02*
X203232700Y-74549400D01*
X202092400Y-74564400D02*
X203217700Y-74564400D01*
D29*
X76133900Y-127782000D02*
X76133900Y-83695900D01*
X78547400Y-130195000D02*
X76133900Y-127782000D01*
X78547400Y-130195400D02*
X78547400Y-130195000D01*
X76133900Y-55996900D02*
X76710600Y-55420200D01*
X76133900Y-83695900D02*
X76133900Y-55996900D01*
D28*
X83695900Y-83695900D02*
X84678600Y-84678600D01*
X76133900Y-83695900D02*
X83695900Y-83695900D01*
X155550200Y-107899000D02*
X153766600Y-109682600D01*
X153766600Y-109682600D02*
X153766600Y-116662600D01*
D29*
X137273000Y-33218200D02*
X137273000Y-31589200D01*
X137273000Y-29960200D02*
X137516000Y-29718000D01*
X137273000Y-31589200D02*
X137273000Y-29960200D01*
D28*
X137273400Y-31589600D02*
X137273400Y-33218200D01*
X137273000Y-31589200D02*
X137273400Y-31589600D01*
X224431700Y-83850000D02*
X224431700Y-83482600D01*
X220411400Y-87870300D02*
X224431700Y-83850000D01*
X212071100Y-87870300D02*
X220411400Y-87870300D01*
X211125000Y-86924200D02*
X212071100Y-87870300D01*
X103910500Y-72790300D02*
X103327000Y-72206800D01*
X103910700Y-72790300D02*
X103910500Y-72790300D01*
X103327200Y-72206800D02*
X103910700Y-72790300D01*
X120947100Y-74369900D02*
X120947100Y-74574400D01*
X119367700Y-72790500D02*
X120947100Y-74369900D01*
X103910700Y-72790500D02*
X119367700Y-72790500D01*
X103910700Y-72790300D02*
X103910700Y-72790500D01*
D29*
X207128000Y-47634200D02*
X207128200Y-47634200D01*
D28*
X205546300Y-47634200D02*
X203183700Y-49996800D01*
X207128000Y-47634200D02*
X205546300Y-47634200D01*
X202058400Y-49996800D02*
X203183700Y-49996800D01*
D29*
%TO.N,GND*%
X85427400Y-136305000D02*
X85427400Y-144697900D01*
D28*
X174132400Y-99964400D02*
X171592400Y-99964400D01*
X157632400Y-59334400D02*
X158757700Y-59334400D01*
X126074300Y-50739200D02*
X117014200Y-50739200D01*
X128614300Y-53279200D02*
X126074300Y-50739200D01*
X129739600Y-53279200D02*
X128614300Y-53279200D01*
X169072400Y-59324400D02*
X167947100Y-59324400D01*
X133516600Y-105932600D02*
X127016600Y-105932600D01*
X176672400Y-84724400D02*
X177797700Y-84724400D01*
X181752400Y-84724400D02*
X180627100Y-84724400D01*
X158767700Y-59324400D02*
X158757700Y-59334400D01*
X167947100Y-59324400D02*
X158767700Y-59324400D01*
X182877700Y-84519100D02*
X182877700Y-84724400D01*
X184150200Y-83246600D02*
X182877700Y-84519100D01*
X191125000Y-83246600D02*
X184150200Y-83246600D01*
X194366600Y-80005000D02*
X191125000Y-83246600D01*
X181752400Y-84724400D02*
X182877700Y-84724400D01*
X109675600Y-52153900D02*
X109394200Y-52153900D01*
X110519500Y-51310000D02*
X109675600Y-52153900D01*
X110519500Y-50168500D02*
X110519500Y-51310000D01*
X109675500Y-49324500D02*
X110519500Y-50168500D01*
X109394200Y-49324500D02*
X109675500Y-49324500D01*
X109394200Y-48199200D02*
X109394200Y-49324500D01*
X109394200Y-53279200D02*
X109394200Y-52153900D01*
X224431700Y-36030700D02*
X224431700Y-35222600D01*
X224064500Y-36397900D02*
X224431700Y-36030700D01*
X220490200Y-36397900D02*
X224064500Y-36397900D01*
X212320900Y-44567200D02*
X220490200Y-36397900D01*
X225607000Y-35222600D02*
X224431700Y-35222600D01*
X177797700Y-85005700D02*
X177797700Y-84724400D01*
X178641700Y-85849700D02*
X177797700Y-85005700D01*
X179783200Y-85849700D02*
X178641700Y-85849700D01*
X180627100Y-85005800D02*
X179783200Y-85849700D01*
X180627100Y-84724400D02*
X180627100Y-85005800D01*
X77222000Y-126330000D02*
X78547400Y-127655400D01*
X77222000Y-117140800D02*
X77222000Y-126330000D01*
X79649400Y-114713400D02*
X77222000Y-117140800D01*
D29*
%TO.N,Net-(C1-Pad1)*%
X79098400Y-116764000D02*
X79649400Y-116213000D01*
X92327400Y-138895000D02*
X79291300Y-125859000D01*
X98127400Y-138895000D02*
X92327400Y-138895000D01*
X78547400Y-117315000D02*
X79098400Y-116764000D01*
X78547400Y-125115000D02*
X78547400Y-117315000D01*
X79291300Y-125859000D02*
X78547400Y-125115000D01*
D28*
X98127400Y-138895400D02*
X98127400Y-138895000D01*
X78547400Y-125115400D02*
X78547600Y-125115200D01*
X79290900Y-125859000D02*
X78547600Y-125115200D01*
X79291300Y-125859000D02*
X79290900Y-125859000D01*
X78547600Y-125115200D02*
X78547400Y-125115000D01*
X79098800Y-116764000D02*
X79374100Y-116488500D01*
X79098400Y-116764000D02*
X79098800Y-116764000D01*
X79374100Y-116488500D02*
X79374300Y-116488500D01*
%TD*%
M02*
