%TF.GenerationSoftware,KiCad,Pcbnew,(6.0.7)*%
%TF.CreationDate,2022-09-03T14:48:31-04:00*%
%TF.ProjectId,6502,36353032-2e6b-4696-9361-645f70636258,1.1*%
%TF.SameCoordinates,Original*%
%TF.FileFunction,Copper,L2,Bot*%
%TF.FilePolarity,Positive*%
%FSLAX46Y46*%
G04 Gerber Fmt 4.6, Leading zero omitted, Abs format (unit mm)*
G04 Created by KiCad (PCBNEW (6.0.7)) date 2022-09-03 14:48:31*
%MOMM*%
%LPD*%
G01*
G04 APERTURE LIST*
G04 Aperture macros list*
%AMRoundRect*
0 Rectangle with rounded corners*
0 $1 Rounding radius*
0 $2 $3 $4 $5 $6 $7 $8 $9 X,Y pos of 4 corners*
0 Add a 4 corners polygon primitive as box body*
4,1,4,$2,$3,$4,$5,$6,$7,$8,$9,$2,$3,0*
0 Add four circle primitives for the rounded corners*
1,1,$1+$1,$2,$3*
1,1,$1+$1,$4,$5*
1,1,$1+$1,$6,$7*
1,1,$1+$1,$8,$9*
0 Add four rect primitives between the rounded corners*
20,1,$1+$1,$2,$3,$4,$5,0*
20,1,$1+$1,$4,$5,$6,$7,0*
20,1,$1+$1,$6,$7,$8,$9,0*
20,1,$1+$1,$8,$9,$2,$3,0*%
G04 Aperture macros list end*
%TA.AperFunction,ComponentPad*%
%ADD10C,1.200000*%
%TD*%
%TA.AperFunction,ComponentPad*%
%ADD11R,1.700000X1.700000*%
%TD*%
%TA.AperFunction,ComponentPad*%
%ADD12C,1.700000*%
%TD*%
%TA.AperFunction,ComponentPad*%
%ADD13O,1.700000X1.700000*%
%TD*%
%TA.AperFunction,ComponentPad*%
%ADD14R,1.600000X1.600000*%
%TD*%
%TA.AperFunction,ComponentPad*%
%ADD15O,1.600000X1.600000*%
%TD*%
%TA.AperFunction,ComponentPad*%
%ADD16C,1.600000*%
%TD*%
%TA.AperFunction,ComponentPad*%
%ADD17R,1.800000X1.800000*%
%TD*%
%TA.AperFunction,ComponentPad*%
%ADD18C,1.800000*%
%TD*%
%TA.AperFunction,ComponentPad*%
%ADD19RoundRect,0.875000X-0.875000X-0.875000X0.875000X-0.875000X0.875000X0.875000X-0.875000X0.875000X0*%
%TD*%
%TA.AperFunction,ComponentPad*%
%ADD20RoundRect,0.750000X-0.750000X-1.000000X0.750000X-1.000000X0.750000X1.000000X-0.750000X1.000000X0*%
%TD*%
%TA.AperFunction,ComponentPad*%
%ADD21R,3.500000X3.500000*%
%TD*%
%TA.AperFunction,ComponentPad*%
%ADD22C,1.440000*%
%TD*%
%TA.AperFunction,ComponentPad*%
%ADD23O,2.000000X1.905000*%
%TD*%
%TA.AperFunction,ComponentPad*%
%ADD24R,2.000000X1.905000*%
%TD*%
%TA.AperFunction,ComponentPad*%
%ADD25R,2.200000X2.200000*%
%TD*%
%TA.AperFunction,ComponentPad*%
%ADD26O,2.200000X2.200000*%
%TD*%
%TA.AperFunction,ViaPad*%
%ADD27C,0.800000*%
%TD*%
%TA.AperFunction,Conductor*%
%ADD28C,0.250000*%
%TD*%
%TA.AperFunction,Conductor*%
%ADD29C,1.000000*%
%TD*%
G04 APERTURE END LIST*
D10*
%TO.P,C1,1*%
%TO.N,Net-(C1-Pad1)*%
X79649400Y-116213400D03*
%TO.P,C1,2*%
%TO.N,GND*%
X79649400Y-114713400D03*
%TD*%
D11*
%TO.P,SW4,1,1*%
%TO.N,GND*%
X127016600Y-105932600D03*
D12*
X133516600Y-105932600D03*
%TO.P,SW4,2,2*%
%TO.N,/PA2*%
X127016600Y-110432600D03*
X133516600Y-110432600D03*
%TD*%
%TO.P,SW5,1,1*%
%TO.N,GND*%
X133516600Y-128432600D03*
D11*
X127016600Y-128432600D03*
D12*
%TO.P,SW5,2,2*%
%TO.N,/PA3*%
X133516600Y-132932600D03*
X127016600Y-132932600D03*
%TD*%
D11*
%TO.P,J5,1,Pin_1*%
%TO.N,/PA0*%
X225597800Y-91536600D03*
D13*
%TO.P,J5,2,Pin_2*%
%TO.N,/PA1*%
X225597800Y-94076600D03*
%TO.P,J5,3,Pin_3*%
%TO.N,/PA2*%
X225597800Y-96616600D03*
%TO.P,J5,4,Pin_4*%
%TO.N,/PA3*%
X225597800Y-99156600D03*
%TO.P,J5,5,Pin_5*%
%TO.N,/PA4*%
X225597800Y-101696600D03*
%TO.P,J5,6,Pin_6*%
%TO.N,/PA5*%
X225597800Y-104236600D03*
%TO.P,J5,7,Pin_7*%
%TO.N,/PA6*%
X225597800Y-106776600D03*
%TO.P,J5,8,Pin_8*%
%TO.N,/PA7*%
X225597800Y-109316600D03*
%TO.P,J5,9,Pin_9*%
%TO.N,/PB0*%
X225597800Y-111856600D03*
%TO.P,J5,10,Pin_10*%
%TO.N,/PB1*%
X225597800Y-114396600D03*
%TO.P,J5,11,Pin_11*%
%TO.N,/PB2*%
X225597800Y-116936600D03*
%TO.P,J5,12,Pin_12*%
%TO.N,/PB3*%
X225597800Y-119476600D03*
%TO.P,J5,13,Pin_13*%
%TO.N,/PB4*%
X225597800Y-122016600D03*
%TO.P,J5,14,Pin_14*%
%TO.N,/PB5*%
X225597800Y-124556600D03*
%TO.P,J5,15,Pin_15*%
%TO.N,/PB6*%
X225597800Y-127096600D03*
%TO.P,J5,16,Pin_16*%
%TO.N,/PB7*%
X225597800Y-129636600D03*
%TD*%
D11*
%TO.P,J2,1,Pin_1*%
%TO.N,VCC*%
X223067000Y-35222600D03*
D13*
%TO.P,J2,2,Pin_2*%
%TO.N,GND*%
X225607000Y-35222600D03*
%TO.P,J2,3,Pin_3*%
%TO.N,/A0*%
X223067000Y-37762600D03*
%TO.P,J2,4,Pin_4*%
%TO.N,/D0*%
X225607000Y-37762600D03*
%TO.P,J2,5,Pin_5*%
%TO.N,/A1*%
X223067000Y-40302600D03*
%TO.P,J2,6,Pin_6*%
%TO.N,/D1*%
X225607000Y-40302600D03*
%TO.P,J2,7,Pin_7*%
%TO.N,/A2*%
X223067000Y-42842600D03*
%TO.P,J2,8,Pin_8*%
%TO.N,/D2*%
X225607000Y-42842600D03*
%TO.P,J2,9,Pin_9*%
%TO.N,/A3*%
X223067000Y-45382600D03*
%TO.P,J2,10,Pin_10*%
%TO.N,/D3*%
X225607000Y-45382600D03*
%TO.P,J2,11,Pin_11*%
%TO.N,/A4*%
X223067000Y-47922600D03*
%TO.P,J2,12,Pin_12*%
%TO.N,/D4*%
X225607000Y-47922600D03*
%TO.P,J2,13,Pin_13*%
%TO.N,/A5*%
X223067000Y-50462600D03*
%TO.P,J2,14,Pin_14*%
%TO.N,/D5*%
X225607000Y-50462600D03*
%TO.P,J2,15,Pin_15*%
%TO.N,/A6*%
X223067000Y-53002600D03*
%TO.P,J2,16,Pin_16*%
%TO.N,/D6*%
X225607000Y-53002600D03*
%TO.P,J2,17,Pin_17*%
%TO.N,/A7*%
X223067000Y-55542600D03*
%TO.P,J2,18,Pin_18*%
%TO.N,/D7*%
X225607000Y-55542600D03*
%TO.P,J2,19,Pin_19*%
%TO.N,/A8*%
X223067000Y-58082600D03*
%TO.P,J2,20,Pin_20*%
%TO.N,/CB1*%
X225607000Y-58082600D03*
%TO.P,J2,21,Pin_21*%
%TO.N,/A9*%
X223067000Y-60622600D03*
%TO.P,J2,22,Pin_22*%
%TO.N,/CB2*%
X225607000Y-60622600D03*
%TO.P,J2,23,Pin_23*%
%TO.N,/A10*%
X223067000Y-63162600D03*
%TO.P,J2,24,Pin_24*%
%TO.N,unconnected-(J2-Pad24)*%
X225607000Y-63162600D03*
%TO.P,J2,25,Pin_25*%
%TO.N,/A11*%
X223067000Y-65702600D03*
%TO.P,J2,26,Pin_26*%
%TO.N,unconnected-(J2-Pad26)*%
X225607000Y-65702600D03*
%TO.P,J2,27,Pin_27*%
%TO.N,/A12*%
X223067000Y-68242600D03*
%TO.P,J2,28,Pin_28*%
%TO.N,unconnected-(J2-Pad28)*%
X225607000Y-68242600D03*
%TO.P,J2,29,Pin_29*%
%TO.N,/A13*%
X223067000Y-70782600D03*
%TO.P,J2,30,Pin_30*%
%TO.N,unconnected-(J2-Pad30)*%
X225607000Y-70782600D03*
%TO.P,J2,31,Pin_31*%
%TO.N,/A14*%
X223067000Y-73322600D03*
%TO.P,J2,32,Pin_32*%
%TO.N,/PHI1*%
X225607000Y-73322600D03*
%TO.P,J2,33,Pin_33*%
%TO.N,/A15*%
X223067000Y-75862600D03*
%TO.P,J2,34,Pin_34*%
%TO.N,/PHI2*%
X225607000Y-75862600D03*
%TO.P,J2,35,Pin_35*%
X223067000Y-78402600D03*
%TO.P,J2,36,Pin_36*%
%TO.N,/~{PHI2}*%
X225607000Y-78402600D03*
%TO.P,J2,37,Pin_37*%
%TO.N,/~{IRQ}*%
X223067000Y-80942600D03*
%TO.P,J2,38,Pin_38*%
%TO.N,/RDY*%
X225607000Y-80942600D03*
%TO.P,J2,39,Pin_39*%
%TO.N,/~{RW}*%
X223067000Y-83482600D03*
%TO.P,J2,40,Pin_40*%
%TO.N,VCC*%
X225607000Y-83482600D03*
%TD*%
D14*
%TO.P,U3,1,A14*%
%TO.N,/A14*%
X202058400Y-34756800D03*
D15*
%TO.P,U3,2,A12*%
%TO.N,/A12*%
X199518400Y-34756800D03*
%TO.P,U3,3,A7*%
%TO.N,/A7*%
X196978400Y-34756800D03*
%TO.P,U3,4,A6*%
%TO.N,/A6*%
X194438400Y-34756800D03*
%TO.P,U3,5,A5*%
%TO.N,/A5*%
X191898400Y-34756800D03*
%TO.P,U3,6,A4*%
%TO.N,/A4*%
X189358400Y-34756800D03*
%TO.P,U3,7,A3*%
%TO.N,/A3*%
X186818400Y-34756800D03*
%TO.P,U3,8,A2*%
%TO.N,/A2*%
X184278400Y-34756800D03*
%TO.P,U3,9,A1*%
%TO.N,/A1*%
X181738400Y-34756800D03*
%TO.P,U3,10,A0*%
%TO.N,/A0*%
X179198400Y-34756800D03*
%TO.P,U3,11,D0*%
%TO.N,/D0*%
X176658400Y-34756800D03*
%TO.P,U3,12,D1*%
%TO.N,/D1*%
X174118400Y-34756800D03*
%TO.P,U3,13,D2*%
%TO.N,/D2*%
X171578400Y-34756800D03*
%TO.P,U3,14,GND*%
%TO.N,GND*%
X169038400Y-34756800D03*
%TO.P,U3,15,D3*%
%TO.N,/D3*%
X169038400Y-49996800D03*
%TO.P,U3,16,D4*%
%TO.N,/D4*%
X171578400Y-49996800D03*
%TO.P,U3,17,D5*%
%TO.N,/D5*%
X174118400Y-49996800D03*
%TO.P,U3,18,D6*%
%TO.N,/D6*%
X176658400Y-49996800D03*
%TO.P,U3,19,D7*%
%TO.N,/D7*%
X179198400Y-49996800D03*
%TO.P,U3,20,~{CS}*%
%TO.N,/~{ROMCS}*%
X181738400Y-49996800D03*
%TO.P,U3,21,A10*%
%TO.N,/A10*%
X184278400Y-49996800D03*
%TO.P,U3,22,~{OE}*%
%TO.N,/~{ROMCS}*%
X186818400Y-49996800D03*
%TO.P,U3,23,A11*%
%TO.N,/A11*%
X189358400Y-49996800D03*
%TO.P,U3,24,A9*%
%TO.N,/A9*%
X191898400Y-49996800D03*
%TO.P,U3,25,A8*%
%TO.N,/A8*%
X194438400Y-49996800D03*
%TO.P,U3,26,A13*%
%TO.N,/A13*%
X196978400Y-49996800D03*
%TO.P,U3,27,~{WE}*%
%TO.N,VCC*%
X199518400Y-49996800D03*
%TO.P,U3,28,VCC*%
X202058400Y-49996800D03*
%TD*%
D16*
%TO.P,C11,1*%
%TO.N,GND*%
X155124200Y-33218200D03*
%TO.P,C11,2*%
%TO.N,VCC*%
X157624200Y-33218200D03*
%TD*%
D14*
%TO.P,U2,1,~{VP}*%
%TO.N,unconnected-(U2-Pad1)*%
X109372400Y-74574400D03*
D15*
%TO.P,U2,2,RDY*%
%TO.N,/RDY*%
X111912400Y-74574400D03*
%TO.P,U2,3,\u03D51*%
%TO.N,unconnected-(U2-Pad3)*%
X114452400Y-74574400D03*
%TO.P,U2,4,~{IRQ}*%
%TO.N,/~{IRQ}*%
X116992400Y-74574400D03*
%TO.P,U2,5,~{ML}*%
%TO.N,unconnected-(U2-Pad5)*%
X119532400Y-74574400D03*
%TO.P,U2,6,~{NMI}*%
%TO.N,VCC*%
X122072400Y-74574400D03*
%TO.P,U2,7,SYNC*%
%TO.N,unconnected-(U2-Pad7)*%
X124612400Y-74574400D03*
%TO.P,U2,8,VDD*%
%TO.N,VCC*%
X127152400Y-74574400D03*
%TO.P,U2,9,A0*%
%TO.N,/A0*%
X129692400Y-74574400D03*
%TO.P,U2,10,A1*%
%TO.N,/A1*%
X132232400Y-74574400D03*
%TO.P,U2,11,A2*%
%TO.N,/A2*%
X134772400Y-74574400D03*
%TO.P,U2,12,A3*%
%TO.N,/A3*%
X137312400Y-74574400D03*
%TO.P,U2,13,A4*%
%TO.N,/A4*%
X139852400Y-74574400D03*
%TO.P,U2,14,A5*%
%TO.N,/A5*%
X142392400Y-74574400D03*
%TO.P,U2,15,A6*%
%TO.N,/A6*%
X144932400Y-74574400D03*
%TO.P,U2,16,A7*%
%TO.N,/A7*%
X147472400Y-74574400D03*
%TO.P,U2,17,A8*%
%TO.N,/A8*%
X150012400Y-74574400D03*
%TO.P,U2,18,A9*%
%TO.N,/A9*%
X152552400Y-74574400D03*
%TO.P,U2,19,A10*%
%TO.N,/A10*%
X155092400Y-74574400D03*
%TO.P,U2,20,A11*%
%TO.N,/A11*%
X157632400Y-74574400D03*
%TO.P,U2,21,VSS*%
%TO.N,GND*%
X157632400Y-59334400D03*
%TO.P,U2,22,A12*%
%TO.N,/A12*%
X155092400Y-59334400D03*
%TO.P,U2,23,A13*%
%TO.N,/A13*%
X152552400Y-59334400D03*
%TO.P,U2,24,A14*%
%TO.N,/A14*%
X150012400Y-59334400D03*
%TO.P,U2,25,A15*%
%TO.N,/A15*%
X147472400Y-59334400D03*
%TO.P,U2,26,D7*%
%TO.N,/D7*%
X144932400Y-59334400D03*
%TO.P,U2,27,D6*%
%TO.N,/D6*%
X142392400Y-59334400D03*
%TO.P,U2,28,D5*%
%TO.N,/D5*%
X139852400Y-59334400D03*
%TO.P,U2,29,D4*%
%TO.N,/D4*%
X137312400Y-59334400D03*
%TO.P,U2,30,D3*%
%TO.N,/D3*%
X134772400Y-59334400D03*
%TO.P,U2,31,D2*%
%TO.N,/D2*%
X132232400Y-59334400D03*
%TO.P,U2,32,D1*%
%TO.N,/D1*%
X129692400Y-59334400D03*
%TO.P,U2,33,D0*%
%TO.N,/D0*%
X127152400Y-59334400D03*
%TO.P,U2,34,R/~{W}*%
%TO.N,/~{RW}*%
X124612400Y-59334400D03*
%TO.P,U2,35,nc*%
%TO.N,unconnected-(U2-Pad35)*%
X122072400Y-59334400D03*
%TO.P,U2,36,BE*%
%TO.N,/RDY*%
X119532400Y-59334400D03*
%TO.P,U2,37,\u03D50*%
%TO.N,/PHI2*%
X116992400Y-59334400D03*
%TO.P,U2,38,~{SO}*%
%TO.N,VCC*%
X114452400Y-59334400D03*
%TO.P,U2,39,\u03D52*%
%TO.N,unconnected-(U2-Pad39)*%
X111912400Y-59334400D03*
%TO.P,U2,40,~{RES}*%
%TO.N,/~{RES}*%
X109372400Y-59334400D03*
%TD*%
D17*
%TO.P,D2,1,K*%
%TO.N,Net-(D2-Pad1)*%
X97683400Y-114646400D03*
D18*
%TO.P,D2,2,A*%
%TO.N,VCC*%
X97683400Y-117186400D03*
%TD*%
D16*
%TO.P,C9,1*%
%TO.N,GND*%
X85277400Y-136155400D03*
%TO.P,C9,2*%
%TO.N,VCC*%
X82777400Y-136155400D03*
%TD*%
%TO.P,C5,1*%
%TO.N,GND*%
X207157400Y-97449400D03*
%TO.P,C5,2*%
%TO.N,VCC*%
X207157400Y-99949400D03*
%TD*%
%TO.P,R2,1*%
%TO.N,VCC*%
X87269400Y-119883000D03*
D15*
%TO.P,R2,2*%
%TO.N,/~{RES}*%
X87269400Y-109723000D03*
%TD*%
D16*
%TO.P,C4,1*%
%TO.N,GND*%
X207157400Y-72049400D03*
%TO.P,C4,2*%
%TO.N,VCC*%
X207157400Y-74549400D03*
%TD*%
D12*
%TO.P,SW2,1,1*%
%TO.N,GND*%
X120016600Y-117432600D03*
D11*
X113516600Y-117432600D03*
D12*
%TO.P,SW2,2,2*%
%TO.N,/PA0*%
X113516600Y-121932600D03*
X120016600Y-121932600D03*
%TD*%
D16*
%TO.P,R1,1*%
%TO.N,Net-(D2-Pad1)*%
X92095400Y-109723000D03*
D15*
%TO.P,R1,2*%
%TO.N,GND*%
X92095400Y-119883000D03*
%TD*%
D14*
%TO.P,U5,1,VSS*%
%TO.N,GND*%
X109372400Y-99974400D03*
D15*
%TO.P,U5,2,PA0*%
%TO.N,/PA0*%
X111912400Y-99974400D03*
%TO.P,U5,3,PA1*%
%TO.N,/PA1*%
X114452400Y-99974400D03*
%TO.P,U5,4,PA2*%
%TO.N,/PA2*%
X116992400Y-99974400D03*
%TO.P,U5,5,PA3*%
%TO.N,/PA3*%
X119532400Y-99974400D03*
%TO.P,U5,6,PA4*%
%TO.N,/PA4*%
X122072400Y-99974400D03*
%TO.P,U5,7,PA5*%
%TO.N,/PA5*%
X124612400Y-99974400D03*
%TO.P,U5,8,PA6*%
%TO.N,/PA6*%
X127152400Y-99974400D03*
%TO.P,U5,9,PA7*%
%TO.N,/PA7*%
X129692400Y-99974400D03*
%TO.P,U5,10,PB0*%
%TO.N,/PB0*%
X132232400Y-99974400D03*
%TO.P,U5,11,PB1*%
%TO.N,/PB1*%
X134772400Y-99974400D03*
%TO.P,U5,12,PB2*%
%TO.N,/PB2*%
X137312400Y-99974400D03*
%TO.P,U5,13,PB3*%
%TO.N,/PB3*%
X139852400Y-99974400D03*
%TO.P,U5,14,PB4*%
%TO.N,/PB4*%
X142392400Y-99974400D03*
%TO.P,U5,15,PB5*%
%TO.N,/PB5*%
X144932400Y-99974400D03*
%TO.P,U5,16,PB6*%
%TO.N,/PB6*%
X147472400Y-99974400D03*
%TO.P,U5,17,PB7*%
%TO.N,/PB7*%
X150012400Y-99974400D03*
%TO.P,U5,18,CB1*%
%TO.N,/CB1*%
X152552400Y-99974400D03*
%TO.P,U5,19,CB2*%
%TO.N,/CB2*%
X155092400Y-99974400D03*
%TO.P,U5,20,VCC*%
%TO.N,VCC*%
X157632400Y-99974400D03*
%TO.P,U5,21,~{IRQ}*%
%TO.N,/~{IRQ}*%
X157632400Y-84734400D03*
%TO.P,U5,22,R/~{W}*%
%TO.N,/~{RW}*%
X155092400Y-84734400D03*
%TO.P,U5,23,~{CS2}*%
%TO.N,/~{VIACS2}*%
X152552400Y-84734400D03*
%TO.P,U5,24,CS1*%
%TO.N,/A13*%
X150012400Y-84734400D03*
%TO.P,U5,25,\u03D52*%
%TO.N,/PHI2*%
X147472400Y-84734400D03*
%TO.P,U5,26,D7*%
%TO.N,/D7*%
X144932400Y-84734400D03*
%TO.P,U5,27,D6*%
%TO.N,/D6*%
X142392400Y-84734400D03*
%TO.P,U5,28,D5*%
%TO.N,/D5*%
X139852400Y-84734400D03*
%TO.P,U5,29,D4*%
%TO.N,/D4*%
X137312400Y-84734400D03*
%TO.P,U5,30,D3*%
%TO.N,/D3*%
X134772400Y-84734400D03*
%TO.P,U5,31,D2*%
%TO.N,/D2*%
X132232400Y-84734400D03*
%TO.P,U5,32,D1*%
%TO.N,/D1*%
X129692400Y-84734400D03*
%TO.P,U5,33,D0*%
%TO.N,/D0*%
X127152400Y-84734400D03*
%TO.P,U5,34,~{RES}*%
%TO.N,/~{RES}*%
X124612400Y-84734400D03*
%TO.P,U5,35,RS3*%
%TO.N,/A3*%
X122072400Y-84734400D03*
%TO.P,U5,36,RS2*%
%TO.N,/A2*%
X119532400Y-84734400D03*
%TO.P,U5,37,RS1*%
%TO.N,/A1*%
X116992400Y-84734400D03*
%TO.P,U5,38,RS0*%
%TO.N,/A0*%
X114452400Y-84734400D03*
%TO.P,U5,39,CA2*%
%TO.N,/CA2*%
X111912400Y-84734400D03*
%TO.P,U5,40,CA1*%
%TO.N,/CA1*%
X109372400Y-84734400D03*
%TD*%
D14*
%TO.P,X2,1,EN*%
%TO.N,unconnected-(X2-Pad1)*%
X92197000Y-58618200D03*
D16*
%TO.P,X2,7,GND*%
%TO.N,GND*%
X92197000Y-43378200D03*
%TO.P,X2,8,OUT*%
%TO.N,/PHI3*%
X84577000Y-43378200D03*
%TO.P,X2,14,Vcc*%
%TO.N,VCC*%
X84577000Y-58618200D03*
%TD*%
D19*
%TO.P,J1,3*%
%TO.N,N/C*%
X88427400Y-149397900D03*
D20*
%TO.P,J1,2*%
%TO.N,GND*%
X85427400Y-144697900D03*
D21*
%TO.P,J1,1*%
%TO.N,Net-(D1-Pad2)*%
X91427400Y-144697900D03*
%TD*%
D16*
%TO.P,R4,1*%
%TO.N,VCC*%
X153766600Y-116662600D03*
D15*
%TO.P,R4,2*%
%TO.N,/PA1*%
X163926600Y-116662600D03*
%TD*%
D16*
%TO.P,C3,1*%
%TO.N,GND*%
X103022400Y-97454400D03*
%TO.P,C3,2*%
%TO.N,VCC*%
X103022400Y-99954400D03*
%TD*%
D12*
%TO.P,SW3,1,1*%
%TO.N,GND*%
X146016600Y-117682600D03*
D11*
X139516600Y-117682600D03*
D12*
%TO.P,SW3,2,2*%
%TO.N,/PA1*%
X146016600Y-122182600D03*
X139516600Y-122182600D03*
%TD*%
D15*
%TO.P,U9,14,VCC*%
%TO.N,VCC*%
X117014200Y-38039200D03*
%TO.P,U9,13*%
%TO.N,GND*%
X117014200Y-40579200D03*
%TO.P,U9,12*%
X117014200Y-43119200D03*
%TO.P,U9,11*%
%TO.N,unconnected-(U9-Pad11)*%
X117014200Y-45659200D03*
%TO.P,U9,10*%
%TO.N,GND*%
X117014200Y-48199200D03*
%TO.P,U9,9*%
X117014200Y-50739200D03*
%TO.P,U9,8*%
%TO.N,unconnected-(U9-Pad8)*%
X117014200Y-53279200D03*
%TO.P,U9,7,GND*%
%TO.N,GND*%
X109394200Y-53279200D03*
%TO.P,U9,6*%
%TO.N,unconnected-(U9-Pad6)*%
X109394200Y-50739200D03*
%TO.P,U9,5*%
%TO.N,GND*%
X109394200Y-48199200D03*
%TO.P,U9,4*%
X109394200Y-45659200D03*
%TO.P,U9,3*%
%TO.N,/~{ACIACS}*%
X109394200Y-43119200D03*
%TO.P,U9,2*%
%TO.N,/A13*%
X109394200Y-40579200D03*
D14*
%TO.P,U9,1*%
X109394200Y-38039200D03*
%TD*%
D22*
%TO.P,RV1,1,1*%
%TO.N,/CNTRST*%
X177236200Y-147467400D03*
%TO.P,RV1,2,2*%
%TO.N,GND*%
X174696200Y-147467400D03*
%TO.P,RV1,3,3*%
%TO.N,unconnected-(RV1-Pad3)*%
X172156200Y-147467400D03*
%TD*%
D16*
%TO.P,C7,1*%
%TO.N,GND*%
X93873400Y-99949400D03*
%TO.P,C7,2*%
%TO.N,/~{RES}*%
X93873400Y-97449400D03*
%TD*%
D13*
%TO.P,J4,6,Pin_6*%
%TO.N,GND*%
X225572000Y-149930800D03*
%TO.P,J4,5,Pin_5*%
%TO.N,/~{UART_RTS}*%
X225572000Y-147390800D03*
%TO.P,J4,4,Pin_4*%
%TO.N,unconnected-(J4-Pad4)*%
X225572000Y-144850800D03*
%TO.P,J4,3,Pin_3*%
%TO.N,/UART_RX*%
X225572000Y-142310800D03*
%TO.P,J4,2,Pin_2*%
%TO.N,/UART_TX*%
X225572000Y-139770800D03*
D11*
%TO.P,J4,1,Pin_1*%
%TO.N,GND*%
X225572000Y-137230800D03*
%TD*%
D16*
%TO.P,C12,1*%
%TO.N,GND*%
X207128200Y-50134200D03*
%TO.P,C12,2*%
%TO.N,VCC*%
X207128200Y-47634200D03*
%TD*%
%TO.P,C6,1*%
%TO.N,GND*%
X134773400Y-33218200D03*
%TO.P,C6,2*%
%TO.N,VCC*%
X137273400Y-33218200D03*
%TD*%
D14*
%TO.P,U7,1*%
%TO.N,/PHI2*%
X129739600Y-38039200D03*
D15*
%TO.P,U7,2*%
X129739600Y-40579200D03*
%TO.P,U7,3*%
%TO.N,/~{PHI2}*%
X129739600Y-43119200D03*
%TO.P,U7,4*%
%TO.N,Net-(U7-Pad11)*%
X129739600Y-45659200D03*
%TO.P,U7,5*%
X129739600Y-48199200D03*
%TO.P,U7,6*%
%TO.N,/~{RAMCS}*%
X129739600Y-50739200D03*
%TO.P,U7,7,GND*%
%TO.N,GND*%
X129739600Y-53279200D03*
%TO.P,U7,8*%
%TO.N,Net-(U7-Pad12)*%
X137359600Y-53279200D03*
%TO.P,U7,9*%
%TO.N,/PHI2*%
X137359600Y-50739200D03*
%TO.P,U7,10*%
%TO.N,/~{A14}*%
X137359600Y-48199200D03*
%TO.P,U7,11*%
%TO.N,Net-(U7-Pad11)*%
X137359600Y-45659200D03*
%TO.P,U7,12*%
%TO.N,Net-(U7-Pad12)*%
X137359600Y-43119200D03*
%TO.P,U7,13*%
%TO.N,/RDY*%
X137359600Y-40579200D03*
%TO.P,U7,14,VCC*%
%TO.N,VCC*%
X137359600Y-38039200D03*
%TD*%
D16*
%TO.P,C2,1*%
%TO.N,VCC*%
X103327200Y-72206800D03*
%TO.P,C2,2*%
%TO.N,GND*%
X103327200Y-74706800D03*
%TD*%
%TO.P,R3,1*%
%TO.N,VCC*%
X153766600Y-109682600D03*
D15*
%TO.P,R3,2*%
%TO.N,/PA0*%
X163926600Y-109682600D03*
%TD*%
%TO.P,U6,14,VCC*%
%TO.N,VCC*%
X157705000Y-38039200D03*
%TO.P,U6,13*%
%TO.N,/A15*%
X157705000Y-40579200D03*
%TO.P,U6,12*%
%TO.N,/A14*%
X157705000Y-43119200D03*
%TO.P,U6,11*%
%TO.N,/~{ROMCS}*%
X157705000Y-45659200D03*
%TO.P,U6,10*%
%TO.N,/A15*%
X157705000Y-48199200D03*
%TO.P,U6,9*%
X157705000Y-50739200D03*
%TO.P,U6,8*%
%TO.N,/~{A15}*%
X157705000Y-53279200D03*
%TO.P,U6,7,GND*%
%TO.N,GND*%
X150085000Y-53279200D03*
%TO.P,U6,6*%
%TO.N,/~{VIACS2}*%
X150085000Y-50739200D03*
%TO.P,U6,5*%
%TO.N,/~{A15}*%
X150085000Y-48199200D03*
%TO.P,U6,4*%
%TO.N,/A14*%
X150085000Y-45659200D03*
%TO.P,U6,3*%
%TO.N,/~{A14}*%
X150085000Y-43119200D03*
%TO.P,U6,2*%
%TO.N,/A14*%
X150085000Y-40579200D03*
D14*
%TO.P,U6,1*%
X150085000Y-38039200D03*
%TD*%
D12*
%TO.P,SW1,1,1*%
%TO.N,GND*%
X83227400Y-103535400D03*
D11*
X83227400Y-97035400D03*
D12*
%TO.P,SW1,2,2*%
%TO.N,/~{RES}*%
X78727400Y-97035400D03*
X78727400Y-103535400D03*
%TD*%
D16*
%TO.P,R5,1*%
%TO.N,VCC*%
X153766600Y-123662600D03*
D15*
%TO.P,R5,2*%
%TO.N,/PA2*%
X163926600Y-123662600D03*
%TD*%
D14*
%TO.P,U4,1,A14*%
%TO.N,/A15*%
X202092400Y-59324400D03*
D15*
%TO.P,U4,2,A12*%
%TO.N,/A12*%
X199552400Y-59324400D03*
%TO.P,U4,3,A7*%
%TO.N,/A7*%
X197012400Y-59324400D03*
%TO.P,U4,4,A6*%
%TO.N,/A6*%
X194472400Y-59324400D03*
%TO.P,U4,5,A5*%
%TO.N,/A5*%
X191932400Y-59324400D03*
%TO.P,U4,6,A4*%
%TO.N,/A4*%
X189392400Y-59324400D03*
%TO.P,U4,7,A3*%
%TO.N,/A3*%
X186852400Y-59324400D03*
%TO.P,U4,8,A2*%
%TO.N,/A2*%
X184312400Y-59324400D03*
%TO.P,U4,9,A1*%
%TO.N,/A1*%
X181772400Y-59324400D03*
%TO.P,U4,10,A0*%
%TO.N,/A0*%
X179232400Y-59324400D03*
%TO.P,U4,11,Q0*%
%TO.N,/D0*%
X176692400Y-59324400D03*
%TO.P,U4,12,Q1*%
%TO.N,/D1*%
X174152400Y-59324400D03*
%TO.P,U4,13,Q2*%
%TO.N,/D2*%
X171612400Y-59324400D03*
%TO.P,U4,14,GND*%
%TO.N,GND*%
X169072400Y-59324400D03*
%TO.P,U4,15,Q3*%
%TO.N,/D3*%
X169072400Y-74564400D03*
%TO.P,U4,16,Q4*%
%TO.N,/D4*%
X171612400Y-74564400D03*
%TO.P,U4,17,Q5*%
%TO.N,/D5*%
X174152400Y-74564400D03*
%TO.P,U4,18,Q6*%
%TO.N,/D6*%
X176692400Y-74564400D03*
%TO.P,U4,19,Q7*%
%TO.N,/D7*%
X179232400Y-74564400D03*
%TO.P,U4,20,~{CS}*%
%TO.N,/~{RAMCS}*%
X181772400Y-74564400D03*
%TO.P,U4,21,A10*%
%TO.N,/A10*%
X184312400Y-74564400D03*
%TO.P,U4,22,~{OE}*%
%TO.N,/A14*%
X186852400Y-74564400D03*
%TO.P,U4,23,A11*%
%TO.N,/A11*%
X189392400Y-74564400D03*
%TO.P,U4,24,A9*%
%TO.N,/A9*%
X191932400Y-74564400D03*
%TO.P,U4,25,A8*%
%TO.N,/A8*%
X194472400Y-74564400D03*
%TO.P,U4,26,A13*%
%TO.N,/A13*%
X197012400Y-74564400D03*
%TO.P,U4,27,~{WE}*%
%TO.N,/~{RW}*%
X199552400Y-74564400D03*
%TO.P,U4,28,VCC*%
%TO.N,VCC*%
X202092400Y-74564400D03*
%TD*%
D14*
%TO.P,U8,1,VSS*%
%TO.N,GND*%
X202072400Y-84724400D03*
D15*
%TO.P,U8,2,CS0*%
%TO.N,/~{ACIACS}*%
X199532400Y-84724400D03*
%TO.P,U8,3,~{CS1}*%
%TO.N,/~{VIACS2}*%
X196992400Y-84724400D03*
%TO.P,U8,4,~{RES}*%
%TO.N,/~{RES}*%
X194452400Y-84724400D03*
%TO.P,U8,5,RxC*%
%TO.N,unconnected-(U8-Pad5)*%
X191912400Y-84724400D03*
%TO.P,U8,6,XTLI*%
%TO.N,/PHI3*%
X189372400Y-84724400D03*
%TO.P,U8,7,XTLO*%
%TO.N,unconnected-(U8-Pad7)*%
X186832400Y-84724400D03*
%TO.P,U8,8,~{RTS}*%
%TO.N,/~{UART_RTS}*%
X184292400Y-84724400D03*
%TO.P,U8,9,~{CTS}*%
%TO.N,GND*%
X181752400Y-84724400D03*
%TO.P,U8,10,TxD*%
%TO.N,/UART_TX*%
X179212400Y-84724400D03*
%TO.P,U8,11,~{DTR}*%
%TO.N,GND*%
X176672400Y-84724400D03*
%TO.P,U8,12,RxD*%
%TO.N,/UART_RX*%
X174132400Y-84724400D03*
%TO.P,U8,13,RS0*%
%TO.N,/A0*%
X171592400Y-84724400D03*
%TO.P,U8,14,RS1*%
%TO.N,/A1*%
X169052400Y-84724400D03*
%TO.P,U8,15,VCC*%
%TO.N,VCC*%
X169052400Y-99964400D03*
%TO.P,U8,16,~{DCD}*%
%TO.N,GND*%
X171592400Y-99964400D03*
%TO.P,U8,17,~{DSR}*%
X174132400Y-99964400D03*
%TO.P,U8,18,D0*%
%TO.N,/D0*%
X176672400Y-99964400D03*
%TO.P,U8,19,D1*%
%TO.N,/D1*%
X179212400Y-99964400D03*
%TO.P,U8,20,D2*%
%TO.N,/D2*%
X181752400Y-99964400D03*
%TO.P,U8,21,D3*%
%TO.N,/D3*%
X184292400Y-99964400D03*
%TO.P,U8,22,D4*%
%TO.N,/D4*%
X186832400Y-99964400D03*
%TO.P,U8,23,D5*%
%TO.N,/D5*%
X189372400Y-99964400D03*
%TO.P,U8,24,D6*%
%TO.N,/D6*%
X191912400Y-99964400D03*
%TO.P,U8,25,D7*%
%TO.N,/D7*%
X194452400Y-99964400D03*
%TO.P,U8,26,~{IRQ}*%
%TO.N,/~{IRQ}*%
X196992400Y-99964400D03*
%TO.P,U8,27,\u03D52*%
%TO.N,/PHI2*%
X199532400Y-99964400D03*
%TO.P,U8,28,R/~{W}*%
%TO.N,/~{RW}*%
X202072400Y-99964400D03*
%TD*%
D14*
%TO.P,X1,1,EN*%
%TO.N,unconnected-(X1-Pad1)*%
X92298600Y-84678600D03*
D16*
%TO.P,X1,7,GND*%
%TO.N,GND*%
X92298600Y-69438600D03*
%TO.P,X1,8,OUT*%
%TO.N,/PHI1*%
X84678600Y-69438600D03*
%TO.P,X1,14,Vcc*%
%TO.N,VCC*%
X84678600Y-84678600D03*
%TD*%
%TO.P,C10,1*%
%TO.N,/PHI3*%
X189366600Y-80005000D03*
%TO.P,C10,2*%
%TO.N,GND*%
X194366600Y-80005000D03*
%TD*%
%TO.P,C8,1*%
%TO.N,GND*%
X114535000Y-33218200D03*
%TO.P,C8,2*%
%TO.N,VCC*%
X117035000Y-33218200D03*
%TD*%
D23*
%TO.P,U1,3,OUT*%
%TO.N,VCC*%
X78547400Y-130195400D03*
%TO.P,U1,2,GND*%
%TO.N,GND*%
X78547400Y-127655400D03*
D24*
%TO.P,U1,1,IN*%
%TO.N,Net-(C1-Pad1)*%
X78547400Y-125115400D03*
%TD*%
D16*
%TO.P,R6,1*%
%TO.N,VCC*%
X153766600Y-130662600D03*
D15*
%TO.P,R6,2*%
%TO.N,/PA3*%
X163926600Y-130662600D03*
%TD*%
D25*
%TO.P,D1,1,K*%
%TO.N,Net-(C1-Pad1)*%
X98127400Y-138895400D03*
D26*
%TO.P,D1,2,A*%
%TO.N,Net-(D1-Pad2)*%
X98127400Y-149055400D03*
%TD*%
D11*
%TO.P,J3,1,Pin_1*%
%TO.N,GND*%
X116733400Y-145740200D03*
D13*
%TO.P,J3,2,Pin_2*%
%TO.N,VCC*%
X119273400Y-145740200D03*
%TO.P,J3,3,Pin_3*%
%TO.N,/CNTRST*%
X121813400Y-145740200D03*
%TO.P,J3,4,Pin_4*%
%TO.N,/PA5*%
X124353400Y-145740200D03*
%TO.P,J3,5,Pin_5*%
%TO.N,/PA6*%
X126893400Y-145740200D03*
%TO.P,J3,6,Pin_6*%
%TO.N,/PA7*%
X129433400Y-145740200D03*
%TO.P,J3,7,Pin_7*%
%TO.N,/PB0*%
X131973400Y-145740200D03*
%TO.P,J3,8,Pin_8*%
%TO.N,/PB1*%
X134513400Y-145740200D03*
%TO.P,J3,9,Pin_9*%
%TO.N,/PB2*%
X137053400Y-145740200D03*
%TO.P,J3,10,Pin_10*%
%TO.N,/PB3*%
X139593400Y-145740200D03*
%TO.P,J3,11,Pin_11*%
%TO.N,/PB4*%
X142133400Y-145740200D03*
%TO.P,J3,12,Pin_12*%
%TO.N,/PB5*%
X144673400Y-145740200D03*
%TO.P,J3,13,Pin_13*%
%TO.N,/PB6*%
X147213400Y-145740200D03*
%TO.P,J3,14,Pin_14*%
%TO.N,/PB7*%
X149753400Y-145740200D03*
%TO.P,J3,15,Pin_15*%
%TO.N,VCC*%
X152293400Y-145740200D03*
%TO.P,J3,16,Pin_16*%
%TO.N,GND*%
X154833400Y-145740200D03*
%TD*%
D27*
%TO.N,/UART_RX*%
X211696700Y-108645900D03*
%TO.N,/UART_TX*%
X210780000Y-107918000D03*
X208164000Y-116059200D03*
%TO.N,/PHI3*%
X90776000Y-43570200D03*
%TO.N,/~{UART_RTS}*%
X214424600Y-104248700D03*
%TO.N,/~{PHI2}*%
X152882400Y-32598300D03*
%TO.N,/PA4*%
X195880200Y-104410900D03*
X213251200Y-105532000D03*
%TO.N,/PA3*%
X120238900Y-111057100D03*
X180297300Y-115417200D03*
%TO.N,/PA2*%
X175444600Y-113269900D03*
%TO.N,/PA1*%
X131186000Y-111057100D03*
%TO.N,/~{RAMCS}*%
X143055900Y-72032400D03*
%TO.N,/PA0*%
X112841000Y-111057100D03*
%TO.N,/PB7*%
X152272700Y-116200300D03*
X150008100Y-111057100D03*
%TO.N,/PB6*%
X149834500Y-113277700D03*
X148562800Y-111057100D03*
%TO.N,/PB5*%
X143030500Y-111057100D03*
X151762800Y-119631600D03*
%TO.N,/PHI2*%
X214398200Y-84056400D03*
%TO.N,/PB4*%
X142320800Y-110352100D03*
X148793100Y-116316600D03*
%TO.N,/~{RW}*%
X154591100Y-65379000D03*
X213203100Y-87145000D03*
%TO.N,/D1*%
X168014700Y-56725900D03*
X168292100Y-54954000D03*
%TO.N,/D3*%
X212509200Y-46664000D03*
X167925200Y-58481200D03*
%TO.N,/D4*%
X212262400Y-47668600D03*
%TO.N,/D5*%
X143764400Y-73008300D03*
X213081100Y-49014900D03*
X142761500Y-76531100D03*
%TO.N,/D6*%
X212233400Y-51827300D03*
%TO.N,/D7*%
X212255100Y-54367300D03*
%TO.N,/A15*%
X212227100Y-68864700D03*
%TO.N,/A14*%
X185798700Y-62812700D03*
%TO.N,/A13*%
X149248600Y-55156400D03*
X212869900Y-69715200D03*
%TO.N,/A12*%
X212933600Y-66335400D03*
%TO.N,/A11*%
X214428000Y-64527300D03*
%TO.N,/A10*%
X213660300Y-65205900D03*
%TO.N,/A9*%
X212257100Y-58064100D03*
%TO.N,/A8*%
X213263200Y-58114500D03*
%TO.N,/A7*%
X148016800Y-64653700D03*
%TO.N,/A6*%
X193073100Y-77570100D03*
%TO.N,/A5*%
X191311800Y-70565500D03*
%TO.N,/A4*%
X189159400Y-68845200D03*
%TO.N,/PB3*%
X141553200Y-113266400D03*
X141245200Y-111036400D03*
%TO.N,/~{IRQ}*%
X186183000Y-87060100D03*
X212251700Y-83641500D03*
%TO.N,/PB2*%
X219010000Y-120807300D03*
X140811300Y-114248500D03*
X138714400Y-111042400D03*
%TO.N,/PB1*%
X137248700Y-113293900D03*
X135099400Y-111015000D03*
X217666400Y-121111600D03*
%TO.N,/PB0*%
X130083100Y-111046500D03*
%TO.N,/PA7*%
X129337400Y-110377100D03*
X211567300Y-122284200D03*
%TO.N,/PA6*%
X124847600Y-109648800D03*
%TO.N,/PA5*%
X121639000Y-109018000D03*
%TO.N,/RDY*%
X205058700Y-32577500D03*
%TO.N,/PHI1*%
X214414400Y-74623000D03*
X189395700Y-86334800D03*
%TO.N,/CB2*%
X169272300Y-109482800D03*
%TO.N,/CB1*%
X197471600Y-101622400D03*
X214439100Y-82531300D03*
%TO.N,/A3*%
X185052800Y-66064600D03*
%TO.N,/A2*%
X181091400Y-66026200D03*
%TO.N,/A1*%
X177859800Y-78295400D03*
%TO.N,GND*%
X212320900Y-44567200D03*
%TD*%
D28*
%TO.N,/UART_RX*%
X196429800Y-108645900D02*
X211696700Y-108645900D01*
X188102400Y-100318500D02*
X196429800Y-108645900D01*
X188102400Y-99538400D02*
X188102400Y-100318500D01*
X174413700Y-85849700D02*
X188102400Y-99538400D01*
X174132400Y-85849700D02*
X174413700Y-85849700D01*
X174132400Y-84724400D02*
X174132400Y-85849700D01*
%TO.N,/UART_TX*%
X208164000Y-123538100D02*
X224396700Y-139770800D01*
X208164000Y-116059200D02*
X208164000Y-123538100D01*
X210780000Y-107917900D02*
X210780000Y-107918000D01*
X198256100Y-107917900D02*
X210780000Y-107917900D01*
X190642400Y-100304200D02*
X198256100Y-107917900D01*
X190642400Y-98699100D02*
X190642400Y-100304200D01*
X179212400Y-87269100D02*
X190642400Y-98699100D01*
X179212400Y-84724400D02*
X179212400Y-87269100D01*
X225572000Y-139770800D02*
X224396700Y-139770800D01*
%TO.N,/PHI3*%
X189366600Y-83593300D02*
X189372400Y-83599100D01*
X189366600Y-80005000D02*
X189366600Y-83593300D01*
X189372400Y-84724400D02*
X189372400Y-83599100D01*
X90584000Y-43378200D02*
X90776000Y-43570200D01*
X84577000Y-43378200D02*
X90584000Y-43378200D01*
%TO.N,/~{UART_RTS}*%
X197094800Y-104248700D02*
X214424600Y-104248700D01*
X193182400Y-100336300D02*
X197094800Y-104248700D01*
X193182400Y-99434200D02*
X193182400Y-100336300D01*
X184292400Y-90544200D02*
X193182400Y-99434200D01*
X184292400Y-84724400D02*
X184292400Y-90544200D01*
%TO.N,/~{PHI2}*%
X225607000Y-78402600D02*
X225607000Y-79577900D01*
X157268900Y-28211800D02*
X152882400Y-32598300D01*
X220969500Y-28211800D02*
X157268900Y-28211800D01*
X227685900Y-34928200D02*
X220969500Y-28211800D01*
X227685900Y-80535000D02*
X227685900Y-34928200D01*
X226063000Y-82157900D02*
X227685900Y-80535000D01*
X225157500Y-82157900D02*
X226063000Y-82157900D01*
X224431700Y-81432100D02*
X225157500Y-82157900D01*
X224431700Y-80385800D02*
X224431700Y-81432100D01*
X225239600Y-79577900D02*
X224431700Y-80385800D01*
X225607000Y-79577900D02*
X225239600Y-79577900D01*
%TO.N,Net-(U7-Pad12)*%
X137641000Y-52153900D02*
X137359600Y-52153900D01*
X138484900Y-51310000D02*
X137641000Y-52153900D01*
X138484900Y-45088500D02*
X138484900Y-51310000D01*
X137640900Y-44244500D02*
X138484900Y-45088500D01*
X137359600Y-44244500D02*
X137640900Y-44244500D01*
X137359600Y-43119200D02*
X137359600Y-44244500D01*
X137359600Y-53279200D02*
X137359600Y-52153900D01*
%TO.N,Net-(U7-Pad11)*%
X129739600Y-45659200D02*
X129739600Y-48199200D01*
%TO.N,/~{VIACS2}*%
X152552400Y-84734400D02*
X152552400Y-83609100D01*
X150085000Y-50739200D02*
X150085000Y-51864500D01*
X149803600Y-51864500D02*
X150085000Y-51864500D01*
X148959700Y-52708400D02*
X149803600Y-51864500D01*
X148959700Y-53841700D02*
X148959700Y-52708400D01*
X153693500Y-58575500D02*
X148959700Y-53841700D01*
X153693500Y-82468000D02*
X153693500Y-58575500D01*
X152552400Y-83609100D02*
X153693500Y-82468000D01*
%TO.N,/PA4*%
X197001300Y-105532000D02*
X213251200Y-105532000D01*
X195880200Y-104410900D02*
X197001300Y-105532000D01*
%TO.N,/PA3*%
X127016600Y-132932600D02*
X133516600Y-132932600D01*
X120238900Y-101806200D02*
X119532400Y-101099700D01*
X120238900Y-111057100D02*
X120238900Y-101806200D01*
X119532400Y-99974400D02*
X119532400Y-101099700D01*
X163926600Y-130662600D02*
X165051900Y-130662600D01*
X165051900Y-130662600D02*
X180297300Y-115417200D01*
%TO.N,/PA2*%
X163926600Y-123662600D02*
X165051900Y-123662600D01*
X165051900Y-123662600D02*
X175444600Y-113269900D01*
X118117700Y-99693000D02*
X118117700Y-99974400D01*
X118961600Y-98849100D02*
X118117700Y-99693000D01*
X127646300Y-98849100D02*
X118961600Y-98849100D01*
X128334200Y-99537000D02*
X127646300Y-98849100D01*
X128334200Y-109115000D02*
X128334200Y-99537000D01*
X127016600Y-110432600D02*
X128334200Y-109115000D01*
X116992400Y-99974400D02*
X118117700Y-99974400D01*
%TO.N,/PA1*%
X161607000Y-115468300D02*
X162801300Y-116662600D01*
X151965800Y-115468300D02*
X161607000Y-115468300D01*
X146016600Y-121417500D02*
X151965800Y-115468300D01*
X146016600Y-122182600D02*
X146016600Y-121417500D01*
X163926600Y-116662600D02*
X162801300Y-116662600D01*
X114452400Y-99974400D02*
X115577700Y-99974400D01*
X115577700Y-99693100D02*
X115577700Y-99974400D01*
X116881500Y-98389300D02*
X115577700Y-99693100D01*
X132252800Y-98389300D02*
X116881500Y-98389300D01*
X133389800Y-99526300D02*
X132252800Y-98389300D01*
X133389800Y-102319500D02*
X133389800Y-99526300D01*
X131186000Y-104523300D02*
X133389800Y-102319500D01*
X131186000Y-111057100D02*
X131186000Y-104523300D01*
%TO.N,/~{RAMCS}*%
X138582400Y-58456700D02*
X130864900Y-50739200D01*
X138582400Y-60599700D02*
X138582400Y-58456700D01*
X143055900Y-65073200D02*
X138582400Y-60599700D01*
X143055900Y-72032400D02*
X143055900Y-65073200D01*
X129739600Y-50739200D02*
X130864900Y-50739200D01*
%TO.N,/PA0*%
X111912400Y-99974400D02*
X112861600Y-99974400D01*
X112861600Y-99869200D02*
X112861600Y-99974400D01*
X114798400Y-97932400D02*
X112861600Y-99869200D01*
X157860900Y-97932400D02*
X114798400Y-97932400D01*
X163926600Y-103998100D02*
X157860900Y-97932400D01*
X163926600Y-109682600D02*
X163926600Y-103998100D01*
X112841000Y-99995000D02*
X112841000Y-111057100D01*
X112861600Y-99974400D02*
X112841000Y-99995000D01*
%TO.N,/PB7*%
X150012400Y-111052800D02*
X150012400Y-99974400D01*
X150008100Y-111057100D02*
X150012400Y-111052800D01*
X149753400Y-145740200D02*
X149753400Y-144564900D01*
X152499300Y-116426900D02*
X152272700Y-116200300D01*
X152499300Y-141819000D02*
X152499300Y-116426900D01*
X149753400Y-144564900D02*
X152499300Y-141819000D01*
%TO.N,/~{ROMCS}*%
X185693100Y-49715400D02*
X185693100Y-49996800D01*
X184849200Y-48871500D02*
X185693100Y-49715400D01*
X183707700Y-48871500D02*
X184849200Y-48871500D01*
X182863700Y-49715500D02*
X183707700Y-48871500D01*
X182863700Y-49996800D02*
X182863700Y-49715500D01*
X181738400Y-49996800D02*
X182863700Y-49996800D01*
X186818400Y-49996800D02*
X185693100Y-49996800D01*
%TO.N,/~{RES}*%
X109372400Y-59334400D02*
X109372400Y-60459700D01*
X113182400Y-84401200D02*
X110052000Y-81270800D01*
X113182400Y-85094500D02*
X113182400Y-84401200D01*
X113949600Y-85861700D02*
X113182400Y-85094500D01*
X122641100Y-85861700D02*
X113949600Y-85861700D01*
X123487100Y-85015700D02*
X122641100Y-85861700D01*
X123487100Y-84734400D02*
X123487100Y-85015700D01*
X93873400Y-97449400D02*
X110052000Y-81270800D01*
X110497700Y-61585000D02*
X109372400Y-60459700D01*
X110497700Y-80825100D02*
X110497700Y-61585000D01*
X110052000Y-81270800D02*
X110497700Y-80825100D01*
X124612400Y-84734400D02*
X123487100Y-84734400D01*
%TO.N,/PB6*%
X147472400Y-109966700D02*
X147472400Y-99974400D01*
X148562800Y-111057100D02*
X147472400Y-109966700D01*
X149834500Y-116680400D02*
X149834500Y-113277700D01*
X144830500Y-121684400D02*
X149834500Y-116680400D01*
X144830500Y-142182000D02*
X144830500Y-121684400D01*
X147213400Y-144564900D02*
X144830500Y-142182000D01*
X147213400Y-145740200D02*
X147213400Y-144564900D01*
%TO.N,/PB5*%
X144932400Y-99974400D02*
X144932400Y-101099700D01*
X144673400Y-145740200D02*
X145848700Y-145740200D01*
X144932400Y-109155200D02*
X143030500Y-111057100D01*
X144932400Y-101099700D02*
X144932400Y-109155200D01*
X151762800Y-119787000D02*
X151762800Y-119631600D01*
X148483400Y-123066400D02*
X151762800Y-119787000D01*
X148483400Y-146138000D02*
X148483400Y-123066400D01*
X147701300Y-146920100D02*
X148483400Y-146138000D01*
X146661300Y-146920100D02*
X147701300Y-146920100D01*
X145848700Y-146107500D02*
X146661300Y-146920100D01*
X145848700Y-145740200D02*
X145848700Y-146107500D01*
%TO.N,/PHI2*%
X129739600Y-38039200D02*
X129739600Y-40579200D01*
X129458200Y-41704500D02*
X129739600Y-41704500D01*
X128614300Y-42548400D02*
X129458200Y-41704500D01*
X128614300Y-46587200D02*
X128614300Y-42548400D01*
X116992400Y-58209100D02*
X128614300Y-46587200D01*
X116992400Y-59334400D02*
X116992400Y-58209100D01*
X129739600Y-40579200D02*
X129739600Y-41704500D01*
X136211000Y-51887800D02*
X137359600Y-50739200D01*
X136211000Y-53770400D02*
X136211000Y-51887800D01*
X137897400Y-55456800D02*
X136211000Y-53770400D01*
X140132100Y-55456800D02*
X137897400Y-55456800D01*
X143662400Y-58987100D02*
X140132100Y-55456800D01*
X143662400Y-59864600D02*
X143662400Y-58987100D01*
X146347100Y-62549300D02*
X143662400Y-59864600D01*
X146347100Y-82483800D02*
X146347100Y-62549300D01*
X147472400Y-83609100D02*
X146347100Y-82483800D01*
X147472400Y-84734400D02*
X147472400Y-83609100D01*
X225239700Y-77037900D02*
X225607000Y-77037900D01*
X224242300Y-78035300D02*
X225239700Y-77037900D01*
X224242300Y-78402600D02*
X224242300Y-78035300D01*
X223067000Y-78402600D02*
X224242300Y-78402600D01*
X225607000Y-75862600D02*
X225607000Y-77037900D01*
X199532400Y-99964400D02*
X199532400Y-98839100D01*
X199615500Y-98839100D02*
X214398200Y-84056400D01*
X199532400Y-98839100D02*
X199615500Y-98839100D01*
%TO.N,/PB4*%
X142392400Y-99974400D02*
X142392400Y-101099700D01*
X142133400Y-145740200D02*
X142133400Y-144564900D01*
X148757600Y-116352100D02*
X148793100Y-116316600D01*
X148757500Y-116352100D02*
X148757600Y-116352100D01*
X148757500Y-116910200D02*
X148757500Y-116352100D01*
X142133400Y-123534300D02*
X148757500Y-116910200D01*
X142133400Y-144564900D02*
X142133400Y-123534300D01*
X142392400Y-110280500D02*
X142320800Y-110352100D01*
X142392400Y-101099700D02*
X142392400Y-110280500D01*
%TO.N,/~{RW}*%
X156283000Y-67070900D02*
X154591100Y-65379000D01*
X156283000Y-82418500D02*
X156283000Y-67070900D01*
X155092400Y-83609100D02*
X156283000Y-82418500D01*
X155092400Y-84734400D02*
X155092400Y-83609100D01*
X213203100Y-87708400D02*
X213203100Y-87145000D01*
X202072400Y-98839100D02*
X213203100Y-87708400D01*
X202072400Y-99964400D02*
X202072400Y-98839100D01*
%TO.N,/D0*%
X176658400Y-34756800D02*
X177783700Y-34756800D01*
X225607000Y-37762600D02*
X224431700Y-37762600D01*
X224431700Y-37395200D02*
X224431700Y-37762600D01*
X223623800Y-36587300D02*
X224431700Y-37395200D01*
X221557800Y-36587300D02*
X223623800Y-36587300D01*
X214535300Y-29564800D02*
X221557800Y-36587300D01*
X182694400Y-29564800D02*
X214535300Y-29564800D01*
X177783700Y-34475500D02*
X182694400Y-29564800D01*
X177783700Y-34756800D02*
X177783700Y-34475500D01*
X135935900Y-69243200D02*
X127152400Y-60459700D01*
X135935900Y-75106900D02*
X135935900Y-69243200D01*
X127433700Y-83609100D02*
X135935900Y-75106900D01*
X127152400Y-83609100D02*
X127433700Y-83609100D01*
X127152400Y-84734400D02*
X127152400Y-83609100D01*
X127152400Y-59334400D02*
X127152400Y-60459700D01*
%TO.N,/D1*%
X168014700Y-55231400D02*
X168292100Y-54954000D01*
X168014700Y-56725900D02*
X168014700Y-55231400D01*
X225909900Y-39127300D02*
X225607000Y-39127300D01*
X226785300Y-38251900D02*
X225909900Y-39127300D01*
X226785300Y-37203400D02*
X226785300Y-38251900D01*
X226074500Y-36492600D02*
X226785300Y-37203400D01*
X225160500Y-36492600D02*
X226074500Y-36492600D01*
X224242400Y-35574500D02*
X225160500Y-36492600D01*
X224242400Y-34203600D02*
X224242400Y-35574500D01*
X219151200Y-29112400D02*
X224242400Y-34203600D01*
X180606700Y-29112400D02*
X219151200Y-29112400D01*
X175243700Y-34475400D02*
X180606700Y-29112400D01*
X175243700Y-34756800D02*
X175243700Y-34475400D01*
X174118400Y-34756800D02*
X175243700Y-34756800D01*
X225607000Y-40302600D02*
X225607000Y-39127300D01*
X179212400Y-99964400D02*
X179212400Y-98839100D01*
X129692400Y-84734400D02*
X130817700Y-84734400D01*
X130817700Y-85015700D02*
X130817700Y-84734400D01*
X132157400Y-86355400D02*
X130817700Y-85015700D01*
X167177900Y-86355400D02*
X132157400Y-86355400D01*
X167177900Y-86804600D02*
X167177900Y-86355400D01*
X179212400Y-98839100D02*
X167177900Y-86804600D01*
X167177900Y-57562700D02*
X168014700Y-56725900D01*
X167177900Y-86355400D02*
X167177900Y-57562700D01*
%TO.N,/D2*%
X171578400Y-34756800D02*
X172703700Y-34756800D01*
X225607000Y-42842600D02*
X225607000Y-41667300D01*
X172703700Y-34475500D02*
X172703700Y-34756800D01*
X178517100Y-28662100D02*
X172703700Y-34475500D01*
X220778300Y-28662100D02*
X178517100Y-28662100D01*
X227235600Y-35119400D02*
X220778300Y-28662100D01*
X227235600Y-40406000D02*
X227235600Y-35119400D01*
X225974300Y-41667300D02*
X227235600Y-40406000D01*
X225607000Y-41667300D02*
X225974300Y-41667300D01*
X138449300Y-66676600D02*
X132232400Y-60459700D01*
X138449300Y-77392200D02*
X138449300Y-66676600D01*
X132232400Y-83609100D02*
X138449300Y-77392200D01*
X132232400Y-84734400D02*
X132232400Y-83609100D01*
X132232400Y-59334400D02*
X132232400Y-60459700D01*
%TO.N,/D3*%
X169038400Y-49996800D02*
X170163700Y-49996800D01*
X169072400Y-74564400D02*
X169072400Y-73439100D01*
X167925200Y-72291900D02*
X167925200Y-58481200D01*
X169072400Y-73439100D02*
X167925200Y-72291900D01*
X169038400Y-57368000D02*
X169038400Y-49996800D01*
X167925200Y-58481200D02*
X169038400Y-57368000D01*
X170163700Y-49715500D02*
X170163700Y-49996800D01*
X174238400Y-45640800D02*
X170163700Y-49715500D01*
X211486000Y-45640800D02*
X174238400Y-45640800D01*
X212509200Y-46664000D02*
X211486000Y-45640800D01*
X167909400Y-76852700D02*
X169072400Y-75689700D01*
X167909400Y-85208800D02*
X167909400Y-76852700D01*
X181539700Y-98839100D02*
X167909400Y-85208800D01*
X182323200Y-98839100D02*
X181539700Y-98839100D01*
X183167100Y-99683000D02*
X182323200Y-98839100D01*
X183167100Y-99964400D02*
X183167100Y-99683000D01*
X184292400Y-99964400D02*
X183167100Y-99964400D01*
X169072400Y-74564400D02*
X169072400Y-75689700D01*
%TO.N,/D4*%
X137312400Y-84734400D02*
X137312400Y-83609100D01*
X137312400Y-59334400D02*
X137312400Y-60459700D01*
X171578400Y-49996800D02*
X172703700Y-49996800D01*
X170478300Y-52222200D02*
X171578400Y-51122100D01*
X170478300Y-72305000D02*
X170478300Y-52222200D01*
X171612400Y-73439100D02*
X170478300Y-72305000D01*
X171612400Y-74564400D02*
X171612400Y-73439100D01*
X171578400Y-49996800D02*
X171578400Y-51122100D01*
X140978200Y-79943300D02*
X137312400Y-83609100D01*
X140978200Y-64125500D02*
X140978200Y-79943300D01*
X137312400Y-60459700D02*
X140978200Y-64125500D01*
X172703700Y-49798200D02*
X172703700Y-49996800D01*
X176403200Y-46098700D02*
X172703700Y-49798200D01*
X210692500Y-46098700D02*
X176403200Y-46098700D01*
X212262400Y-47668600D02*
X210692500Y-46098700D01*
X186832400Y-99964400D02*
X185707100Y-99964400D01*
X171612400Y-74564400D02*
X171612400Y-75689700D01*
X170459800Y-76842300D02*
X171612400Y-75689700D01*
X170459800Y-85234900D02*
X170459800Y-76842300D01*
X183877400Y-98652500D02*
X170459800Y-85234900D01*
X184676600Y-98652500D02*
X183877400Y-98652500D01*
X185707100Y-99683000D02*
X184676600Y-98652500D01*
X185707100Y-99964400D02*
X185707100Y-99683000D01*
%TO.N,/D5*%
X139852400Y-59334400D02*
X139852400Y-60459700D01*
X173018300Y-52222200D02*
X174118400Y-51122100D01*
X173018300Y-72305000D02*
X173018300Y-52222200D01*
X174152400Y-73439100D02*
X173018300Y-72305000D01*
X174152400Y-74564400D02*
X174152400Y-73439100D01*
X174118400Y-49996800D02*
X174118400Y-50545000D01*
X174118400Y-50545000D02*
X174118400Y-51122100D01*
X139852400Y-84734400D02*
X139852400Y-83609100D01*
X142761500Y-80700000D02*
X142761500Y-76531100D01*
X139852400Y-83609100D02*
X142761500Y-80700000D01*
X212917600Y-48851400D02*
X213081100Y-49014900D01*
X205557700Y-48851400D02*
X212917600Y-48851400D01*
X203261400Y-46555100D02*
X205557700Y-48851400D01*
X178108300Y-46555100D02*
X203261400Y-46555100D01*
X174118400Y-50545000D02*
X178108300Y-46555100D01*
X143856500Y-64463800D02*
X139852400Y-60459700D01*
X143856500Y-72916200D02*
X143856500Y-64463800D01*
X143764400Y-73008300D02*
X143856500Y-72916200D01*
%TO.N,/D6*%
X176658400Y-49996800D02*
X176658400Y-48871500D01*
X191912400Y-99964400D02*
X191912400Y-98839100D01*
X176692400Y-80610900D02*
X176692400Y-74564400D01*
X180482400Y-84400900D02*
X176692400Y-80610900D01*
X180482400Y-87409100D02*
X180482400Y-84400900D01*
X191912400Y-98839100D02*
X180482400Y-87409100D01*
X180393900Y-54857600D02*
X176658400Y-51122100D01*
X180393900Y-60413400D02*
X180393900Y-54857600D01*
X176692400Y-64114900D02*
X180393900Y-60413400D01*
X176692400Y-74564400D02*
X176692400Y-64114900D01*
X176658400Y-49996800D02*
X176658400Y-51122100D01*
X178524400Y-47005500D02*
X176658400Y-48871500D01*
X202329300Y-47005500D02*
X178524400Y-47005500D01*
X207151100Y-51827300D02*
X202329300Y-47005500D01*
X212233400Y-51827300D02*
X207151100Y-51827300D01*
X142392400Y-84734400D02*
X142392400Y-83609100D01*
X142392400Y-59334400D02*
X142392400Y-60459700D01*
X144489700Y-62557000D02*
X142392400Y-60459700D01*
X144489700Y-73308800D02*
X144489700Y-62557000D01*
X143517700Y-74280800D02*
X144489700Y-73308800D01*
X143517700Y-82483800D02*
X143517700Y-74280800D01*
X142392400Y-83609100D02*
X143517700Y-82483800D01*
%TO.N,/D7*%
X179198400Y-49996800D02*
X180323700Y-49996800D01*
X148754600Y-64281900D02*
X144932400Y-60459700D01*
X148754600Y-85056200D02*
X148754600Y-64281900D01*
X147951100Y-85859700D02*
X148754600Y-85056200D01*
X146901600Y-85859700D02*
X147951100Y-85859700D01*
X146057700Y-85015800D02*
X146901600Y-85859700D01*
X146057700Y-84734400D02*
X146057700Y-85015800D01*
X144932400Y-84734400D02*
X146057700Y-84734400D01*
X144932400Y-59334400D02*
X144932400Y-60459700D01*
X180323700Y-49715400D02*
X180323700Y-49996800D01*
X182541000Y-47498100D02*
X180323700Y-49715400D01*
X202128500Y-47498100D02*
X182541000Y-47498100D01*
X208997700Y-54367300D02*
X202128500Y-47498100D01*
X212255100Y-54367300D02*
X208997700Y-54367300D01*
X179232400Y-64711100D02*
X179232400Y-74564400D01*
X182901200Y-61042300D02*
X179232400Y-64711100D01*
X182901200Y-54964900D02*
X182901200Y-61042300D01*
X180323700Y-52387400D02*
X182901200Y-54964900D01*
X180323700Y-49996800D02*
X180323700Y-52387400D01*
X185417900Y-81875200D02*
X179232400Y-75689700D01*
X185417900Y-89804600D02*
X185417900Y-81875200D01*
X194452400Y-98839100D02*
X185417900Y-89804600D01*
X194452400Y-99964400D02*
X194452400Y-98839100D01*
X179232400Y-74564400D02*
X179232400Y-75689700D01*
%TO.N,/A15*%
X157705000Y-50739200D02*
X157705000Y-48199200D01*
X157705000Y-48199200D02*
X156579700Y-48199200D01*
X157705000Y-40579200D02*
X157705000Y-41704500D01*
X147472400Y-46645500D02*
X147472400Y-59334400D01*
X149620200Y-44497700D02*
X147472400Y-46645500D01*
X153159500Y-44497700D02*
X149620200Y-44497700D01*
X153895000Y-45233200D02*
X153159500Y-44497700D01*
X153895000Y-45514500D02*
X153895000Y-45233200D01*
X156579700Y-48199200D02*
X153895000Y-45514500D01*
X157423700Y-41704500D02*
X157705000Y-41704500D01*
X153895000Y-45233200D02*
X157423700Y-41704500D01*
X202092400Y-59324400D02*
X203217700Y-59324400D01*
X203217700Y-59855300D02*
X212227100Y-68864700D01*
X203217700Y-59324400D02*
X203217700Y-59855300D01*
%TO.N,/A14*%
X150085000Y-38039200D02*
X150085000Y-40579200D01*
X223067000Y-73322600D02*
X223067000Y-72147300D01*
X150012400Y-59334400D02*
X150012400Y-58209100D01*
X150085000Y-45659200D02*
X150085000Y-46784500D01*
X148508000Y-56704700D02*
X150012400Y-58209100D01*
X148508000Y-48080100D02*
X148508000Y-56704700D01*
X149803600Y-46784500D02*
X148508000Y-48080100D01*
X150085000Y-46784500D02*
X149803600Y-46784500D01*
X203536300Y-34756800D02*
X202058400Y-34756800D01*
X216369400Y-47589900D02*
X203536300Y-34756800D01*
X216369400Y-65817000D02*
X216369400Y-47589900D01*
X222699700Y-72147300D02*
X216369400Y-65817000D01*
X223067000Y-72147300D02*
X222699700Y-72147300D01*
X186852400Y-74564400D02*
X186852400Y-73439100D01*
X185798700Y-72385400D02*
X185798700Y-62812700D01*
X186852400Y-73439100D02*
X185798700Y-72385400D01*
%TO.N,/A13*%
X109394000Y-39944200D02*
X109394000Y-40579200D01*
X109394000Y-38039200D02*
X109394000Y-38991700D01*
X109394000Y-38991700D02*
X109394000Y-39944200D01*
X109394200Y-38991500D02*
X109394200Y-38039200D01*
X109394000Y-38991700D02*
X109394200Y-38991500D01*
X109394200Y-39944400D02*
X109394200Y-40579200D01*
X109394000Y-39944200D02*
X109394200Y-39944400D01*
X151427100Y-61585000D02*
X152552400Y-60459700D01*
X151427100Y-82194400D02*
X151427100Y-61585000D01*
X150012400Y-83609100D02*
X151427100Y-82194400D01*
X150012400Y-84734400D02*
X150012400Y-83609100D01*
X152552400Y-59334400D02*
X152552400Y-60459700D01*
X152301300Y-58209100D02*
X149248600Y-55156400D01*
X152552400Y-58209100D02*
X152301300Y-58209100D01*
X152552400Y-59334400D02*
X152552400Y-58209100D01*
X196978400Y-49996800D02*
X196978400Y-51122100D01*
X197012400Y-69715200D02*
X212869900Y-69715200D01*
X197012400Y-74564400D02*
X197012400Y-69715200D01*
X195853100Y-52247400D02*
X196978400Y-51122100D01*
X195853100Y-68555900D02*
X195853100Y-52247400D01*
X197012400Y-69715200D02*
X195853100Y-68555900D01*
%TO.N,/A12*%
X199552400Y-59324400D02*
X200677700Y-59324400D01*
X223067000Y-68242600D02*
X223067000Y-67067300D01*
X199518400Y-34756800D02*
X200643700Y-34756800D01*
X200643700Y-34111400D02*
X200643700Y-34756800D01*
X201123600Y-33631500D02*
X200643700Y-34111400D01*
X203047900Y-33631500D02*
X201123600Y-33631500D01*
X217932800Y-48516400D02*
X203047900Y-33631500D01*
X217932800Y-62300400D02*
X217932800Y-48516400D01*
X222699700Y-67067300D02*
X217932800Y-62300400D01*
X223067000Y-67067300D02*
X222699700Y-67067300D01*
X204797200Y-58199000D02*
X212933600Y-66335400D01*
X201099800Y-58199000D02*
X204797200Y-58199000D01*
X200677700Y-58621100D02*
X201099800Y-58199000D01*
X200677700Y-59324400D02*
X200677700Y-58621100D01*
%TO.N,/A11*%
X189358400Y-49996800D02*
X190483700Y-49996800D01*
X188253100Y-52227400D02*
X189358400Y-51122100D01*
X188253100Y-72299800D02*
X188253100Y-52227400D01*
X189392400Y-73439100D02*
X188253100Y-72299800D01*
X189392400Y-74564400D02*
X189392400Y-73439100D01*
X189358400Y-49996800D02*
X189358400Y-51122100D01*
X190483700Y-49715500D02*
X190483700Y-49996800D01*
X192236700Y-47962500D02*
X190483700Y-49715500D01*
X201880400Y-47962500D02*
X192236700Y-47962500D01*
X211218200Y-57300300D02*
X201880400Y-47962500D01*
X213515600Y-57300300D02*
X211218200Y-57300300D01*
X214428000Y-58212700D02*
X213515600Y-57300300D01*
X214428000Y-64527300D02*
X214428000Y-58212700D01*
%TO.N,/A10*%
X184278400Y-49996800D02*
X184278400Y-51122100D01*
X184312400Y-61859600D02*
X184312400Y-73439100D01*
X185497500Y-60674500D02*
X184312400Y-61859600D01*
X185497500Y-52341200D02*
X185497500Y-60674500D01*
X184278400Y-51122100D02*
X185497500Y-52341200D01*
X184312400Y-74001700D02*
X184312400Y-73439100D01*
X184312400Y-74001700D02*
X184312400Y-74564400D01*
X184312400Y-74564400D02*
X185437700Y-74564400D01*
X213660300Y-69967900D02*
X213660300Y-65205900D01*
X213107900Y-70520300D02*
X213660300Y-69967900D01*
X201948800Y-70520300D02*
X213107900Y-70520300D01*
X198282400Y-74186700D02*
X201948800Y-70520300D01*
X198282400Y-74934500D02*
X198282400Y-74186700D01*
X197198500Y-76018400D02*
X198282400Y-74934500D01*
X195686500Y-76018400D02*
X197198500Y-76018400D01*
X193388100Y-78316800D02*
X195686500Y-76018400D01*
X188908800Y-78316800D02*
X193388100Y-78316800D01*
X185437700Y-74845700D02*
X188908800Y-78316800D01*
X185437700Y-74564400D02*
X185437700Y-74845700D01*
%TO.N,/A9*%
X191932400Y-74564400D02*
X191932400Y-73439100D01*
X190586500Y-72093200D02*
X191932400Y-73439100D01*
X190586500Y-52434000D02*
X190586500Y-72093200D01*
X191898400Y-51122100D02*
X190586500Y-52434000D01*
X191898400Y-49996800D02*
X191898400Y-50559400D01*
X191898400Y-50559400D02*
X191898400Y-51122100D01*
X208503600Y-58064100D02*
X212257100Y-58064100D01*
X200788400Y-50348900D02*
X208503600Y-58064100D01*
X200788400Y-49632300D02*
X200788400Y-50348900D01*
X199569000Y-48412900D02*
X200788400Y-49632300D01*
X194044900Y-48412900D02*
X199569000Y-48412900D01*
X191898400Y-50559400D02*
X194044900Y-48412900D01*
%TO.N,/A8*%
X193343100Y-72309800D02*
X194472400Y-73439100D01*
X193343100Y-52217400D02*
X193343100Y-72309800D01*
X194438400Y-51122100D02*
X193343100Y-52217400D01*
X194472400Y-74288900D02*
X194472400Y-73439100D01*
X194472400Y-74288900D02*
X194472400Y-74564400D01*
X194438400Y-49996800D02*
X194438400Y-50446800D01*
X194438400Y-50446800D02*
X194438400Y-51122100D01*
X212582700Y-58795000D02*
X213263200Y-58114500D01*
X206671900Y-58795000D02*
X212582700Y-58795000D01*
X198357300Y-50480400D02*
X206671900Y-58795000D01*
X198357300Y-49751500D02*
X198357300Y-50480400D01*
X197469100Y-48863300D02*
X198357300Y-49751500D01*
X196021900Y-48863300D02*
X197469100Y-48863300D01*
X194438400Y-50446800D02*
X196021900Y-48863300D01*
%TO.N,/A7*%
X196978400Y-34756800D02*
X198103700Y-34756800D01*
X223067000Y-55542600D02*
X223067000Y-54367300D01*
X147472400Y-74574400D02*
X147472400Y-73449100D01*
X148016800Y-72904700D02*
X148016800Y-64653700D01*
X147472400Y-73449100D02*
X148016800Y-72904700D01*
X198103700Y-34475500D02*
X198103700Y-34756800D01*
X199398000Y-33181200D02*
X198103700Y-34475500D01*
X203234500Y-33181200D02*
X199398000Y-33181200D01*
X218383200Y-48329900D02*
X203234500Y-33181200D01*
X218383200Y-50050900D02*
X218383200Y-48329900D01*
X222699600Y-54367300D02*
X218383200Y-50050900D01*
X223067000Y-54367300D02*
X222699600Y-54367300D01*
%TO.N,/A6*%
X194438400Y-34756800D02*
X195563700Y-34756800D01*
X223067000Y-53002600D02*
X223067000Y-51827300D01*
X195563700Y-34475500D02*
X195563700Y-34756800D01*
X197308300Y-32730900D02*
X195563700Y-34475500D01*
X203421100Y-32730900D02*
X197308300Y-32730900D01*
X222517500Y-51827300D02*
X203421100Y-32730900D01*
X223067000Y-51827300D02*
X222517500Y-51827300D01*
X195627600Y-75015600D02*
X193073100Y-77570100D01*
X195627600Y-70462200D02*
X195627600Y-75015600D01*
X194472400Y-69307000D02*
X195627600Y-70462200D01*
X194472400Y-59324400D02*
X194472400Y-69307000D01*
%TO.N,/A5*%
X203709200Y-32280100D02*
X221891700Y-50462600D01*
X195219100Y-32280100D02*
X203709200Y-32280100D01*
X193023700Y-34475500D02*
X195219100Y-32280100D01*
X193023700Y-34756800D02*
X193023700Y-34475500D01*
X191898400Y-34756800D02*
X193023700Y-34756800D01*
X223067000Y-50462600D02*
X221891700Y-50462600D01*
X191932400Y-59324400D02*
X191932400Y-60449700D01*
X191311800Y-61070300D02*
X191311800Y-70565500D01*
X191932400Y-60449700D02*
X191311800Y-61070300D01*
%TO.N,/A4*%
X205798800Y-31829700D02*
X221891700Y-47922600D01*
X193129500Y-31829700D02*
X205798800Y-31829700D01*
X190483700Y-34475500D02*
X193129500Y-31829700D01*
X190483700Y-34756800D02*
X190483700Y-34475500D01*
X189358400Y-34756800D02*
X190483700Y-34756800D01*
X223067000Y-47922600D02*
X221891700Y-47922600D01*
X189159400Y-60682700D02*
X189159400Y-68845200D01*
X189392400Y-60449700D02*
X189159400Y-60682700D01*
X189392400Y-59324400D02*
X189392400Y-60449700D01*
%TO.N,/PB3*%
X141245200Y-102492500D02*
X141245200Y-111036400D01*
X139852400Y-101099700D02*
X141245200Y-102492500D01*
X139852400Y-99974400D02*
X139852400Y-101099700D01*
X139593400Y-145740200D02*
X139593400Y-144564900D01*
X141553200Y-142605100D02*
X141553200Y-113266400D01*
X139593400Y-144564900D02*
X141553200Y-142605100D01*
%TO.N,/~{IRQ}*%
X198697700Y-97195500D02*
X212251700Y-83641500D01*
X196992400Y-97195500D02*
X198697700Y-97195500D01*
X196992400Y-99964400D02*
X196992400Y-97195500D01*
X196318400Y-97195500D02*
X186183000Y-87060100D01*
X196992400Y-97195500D02*
X196318400Y-97195500D01*
%TO.N,/PB2*%
X137053400Y-145740200D02*
X137053400Y-144564900D01*
X138714400Y-102501700D02*
X138714400Y-111042400D01*
X137312400Y-101099700D02*
X138714400Y-102501700D01*
X137312400Y-99974400D02*
X137312400Y-101099700D01*
X140811300Y-140807000D02*
X140811300Y-114248500D01*
X137053400Y-144564900D02*
X140811300Y-140807000D01*
X222880700Y-116936600D02*
X219010000Y-120807300D01*
X225597800Y-116936600D02*
X222880700Y-116936600D01*
%TO.N,/PB1*%
X137248700Y-141829600D02*
X137248700Y-113293900D01*
X134513400Y-144564900D02*
X137248700Y-141829600D01*
X134513400Y-145740200D02*
X134513400Y-144564900D01*
X135099400Y-101426700D02*
X134772400Y-101099700D01*
X135099400Y-111015000D02*
X135099400Y-101426700D01*
X134772400Y-99974400D02*
X134772400Y-101099700D01*
X224381400Y-114396600D02*
X217666400Y-121111600D01*
X225597800Y-114396600D02*
X224381400Y-114396600D01*
%TO.N,/PB0*%
X130083100Y-103249000D02*
X130083100Y-111046500D01*
X132232400Y-101099700D02*
X130083100Y-103249000D01*
X132232400Y-99974400D02*
X132232400Y-101099700D01*
%TO.N,/PA7*%
X129692400Y-99974400D02*
X129692400Y-101099700D01*
X129337400Y-101454700D02*
X129337400Y-110377100D01*
X129692400Y-101099700D02*
X129337400Y-101454700D01*
X225597800Y-109316600D02*
X224422500Y-109316600D01*
X224422500Y-109429000D02*
X211567300Y-122284200D01*
X224422500Y-109316600D02*
X224422500Y-109429000D01*
%TO.N,/PA6*%
X124847600Y-103404500D02*
X127152400Y-101099700D01*
X124847600Y-109648800D02*
X124847600Y-103404500D01*
X127152400Y-99974400D02*
X127152400Y-101099700D01*
%TO.N,/PA5*%
X124612400Y-99974400D02*
X124612400Y-101099700D01*
X121639000Y-104073100D02*
X121639000Y-109018000D01*
X124612400Y-101099700D02*
X121639000Y-104073100D01*
%TO.N,/CNTRST*%
X176184800Y-148518800D02*
X177236200Y-147467400D01*
X125400000Y-148518800D02*
X176184800Y-148518800D01*
X122988700Y-146107500D02*
X125400000Y-148518800D01*
X122988700Y-145740200D02*
X122988700Y-146107500D01*
X121813400Y-145740200D02*
X122988700Y-145740200D01*
%TO.N,/RDY*%
X119532400Y-59334400D02*
X120095100Y-59334400D01*
X111912400Y-67517100D02*
X111912400Y-74574400D01*
X120095100Y-59334400D02*
X111912400Y-67517100D01*
X120095100Y-58767700D02*
X120095100Y-59334400D01*
X129393600Y-49469200D02*
X120095100Y-58767700D01*
X130116300Y-49469200D02*
X129393600Y-49469200D01*
X136234300Y-43351200D02*
X130116300Y-49469200D01*
X136234300Y-42548400D02*
X136234300Y-43351200D01*
X137078200Y-41704500D02*
X136234300Y-42548400D01*
X137359600Y-41704500D02*
X137078200Y-41704500D01*
X137359600Y-40579200D02*
X137359600Y-41704500D01*
X221617400Y-49136200D02*
X205058700Y-32577500D01*
X223416500Y-49136200D02*
X221617400Y-49136200D01*
X224242400Y-49962100D02*
X223416500Y-49136200D01*
X224242400Y-73648800D02*
X224242400Y-49962100D01*
X225091600Y-74498000D02*
X224242400Y-73648800D01*
X225937100Y-74498000D02*
X225091600Y-74498000D01*
X226782400Y-75343300D02*
X225937100Y-74498000D01*
X226782400Y-79767200D02*
X226782400Y-75343300D01*
X225607000Y-80942600D02*
X226782400Y-79767200D01*
%TO.N,/PHI1*%
X190787000Y-84943500D02*
X189395700Y-86334800D01*
X190787000Y-81979800D02*
X190787000Y-84943500D01*
X195153000Y-77613800D02*
X190787000Y-81979800D01*
X211423600Y-77613800D02*
X195153000Y-77613800D01*
X214414400Y-74623000D02*
X211423600Y-77613800D01*
%TO.N,/CB2*%
X155092400Y-99974400D02*
X156217700Y-99974400D01*
X167934700Y-110820400D02*
X169272300Y-109482800D01*
X163472800Y-110820400D02*
X167934700Y-110820400D01*
X162025100Y-109372700D02*
X163472800Y-110820400D01*
X162025100Y-102775300D02*
X162025100Y-109372700D01*
X158069800Y-98820000D02*
X162025100Y-102775300D01*
X157090800Y-98820000D02*
X158069800Y-98820000D01*
X156217700Y-99693100D02*
X157090800Y-98820000D01*
X156217700Y-99974400D02*
X156217700Y-99693100D01*
%TO.N,/CB1*%
X198262400Y-98708000D02*
X214439100Y-82531300D01*
X198262400Y-100831600D02*
X198262400Y-98708000D01*
X197471600Y-101622400D02*
X198262400Y-100831600D01*
%TO.N,/A3*%
X186818400Y-34756800D02*
X187943700Y-34756800D01*
X223067000Y-45382600D02*
X221891700Y-45382600D01*
X207888400Y-31379300D02*
X221891700Y-45382600D01*
X191039900Y-31379300D02*
X207888400Y-31379300D01*
X187943700Y-34475500D02*
X191039900Y-31379300D01*
X187943700Y-34756800D02*
X187943700Y-34475500D01*
X186852400Y-59324400D02*
X186852400Y-60449700D01*
X185052800Y-62249300D02*
X185052800Y-66064600D01*
X186852400Y-60449700D02*
X185052800Y-62249300D01*
X123197700Y-83609100D02*
X122072400Y-84734400D01*
X125101500Y-83609100D02*
X123197700Y-83609100D01*
X125956300Y-84463900D02*
X125101500Y-83609100D01*
X125956300Y-85159400D02*
X125956300Y-84463900D01*
X126658400Y-85861500D02*
X125956300Y-85159400D01*
X127624300Y-85861500D02*
X126658400Y-85861500D01*
X128422400Y-85063400D02*
X127624300Y-85861500D01*
X128422400Y-84308400D02*
X128422400Y-85063400D01*
X137031100Y-75699700D02*
X128422400Y-84308400D01*
X137312400Y-75699700D02*
X137031100Y-75699700D01*
X137312400Y-74574400D02*
X137312400Y-75699700D01*
%TO.N,/A2*%
X181091400Y-63670700D02*
X181091400Y-66026200D01*
X184312400Y-60449700D02*
X181091400Y-63670700D01*
X184312400Y-59324400D02*
X184312400Y-60449700D01*
X133647100Y-74855700D02*
X133647100Y-74574400D01*
X126267600Y-82235200D02*
X133647100Y-74855700D01*
X122875600Y-82235200D02*
X126267600Y-82235200D01*
X120657700Y-84453100D02*
X122875600Y-82235200D01*
X120657700Y-84734400D02*
X120657700Y-84453100D01*
X119532400Y-84734400D02*
X120657700Y-84734400D01*
X134772400Y-74574400D02*
X133647100Y-74574400D01*
X209964900Y-30915800D02*
X221891700Y-42842600D01*
X188963400Y-30915800D02*
X209964900Y-30915800D01*
X185403700Y-34475500D02*
X188963400Y-30915800D01*
X185403700Y-34756800D02*
X185403700Y-34475500D01*
X184278400Y-34756800D02*
X185403700Y-34756800D01*
X223067000Y-42842600D02*
X221891700Y-42842600D01*
%TO.N,/A1*%
X116992400Y-84734400D02*
X118117700Y-84734400D01*
X132232400Y-74574400D02*
X131107100Y-74574400D01*
X131107100Y-74855700D02*
X131107100Y-74574400D01*
X129281300Y-76681500D02*
X131107100Y-74855700D01*
X125966100Y-76681500D02*
X129281300Y-76681500D01*
X118117700Y-84529900D02*
X125966100Y-76681500D01*
X118117700Y-84734400D02*
X118117700Y-84529900D01*
X181738400Y-34756800D02*
X182863700Y-34756800D01*
X223067000Y-40302600D02*
X221891700Y-40302600D01*
X182863700Y-34475500D02*
X182863700Y-34756800D01*
X186873800Y-30465400D02*
X182863700Y-34475500D01*
X212054500Y-30465400D02*
X186873800Y-30465400D01*
X221891700Y-40302600D02*
X212054500Y-30465400D01*
X177859800Y-64362300D02*
X177859800Y-78295400D01*
X181772400Y-60449700D02*
X177859800Y-64362300D01*
X181772400Y-59324400D02*
X181772400Y-60449700D01*
%TO.N,/A0*%
X129692400Y-74574400D02*
X128567100Y-74574400D01*
X114452400Y-84734400D02*
X115577700Y-84734400D01*
X179198400Y-34756800D02*
X180323700Y-34756800D01*
X223067000Y-37762600D02*
X221891700Y-37762600D01*
X171592400Y-84724400D02*
X171592400Y-83599100D01*
X179232400Y-59324400D02*
X179232400Y-60449700D01*
X175348400Y-79843100D02*
X171592400Y-83599100D01*
X175348400Y-64333700D02*
X175348400Y-79843100D01*
X179232400Y-60449700D02*
X175348400Y-64333700D01*
X214144200Y-30015100D02*
X221891700Y-37762600D01*
X184784100Y-30015100D02*
X214144200Y-30015100D01*
X180323700Y-34475500D02*
X184784100Y-30015100D01*
X180323700Y-34756800D02*
X180323700Y-34475500D01*
X128567100Y-74776200D02*
X128567100Y-74574400D01*
X127337200Y-76006100D02*
X128567100Y-74776200D01*
X125507500Y-76006100D02*
X127337200Y-76006100D01*
X125057200Y-76456400D02*
X125507500Y-76006100D01*
X123677900Y-76456400D02*
X125057200Y-76456400D01*
X115577700Y-84556600D02*
X123677900Y-76456400D01*
X115577700Y-84734400D02*
X115577700Y-84556600D01*
%TO.N,VCC*%
X153766600Y-104965500D02*
X157632400Y-101099700D01*
X153766600Y-109682600D02*
X153766600Y-104965500D01*
X157632400Y-99974400D02*
X157632400Y-101099700D01*
X153766600Y-123662600D02*
X153766600Y-130662600D01*
X153766600Y-143091700D02*
X152293400Y-144564900D01*
X153766600Y-130662600D02*
X153766600Y-143091700D01*
X152293400Y-145740200D02*
X152293400Y-144564900D01*
X153766600Y-116662600D02*
X153766600Y-123662600D01*
X113327100Y-59053000D02*
X113327100Y-59334400D01*
X112483200Y-58209100D02*
X113327100Y-59053000D01*
X108877400Y-58209100D02*
X112483200Y-58209100D01*
X103327200Y-63759300D02*
X108877400Y-58209100D01*
X103327200Y-72206800D02*
X103327200Y-63759300D01*
X114452400Y-59334400D02*
X113327100Y-59334400D01*
X126027100Y-74751300D02*
X126027100Y-74574400D01*
X125053700Y-75724700D02*
X126027100Y-74751300D01*
X124066700Y-75724700D02*
X125053700Y-75724700D01*
X123197700Y-74855700D02*
X124066700Y-75724700D01*
X123197700Y-74574400D02*
X123197700Y-74855700D01*
X122072400Y-74574400D02*
X123197700Y-74574400D01*
X127152400Y-74574400D02*
X126027100Y-74574400D01*
D29*
%TO.N,GND*%
X215544000Y-48971200D02*
X215544000Y-50952400D01*
X114535000Y-35985400D02*
X114264000Y-36256800D01*
X114535000Y-33218200D02*
X114535000Y-35985400D01*
X134773000Y-36170600D02*
X134860000Y-36256800D01*
X134773000Y-33218200D02*
X134773000Y-36170600D01*
X215544000Y-72491600D02*
X215544000Y-80467200D01*
X214726000Y-50134200D02*
X215544000Y-50952400D01*
X207128200Y-50134200D02*
X214726000Y-50134200D01*
X215544000Y-50952400D02*
X215544000Y-72491600D01*
X215102000Y-72049400D02*
X215544000Y-72491600D01*
X207157400Y-72049400D02*
X215102000Y-72049400D01*
X90982800Y-102840000D02*
X90982800Y-102921000D01*
X93873400Y-99949400D02*
X90982800Y-102840000D01*
X215544000Y-80467200D02*
X215544000Y-98145600D01*
X215544000Y-48107600D02*
X215544000Y-48971200D01*
X215544000Y-48107600D02*
X215544000Y-48971200D01*
X214848000Y-97449400D02*
X215544000Y-98145600D01*
X207157400Y-97449400D02*
X214848000Y-97449400D01*
X215544000Y-107086000D02*
X210464000Y-112166000D01*
X215544000Y-98145600D02*
X215544000Y-107086000D01*
D28*
X103022000Y-97454400D02*
X103022000Y-97454600D01*
D29*
X85427400Y-136305000D02*
X85352400Y-136230000D01*
X85427400Y-144697900D02*
X85427400Y-136305000D01*
X85352400Y-136230000D02*
X85277400Y-136155000D01*
D28*
X226142000Y-149361000D02*
X225857000Y-149646000D01*
D29*
X225857000Y-149646000D02*
X226142000Y-149361000D01*
D28*
X194366600Y-80005000D02*
X194367000Y-80005000D01*
X92298600Y-69438600D02*
X97155000Y-74295000D01*
D29*
X90159300Y-81290700D02*
X97155000Y-74295000D01*
X90159300Y-102097000D02*
X90159300Y-81290700D01*
X90982800Y-102921000D02*
X90159300Y-102097000D01*
X102088000Y-74706800D02*
X103327000Y-74706800D01*
X99415600Y-72034400D02*
X102088000Y-74706800D01*
X97155000Y-74295000D02*
X99415600Y-72034400D01*
D28*
X202781200Y-82890300D02*
X202781200Y-80005000D01*
X202072400Y-83599100D02*
X202781200Y-82890300D01*
D29*
X194367000Y-80005000D02*
X202781200Y-80005000D01*
X215082000Y-80005000D02*
X215544000Y-80467200D01*
X202781200Y-80005000D02*
X215082000Y-80005000D01*
D28*
X202072400Y-84724400D02*
X202072400Y-83599100D01*
X83227400Y-97035400D02*
X80277400Y-97035400D01*
X83227400Y-103535400D02*
X80277400Y-103535400D01*
D29*
X80277400Y-103535400D02*
X80277400Y-97035400D01*
X134860000Y-36256800D02*
X155332000Y-36256800D01*
D28*
X103327200Y-74706800D02*
X103327000Y-74706800D01*
X134773400Y-33218200D02*
X134773000Y-33218200D01*
X225572000Y-137230800D02*
X225572000Y-137231000D01*
D29*
X227894000Y-139553000D02*
X225572000Y-137231000D01*
X227894000Y-147609000D02*
X227894000Y-139553000D01*
X226142000Y-149361000D02*
X227894000Y-147609000D01*
X210464000Y-123973000D02*
X210464000Y-112166000D01*
X223722000Y-137231000D02*
X210464000Y-123973000D01*
X225572000Y-137231000D02*
X223722000Y-137231000D01*
X155124000Y-33218200D02*
X155124000Y-34633600D01*
X155124000Y-36049000D02*
X155332000Y-36256800D01*
X155124000Y-34633600D02*
X155124000Y-36049000D01*
D28*
X155124200Y-34633400D02*
X155124200Y-33218200D01*
X155124000Y-34633600D02*
X155124200Y-34633400D01*
X117014200Y-50739200D02*
X117014200Y-48199200D01*
X103022400Y-97454400D02*
X103022000Y-97454400D01*
X92197000Y-43378200D02*
X94335700Y-45516900D01*
D29*
X80277400Y-59575000D02*
X94335700Y-45516900D01*
X80277400Y-97035400D02*
X80277400Y-59575000D01*
X103596000Y-36256800D02*
X114264000Y-36256800D01*
X94335700Y-45516900D02*
X103596000Y-36256800D01*
D28*
X79649400Y-114713000D02*
X79649400Y-114713400D01*
D29*
X80277400Y-114085000D02*
X80277400Y-103535400D01*
X79879900Y-114482000D02*
X80277400Y-114085000D01*
X79649400Y-114713000D02*
X79879900Y-114482000D01*
X210464000Y-112166000D02*
X172160700Y-112166000D01*
D28*
X171592400Y-99964400D02*
X171592400Y-101089700D01*
X225857000Y-149646000D02*
X225714500Y-149788500D01*
D29*
X100228000Y-112166000D02*
X99121400Y-111059500D01*
X106020000Y-112166000D02*
X100228000Y-112166000D01*
X98014800Y-109953000D02*
X90982800Y-102921000D01*
X99121400Y-111059500D02*
X98014800Y-109953000D01*
D28*
X92095400Y-117919000D02*
X92095400Y-119883000D01*
X98954900Y-111059500D02*
X92095400Y-117919000D01*
X99121400Y-111059500D02*
X98954900Y-111059500D01*
X117014200Y-40579200D02*
X117014200Y-43119200D01*
X117014200Y-43119200D02*
X117014200Y-44244500D01*
X117014200Y-48199200D02*
X117014200Y-47073900D01*
X125841300Y-108283200D02*
X127016600Y-107107900D01*
X125841300Y-112014800D02*
X125841300Y-108283200D01*
X125992500Y-112166000D02*
X125841300Y-112014800D01*
X127016600Y-105932600D02*
X127016600Y-107107900D01*
X168151600Y-35882100D02*
X169038400Y-35882100D01*
X167776900Y-36256800D02*
X168151600Y-35882100D01*
X169038400Y-34756800D02*
X169038400Y-35882100D01*
X172160700Y-101658000D02*
X171592400Y-101089700D01*
X172160700Y-112166000D02*
X172160700Y-101658000D01*
X109394200Y-45659200D02*
X109394200Y-48199200D01*
D29*
X85277400Y-134385000D02*
X78547700Y-127655100D01*
X85277400Y-136155000D02*
X85277400Y-134385000D01*
X113679600Y-112166000D02*
X106020000Y-112166000D01*
D28*
X113516600Y-112329000D02*
X113516600Y-117432600D01*
X113679600Y-112166000D02*
X113516600Y-112329000D01*
X116733400Y-139891100D02*
X127016600Y-129607900D01*
X116733400Y-145740200D02*
X116733400Y-139891100D01*
X127016600Y-128432600D02*
X127016600Y-129607900D01*
D29*
X155332000Y-36256800D02*
X163416200Y-36256800D01*
X163416200Y-36256800D02*
X167776900Y-36256800D01*
D28*
X157632400Y-59334400D02*
X157632400Y-58321700D01*
X163416200Y-49190100D02*
X156014800Y-56591500D01*
X163416200Y-36256800D02*
X163416200Y-49190100D01*
X157632400Y-58209100D02*
X156014800Y-56591500D01*
X157632400Y-58321700D02*
X157632400Y-58209100D01*
X152702500Y-53279200D02*
X150085000Y-53279200D01*
X156014800Y-56591500D02*
X152702500Y-53279200D01*
D29*
X172160700Y-112166000D02*
X167509400Y-112166000D01*
D28*
X154833400Y-145740200D02*
X154833400Y-144564900D01*
X106497600Y-99974400D02*
X106020000Y-100452000D01*
X109372400Y-99974400D02*
X106497600Y-99974400D01*
D29*
X103022000Y-97454600D02*
X106020000Y-100452000D01*
X106020000Y-100452000D02*
X106020000Y-112166000D01*
D28*
X115888900Y-45088500D02*
X115888900Y-45659200D01*
X116732900Y-44244500D02*
X115888900Y-45088500D01*
X117014200Y-44244500D02*
X116732900Y-44244500D01*
X116732800Y-47073900D02*
X117014200Y-47073900D01*
X115888900Y-46230000D02*
X116732800Y-47073900D01*
X115888900Y-45659200D02*
X115888900Y-46230000D01*
X115888900Y-45659200D02*
X109394200Y-45659200D01*
D29*
X114264000Y-36256800D02*
X115189100Y-36256800D01*
X115189100Y-36256800D02*
X134860000Y-36256800D01*
D28*
X116732900Y-39453900D02*
X117014200Y-39453900D01*
X115189100Y-37910100D02*
X116732900Y-39453900D01*
X115189100Y-36256800D02*
X115189100Y-37910100D01*
X117014200Y-40579200D02*
X117014200Y-39453900D01*
X127016600Y-128432600D02*
X128191900Y-128432600D01*
X133516600Y-128432600D02*
X128191900Y-128432600D01*
X85352000Y-136230000D02*
X85314700Y-136192500D01*
X85352400Y-136230000D02*
X85352000Y-136230000D01*
X85314700Y-136192500D02*
X85277400Y-136155000D01*
X85314500Y-136192500D02*
X85277400Y-136155400D01*
X85314700Y-136192500D02*
X85314500Y-136192500D01*
D29*
X167509400Y-112166000D02*
X145862100Y-112166000D01*
D28*
X146016600Y-112320500D02*
X146016600Y-117682600D01*
X145862100Y-112166000D02*
X146016600Y-112320500D01*
D29*
X125992500Y-112166000D02*
X119836100Y-112166000D01*
X119836100Y-112166000D02*
X113679600Y-112166000D01*
D28*
X212320900Y-44567200D02*
X212162400Y-44725700D01*
D29*
X203694000Y-36256800D02*
X212162400Y-44725700D01*
X167776900Y-36256800D02*
X203694000Y-36256800D01*
X212162400Y-44725700D02*
X215544000Y-48107600D01*
X145862100Y-112166000D02*
X139030000Y-112166000D01*
X139030000Y-112166000D02*
X125992500Y-112166000D01*
D28*
X139030000Y-116020700D02*
X139516600Y-116507300D01*
X139030000Y-112166000D02*
X139030000Y-116020700D01*
X139516600Y-117682600D02*
X139516600Y-116507300D01*
X162747400Y-119681000D02*
X162747400Y-143389600D01*
X167509400Y-114919000D02*
X162747400Y-119681000D01*
X167509400Y-112166000D02*
X167509400Y-114919000D01*
X156008700Y-143389600D02*
X162747400Y-143389600D01*
X154833400Y-144564900D02*
X156008700Y-143389600D01*
X170618400Y-143389600D02*
X174696200Y-147467400D01*
X162747400Y-143389600D02*
X170618400Y-143389600D01*
X120016600Y-112346500D02*
X120016600Y-117432600D01*
X119836100Y-112166000D02*
X120016600Y-112346500D01*
X127016600Y-124432600D02*
X127016600Y-128432600D01*
X120016600Y-117432600D02*
X127016600Y-124432600D01*
%TD*%
M02*
