%TF.GenerationSoftware,KiCad,Pcbnew,(6.0.7)*%
%TF.CreationDate,2022-09-03T14:48:31-04:00*%
%TF.ProjectId,6502,36353032-2e6b-4696-9361-645f70636258,1.1*%
%TF.SameCoordinates,Original*%
%TF.FileFunction,Legend,Top*%
%TF.FilePolarity,Positive*%
%FSLAX46Y46*%
G04 Gerber Fmt 4.6, Leading zero omitted, Abs format (unit mm)*
G04 Created by KiCad (PCBNEW (6.0.7)) date 2022-09-03 14:48:31*
%MOMM*%
%LPD*%
G01*
G04 APERTURE LIST*
%ADD10C,0.150000*%
%ADD11C,0.120000*%
G04 APERTURE END LIST*
D10*
X230677800Y-146807000D02*
X228239400Y-146807000D01*
X228809000Y-77548600D02*
X231809000Y-77548600D01*
X218697000Y-82602600D02*
X220697000Y-82602600D01*
X218697000Y-80102600D02*
X220697000Y-80102600D01*
X206355780Y-69171685D02*
X206355780Y-69076447D01*
X206403400Y-68981209D01*
X206451019Y-68933590D01*
X206546257Y-68885971D01*
X206736733Y-68838352D01*
X206974828Y-68838352D01*
X207165304Y-68885971D01*
X207260542Y-68933590D01*
X207308161Y-68981209D01*
X207355780Y-69076447D01*
X207355780Y-69171685D01*
X207308161Y-69266923D01*
X207260542Y-69314542D01*
X207165304Y-69362161D01*
X206974828Y-69409780D01*
X206736733Y-69409780D01*
X206546257Y-69362161D01*
X206451019Y-69314542D01*
X206403400Y-69266923D01*
X206355780Y-69171685D01*
X207260542Y-68409780D02*
X207308161Y-68362161D01*
X207355780Y-68409780D01*
X207308161Y-68457400D01*
X207260542Y-68409780D01*
X207355780Y-68409780D01*
X207355780Y-67409780D02*
X207355780Y-67981209D01*
X207355780Y-67695495D02*
X206355780Y-67695495D01*
X206498638Y-67790733D01*
X206593876Y-67885971D01*
X206641495Y-67981209D01*
X206689114Y-66981209D02*
X207689114Y-66981209D01*
X207212923Y-66505019D02*
X207308161Y-66457400D01*
X207355780Y-66362161D01*
X207212923Y-66981209D02*
X207308161Y-66933590D01*
X207355780Y-66838352D01*
X207355780Y-66647876D01*
X207308161Y-66552638D01*
X207212923Y-66505019D01*
X206689114Y-66505019D01*
X206831971Y-65600257D02*
X206831971Y-65933590D01*
X207355780Y-65933590D02*
X206355780Y-65933590D01*
X206355780Y-65457400D01*
X103385780Y-118230923D02*
X102385780Y-118230923D01*
X102385780Y-117849971D01*
X102433400Y-117754733D01*
X102481019Y-117707114D01*
X102576257Y-117659495D01*
X102719114Y-117659495D01*
X102814352Y-117707114D01*
X102861971Y-117754733D01*
X102909590Y-117849971D01*
X102909590Y-118230923D01*
X102385780Y-117040447D02*
X102385780Y-116849971D01*
X102433400Y-116754733D01*
X102528638Y-116659495D01*
X102719114Y-116611876D01*
X103052447Y-116611876D01*
X103242923Y-116659495D01*
X103338161Y-116754733D01*
X103385780Y-116849971D01*
X103385780Y-117040447D01*
X103338161Y-117135685D01*
X103242923Y-117230923D01*
X103052447Y-117278542D01*
X102719114Y-117278542D01*
X102528638Y-117230923D01*
X102433400Y-117135685D01*
X102385780Y-117040447D01*
X102385780Y-116278542D02*
X103385780Y-116040447D01*
X102671495Y-115849971D01*
X103385780Y-115659495D01*
X102385780Y-115421400D01*
X102861971Y-115040447D02*
X102861971Y-114707114D01*
X103385780Y-114564257D02*
X103385780Y-115040447D01*
X102385780Y-115040447D01*
X102385780Y-114564257D01*
X103385780Y-113564257D02*
X102909590Y-113897590D01*
X103385780Y-114135685D02*
X102385780Y-114135685D01*
X102385780Y-113754733D01*
X102433400Y-113659495D01*
X102481019Y-113611876D01*
X102576257Y-113564257D01*
X102719114Y-113564257D01*
X102814352Y-113611876D01*
X102861971Y-113659495D01*
X102909590Y-113754733D01*
X102909590Y-114135685D01*
X228444332Y-125593798D02*
X228444332Y-124593798D01*
X228825285Y-124593798D01*
X228920523Y-124641418D01*
X228968142Y-124689037D01*
X229015761Y-124784275D01*
X229015761Y-124927132D01*
X228968142Y-125022370D01*
X228920523Y-125069989D01*
X228825285Y-125117608D01*
X228444332Y-125117608D01*
X229777666Y-125069989D02*
X229920523Y-125117608D01*
X229968142Y-125165227D01*
X230015761Y-125260465D01*
X230015761Y-125403322D01*
X229968142Y-125498560D01*
X229920523Y-125546179D01*
X229825285Y-125593798D01*
X229444332Y-125593798D01*
X229444332Y-124593798D01*
X229777666Y-124593798D01*
X229872904Y-124641418D01*
X229920523Y-124689037D01*
X229968142Y-124784275D01*
X229968142Y-124879513D01*
X229920523Y-124974751D01*
X229872904Y-125022370D01*
X229777666Y-125069989D01*
X229444332Y-125069989D01*
X230920523Y-124593798D02*
X230444332Y-124593798D01*
X230396713Y-125069989D01*
X230444332Y-125022370D01*
X230539570Y-124974751D01*
X230777666Y-124974751D01*
X230872904Y-125022370D01*
X230920523Y-125069989D01*
X230968142Y-125165227D01*
X230968142Y-125403322D01*
X230920523Y-125498560D01*
X230872904Y-125546179D01*
X230777666Y-125593798D01*
X230539570Y-125593798D01*
X230444332Y-125546179D01*
X230396713Y-125498560D01*
X218006523Y-68269266D02*
X218482714Y-68269266D01*
X217911285Y-68554980D02*
X218244619Y-67554980D01*
X218577952Y-68554980D01*
X219435095Y-68554980D02*
X218863666Y-68554980D01*
X219149380Y-68554980D02*
X219149380Y-67554980D01*
X219054142Y-67697838D01*
X218958904Y-67793076D01*
X218863666Y-67840695D01*
X219816047Y-67650219D02*
X219863666Y-67602600D01*
X219958904Y-67554980D01*
X220197000Y-67554980D01*
X220292238Y-67602600D01*
X220339857Y-67650219D01*
X220387476Y-67745457D01*
X220387476Y-67840695D01*
X220339857Y-67983552D01*
X219768428Y-68554980D01*
X220387476Y-68554980D01*
X129684066Y-66441780D02*
X129922161Y-67441780D01*
X130112638Y-66727495D01*
X130303114Y-67441780D01*
X130541209Y-66441780D01*
X130922161Y-67441780D02*
X130922161Y-66441780D01*
X131160257Y-66441780D01*
X131303114Y-66489400D01*
X131398352Y-66584638D01*
X131445971Y-66679876D01*
X131493590Y-66870352D01*
X131493590Y-67013209D01*
X131445971Y-67203685D01*
X131398352Y-67298923D01*
X131303114Y-67394161D01*
X131160257Y-67441780D01*
X130922161Y-67441780D01*
X132493590Y-67346542D02*
X132445971Y-67394161D01*
X132303114Y-67441780D01*
X132207876Y-67441780D01*
X132065019Y-67394161D01*
X131969780Y-67298923D01*
X131922161Y-67203685D01*
X131874542Y-67013209D01*
X131874542Y-66870352D01*
X131922161Y-66679876D01*
X131969780Y-66584638D01*
X132065019Y-66489400D01*
X132207876Y-66441780D01*
X132303114Y-66441780D01*
X132445971Y-66489400D01*
X132493590Y-66537019D01*
X133350733Y-66441780D02*
X133160257Y-66441780D01*
X133065019Y-66489400D01*
X133017400Y-66537019D01*
X132922161Y-66679876D01*
X132874542Y-66870352D01*
X132874542Y-67251304D01*
X132922161Y-67346542D01*
X132969780Y-67394161D01*
X133065019Y-67441780D01*
X133255495Y-67441780D01*
X133350733Y-67394161D01*
X133398352Y-67346542D01*
X133445971Y-67251304D01*
X133445971Y-67013209D01*
X133398352Y-66917971D01*
X133350733Y-66870352D01*
X133255495Y-66822733D01*
X133065019Y-66822733D01*
X132969780Y-66870352D01*
X132922161Y-66917971D01*
X132874542Y-67013209D01*
X134350733Y-66441780D02*
X133874542Y-66441780D01*
X133826923Y-66917971D01*
X133874542Y-66870352D01*
X133969780Y-66822733D01*
X134207876Y-66822733D01*
X134303114Y-66870352D01*
X134350733Y-66917971D01*
X134398352Y-67013209D01*
X134398352Y-67251304D01*
X134350733Y-67346542D01*
X134303114Y-67394161D01*
X134207876Y-67441780D01*
X133969780Y-67441780D01*
X133874542Y-67394161D01*
X133826923Y-67346542D01*
X135398352Y-67346542D02*
X135350733Y-67394161D01*
X135207876Y-67441780D01*
X135112638Y-67441780D01*
X134969780Y-67394161D01*
X134874542Y-67298923D01*
X134826923Y-67203685D01*
X134779304Y-67013209D01*
X134779304Y-66870352D01*
X134826923Y-66679876D01*
X134874542Y-66584638D01*
X134969780Y-66489400D01*
X135112638Y-66441780D01*
X135207876Y-66441780D01*
X135350733Y-66489400D01*
X135398352Y-66537019D01*
X136017400Y-66441780D02*
X136112638Y-66441780D01*
X136207876Y-66489400D01*
X136255495Y-66537019D01*
X136303114Y-66632257D01*
X136350733Y-66822733D01*
X136350733Y-67060828D01*
X136303114Y-67251304D01*
X136255495Y-67346542D01*
X136207876Y-67394161D01*
X136112638Y-67441780D01*
X136017400Y-67441780D01*
X135922161Y-67394161D01*
X135874542Y-67346542D01*
X135826923Y-67251304D01*
X135779304Y-67060828D01*
X135779304Y-66822733D01*
X135826923Y-66632257D01*
X135874542Y-66537019D01*
X135922161Y-66489400D01*
X136017400Y-66441780D01*
X136731685Y-66537019D02*
X136779304Y-66489400D01*
X136874542Y-66441780D01*
X137112638Y-66441780D01*
X137207876Y-66489400D01*
X137255495Y-66537019D01*
X137303114Y-66632257D01*
X137303114Y-66727495D01*
X137255495Y-66870352D01*
X136684066Y-67441780D01*
X137303114Y-67441780D01*
X229388333Y-61101742D02*
X229340714Y-61149361D01*
X229197857Y-61196980D01*
X229102619Y-61196980D01*
X228959761Y-61149361D01*
X228864523Y-61054123D01*
X228816904Y-60958885D01*
X228769285Y-60768409D01*
X228769285Y-60625552D01*
X228816904Y-60435076D01*
X228864523Y-60339838D01*
X228959761Y-60244600D01*
X229102619Y-60196980D01*
X229197857Y-60196980D01*
X229340714Y-60244600D01*
X229388333Y-60292219D01*
X230150238Y-60673171D02*
X230293095Y-60720790D01*
X230340714Y-60768409D01*
X230388333Y-60863647D01*
X230388333Y-61006504D01*
X230340714Y-61101742D01*
X230293095Y-61149361D01*
X230197857Y-61196980D01*
X229816904Y-61196980D01*
X229816904Y-60196980D01*
X230150238Y-60196980D01*
X230245476Y-60244600D01*
X230293095Y-60292219D01*
X230340714Y-60387457D01*
X230340714Y-60482695D01*
X230293095Y-60577933D01*
X230245476Y-60625552D01*
X230150238Y-60673171D01*
X229816904Y-60673171D01*
X230769285Y-60292219D02*
X230816904Y-60244600D01*
X230912142Y-60196980D01*
X231150238Y-60196980D01*
X231245476Y-60244600D01*
X231293095Y-60292219D01*
X231340714Y-60387457D01*
X231340714Y-60482695D01*
X231293095Y-60625552D01*
X230721666Y-61196980D01*
X231340714Y-61196980D01*
X228444333Y-91988980D02*
X228444333Y-90988980D01*
X228825285Y-90988980D01*
X228920523Y-91036600D01*
X228968142Y-91084219D01*
X229015761Y-91179457D01*
X229015761Y-91322314D01*
X228968142Y-91417552D01*
X228920523Y-91465171D01*
X228825285Y-91512790D01*
X228444333Y-91512790D01*
X229396714Y-91703266D02*
X229872904Y-91703266D01*
X229301476Y-91988980D02*
X229634809Y-90988980D01*
X229968142Y-91988980D01*
X230491952Y-90988980D02*
X230587190Y-90988980D01*
X230682428Y-91036600D01*
X230730047Y-91084219D01*
X230777666Y-91179457D01*
X230825285Y-91369933D01*
X230825285Y-91608028D01*
X230777666Y-91798504D01*
X230730047Y-91893742D01*
X230682428Y-91941361D01*
X230587190Y-91988980D01*
X230491952Y-91988980D01*
X230396714Y-91941361D01*
X230349095Y-91893742D01*
X230301476Y-91798504D01*
X230253857Y-91608028D01*
X230253857Y-91369933D01*
X230301476Y-91179457D01*
X230349095Y-91084219D01*
X230396714Y-91036600D01*
X230491952Y-90988980D01*
X228958904Y-53554980D02*
X228958904Y-52554980D01*
X229197000Y-52554980D01*
X229339857Y-52602600D01*
X229435095Y-52697838D01*
X229482714Y-52793076D01*
X229530333Y-52983552D01*
X229530333Y-53126409D01*
X229482714Y-53316885D01*
X229435095Y-53412123D01*
X229339857Y-53507361D01*
X229197000Y-53554980D01*
X228958904Y-53554980D01*
X230387476Y-52554980D02*
X230197000Y-52554980D01*
X230101761Y-52602600D01*
X230054142Y-52650219D01*
X229958904Y-52793076D01*
X229911285Y-52983552D01*
X229911285Y-53364504D01*
X229958904Y-53459742D01*
X230006523Y-53507361D01*
X230101761Y-53554980D01*
X230292238Y-53554980D01*
X230387476Y-53507361D01*
X230435095Y-53459742D01*
X230482714Y-53364504D01*
X230482714Y-53126409D01*
X230435095Y-53031171D01*
X230387476Y-52983552D01*
X230292238Y-52935933D01*
X230101761Y-52935933D01*
X230006523Y-52983552D01*
X229958904Y-53031171D01*
X229911285Y-53126409D01*
X102469780Y-94703685D02*
X102469780Y-94608447D01*
X102517400Y-94513209D01*
X102565019Y-94465590D01*
X102660257Y-94417971D01*
X102850733Y-94370352D01*
X103088828Y-94370352D01*
X103279304Y-94417971D01*
X103374542Y-94465590D01*
X103422161Y-94513209D01*
X103469780Y-94608447D01*
X103469780Y-94703685D01*
X103422161Y-94798923D01*
X103374542Y-94846542D01*
X103279304Y-94894161D01*
X103088828Y-94941780D01*
X102850733Y-94941780D01*
X102660257Y-94894161D01*
X102565019Y-94846542D01*
X102517400Y-94798923D01*
X102469780Y-94703685D01*
X103374542Y-93941780D02*
X103422161Y-93894161D01*
X103469780Y-93941780D01*
X103422161Y-93989400D01*
X103374542Y-93941780D01*
X103469780Y-93941780D01*
X103469780Y-92941780D02*
X103469780Y-93513209D01*
X103469780Y-93227495D02*
X102469780Y-93227495D01*
X102612638Y-93322733D01*
X102707876Y-93417971D01*
X102755495Y-93513209D01*
X102803114Y-92513209D02*
X103803114Y-92513209D01*
X103326923Y-92037019D02*
X103422161Y-91989400D01*
X103469780Y-91894161D01*
X103326923Y-92513209D02*
X103422161Y-92465590D01*
X103469780Y-92370352D01*
X103469780Y-92179876D01*
X103422161Y-92084638D01*
X103326923Y-92037019D01*
X102803114Y-92037019D01*
X102945971Y-91132257D02*
X102945971Y-91465590D01*
X103469780Y-91465590D02*
X102469780Y-91465590D01*
X102469780Y-90989400D01*
X228958904Y-48554980D02*
X228958904Y-47554980D01*
X229197000Y-47554980D01*
X229339857Y-47602600D01*
X229435095Y-47697838D01*
X229482714Y-47793076D01*
X229530333Y-47983552D01*
X229530333Y-48126409D01*
X229482714Y-48316885D01*
X229435095Y-48412123D01*
X229339857Y-48507361D01*
X229197000Y-48554980D01*
X228958904Y-48554980D01*
X230387476Y-47888314D02*
X230387476Y-48554980D01*
X230149380Y-47507361D02*
X229911285Y-48221647D01*
X230530333Y-48221647D01*
X228958904Y-40554980D02*
X228958904Y-39554980D01*
X229197000Y-39554980D01*
X229339857Y-39602600D01*
X229435095Y-39697838D01*
X229482714Y-39793076D01*
X229530333Y-39983552D01*
X229530333Y-40126409D01*
X229482714Y-40316885D01*
X229435095Y-40412123D01*
X229339857Y-40507361D01*
X229197000Y-40554980D01*
X228958904Y-40554980D01*
X230482714Y-40554980D02*
X229911285Y-40554980D01*
X230197000Y-40554980D02*
X230197000Y-39554980D01*
X230101761Y-39697838D01*
X230006523Y-39793076D01*
X229911285Y-39840695D01*
X155418400Y-148833295D02*
X155466019Y-148738057D01*
X155466019Y-148595200D01*
X155418400Y-148452342D01*
X155323161Y-148357104D01*
X155227923Y-148309485D01*
X155037447Y-148261866D01*
X154894590Y-148261866D01*
X154704114Y-148309485D01*
X154608876Y-148357104D01*
X154513638Y-148452342D01*
X154466019Y-148595200D01*
X154466019Y-148690438D01*
X154513638Y-148833295D01*
X154561257Y-148880914D01*
X154894590Y-148880914D01*
X154894590Y-148690438D01*
X154466019Y-149309485D02*
X155466019Y-149309485D01*
X154466019Y-149880914D01*
X155466019Y-149880914D01*
X154466019Y-150357104D02*
X155466019Y-150357104D01*
X155466019Y-150595200D01*
X155418400Y-150738057D01*
X155323161Y-150833295D01*
X155227923Y-150880914D01*
X155037447Y-150928533D01*
X154894590Y-150928533D01*
X154704114Y-150880914D01*
X154608876Y-150833295D01*
X154513638Y-150738057D01*
X154466019Y-150595200D01*
X154466019Y-150357104D01*
X181510971Y-67116066D02*
X181987161Y-67116066D01*
X181415733Y-67401780D02*
X181749066Y-66401780D01*
X182082400Y-67401780D01*
X182368114Y-67354161D02*
X182510971Y-67401780D01*
X182749066Y-67401780D01*
X182844304Y-67354161D01*
X182891923Y-67306542D01*
X182939542Y-67211304D01*
X182939542Y-67116066D01*
X182891923Y-67020828D01*
X182844304Y-66973209D01*
X182749066Y-66925590D01*
X182558590Y-66877971D01*
X182463352Y-66830352D01*
X182415733Y-66782733D01*
X182368114Y-66687495D01*
X182368114Y-66592257D01*
X182415733Y-66497019D01*
X182463352Y-66449400D01*
X182558590Y-66401780D01*
X182796685Y-66401780D01*
X182939542Y-66449400D01*
X183796685Y-66401780D02*
X183606209Y-66401780D01*
X183510971Y-66449400D01*
X183463352Y-66497019D01*
X183368114Y-66639876D01*
X183320495Y-66830352D01*
X183320495Y-67211304D01*
X183368114Y-67306542D01*
X183415733Y-67354161D01*
X183510971Y-67401780D01*
X183701447Y-67401780D01*
X183796685Y-67354161D01*
X183844304Y-67306542D01*
X183891923Y-67211304D01*
X183891923Y-66973209D01*
X183844304Y-66877971D01*
X183796685Y-66830352D01*
X183701447Y-66782733D01*
X183510971Y-66782733D01*
X183415733Y-66830352D01*
X183368114Y-66877971D01*
X183320495Y-66973209D01*
X184891923Y-67306542D02*
X184844304Y-67354161D01*
X184701447Y-67401780D01*
X184606209Y-67401780D01*
X184463352Y-67354161D01*
X184368114Y-67258923D01*
X184320495Y-67163685D01*
X184272876Y-66973209D01*
X184272876Y-66830352D01*
X184320495Y-66639876D01*
X184368114Y-66544638D01*
X184463352Y-66449400D01*
X184606209Y-66401780D01*
X184701447Y-66401780D01*
X184844304Y-66449400D01*
X184891923Y-66497019D01*
X185749066Y-66401780D02*
X185558590Y-66401780D01*
X185463352Y-66449400D01*
X185415733Y-66497019D01*
X185320495Y-66639876D01*
X185272876Y-66830352D01*
X185272876Y-67211304D01*
X185320495Y-67306542D01*
X185368114Y-67354161D01*
X185463352Y-67401780D01*
X185653828Y-67401780D01*
X185749066Y-67354161D01*
X185796685Y-67306542D01*
X185844304Y-67211304D01*
X185844304Y-66973209D01*
X185796685Y-66877971D01*
X185749066Y-66830352D01*
X185653828Y-66782733D01*
X185463352Y-66782733D01*
X185368114Y-66830352D01*
X185320495Y-66877971D01*
X185272876Y-66973209D01*
X186225257Y-66497019D02*
X186272876Y-66449400D01*
X186368114Y-66401780D01*
X186606209Y-66401780D01*
X186701447Y-66449400D01*
X186749066Y-66497019D01*
X186796685Y-66592257D01*
X186796685Y-66687495D01*
X186749066Y-66830352D01*
X186177638Y-67401780D01*
X186796685Y-67401780D01*
X187177638Y-66497019D02*
X187225257Y-66449400D01*
X187320495Y-66401780D01*
X187558590Y-66401780D01*
X187653828Y-66449400D01*
X187701447Y-66497019D01*
X187749066Y-66592257D01*
X187749066Y-66687495D01*
X187701447Y-66830352D01*
X187130019Y-67401780D01*
X187749066Y-67401780D01*
X188653828Y-66401780D02*
X188177638Y-66401780D01*
X188130019Y-66877971D01*
X188177638Y-66830352D01*
X188272876Y-66782733D01*
X188510971Y-66782733D01*
X188606209Y-66830352D01*
X188653828Y-66877971D01*
X188701447Y-66973209D01*
X188701447Y-67211304D01*
X188653828Y-67306542D01*
X188606209Y-67354161D01*
X188510971Y-67401780D01*
X188272876Y-67401780D01*
X188177638Y-67354161D01*
X188130019Y-67306542D01*
X189558590Y-66401780D02*
X189368114Y-66401780D01*
X189272876Y-66449400D01*
X189225257Y-66497019D01*
X189130019Y-66639876D01*
X189082400Y-66830352D01*
X189082400Y-67211304D01*
X189130019Y-67306542D01*
X189177638Y-67354161D01*
X189272876Y-67401780D01*
X189463352Y-67401780D01*
X189558590Y-67354161D01*
X189606209Y-67306542D01*
X189653828Y-67211304D01*
X189653828Y-66973209D01*
X189606209Y-66877971D01*
X189558590Y-66830352D01*
X189463352Y-66782733D01*
X189272876Y-66782733D01*
X189177638Y-66830352D01*
X189130019Y-66877971D01*
X189082400Y-66973209D01*
X136466019Y-148357104D02*
X137466019Y-148357104D01*
X137466019Y-148738057D01*
X137418400Y-148833295D01*
X137370780Y-148880914D01*
X137275542Y-148928533D01*
X137132685Y-148928533D01*
X137037447Y-148880914D01*
X136989828Y-148833295D01*
X136942209Y-148738057D01*
X136942209Y-148357104D01*
X136989828Y-149690438D02*
X136942209Y-149833295D01*
X136894590Y-149880914D01*
X136799352Y-149928533D01*
X136656495Y-149928533D01*
X136561257Y-149880914D01*
X136513638Y-149833295D01*
X136466019Y-149738057D01*
X136466019Y-149357104D01*
X137466019Y-149357104D01*
X137466019Y-149690438D01*
X137418400Y-149785676D01*
X137370780Y-149833295D01*
X137275542Y-149880914D01*
X137180304Y-149880914D01*
X137085066Y-149833295D01*
X137037447Y-149785676D01*
X136989828Y-149690438D01*
X136989828Y-149357104D01*
X137370780Y-150309485D02*
X137418400Y-150357104D01*
X137466019Y-150452342D01*
X137466019Y-150690438D01*
X137418400Y-150785676D01*
X137370780Y-150833295D01*
X137275542Y-150880914D01*
X137180304Y-150880914D01*
X137037447Y-150833295D01*
X136466019Y-150261866D01*
X136466019Y-150880914D01*
X229435952Y-81554980D02*
X229102619Y-81078790D01*
X228864523Y-81554980D02*
X228864523Y-80554980D01*
X229245476Y-80554980D01*
X229340714Y-80602600D01*
X229388333Y-80650219D01*
X229435952Y-80745457D01*
X229435952Y-80888314D01*
X229388333Y-80983552D01*
X229340714Y-81031171D01*
X229245476Y-81078790D01*
X228864523Y-81078790D01*
X229864523Y-81554980D02*
X229864523Y-80554980D01*
X230102619Y-80554980D01*
X230245476Y-80602600D01*
X230340714Y-80697838D01*
X230388333Y-80793076D01*
X230435952Y-80983552D01*
X230435952Y-81126409D01*
X230388333Y-81316885D01*
X230340714Y-81412123D01*
X230245476Y-81507361D01*
X230102619Y-81554980D01*
X229864523Y-81554980D01*
X231055000Y-81078790D02*
X231055000Y-81554980D01*
X230721666Y-80554980D02*
X231055000Y-81078790D01*
X231388333Y-80554980D01*
X123966019Y-148428533D02*
X124966019Y-148428533D01*
X124966019Y-148809485D01*
X124918400Y-148904723D01*
X124870780Y-148952342D01*
X124775542Y-148999961D01*
X124632685Y-148999961D01*
X124537447Y-148952342D01*
X124489828Y-148904723D01*
X124442209Y-148809485D01*
X124442209Y-148428533D01*
X124251733Y-149380914D02*
X124251733Y-149857104D01*
X123966019Y-149285676D02*
X124966019Y-149619009D01*
X123966019Y-149952342D01*
X124966019Y-150761866D02*
X124966019Y-150285676D01*
X124489828Y-150238057D01*
X124537447Y-150285676D01*
X124585066Y-150380914D01*
X124585066Y-150619009D01*
X124537447Y-150714247D01*
X124489828Y-150761866D01*
X124394590Y-150809485D01*
X124156495Y-150809485D01*
X124061257Y-150761866D01*
X124013638Y-150714247D01*
X123966019Y-150619009D01*
X123966019Y-150380914D01*
X124013638Y-150285676D01*
X124061257Y-150238057D01*
X228845914Y-140165780D02*
X228512581Y-139689590D01*
X228274485Y-140165780D02*
X228274485Y-139165780D01*
X228655438Y-139165780D01*
X228750676Y-139213400D01*
X228798295Y-139261019D01*
X228845914Y-139356257D01*
X228845914Y-139499114D01*
X228798295Y-139594352D01*
X228750676Y-139641971D01*
X228655438Y-139689590D01*
X228274485Y-139689590D01*
X229179247Y-139165780D02*
X229845914Y-140165780D01*
X229845914Y-139165780D02*
X229179247Y-140165780D01*
X228444333Y-104913910D02*
X228444333Y-103913910D01*
X228825285Y-103913910D01*
X228920523Y-103961530D01*
X228968142Y-104009149D01*
X229015761Y-104104387D01*
X229015761Y-104247244D01*
X228968142Y-104342482D01*
X228920523Y-104390101D01*
X228825285Y-104437720D01*
X228444333Y-104437720D01*
X229396714Y-104628196D02*
X229872904Y-104628196D01*
X229301476Y-104913910D02*
X229634809Y-103913910D01*
X229968142Y-104913910D01*
X230777666Y-103913910D02*
X230301476Y-103913910D01*
X230253857Y-104390101D01*
X230301476Y-104342482D01*
X230396714Y-104294863D01*
X230634809Y-104294863D01*
X230730047Y-104342482D01*
X230777666Y-104390101D01*
X230825285Y-104485339D01*
X230825285Y-104723434D01*
X230777666Y-104818672D01*
X230730047Y-104866291D01*
X230634809Y-104913910D01*
X230396714Y-104913910D01*
X230301476Y-104866291D01*
X230253857Y-104818672D01*
X228958904Y-46054980D02*
X228958904Y-45054980D01*
X229197000Y-45054980D01*
X229339857Y-45102600D01*
X229435095Y-45197838D01*
X229482714Y-45293076D01*
X229530333Y-45483552D01*
X229530333Y-45626409D01*
X229482714Y-45816885D01*
X229435095Y-45912123D01*
X229339857Y-46007361D01*
X229197000Y-46054980D01*
X228958904Y-46054980D01*
X229863666Y-45054980D02*
X230482714Y-45054980D01*
X230149380Y-45435933D01*
X230292238Y-45435933D01*
X230387476Y-45483552D01*
X230435095Y-45531171D01*
X230482714Y-45626409D01*
X230482714Y-45864504D01*
X230435095Y-45959742D01*
X230387476Y-46007361D01*
X230292238Y-46054980D01*
X230006523Y-46054980D01*
X229911285Y-46007361D01*
X229863666Y-45959742D01*
X121451257Y-148746819D02*
X121403638Y-148699200D01*
X121356019Y-148556342D01*
X121356019Y-148461104D01*
X121403638Y-148318247D01*
X121498876Y-148223009D01*
X121594114Y-148175390D01*
X121784590Y-148127771D01*
X121927447Y-148127771D01*
X122117923Y-148175390D01*
X122213161Y-148223009D01*
X122308400Y-148318247D01*
X122356019Y-148461104D01*
X122356019Y-148556342D01*
X122308400Y-148699200D01*
X122260780Y-148746819D01*
X121356019Y-149175390D02*
X122356019Y-149175390D01*
X121356019Y-149746819D01*
X122356019Y-149746819D01*
X122356019Y-150080152D02*
X122356019Y-150651580D01*
X121356019Y-150365866D02*
X122356019Y-150365866D01*
X121356019Y-151556342D02*
X121832209Y-151223009D01*
X121356019Y-150984914D02*
X122356019Y-150984914D01*
X122356019Y-151365866D01*
X122308400Y-151461104D01*
X122260780Y-151508723D01*
X122165542Y-151556342D01*
X122022685Y-151556342D01*
X121927447Y-151508723D01*
X121879828Y-151461104D01*
X121832209Y-151365866D01*
X121832209Y-150984914D01*
X121403638Y-151937295D02*
X121356019Y-152080152D01*
X121356019Y-152318247D01*
X121403638Y-152413485D01*
X121451257Y-152461104D01*
X121546495Y-152508723D01*
X121641733Y-152508723D01*
X121736971Y-152461104D01*
X121784590Y-152413485D01*
X121832209Y-152318247D01*
X121879828Y-152127771D01*
X121927447Y-152032533D01*
X121975066Y-151984914D01*
X122070304Y-151937295D01*
X122165542Y-151937295D01*
X122260780Y-151984914D01*
X122308400Y-152032533D01*
X122356019Y-152127771D01*
X122356019Y-152365866D01*
X122308400Y-152508723D01*
X122356019Y-152794438D02*
X122356019Y-153365866D01*
X121356019Y-153080152D02*
X122356019Y-153080152D01*
X218482714Y-43269266D02*
X218958904Y-43269266D01*
X218387476Y-43554980D02*
X218720809Y-42554980D01*
X219054142Y-43554980D01*
X219339857Y-42650219D02*
X219387476Y-42602600D01*
X219482714Y-42554980D01*
X219720809Y-42554980D01*
X219816047Y-42602600D01*
X219863666Y-42650219D01*
X219911285Y-42745457D01*
X219911285Y-42840695D01*
X219863666Y-42983552D01*
X219292238Y-43554980D01*
X219911285Y-43554980D01*
X228809000Y-76476980D02*
X228809000Y-75476980D01*
X229189952Y-75476980D01*
X229285190Y-75524600D01*
X229332809Y-75572219D01*
X229380428Y-75667457D01*
X229380428Y-75810314D01*
X229332809Y-75905552D01*
X229285190Y-75953171D01*
X229189952Y-76000790D01*
X228809000Y-76000790D01*
X229809000Y-76476980D02*
X229809000Y-75476980D01*
X229809000Y-75953171D02*
X230380428Y-75953171D01*
X230380428Y-76476980D02*
X230380428Y-75476980D01*
X230856619Y-76476980D02*
X230856619Y-75476980D01*
X231285190Y-75572219D02*
X231332809Y-75524600D01*
X231428047Y-75476980D01*
X231666142Y-75476980D01*
X231761380Y-75524600D01*
X231809000Y-75572219D01*
X231856619Y-75667457D01*
X231856619Y-75762695D01*
X231809000Y-75905552D01*
X231237571Y-76476980D01*
X231856619Y-76476980D01*
X218673190Y-81554980D02*
X218673190Y-80554980D01*
X219720809Y-81554980D02*
X219387476Y-81078790D01*
X219149380Y-81554980D02*
X219149380Y-80554980D01*
X219530333Y-80554980D01*
X219625571Y-80602600D01*
X219673190Y-80650219D01*
X219720809Y-80745457D01*
X219720809Y-80888314D01*
X219673190Y-80983552D01*
X219625571Y-81031171D01*
X219530333Y-81078790D01*
X219149380Y-81078790D01*
X220816047Y-81650219D02*
X220720809Y-81602600D01*
X220625571Y-81507361D01*
X220482714Y-81364504D01*
X220387476Y-81316885D01*
X220292238Y-81316885D01*
X220339857Y-81554980D02*
X220244619Y-81507361D01*
X220149380Y-81412123D01*
X220101761Y-81221647D01*
X220101761Y-80888314D01*
X220149380Y-80697838D01*
X220244619Y-80602600D01*
X220339857Y-80554980D01*
X220530333Y-80554980D01*
X220625571Y-80602600D01*
X220720809Y-80697838D01*
X220768428Y-80888314D01*
X220768428Y-81221647D01*
X220720809Y-81412123D01*
X220625571Y-81507361D01*
X220530333Y-81554980D01*
X220339857Y-81554980D01*
X129480885Y-113634980D02*
X129480885Y-114444504D01*
X129528504Y-114539742D01*
X129576123Y-114587361D01*
X129671361Y-114634980D01*
X129861838Y-114634980D01*
X129957076Y-114587361D01*
X130004695Y-114539742D01*
X130052314Y-114444504D01*
X130052314Y-113634980D01*
X130528504Y-114634980D02*
X130528504Y-113634980D01*
X130909457Y-113634980D01*
X131004695Y-113682600D01*
X131052314Y-113730219D01*
X131099933Y-113825457D01*
X131099933Y-113968314D01*
X131052314Y-114063552D01*
X131004695Y-114111171D01*
X130909457Y-114158790D01*
X130528504Y-114158790D01*
X128822714Y-32670580D02*
X128917952Y-32670580D01*
X129013190Y-32718200D01*
X129060809Y-32765819D01*
X129108428Y-32861057D01*
X129156047Y-33051533D01*
X129156047Y-33289628D01*
X129108428Y-33480104D01*
X129060809Y-33575342D01*
X129013190Y-33622961D01*
X128917952Y-33670580D01*
X128822714Y-33670580D01*
X128727476Y-33622961D01*
X128679857Y-33575342D01*
X128632238Y-33480104D01*
X128584619Y-33289628D01*
X128584619Y-33051533D01*
X128632238Y-32861057D01*
X128679857Y-32765819D01*
X128727476Y-32718200D01*
X128822714Y-32670580D01*
X129584619Y-33575342D02*
X129632238Y-33622961D01*
X129584619Y-33670580D01*
X129537000Y-33622961D01*
X129584619Y-33575342D01*
X129584619Y-33670580D01*
X130584619Y-33670580D02*
X130013190Y-33670580D01*
X130298904Y-33670580D02*
X130298904Y-32670580D01*
X130203666Y-32813438D01*
X130108428Y-32908676D01*
X130013190Y-32956295D01*
X131013190Y-33003914D02*
X131013190Y-34003914D01*
X131489380Y-33527723D02*
X131537000Y-33622961D01*
X131632238Y-33670580D01*
X131013190Y-33527723D02*
X131060809Y-33622961D01*
X131156047Y-33670580D01*
X131346523Y-33670580D01*
X131441761Y-33622961D01*
X131489380Y-33527723D01*
X131489380Y-33003914D01*
X132394142Y-33146771D02*
X132060809Y-33146771D01*
X132060809Y-33670580D02*
X132060809Y-32670580D01*
X132537000Y-32670580D01*
X138966019Y-148357104D02*
X139966019Y-148357104D01*
X139966019Y-148738057D01*
X139918400Y-148833295D01*
X139870780Y-148880914D01*
X139775542Y-148928533D01*
X139632685Y-148928533D01*
X139537447Y-148880914D01*
X139489828Y-148833295D01*
X139442209Y-148738057D01*
X139442209Y-148357104D01*
X139489828Y-149690438D02*
X139442209Y-149833295D01*
X139394590Y-149880914D01*
X139299352Y-149928533D01*
X139156495Y-149928533D01*
X139061257Y-149880914D01*
X139013638Y-149833295D01*
X138966019Y-149738057D01*
X138966019Y-149357104D01*
X139966019Y-149357104D01*
X139966019Y-149690438D01*
X139918400Y-149785676D01*
X139870780Y-149833295D01*
X139775542Y-149880914D01*
X139680304Y-149880914D01*
X139585066Y-149833295D01*
X139537447Y-149785676D01*
X139489828Y-149690438D01*
X139489828Y-149357104D01*
X139966019Y-150261866D02*
X139966019Y-150880914D01*
X139585066Y-150547580D01*
X139585066Y-150690438D01*
X139537447Y-150785676D01*
X139489828Y-150833295D01*
X139394590Y-150880914D01*
X139156495Y-150880914D01*
X139061257Y-150833295D01*
X139013638Y-150785676D01*
X138966019Y-150690438D01*
X138966019Y-150404723D01*
X139013638Y-150309485D01*
X139061257Y-150261866D01*
X79248647Y-118465628D02*
X80010552Y-118465628D01*
X79629600Y-118846580D02*
X79629600Y-118084676D01*
X218006523Y-70769266D02*
X218482714Y-70769266D01*
X217911285Y-71054980D02*
X218244619Y-70054980D01*
X218577952Y-71054980D01*
X219435095Y-71054980D02*
X218863666Y-71054980D01*
X219149380Y-71054980D02*
X219149380Y-70054980D01*
X219054142Y-70197838D01*
X218958904Y-70293076D01*
X218863666Y-70340695D01*
X219768428Y-70054980D02*
X220387476Y-70054980D01*
X220054142Y-70435933D01*
X220197000Y-70435933D01*
X220292238Y-70483552D01*
X220339857Y-70531171D01*
X220387476Y-70626409D01*
X220387476Y-70864504D01*
X220339857Y-70959742D01*
X220292238Y-71007361D01*
X220197000Y-71054980D01*
X219911285Y-71054980D01*
X219816047Y-71007361D01*
X219768428Y-70959742D01*
X228444332Y-115253854D02*
X228444332Y-114253854D01*
X228825285Y-114253854D01*
X228920523Y-114301474D01*
X228968142Y-114349093D01*
X229015761Y-114444331D01*
X229015761Y-114587188D01*
X228968142Y-114682426D01*
X228920523Y-114730045D01*
X228825285Y-114777664D01*
X228444332Y-114777664D01*
X229777666Y-114730045D02*
X229920523Y-114777664D01*
X229968142Y-114825283D01*
X230015761Y-114920521D01*
X230015761Y-115063378D01*
X229968142Y-115158616D01*
X229920523Y-115206235D01*
X229825285Y-115253854D01*
X229444332Y-115253854D01*
X229444332Y-114253854D01*
X229777666Y-114253854D01*
X229872904Y-114301474D01*
X229920523Y-114349093D01*
X229968142Y-114444331D01*
X229968142Y-114539569D01*
X229920523Y-114634807D01*
X229872904Y-114682426D01*
X229777666Y-114730045D01*
X229444332Y-114730045D01*
X230968142Y-115253854D02*
X230396713Y-115253854D01*
X230682428Y-115253854D02*
X230682428Y-114253854D01*
X230587189Y-114396712D01*
X230491951Y-114491950D01*
X230396713Y-114539569D01*
X221443380Y-144693838D02*
X222252904Y-144693838D01*
X222348142Y-144646219D01*
X222395761Y-144598600D01*
X222443380Y-144503361D01*
X222443380Y-144312885D01*
X222395761Y-144217647D01*
X222348142Y-144170028D01*
X222252904Y-144122409D01*
X221443380Y-144122409D01*
X222157666Y-143693838D02*
X222157666Y-143217647D01*
X222443380Y-143789076D02*
X221443380Y-143455742D01*
X222443380Y-143122409D01*
X222443380Y-142217647D02*
X221967190Y-142550980D01*
X222443380Y-142789076D02*
X221443380Y-142789076D01*
X221443380Y-142408123D01*
X221491000Y-142312885D01*
X221538619Y-142265266D01*
X221633857Y-142217647D01*
X221776714Y-142217647D01*
X221871952Y-142265266D01*
X221919571Y-142312885D01*
X221967190Y-142408123D01*
X221967190Y-142789076D01*
X221443380Y-141931933D02*
X221443380Y-141360504D01*
X222443380Y-141646219D02*
X221443380Y-141646219D01*
X119966019Y-148261866D02*
X118966019Y-148595200D01*
X119966019Y-148928533D01*
X119061257Y-149833295D02*
X119013638Y-149785676D01*
X118966019Y-149642819D01*
X118966019Y-149547580D01*
X119013638Y-149404723D01*
X119108876Y-149309485D01*
X119204114Y-149261866D01*
X119394590Y-149214247D01*
X119537447Y-149214247D01*
X119727923Y-149261866D01*
X119823161Y-149309485D01*
X119918400Y-149404723D01*
X119966019Y-149547580D01*
X119966019Y-149642819D01*
X119918400Y-149785676D01*
X119870780Y-149833295D01*
X119061257Y-150833295D02*
X119013638Y-150785676D01*
X118966019Y-150642819D01*
X118966019Y-150547580D01*
X119013638Y-150404723D01*
X119108876Y-150309485D01*
X119204114Y-150261866D01*
X119394590Y-150214247D01*
X119537447Y-150214247D01*
X119727923Y-150261866D01*
X119823161Y-150309485D01*
X119918400Y-150404723D01*
X119966019Y-150547580D01*
X119966019Y-150642819D01*
X119918400Y-150785676D01*
X119870780Y-150833295D01*
X126466019Y-148428533D02*
X127466019Y-148428533D01*
X127466019Y-148809485D01*
X127418400Y-148904723D01*
X127370780Y-148952342D01*
X127275542Y-148999961D01*
X127132685Y-148999961D01*
X127037447Y-148952342D01*
X126989828Y-148904723D01*
X126942209Y-148809485D01*
X126942209Y-148428533D01*
X126751733Y-149380914D02*
X126751733Y-149857104D01*
X126466019Y-149285676D02*
X127466019Y-149619009D01*
X126466019Y-149952342D01*
X127466019Y-150714247D02*
X127466019Y-150523771D01*
X127418400Y-150428533D01*
X127370780Y-150380914D01*
X127227923Y-150285676D01*
X127037447Y-150238057D01*
X126656495Y-150238057D01*
X126561257Y-150285676D01*
X126513638Y-150333295D01*
X126466019Y-150428533D01*
X126466019Y-150619009D01*
X126513638Y-150714247D01*
X126561257Y-150761866D01*
X126656495Y-150809485D01*
X126894590Y-150809485D01*
X126989828Y-150761866D01*
X127037447Y-150714247D01*
X127085066Y-150619009D01*
X127085066Y-150428533D01*
X127037447Y-150333295D01*
X126989828Y-150285676D01*
X126894590Y-150238057D01*
X171791438Y-153324542D02*
X171743819Y-153372161D01*
X171600961Y-153419780D01*
X171505723Y-153419780D01*
X171362866Y-153372161D01*
X171267628Y-153276923D01*
X171220009Y-153181685D01*
X171172390Y-152991209D01*
X171172390Y-152848352D01*
X171220009Y-152657876D01*
X171267628Y-152562638D01*
X171362866Y-152467400D01*
X171505723Y-152419780D01*
X171600961Y-152419780D01*
X171743819Y-152467400D01*
X171791438Y-152515019D01*
X172410485Y-152419780D02*
X172600961Y-152419780D01*
X172696200Y-152467400D01*
X172791438Y-152562638D01*
X172839057Y-152753114D01*
X172839057Y-153086447D01*
X172791438Y-153276923D01*
X172696200Y-153372161D01*
X172600961Y-153419780D01*
X172410485Y-153419780D01*
X172315247Y-153372161D01*
X172220009Y-153276923D01*
X172172390Y-153086447D01*
X172172390Y-152753114D01*
X172220009Y-152562638D01*
X172315247Y-152467400D01*
X172410485Y-152419780D01*
X173267628Y-153419780D02*
X173267628Y-152419780D01*
X173839057Y-153419780D01*
X173839057Y-152419780D01*
X174172390Y-152419780D02*
X174743819Y-152419780D01*
X174458104Y-153419780D02*
X174458104Y-152419780D01*
X175648580Y-153419780D02*
X175315247Y-152943590D01*
X175077152Y-153419780D02*
X175077152Y-152419780D01*
X175458104Y-152419780D01*
X175553342Y-152467400D01*
X175600961Y-152515019D01*
X175648580Y-152610257D01*
X175648580Y-152753114D01*
X175600961Y-152848352D01*
X175553342Y-152895971D01*
X175458104Y-152943590D01*
X175077152Y-152943590D01*
X176029533Y-153134066D02*
X176505723Y-153134066D01*
X175934295Y-153419780D02*
X176267628Y-152419780D01*
X176600961Y-153419780D01*
X176886676Y-153372161D02*
X177029533Y-153419780D01*
X177267628Y-153419780D01*
X177362866Y-153372161D01*
X177410485Y-153324542D01*
X177458104Y-153229304D01*
X177458104Y-153134066D01*
X177410485Y-153038828D01*
X177362866Y-152991209D01*
X177267628Y-152943590D01*
X177077152Y-152895971D01*
X176981914Y-152848352D01*
X176934295Y-152800733D01*
X176886676Y-152705495D01*
X176886676Y-152610257D01*
X176934295Y-152515019D01*
X176981914Y-152467400D01*
X177077152Y-152419780D01*
X177315247Y-152419780D01*
X177458104Y-152467400D01*
X177743819Y-152419780D02*
X178315247Y-152419780D01*
X178029533Y-153419780D02*
X178029533Y-152419780D01*
X130365914Y-154676180D02*
X129889723Y-154676180D01*
X129889723Y-153676180D01*
X131270676Y-154580942D02*
X131223057Y-154628561D01*
X131080200Y-154676180D01*
X130984961Y-154676180D01*
X130842104Y-154628561D01*
X130746866Y-154533323D01*
X130699247Y-154438085D01*
X130651628Y-154247609D01*
X130651628Y-154104752D01*
X130699247Y-153914276D01*
X130746866Y-153819038D01*
X130842104Y-153723800D01*
X130984961Y-153676180D01*
X131080200Y-153676180D01*
X131223057Y-153723800D01*
X131270676Y-153771419D01*
X131699247Y-154676180D02*
X131699247Y-153676180D01*
X131937342Y-153676180D01*
X132080200Y-153723800D01*
X132175438Y-153819038D01*
X132223057Y-153914276D01*
X132270676Y-154104752D01*
X132270676Y-154247609D01*
X132223057Y-154438085D01*
X132175438Y-154533323D01*
X132080200Y-154628561D01*
X131937342Y-154676180D01*
X131699247Y-154676180D01*
X134032580Y-154580942D02*
X133984961Y-154628561D01*
X133842104Y-154676180D01*
X133746866Y-154676180D01*
X133604009Y-154628561D01*
X133508771Y-154533323D01*
X133461152Y-154438085D01*
X133413533Y-154247609D01*
X133413533Y-154104752D01*
X133461152Y-153914276D01*
X133508771Y-153819038D01*
X133604009Y-153723800D01*
X133746866Y-153676180D01*
X133842104Y-153676180D01*
X133984961Y-153723800D01*
X134032580Y-153771419D01*
X134604009Y-154676180D02*
X134508771Y-154628561D01*
X134461152Y-154580942D01*
X134413533Y-154485704D01*
X134413533Y-154199990D01*
X134461152Y-154104752D01*
X134508771Y-154057133D01*
X134604009Y-154009514D01*
X134746866Y-154009514D01*
X134842104Y-154057133D01*
X134889723Y-154104752D01*
X134937342Y-154199990D01*
X134937342Y-154485704D01*
X134889723Y-154580942D01*
X134842104Y-154628561D01*
X134746866Y-154676180D01*
X134604009Y-154676180D01*
X135365914Y-154009514D02*
X135365914Y-154676180D01*
X135365914Y-154104752D02*
X135413533Y-154057133D01*
X135508771Y-154009514D01*
X135651628Y-154009514D01*
X135746866Y-154057133D01*
X135794485Y-154152371D01*
X135794485Y-154676180D01*
X136270676Y-154009514D02*
X136270676Y-154676180D01*
X136270676Y-154104752D02*
X136318295Y-154057133D01*
X136413533Y-154009514D01*
X136556390Y-154009514D01*
X136651628Y-154057133D01*
X136699247Y-154152371D01*
X136699247Y-154676180D01*
X137556390Y-154628561D02*
X137461152Y-154676180D01*
X137270676Y-154676180D01*
X137175438Y-154628561D01*
X137127819Y-154533323D01*
X137127819Y-154152371D01*
X137175438Y-154057133D01*
X137270676Y-154009514D01*
X137461152Y-154009514D01*
X137556390Y-154057133D01*
X137604009Y-154152371D01*
X137604009Y-154247609D01*
X137127819Y-154342847D01*
X138461152Y-154628561D02*
X138365914Y-154676180D01*
X138175438Y-154676180D01*
X138080200Y-154628561D01*
X138032580Y-154580942D01*
X137984961Y-154485704D01*
X137984961Y-154199990D01*
X138032580Y-154104752D01*
X138080200Y-154057133D01*
X138175438Y-154009514D01*
X138365914Y-154009514D01*
X138461152Y-154057133D01*
X138746866Y-154009514D02*
X139127819Y-154009514D01*
X138889723Y-153676180D02*
X138889723Y-154533323D01*
X138937342Y-154628561D01*
X139032580Y-154676180D01*
X139127819Y-154676180D01*
X139461152Y-154676180D02*
X139461152Y-154009514D01*
X139461152Y-153676180D02*
X139413533Y-153723800D01*
X139461152Y-153771419D01*
X139508771Y-153723800D01*
X139461152Y-153676180D01*
X139461152Y-153771419D01*
X140080200Y-154676180D02*
X139984961Y-154628561D01*
X139937342Y-154580942D01*
X139889723Y-154485704D01*
X139889723Y-154199990D01*
X139937342Y-154104752D01*
X139984961Y-154057133D01*
X140080200Y-154009514D01*
X140223057Y-154009514D01*
X140318295Y-154057133D01*
X140365914Y-154104752D01*
X140413533Y-154199990D01*
X140413533Y-154485704D01*
X140365914Y-154580942D01*
X140318295Y-154628561D01*
X140223057Y-154676180D01*
X140080200Y-154676180D01*
X140842104Y-154009514D02*
X140842104Y-154676180D01*
X140842104Y-154104752D02*
X140889723Y-154057133D01*
X140984961Y-154009514D01*
X141127819Y-154009514D01*
X141223057Y-154057133D01*
X141270676Y-154152371D01*
X141270676Y-154676180D01*
X228958904Y-43554980D02*
X228958904Y-42554980D01*
X229197000Y-42554980D01*
X229339857Y-42602600D01*
X229435095Y-42697838D01*
X229482714Y-42793076D01*
X229530333Y-42983552D01*
X229530333Y-43126409D01*
X229482714Y-43316885D01*
X229435095Y-43412123D01*
X229339857Y-43507361D01*
X229197000Y-43554980D01*
X228958904Y-43554980D01*
X229911285Y-42650219D02*
X229958904Y-42602600D01*
X230054142Y-42554980D01*
X230292238Y-42554980D01*
X230387476Y-42602600D01*
X230435095Y-42650219D01*
X230482714Y-42745457D01*
X230482714Y-42840695D01*
X230435095Y-42983552D01*
X229863666Y-43554980D01*
X230482714Y-43554980D01*
X130207876Y-91941780D02*
X130445971Y-92941780D01*
X130636447Y-92227495D01*
X130826923Y-92941780D01*
X131065019Y-91941780D01*
X131874542Y-91941780D02*
X131684066Y-91941780D01*
X131588828Y-91989400D01*
X131541209Y-92037019D01*
X131445971Y-92179876D01*
X131398352Y-92370352D01*
X131398352Y-92751304D01*
X131445971Y-92846542D01*
X131493590Y-92894161D01*
X131588828Y-92941780D01*
X131779304Y-92941780D01*
X131874542Y-92894161D01*
X131922161Y-92846542D01*
X131969780Y-92751304D01*
X131969780Y-92513209D01*
X131922161Y-92417971D01*
X131874542Y-92370352D01*
X131779304Y-92322733D01*
X131588828Y-92322733D01*
X131493590Y-92370352D01*
X131445971Y-92417971D01*
X131398352Y-92513209D01*
X132874542Y-91941780D02*
X132398352Y-91941780D01*
X132350733Y-92417971D01*
X132398352Y-92370352D01*
X132493590Y-92322733D01*
X132731685Y-92322733D01*
X132826923Y-92370352D01*
X132874542Y-92417971D01*
X132922161Y-92513209D01*
X132922161Y-92751304D01*
X132874542Y-92846542D01*
X132826923Y-92894161D01*
X132731685Y-92941780D01*
X132493590Y-92941780D01*
X132398352Y-92894161D01*
X132350733Y-92846542D01*
X133922161Y-92846542D02*
X133874542Y-92894161D01*
X133731685Y-92941780D01*
X133636447Y-92941780D01*
X133493590Y-92894161D01*
X133398352Y-92798923D01*
X133350733Y-92703685D01*
X133303114Y-92513209D01*
X133303114Y-92370352D01*
X133350733Y-92179876D01*
X133398352Y-92084638D01*
X133493590Y-91989400D01*
X133636447Y-91941780D01*
X133731685Y-91941780D01*
X133874542Y-91989400D01*
X133922161Y-92037019D01*
X134303114Y-92037019D02*
X134350733Y-91989400D01*
X134445971Y-91941780D01*
X134684066Y-91941780D01*
X134779304Y-91989400D01*
X134826923Y-92037019D01*
X134874542Y-92132257D01*
X134874542Y-92227495D01*
X134826923Y-92370352D01*
X134255495Y-92941780D01*
X134874542Y-92941780D01*
X135255495Y-92037019D02*
X135303114Y-91989400D01*
X135398352Y-91941780D01*
X135636447Y-91941780D01*
X135731685Y-91989400D01*
X135779304Y-92037019D01*
X135826923Y-92132257D01*
X135826923Y-92227495D01*
X135779304Y-92370352D01*
X135207876Y-92941780D01*
X135826923Y-92941780D01*
X136207876Y-92894161D02*
X136350733Y-92941780D01*
X136588828Y-92941780D01*
X136684066Y-92894161D01*
X136731685Y-92846542D01*
X136779304Y-92751304D01*
X136779304Y-92656066D01*
X136731685Y-92560828D01*
X136684066Y-92513209D01*
X136588828Y-92465590D01*
X136398352Y-92417971D01*
X136303114Y-92370352D01*
X136255495Y-92322733D01*
X136207876Y-92227495D01*
X136207876Y-92132257D01*
X136255495Y-92037019D01*
X136303114Y-91989400D01*
X136398352Y-91941780D01*
X136636447Y-91941780D01*
X136779304Y-91989400D01*
X228444333Y-97158952D02*
X228444333Y-96158952D01*
X228825285Y-96158952D01*
X228920523Y-96206572D01*
X228968142Y-96254191D01*
X229015761Y-96349429D01*
X229015761Y-96492286D01*
X228968142Y-96587524D01*
X228920523Y-96635143D01*
X228825285Y-96682762D01*
X228444333Y-96682762D01*
X229396714Y-96873238D02*
X229872904Y-96873238D01*
X229301476Y-97158952D02*
X229634809Y-96158952D01*
X229968142Y-97158952D01*
X230253857Y-96254191D02*
X230301476Y-96206572D01*
X230396714Y-96158952D01*
X230634809Y-96158952D01*
X230730047Y-96206572D01*
X230777666Y-96254191D01*
X230825285Y-96349429D01*
X230825285Y-96444667D01*
X230777666Y-96587524D01*
X230206238Y-97158952D01*
X230825285Y-97158952D01*
X133966019Y-148357104D02*
X134966019Y-148357104D01*
X134966019Y-148738057D01*
X134918400Y-148833295D01*
X134870780Y-148880914D01*
X134775542Y-148928533D01*
X134632685Y-148928533D01*
X134537447Y-148880914D01*
X134489828Y-148833295D01*
X134442209Y-148738057D01*
X134442209Y-148357104D01*
X134489828Y-149690438D02*
X134442209Y-149833295D01*
X134394590Y-149880914D01*
X134299352Y-149928533D01*
X134156495Y-149928533D01*
X134061257Y-149880914D01*
X134013638Y-149833295D01*
X133966019Y-149738057D01*
X133966019Y-149357104D01*
X134966019Y-149357104D01*
X134966019Y-149690438D01*
X134918400Y-149785676D01*
X134870780Y-149833295D01*
X134775542Y-149880914D01*
X134680304Y-149880914D01*
X134585066Y-149833295D01*
X134537447Y-149785676D01*
X134489828Y-149690438D01*
X134489828Y-149357104D01*
X133966019Y-150880914D02*
X133966019Y-150309485D01*
X133966019Y-150595200D02*
X134966019Y-150595200D01*
X134823161Y-150499961D01*
X134727923Y-150404723D01*
X134680304Y-150309485D01*
X158632314Y-124134980D02*
X158060885Y-124134980D01*
X158346600Y-124134980D02*
X158346600Y-123134980D01*
X158251361Y-123277838D01*
X158156123Y-123373076D01*
X158060885Y-123420695D01*
X159060885Y-124134980D02*
X159060885Y-123134980D01*
X159632314Y-124134980D02*
X159203742Y-123563552D01*
X159632314Y-123134980D02*
X159060885Y-123706409D01*
X79491685Y-145226828D02*
X80253590Y-145226828D01*
X79872638Y-145607780D02*
X79872638Y-144845876D01*
X81205971Y-144607780D02*
X80729780Y-144607780D01*
X80682161Y-145083971D01*
X80729780Y-145036352D01*
X80825019Y-144988733D01*
X81063114Y-144988733D01*
X81158352Y-145036352D01*
X81205971Y-145083971D01*
X81253590Y-145179209D01*
X81253590Y-145417304D01*
X81205971Y-145512542D01*
X81158352Y-145560161D01*
X81063114Y-145607780D01*
X80825019Y-145607780D01*
X80729780Y-145560161D01*
X80682161Y-145512542D01*
X81539304Y-144607780D02*
X81872638Y-145607780D01*
X82205971Y-144607780D01*
X143966019Y-148357104D02*
X144966019Y-148357104D01*
X144966019Y-148738057D01*
X144918400Y-148833295D01*
X144870780Y-148880914D01*
X144775542Y-148928533D01*
X144632685Y-148928533D01*
X144537447Y-148880914D01*
X144489828Y-148833295D01*
X144442209Y-148738057D01*
X144442209Y-148357104D01*
X144489828Y-149690438D02*
X144442209Y-149833295D01*
X144394590Y-149880914D01*
X144299352Y-149928533D01*
X144156495Y-149928533D01*
X144061257Y-149880914D01*
X144013638Y-149833295D01*
X143966019Y-149738057D01*
X143966019Y-149357104D01*
X144966019Y-149357104D01*
X144966019Y-149690438D01*
X144918400Y-149785676D01*
X144870780Y-149833295D01*
X144775542Y-149880914D01*
X144680304Y-149880914D01*
X144585066Y-149833295D01*
X144537447Y-149785676D01*
X144489828Y-149690438D01*
X144489828Y-149357104D01*
X144966019Y-150833295D02*
X144966019Y-150357104D01*
X144489828Y-150309485D01*
X144537447Y-150357104D01*
X144585066Y-150452342D01*
X144585066Y-150690438D01*
X144537447Y-150785676D01*
X144489828Y-150833295D01*
X144394590Y-150880914D01*
X144156495Y-150880914D01*
X144061257Y-150833295D01*
X144013638Y-150785676D01*
X143966019Y-150690438D01*
X143966019Y-150452342D01*
X144013638Y-150357104D01*
X144061257Y-150309485D01*
X152966019Y-148261866D02*
X151966019Y-148595200D01*
X152966019Y-148928533D01*
X152061257Y-149833295D02*
X152013638Y-149785676D01*
X151966019Y-149642819D01*
X151966019Y-149547580D01*
X152013638Y-149404723D01*
X152108876Y-149309485D01*
X152204114Y-149261866D01*
X152394590Y-149214247D01*
X152537447Y-149214247D01*
X152727923Y-149261866D01*
X152823161Y-149309485D01*
X152918400Y-149404723D01*
X152966019Y-149547580D01*
X152966019Y-149642819D01*
X152918400Y-149785676D01*
X152870780Y-149833295D01*
X152061257Y-150833295D02*
X152013638Y-150785676D01*
X151966019Y-150642819D01*
X151966019Y-150547580D01*
X152013638Y-150404723D01*
X152108876Y-150309485D01*
X152204114Y-150261866D01*
X152394590Y-150214247D01*
X152537447Y-150214247D01*
X152727923Y-150261866D01*
X152823161Y-150309485D01*
X152918400Y-150404723D01*
X152966019Y-150547580D01*
X152966019Y-150642819D01*
X152918400Y-150785676D01*
X152870780Y-150833295D01*
X218006523Y-65769266D02*
X218482714Y-65769266D01*
X217911285Y-66054980D02*
X218244619Y-65054980D01*
X218577952Y-66054980D01*
X219435095Y-66054980D02*
X218863666Y-66054980D01*
X219149380Y-66054980D02*
X219149380Y-65054980D01*
X219054142Y-65197838D01*
X218958904Y-65293076D01*
X218863666Y-65340695D01*
X220387476Y-66054980D02*
X219816047Y-66054980D01*
X220101761Y-66054980D02*
X220101761Y-65054980D01*
X220006523Y-65197838D01*
X219911285Y-65293076D01*
X219816047Y-65340695D01*
X228809000Y-73936980D02*
X228809000Y-72936980D01*
X229189952Y-72936980D01*
X229285190Y-72984600D01*
X229332809Y-73032219D01*
X229380428Y-73127457D01*
X229380428Y-73270314D01*
X229332809Y-73365552D01*
X229285190Y-73413171D01*
X229189952Y-73460790D01*
X228809000Y-73460790D01*
X229809000Y-73936980D02*
X229809000Y-72936980D01*
X229809000Y-73413171D02*
X230380428Y-73413171D01*
X230380428Y-73936980D02*
X230380428Y-72936980D01*
X230856619Y-73936980D02*
X230856619Y-72936980D01*
X231856619Y-73936980D02*
X231285190Y-73936980D01*
X231570904Y-73936980D02*
X231570904Y-72936980D01*
X231475666Y-73079838D01*
X231380428Y-73175076D01*
X231285190Y-73222695D01*
X228809000Y-78762980D02*
X228809000Y-77762980D01*
X229189952Y-77762980D01*
X229285190Y-77810600D01*
X229332809Y-77858219D01*
X229380428Y-77953457D01*
X229380428Y-78096314D01*
X229332809Y-78191552D01*
X229285190Y-78239171D01*
X229189952Y-78286790D01*
X228809000Y-78286790D01*
X229809000Y-78762980D02*
X229809000Y-77762980D01*
X229809000Y-78239171D02*
X230380428Y-78239171D01*
X230380428Y-78762980D02*
X230380428Y-77762980D01*
X230856619Y-78762980D02*
X230856619Y-77762980D01*
X231285190Y-77858219D02*
X231332809Y-77810600D01*
X231428047Y-77762980D01*
X231666142Y-77762980D01*
X231761380Y-77810600D01*
X231809000Y-77858219D01*
X231856619Y-77953457D01*
X231856619Y-78048695D01*
X231809000Y-78191552D01*
X231237571Y-78762980D01*
X231856619Y-78762980D01*
X158632314Y-131134980D02*
X158060885Y-131134980D01*
X158346600Y-131134980D02*
X158346600Y-130134980D01*
X158251361Y-130277838D01*
X158156123Y-130373076D01*
X158060885Y-130420695D01*
X159060885Y-131134980D02*
X159060885Y-130134980D01*
X159632314Y-131134980D02*
X159203742Y-130563552D01*
X159632314Y-130134980D02*
X159060885Y-130706409D01*
X86325019Y-100675780D02*
X85991685Y-100199590D01*
X85753590Y-100675780D02*
X85753590Y-99675780D01*
X86134542Y-99675780D01*
X86229780Y-99723400D01*
X86277400Y-99771019D01*
X86325019Y-99866257D01*
X86325019Y-100009114D01*
X86277400Y-100104352D01*
X86229780Y-100151971D01*
X86134542Y-100199590D01*
X85753590Y-100199590D01*
X86753590Y-100151971D02*
X87086923Y-100151971D01*
X87229780Y-100675780D02*
X86753590Y-100675780D01*
X86753590Y-99675780D01*
X87229780Y-99675780D01*
X87610733Y-100628161D02*
X87753590Y-100675780D01*
X87991685Y-100675780D01*
X88086923Y-100628161D01*
X88134542Y-100580542D01*
X88182161Y-100485304D01*
X88182161Y-100390066D01*
X88134542Y-100294828D01*
X88086923Y-100247209D01*
X87991685Y-100199590D01*
X87801209Y-100151971D01*
X87705971Y-100104352D01*
X87658352Y-100056733D01*
X87610733Y-99961495D01*
X87610733Y-99866257D01*
X87658352Y-99771019D01*
X87705971Y-99723400D01*
X87801209Y-99675780D01*
X88039304Y-99675780D01*
X88182161Y-99723400D01*
X88610733Y-100151971D02*
X88944066Y-100151971D01*
X89086923Y-100675780D02*
X88610733Y-100675780D01*
X88610733Y-99675780D01*
X89086923Y-99675780D01*
X89372638Y-99675780D02*
X89944066Y-99675780D01*
X89658352Y-100675780D02*
X89658352Y-99675780D01*
X115730219Y-125923380D02*
X115254028Y-125923380D01*
X115254028Y-124923380D01*
X116063552Y-125399571D02*
X116396885Y-125399571D01*
X116539742Y-125923380D02*
X116063552Y-125923380D01*
X116063552Y-124923380D01*
X116539742Y-124923380D01*
X117301647Y-125399571D02*
X116968314Y-125399571D01*
X116968314Y-125923380D02*
X116968314Y-124923380D01*
X117444504Y-124923380D01*
X117682600Y-124923380D02*
X118254028Y-124923380D01*
X117968314Y-125923380D02*
X117968314Y-124923380D01*
X228958904Y-38054980D02*
X228958904Y-37054980D01*
X229197000Y-37054980D01*
X229339857Y-37102600D01*
X229435095Y-37197838D01*
X229482714Y-37293076D01*
X229530333Y-37483552D01*
X229530333Y-37626409D01*
X229482714Y-37816885D01*
X229435095Y-37912123D01*
X229339857Y-38007361D01*
X229197000Y-38054980D01*
X228958904Y-38054980D01*
X230149380Y-37054980D02*
X230244619Y-37054980D01*
X230339857Y-37102600D01*
X230387476Y-37150219D01*
X230435095Y-37245457D01*
X230482714Y-37435933D01*
X230482714Y-37674028D01*
X230435095Y-37864504D01*
X230387476Y-37959742D01*
X230339857Y-38007361D01*
X230244619Y-38054980D01*
X230149380Y-38054980D01*
X230054142Y-38007361D01*
X230006523Y-37959742D01*
X229958904Y-37864504D01*
X229911285Y-37674028D01*
X229911285Y-37435933D01*
X229958904Y-37245457D01*
X230006523Y-37150219D01*
X230054142Y-37102600D01*
X230149380Y-37054980D01*
X92547780Y-114763285D02*
X92547780Y-115334714D01*
X92547780Y-115049000D02*
X91547780Y-115049000D01*
X91690638Y-115144238D01*
X91785876Y-115239476D01*
X91833495Y-115334714D01*
X92547780Y-114334714D02*
X91547780Y-114334714D01*
X92547780Y-113763285D02*
X91976352Y-114191857D01*
X91547780Y-113763285D02*
X92119209Y-114334714D01*
X218482714Y-45769266D02*
X218958904Y-45769266D01*
X218387476Y-46054980D02*
X218720809Y-45054980D01*
X219054142Y-46054980D01*
X219292238Y-45054980D02*
X219911285Y-45054980D01*
X219577952Y-45435933D01*
X219720809Y-45435933D01*
X219816047Y-45483552D01*
X219863666Y-45531171D01*
X219911285Y-45626409D01*
X219911285Y-45864504D01*
X219863666Y-45959742D01*
X219816047Y-46007361D01*
X219720809Y-46054980D01*
X219435095Y-46054980D01*
X219339857Y-46007361D01*
X219292238Y-45959742D01*
X89610733Y-136607780D02*
X89039304Y-136607780D01*
X89325019Y-136607780D02*
X89325019Y-135607780D01*
X89229780Y-135750638D01*
X89134542Y-135845876D01*
X89039304Y-135893495D01*
X90039304Y-135941114D02*
X90039304Y-136941114D01*
X90515495Y-136464923D02*
X90563114Y-136560161D01*
X90658352Y-136607780D01*
X90039304Y-136464923D02*
X90086923Y-136560161D01*
X90182161Y-136607780D01*
X90372638Y-136607780D01*
X90467876Y-136560161D01*
X90515495Y-136464923D01*
X90515495Y-135941114D01*
X91420257Y-136083971D02*
X91086923Y-136083971D01*
X91086923Y-136607780D02*
X91086923Y-135607780D01*
X91563114Y-135607780D01*
X218482714Y-50769266D02*
X218958904Y-50769266D01*
X218387476Y-51054980D02*
X218720809Y-50054980D01*
X219054142Y-51054980D01*
X219863666Y-50054980D02*
X219387476Y-50054980D01*
X219339857Y-50531171D01*
X219387476Y-50483552D01*
X219482714Y-50435933D01*
X219720809Y-50435933D01*
X219816047Y-50483552D01*
X219863666Y-50531171D01*
X219911285Y-50626409D01*
X219911285Y-50864504D01*
X219863666Y-50959742D01*
X219816047Y-51007361D01*
X219720809Y-51054980D01*
X219482714Y-51054980D01*
X219387476Y-51007361D01*
X219339857Y-50959742D01*
X113775819Y-43783342D02*
X113775819Y-44450009D01*
X112775819Y-44021438D01*
X113442485Y-45259533D02*
X112775819Y-45259533D01*
X113823438Y-45021438D02*
X113109152Y-44783342D01*
X113109152Y-45402390D01*
X112775819Y-46259533D02*
X112775819Y-45783342D01*
X113775819Y-45783342D01*
X112823438Y-46545247D02*
X112775819Y-46688104D01*
X112775819Y-46926200D01*
X112823438Y-47021438D01*
X112871057Y-47069057D01*
X112966295Y-47116676D01*
X113061533Y-47116676D01*
X113156771Y-47069057D01*
X113204390Y-47021438D01*
X113252009Y-46926200D01*
X113299628Y-46735723D01*
X113347247Y-46640485D01*
X113394866Y-46592866D01*
X113490104Y-46545247D01*
X113585342Y-46545247D01*
X113680580Y-46592866D01*
X113728200Y-46640485D01*
X113775819Y-46735723D01*
X113775819Y-46973819D01*
X113728200Y-47116676D01*
X113775819Y-47735723D02*
X113775819Y-47830961D01*
X113728200Y-47926200D01*
X113680580Y-47973819D01*
X113585342Y-48021438D01*
X113394866Y-48069057D01*
X113156771Y-48069057D01*
X112966295Y-48021438D01*
X112871057Y-47973819D01*
X112823438Y-47926200D01*
X112775819Y-47830961D01*
X112775819Y-47735723D01*
X112823438Y-47640485D01*
X112871057Y-47592866D01*
X112966295Y-47545247D01*
X113156771Y-47497628D01*
X113394866Y-47497628D01*
X113585342Y-47545247D01*
X113680580Y-47592866D01*
X113728200Y-47640485D01*
X113775819Y-47735723D01*
X113775819Y-48688104D02*
X113775819Y-48783342D01*
X113728200Y-48878580D01*
X113680580Y-48926200D01*
X113585342Y-48973819D01*
X113394866Y-49021438D01*
X113156771Y-49021438D01*
X112966295Y-48973819D01*
X112871057Y-48926200D01*
X112823438Y-48878580D01*
X112775819Y-48783342D01*
X112775819Y-48688104D01*
X112823438Y-48592866D01*
X112871057Y-48545247D01*
X112966295Y-48497628D01*
X113156771Y-48450009D01*
X113394866Y-48450009D01*
X113585342Y-48497628D01*
X113680580Y-48545247D01*
X113728200Y-48592866D01*
X113775819Y-48688104D01*
X182660257Y-91941780D02*
X182898352Y-92941780D01*
X183088828Y-92227495D01*
X183279304Y-92941780D01*
X183517400Y-91941780D01*
X184326923Y-91941780D02*
X184136447Y-91941780D01*
X184041209Y-91989400D01*
X183993590Y-92037019D01*
X183898352Y-92179876D01*
X183850733Y-92370352D01*
X183850733Y-92751304D01*
X183898352Y-92846542D01*
X183945971Y-92894161D01*
X184041209Y-92941780D01*
X184231685Y-92941780D01*
X184326923Y-92894161D01*
X184374542Y-92846542D01*
X184422161Y-92751304D01*
X184422161Y-92513209D01*
X184374542Y-92417971D01*
X184326923Y-92370352D01*
X184231685Y-92322733D01*
X184041209Y-92322733D01*
X183945971Y-92370352D01*
X183898352Y-92417971D01*
X183850733Y-92513209D01*
X185326923Y-91941780D02*
X184850733Y-91941780D01*
X184803114Y-92417971D01*
X184850733Y-92370352D01*
X184945971Y-92322733D01*
X185184066Y-92322733D01*
X185279304Y-92370352D01*
X185326923Y-92417971D01*
X185374542Y-92513209D01*
X185374542Y-92751304D01*
X185326923Y-92846542D01*
X185279304Y-92894161D01*
X185184066Y-92941780D01*
X184945971Y-92941780D01*
X184850733Y-92894161D01*
X184803114Y-92846542D01*
X186374542Y-92846542D02*
X186326923Y-92894161D01*
X186184066Y-92941780D01*
X186088828Y-92941780D01*
X185945971Y-92894161D01*
X185850733Y-92798923D01*
X185803114Y-92703685D01*
X185755495Y-92513209D01*
X185755495Y-92370352D01*
X185803114Y-92179876D01*
X185850733Y-92084638D01*
X185945971Y-91989400D01*
X186088828Y-91941780D01*
X186184066Y-91941780D01*
X186326923Y-91989400D01*
X186374542Y-92037019D01*
X187279304Y-91941780D02*
X186803114Y-91941780D01*
X186755495Y-92417971D01*
X186803114Y-92370352D01*
X186898352Y-92322733D01*
X187136447Y-92322733D01*
X187231685Y-92370352D01*
X187279304Y-92417971D01*
X187326923Y-92513209D01*
X187326923Y-92751304D01*
X187279304Y-92846542D01*
X187231685Y-92894161D01*
X187136447Y-92941780D01*
X186898352Y-92941780D01*
X186803114Y-92894161D01*
X186755495Y-92846542D01*
X188279304Y-92941780D02*
X187707876Y-92941780D01*
X187993590Y-92941780D02*
X187993590Y-91941780D01*
X187898352Y-92084638D01*
X187803114Y-92179876D01*
X187707876Y-92227495D01*
X188707876Y-92941780D02*
X188707876Y-91941780D01*
X189279304Y-92941780D01*
X189279304Y-91941780D01*
X102469780Y-68703685D02*
X102469780Y-68608447D01*
X102517400Y-68513209D01*
X102565019Y-68465590D01*
X102660257Y-68417971D01*
X102850733Y-68370352D01*
X103088828Y-68370352D01*
X103279304Y-68417971D01*
X103374542Y-68465590D01*
X103422161Y-68513209D01*
X103469780Y-68608447D01*
X103469780Y-68703685D01*
X103422161Y-68798923D01*
X103374542Y-68846542D01*
X103279304Y-68894161D01*
X103088828Y-68941780D01*
X102850733Y-68941780D01*
X102660257Y-68894161D01*
X102565019Y-68846542D01*
X102517400Y-68798923D01*
X102469780Y-68703685D01*
X103374542Y-67941780D02*
X103422161Y-67894161D01*
X103469780Y-67941780D01*
X103422161Y-67989400D01*
X103374542Y-67941780D01*
X103469780Y-67941780D01*
X103469780Y-66941780D02*
X103469780Y-67513209D01*
X103469780Y-67227495D02*
X102469780Y-67227495D01*
X102612638Y-67322733D01*
X102707876Y-67417971D01*
X102755495Y-67513209D01*
X102803114Y-66513209D02*
X103803114Y-66513209D01*
X103326923Y-66037019D02*
X103422161Y-65989400D01*
X103469780Y-65894161D01*
X103326923Y-66513209D02*
X103422161Y-66465590D01*
X103469780Y-66370352D01*
X103469780Y-66179876D01*
X103422161Y-66084638D01*
X103326923Y-66037019D01*
X102803114Y-66037019D01*
X102945971Y-65132257D02*
X102945971Y-65465590D01*
X103469780Y-65465590D02*
X102469780Y-65465590D01*
X102469780Y-64989400D01*
X228131629Y-141665780D02*
X228703057Y-141665780D01*
X228417343Y-142665780D02*
X228417343Y-141665780D01*
X228941153Y-141665780D02*
X229607819Y-142665780D01*
X229607819Y-141665780D02*
X228941153Y-142665780D01*
X228958904Y-56054980D02*
X228958904Y-55054980D01*
X229197000Y-55054980D01*
X229339857Y-55102600D01*
X229435095Y-55197838D01*
X229482714Y-55293076D01*
X229530333Y-55483552D01*
X229530333Y-55626409D01*
X229482714Y-55816885D01*
X229435095Y-55912123D01*
X229339857Y-56007361D01*
X229197000Y-56054980D01*
X228958904Y-56054980D01*
X229863666Y-55054980D02*
X230530333Y-55054980D01*
X230101761Y-56054980D01*
X141433266Y-126134980D02*
X141099933Y-125658790D01*
X140861838Y-126134980D02*
X140861838Y-125134980D01*
X141242790Y-125134980D01*
X141338028Y-125182600D01*
X141385647Y-125230219D01*
X141433266Y-125325457D01*
X141433266Y-125468314D01*
X141385647Y-125563552D01*
X141338028Y-125611171D01*
X141242790Y-125658790D01*
X140861838Y-125658790D01*
X141861838Y-126134980D02*
X141861838Y-125134980D01*
X142861838Y-125182600D02*
X142766600Y-125134980D01*
X142623742Y-125134980D01*
X142480885Y-125182600D01*
X142385647Y-125277838D01*
X142338028Y-125373076D01*
X142290409Y-125563552D01*
X142290409Y-125706409D01*
X142338028Y-125896885D01*
X142385647Y-125992123D01*
X142480885Y-126087361D01*
X142623742Y-126134980D01*
X142718980Y-126134980D01*
X142861838Y-126087361D01*
X142909457Y-126039742D01*
X142909457Y-125706409D01*
X142718980Y-125706409D01*
X143338028Y-126134980D02*
X143338028Y-125134980D01*
X143338028Y-125611171D02*
X143909457Y-125611171D01*
X143909457Y-126134980D02*
X143909457Y-125134980D01*
X144242790Y-125134980D02*
X144814219Y-125134980D01*
X144528504Y-126134980D02*
X144528504Y-125134980D01*
X228958904Y-51054980D02*
X228958904Y-50054980D01*
X229197000Y-50054980D01*
X229339857Y-50102600D01*
X229435095Y-50197838D01*
X229482714Y-50293076D01*
X229530333Y-50483552D01*
X229530333Y-50626409D01*
X229482714Y-50816885D01*
X229435095Y-50912123D01*
X229339857Y-51007361D01*
X229197000Y-51054980D01*
X228958904Y-51054980D01*
X230435095Y-50054980D02*
X229958904Y-50054980D01*
X229911285Y-50531171D01*
X229958904Y-50483552D01*
X230054142Y-50435933D01*
X230292238Y-50435933D01*
X230387476Y-50483552D01*
X230435095Y-50531171D01*
X230482714Y-50626409D01*
X230482714Y-50864504D01*
X230435095Y-50959742D01*
X230387476Y-51007361D01*
X230292238Y-51054980D01*
X230054142Y-51054980D01*
X229958904Y-51007361D01*
X229911285Y-50959742D01*
X170503274Y-135632902D02*
X170169941Y-135156712D01*
X169931846Y-135632902D02*
X169931846Y-134632902D01*
X170312798Y-134632902D01*
X170408036Y-134680522D01*
X170455655Y-134728141D01*
X170503274Y-134823379D01*
X170503274Y-134966236D01*
X170455655Y-135061474D01*
X170408036Y-135109093D01*
X170312798Y-135156712D01*
X169931846Y-135156712D01*
X171312798Y-135585283D02*
X171217560Y-135632902D01*
X171027084Y-135632902D01*
X170931846Y-135585283D01*
X170884227Y-135490045D01*
X170884227Y-135109093D01*
X170931846Y-135013855D01*
X171027084Y-134966236D01*
X171217560Y-134966236D01*
X171312798Y-135013855D01*
X171360417Y-135109093D01*
X171360417Y-135204331D01*
X170884227Y-135299569D01*
X171693751Y-134966236D02*
X171931846Y-135632902D01*
X172169941Y-134966236D01*
X172550893Y-135632902D02*
X172550893Y-134966236D01*
X172550893Y-134632902D02*
X172503274Y-134680522D01*
X172550893Y-134728141D01*
X172598512Y-134680522D01*
X172550893Y-134632902D01*
X172550893Y-134728141D01*
X172979465Y-135585283D02*
X173074703Y-135632902D01*
X173265179Y-135632902D01*
X173360417Y-135585283D01*
X173408036Y-135490045D01*
X173408036Y-135442426D01*
X173360417Y-135347188D01*
X173265179Y-135299569D01*
X173122322Y-135299569D01*
X173027084Y-135251950D01*
X172979465Y-135156712D01*
X172979465Y-135109093D01*
X173027084Y-135013855D01*
X173122322Y-134966236D01*
X173265179Y-134966236D01*
X173360417Y-135013855D01*
X173836608Y-135632902D02*
X173836608Y-134966236D01*
X173836608Y-134632902D02*
X173788989Y-134680522D01*
X173836608Y-134728141D01*
X173884227Y-134680522D01*
X173836608Y-134632902D01*
X173836608Y-134728141D01*
X174455655Y-135632902D02*
X174360417Y-135585283D01*
X174312798Y-135537664D01*
X174265179Y-135442426D01*
X174265179Y-135156712D01*
X174312798Y-135061474D01*
X174360417Y-135013855D01*
X174455655Y-134966236D01*
X174598512Y-134966236D01*
X174693751Y-135013855D01*
X174741370Y-135061474D01*
X174788989Y-135156712D01*
X174788989Y-135442426D01*
X174741370Y-135537664D01*
X174693751Y-135585283D01*
X174598512Y-135632902D01*
X174455655Y-135632902D01*
X175217560Y-134966236D02*
X175217560Y-135632902D01*
X175217560Y-135061474D02*
X175265179Y-135013855D01*
X175360417Y-134966236D01*
X175503274Y-134966236D01*
X175598512Y-135013855D01*
X175646131Y-135109093D01*
X175646131Y-135632902D01*
X177408036Y-135632902D02*
X176836608Y-135632902D01*
X177122322Y-135632902D02*
X177122322Y-134632902D01*
X177027084Y-134775760D01*
X176931846Y-134870998D01*
X176836608Y-134918617D01*
X177836608Y-135537664D02*
X177884227Y-135585283D01*
X177836608Y-135632902D01*
X177788989Y-135585283D01*
X177836608Y-135537664D01*
X177836608Y-135632902D01*
X178836608Y-135632902D02*
X178265179Y-135632902D01*
X178550893Y-135632902D02*
X178550893Y-134632902D01*
X178455655Y-134775760D01*
X178360417Y-134870998D01*
X178265179Y-134918617D01*
X180312798Y-136013855D02*
X180265179Y-135966236D01*
X180169941Y-135823379D01*
X180122322Y-135728141D01*
X180074703Y-135585283D01*
X180027084Y-135347188D01*
X180027084Y-135156712D01*
X180074703Y-134918617D01*
X180122322Y-134775760D01*
X180169941Y-134680522D01*
X180265179Y-134537664D01*
X180312798Y-134490045D01*
X180741370Y-135632902D02*
X180931846Y-135632902D01*
X181027084Y-135585283D01*
X181074703Y-135537664D01*
X181169941Y-135394807D01*
X181217560Y-135204331D01*
X181217560Y-134823379D01*
X181169941Y-134728141D01*
X181122322Y-134680522D01*
X181027084Y-134632902D01*
X180836608Y-134632902D01*
X180741370Y-134680522D01*
X180693751Y-134728141D01*
X180646131Y-134823379D01*
X180646131Y-135061474D01*
X180693751Y-135156712D01*
X180741370Y-135204331D01*
X180836608Y-135251950D01*
X181027084Y-135251950D01*
X181122322Y-135204331D01*
X181169941Y-135156712D01*
X181217560Y-135061474D01*
X182360417Y-134585283D02*
X181503274Y-135870998D01*
X182598512Y-134632902D02*
X183217560Y-134632902D01*
X182884227Y-135013855D01*
X183027084Y-135013855D01*
X183122322Y-135061474D01*
X183169941Y-135109093D01*
X183217560Y-135204331D01*
X183217560Y-135442426D01*
X183169941Y-135537664D01*
X183122322Y-135585283D01*
X183027084Y-135632902D01*
X182741370Y-135632902D01*
X182646131Y-135585283D01*
X182598512Y-135537664D01*
X184360417Y-134585283D02*
X183503274Y-135870998D01*
X184646131Y-134728141D02*
X184693751Y-134680522D01*
X184788989Y-134632902D01*
X185027084Y-134632902D01*
X185122322Y-134680522D01*
X185169941Y-134728141D01*
X185217560Y-134823379D01*
X185217560Y-134918617D01*
X185169941Y-135061474D01*
X184598512Y-135632902D01*
X185217560Y-135632902D01*
X185598512Y-134728141D02*
X185646131Y-134680522D01*
X185741370Y-134632902D01*
X185979465Y-134632902D01*
X186074703Y-134680522D01*
X186122322Y-134728141D01*
X186169941Y-134823379D01*
X186169941Y-134918617D01*
X186122322Y-135061474D01*
X185550893Y-135632902D01*
X186169941Y-135632902D01*
X186503274Y-136013855D02*
X186550893Y-135966236D01*
X186646131Y-135823379D01*
X186693751Y-135728141D01*
X186741370Y-135585283D01*
X186788989Y-135347188D01*
X186788989Y-135156712D01*
X186741370Y-134918617D01*
X186693751Y-134775760D01*
X186646131Y-134680522D01*
X186550893Y-134537664D01*
X186503274Y-134490045D01*
X218006523Y-63269266D02*
X218482714Y-63269266D01*
X217911285Y-63554980D02*
X218244619Y-62554980D01*
X218577952Y-63554980D01*
X219435095Y-63554980D02*
X218863666Y-63554980D01*
X219149380Y-63554980D02*
X219149380Y-62554980D01*
X219054142Y-62697838D01*
X218958904Y-62793076D01*
X218863666Y-62840695D01*
X220054142Y-62554980D02*
X220149380Y-62554980D01*
X220244619Y-62602600D01*
X220292238Y-62650219D01*
X220339857Y-62745457D01*
X220387476Y-62935933D01*
X220387476Y-63174028D01*
X220339857Y-63364504D01*
X220292238Y-63459742D01*
X220244619Y-63507361D01*
X220149380Y-63554980D01*
X220054142Y-63554980D01*
X219958904Y-63507361D01*
X219911285Y-63459742D01*
X219863666Y-63364504D01*
X219816047Y-63174028D01*
X219816047Y-62935933D01*
X219863666Y-62745457D01*
X219911285Y-62650219D01*
X219958904Y-62602600D01*
X220054142Y-62554980D01*
X218482714Y-55769266D02*
X218958904Y-55769266D01*
X218387476Y-56054980D02*
X218720809Y-55054980D01*
X219054142Y-56054980D01*
X219292238Y-55054980D02*
X219958904Y-55054980D01*
X219530333Y-56054980D01*
X228444332Y-123008812D02*
X228444332Y-122008812D01*
X228825285Y-122008812D01*
X228920523Y-122056432D01*
X228968142Y-122104051D01*
X229015761Y-122199289D01*
X229015761Y-122342146D01*
X228968142Y-122437384D01*
X228920523Y-122485003D01*
X228825285Y-122532622D01*
X228444332Y-122532622D01*
X229777666Y-122485003D02*
X229920523Y-122532622D01*
X229968142Y-122580241D01*
X230015761Y-122675479D01*
X230015761Y-122818336D01*
X229968142Y-122913574D01*
X229920523Y-122961193D01*
X229825285Y-123008812D01*
X229444332Y-123008812D01*
X229444332Y-122008812D01*
X229777666Y-122008812D01*
X229872904Y-122056432D01*
X229920523Y-122104051D01*
X229968142Y-122199289D01*
X229968142Y-122294527D01*
X229920523Y-122389765D01*
X229872904Y-122437384D01*
X229777666Y-122485003D01*
X229444332Y-122485003D01*
X230872904Y-122342146D02*
X230872904Y-123008812D01*
X230634808Y-121961193D02*
X230396713Y-122675479D01*
X231015761Y-122675479D01*
X79701028Y-112882352D02*
X79701028Y-112120447D01*
X228444332Y-128178784D02*
X228444332Y-127178784D01*
X228825285Y-127178784D01*
X228920523Y-127226404D01*
X228968142Y-127274023D01*
X229015761Y-127369261D01*
X229015761Y-127512118D01*
X228968142Y-127607356D01*
X228920523Y-127654975D01*
X228825285Y-127702594D01*
X228444332Y-127702594D01*
X229777666Y-127654975D02*
X229920523Y-127702594D01*
X229968142Y-127750213D01*
X230015761Y-127845451D01*
X230015761Y-127988308D01*
X229968142Y-128083546D01*
X229920523Y-128131165D01*
X229825285Y-128178784D01*
X229444332Y-128178784D01*
X229444332Y-127178784D01*
X229777666Y-127178784D01*
X229872904Y-127226404D01*
X229920523Y-127274023D01*
X229968142Y-127369261D01*
X229968142Y-127464499D01*
X229920523Y-127559737D01*
X229872904Y-127607356D01*
X229777666Y-127654975D01*
X229444332Y-127654975D01*
X230872904Y-127178784D02*
X230682428Y-127178784D01*
X230587189Y-127226404D01*
X230539570Y-127274023D01*
X230444332Y-127416880D01*
X230396713Y-127607356D01*
X230396713Y-127988308D01*
X230444332Y-128083546D01*
X230491951Y-128131165D01*
X230587189Y-128178784D01*
X230777666Y-128178784D01*
X230872904Y-128131165D01*
X230920523Y-128083546D01*
X230968142Y-127988308D01*
X230968142Y-127750213D01*
X230920523Y-127654975D01*
X230872904Y-127607356D01*
X230777666Y-127559737D01*
X230587189Y-127559737D01*
X230491951Y-127607356D01*
X230444332Y-127654975D01*
X230396713Y-127750213D01*
X206580580Y-44756485D02*
X206580580Y-44661247D01*
X206628200Y-44566009D01*
X206675819Y-44518390D01*
X206771057Y-44470771D01*
X206961533Y-44423152D01*
X207199628Y-44423152D01*
X207390104Y-44470771D01*
X207485342Y-44518390D01*
X207532961Y-44566009D01*
X207580580Y-44661247D01*
X207580580Y-44756485D01*
X207532961Y-44851723D01*
X207485342Y-44899342D01*
X207390104Y-44946961D01*
X207199628Y-44994580D01*
X206961533Y-44994580D01*
X206771057Y-44946961D01*
X206675819Y-44899342D01*
X206628200Y-44851723D01*
X206580580Y-44756485D01*
X207485342Y-43994580D02*
X207532961Y-43946961D01*
X207580580Y-43994580D01*
X207532961Y-44042200D01*
X207485342Y-43994580D01*
X207580580Y-43994580D01*
X207580580Y-42994580D02*
X207580580Y-43566009D01*
X207580580Y-43280295D02*
X206580580Y-43280295D01*
X206723438Y-43375533D01*
X206818676Y-43470771D01*
X206866295Y-43566009D01*
X206913914Y-42566009D02*
X207913914Y-42566009D01*
X207437723Y-42089819D02*
X207532961Y-42042200D01*
X207580580Y-41946961D01*
X207437723Y-42566009D02*
X207532961Y-42518390D01*
X207580580Y-42423152D01*
X207580580Y-42232676D01*
X207532961Y-42137438D01*
X207437723Y-42089819D01*
X206913914Y-42089819D01*
X207056771Y-41185057D02*
X207056771Y-41518390D01*
X207580580Y-41518390D02*
X206580580Y-41518390D01*
X206580580Y-41042200D01*
X228721666Y-83054980D02*
X229055000Y-84054980D01*
X229388333Y-83054980D01*
X230293095Y-83959742D02*
X230245476Y-84007361D01*
X230102619Y-84054980D01*
X230007380Y-84054980D01*
X229864523Y-84007361D01*
X229769285Y-83912123D01*
X229721666Y-83816885D01*
X229674047Y-83626409D01*
X229674047Y-83483552D01*
X229721666Y-83293076D01*
X229769285Y-83197838D01*
X229864523Y-83102600D01*
X230007380Y-83054980D01*
X230102619Y-83054980D01*
X230245476Y-83102600D01*
X230293095Y-83150219D01*
X231293095Y-83959742D02*
X231245476Y-84007361D01*
X231102619Y-84054980D01*
X231007380Y-84054980D01*
X230864523Y-84007361D01*
X230769285Y-83912123D01*
X230721666Y-83816885D01*
X230674047Y-83626409D01*
X230674047Y-83483552D01*
X230721666Y-83293076D01*
X230769285Y-83197838D01*
X230864523Y-83102600D01*
X231007380Y-83054980D01*
X231102619Y-83054980D01*
X231245476Y-83102600D01*
X231293095Y-83150219D01*
X196108923Y-79508180D02*
X196727971Y-79508180D01*
X196394638Y-79889133D01*
X196537495Y-79889133D01*
X196632733Y-79936752D01*
X196680352Y-79984371D01*
X196727971Y-80079609D01*
X196727971Y-80317704D01*
X196680352Y-80412942D01*
X196632733Y-80460561D01*
X196537495Y-80508180D01*
X196251780Y-80508180D01*
X196156542Y-80460561D01*
X196108923Y-80412942D01*
X197061304Y-79508180D02*
X197680352Y-79508180D01*
X197347019Y-79889133D01*
X197489876Y-79889133D01*
X197585114Y-79936752D01*
X197632733Y-79984371D01*
X197680352Y-80079609D01*
X197680352Y-80317704D01*
X197632733Y-80412942D01*
X197585114Y-80460561D01*
X197489876Y-80508180D01*
X197204161Y-80508180D01*
X197108923Y-80460561D01*
X197061304Y-80412942D01*
X198108923Y-79841514D02*
X198108923Y-80841514D01*
X198108923Y-79889133D02*
X198204161Y-79841514D01*
X198394638Y-79841514D01*
X198489876Y-79889133D01*
X198537495Y-79936752D01*
X198585114Y-80031990D01*
X198585114Y-80317704D01*
X198537495Y-80412942D01*
X198489876Y-80460561D01*
X198394638Y-80508180D01*
X198204161Y-80508180D01*
X198108923Y-80460561D01*
X199347019Y-79984371D02*
X199013685Y-79984371D01*
X199013685Y-80508180D02*
X199013685Y-79508180D01*
X199489876Y-79508180D01*
X146466019Y-148357104D02*
X147466019Y-148357104D01*
X147466019Y-148738057D01*
X147418400Y-148833295D01*
X147370780Y-148880914D01*
X147275542Y-148928533D01*
X147132685Y-148928533D01*
X147037447Y-148880914D01*
X146989828Y-148833295D01*
X146942209Y-148738057D01*
X146942209Y-148357104D01*
X146989828Y-149690438D02*
X146942209Y-149833295D01*
X146894590Y-149880914D01*
X146799352Y-149928533D01*
X146656495Y-149928533D01*
X146561257Y-149880914D01*
X146513638Y-149833295D01*
X146466019Y-149738057D01*
X146466019Y-149357104D01*
X147466019Y-149357104D01*
X147466019Y-149690438D01*
X147418400Y-149785676D01*
X147370780Y-149833295D01*
X147275542Y-149880914D01*
X147180304Y-149880914D01*
X147085066Y-149833295D01*
X147037447Y-149785676D01*
X146989828Y-149690438D01*
X146989828Y-149357104D01*
X147466019Y-150785676D02*
X147466019Y-150595200D01*
X147418400Y-150499961D01*
X147370780Y-150452342D01*
X147227923Y-150357104D01*
X147037447Y-150309485D01*
X146656495Y-150309485D01*
X146561257Y-150357104D01*
X146513638Y-150404723D01*
X146466019Y-150499961D01*
X146466019Y-150690438D01*
X146513638Y-150785676D01*
X146561257Y-150833295D01*
X146656495Y-150880914D01*
X146894590Y-150880914D01*
X146989828Y-150833295D01*
X147037447Y-150785676D01*
X147085066Y-150690438D01*
X147085066Y-150499961D01*
X147037447Y-150404723D01*
X146989828Y-150357104D01*
X146894590Y-150309485D01*
X217863666Y-34554980D02*
X218197000Y-35554980D01*
X218530333Y-34554980D01*
X219435095Y-35459742D02*
X219387476Y-35507361D01*
X219244619Y-35554980D01*
X219149380Y-35554980D01*
X219006523Y-35507361D01*
X218911285Y-35412123D01*
X218863666Y-35316885D01*
X218816047Y-35126409D01*
X218816047Y-34983552D01*
X218863666Y-34793076D01*
X218911285Y-34697838D01*
X219006523Y-34602600D01*
X219149380Y-34554980D01*
X219244619Y-34554980D01*
X219387476Y-34602600D01*
X219435095Y-34650219D01*
X220435095Y-35459742D02*
X220387476Y-35507361D01*
X220244619Y-35554980D01*
X220149380Y-35554980D01*
X220006523Y-35507361D01*
X219911285Y-35412123D01*
X219863666Y-35316885D01*
X219816047Y-35126409D01*
X219816047Y-34983552D01*
X219863666Y-34793076D01*
X219911285Y-34697838D01*
X220006523Y-34602600D01*
X220149380Y-34554980D01*
X220244619Y-34554980D01*
X220387476Y-34602600D01*
X220435095Y-34650219D01*
X218482714Y-60769266D02*
X218958904Y-60769266D01*
X218387476Y-61054980D02*
X218720809Y-60054980D01*
X219054142Y-61054980D01*
X219435095Y-61054980D02*
X219625571Y-61054980D01*
X219720809Y-61007361D01*
X219768428Y-60959742D01*
X219863666Y-60816885D01*
X219911285Y-60626409D01*
X219911285Y-60245457D01*
X219863666Y-60150219D01*
X219816047Y-60102600D01*
X219720809Y-60054980D01*
X219530333Y-60054980D01*
X219435095Y-60102600D01*
X219387476Y-60150219D01*
X219339857Y-60245457D01*
X219339857Y-60483552D01*
X219387476Y-60578790D01*
X219435095Y-60626409D01*
X219530333Y-60674028D01*
X219720809Y-60674028D01*
X219816047Y-60626409D01*
X219863666Y-60578790D01*
X219911285Y-60483552D01*
X158552314Y-110134980D02*
X157980885Y-110134980D01*
X158266600Y-110134980D02*
X158266600Y-109134980D01*
X158171361Y-109277838D01*
X158076123Y-109373076D01*
X157980885Y-109420695D01*
X158980885Y-110134980D02*
X158980885Y-109134980D01*
X159552314Y-110134980D02*
X159123742Y-109563552D01*
X159552314Y-109134980D02*
X158980885Y-109706409D01*
X154280219Y-43783342D02*
X154280219Y-44450009D01*
X153280219Y-44021438D01*
X153946885Y-45259533D02*
X153280219Y-45259533D01*
X154327838Y-45021438D02*
X153613552Y-44783342D01*
X153613552Y-45402390D01*
X153280219Y-46259533D02*
X153280219Y-45783342D01*
X154280219Y-45783342D01*
X153327838Y-46545247D02*
X153280219Y-46688104D01*
X153280219Y-46926200D01*
X153327838Y-47021438D01*
X153375457Y-47069057D01*
X153470695Y-47116676D01*
X153565933Y-47116676D01*
X153661171Y-47069057D01*
X153708790Y-47021438D01*
X153756409Y-46926200D01*
X153804028Y-46735723D01*
X153851647Y-46640485D01*
X153899266Y-46592866D01*
X153994504Y-46545247D01*
X154089742Y-46545247D01*
X154184980Y-46592866D01*
X154232600Y-46640485D01*
X154280219Y-46735723D01*
X154280219Y-46973819D01*
X154232600Y-47116676D01*
X154280219Y-47735723D02*
X154280219Y-47830961D01*
X154232600Y-47926200D01*
X154184980Y-47973819D01*
X154089742Y-48021438D01*
X153899266Y-48069057D01*
X153661171Y-48069057D01*
X153470695Y-48021438D01*
X153375457Y-47973819D01*
X153327838Y-47926200D01*
X153280219Y-47830961D01*
X153280219Y-47735723D01*
X153327838Y-47640485D01*
X153375457Y-47592866D01*
X153470695Y-47545247D01*
X153661171Y-47497628D01*
X153899266Y-47497628D01*
X154089742Y-47545247D01*
X154184980Y-47592866D01*
X154232600Y-47640485D01*
X154280219Y-47735723D01*
X154280219Y-48688104D02*
X154280219Y-48783342D01*
X154232600Y-48878580D01*
X154184980Y-48926200D01*
X154089742Y-48973819D01*
X153899266Y-49021438D01*
X153661171Y-49021438D01*
X153470695Y-48973819D01*
X153375457Y-48926200D01*
X153327838Y-48878580D01*
X153280219Y-48783342D01*
X153280219Y-48688104D01*
X153327838Y-48592866D01*
X153375457Y-48545247D01*
X153470695Y-48497628D01*
X153661171Y-48450009D01*
X153899266Y-48450009D01*
X154089742Y-48497628D01*
X154184980Y-48545247D01*
X154232600Y-48592866D01*
X154280219Y-48688104D01*
X206429780Y-94083685D02*
X206429780Y-93988447D01*
X206477400Y-93893209D01*
X206525019Y-93845590D01*
X206620257Y-93797971D01*
X206810733Y-93750352D01*
X207048828Y-93750352D01*
X207239304Y-93797971D01*
X207334542Y-93845590D01*
X207382161Y-93893209D01*
X207429780Y-93988447D01*
X207429780Y-94083685D01*
X207382161Y-94178923D01*
X207334542Y-94226542D01*
X207239304Y-94274161D01*
X207048828Y-94321780D01*
X206810733Y-94321780D01*
X206620257Y-94274161D01*
X206525019Y-94226542D01*
X206477400Y-94178923D01*
X206429780Y-94083685D01*
X207334542Y-93321780D02*
X207382161Y-93274161D01*
X207429780Y-93321780D01*
X207382161Y-93369400D01*
X207334542Y-93321780D01*
X207429780Y-93321780D01*
X207429780Y-92321780D02*
X207429780Y-92893209D01*
X207429780Y-92607495D02*
X206429780Y-92607495D01*
X206572638Y-92702733D01*
X206667876Y-92797971D01*
X206715495Y-92893209D01*
X206763114Y-91893209D02*
X207763114Y-91893209D01*
X207286923Y-91417019D02*
X207382161Y-91369400D01*
X207429780Y-91274161D01*
X207286923Y-91893209D02*
X207382161Y-91845590D01*
X207429780Y-91750352D01*
X207429780Y-91559876D01*
X207382161Y-91464638D01*
X207286923Y-91417019D01*
X206763114Y-91417019D01*
X206905971Y-90512257D02*
X206905971Y-90845590D01*
X207429780Y-90845590D02*
X206429780Y-90845590D01*
X206429780Y-90369400D01*
X228444333Y-102328924D02*
X228444333Y-101328924D01*
X228825285Y-101328924D01*
X228920523Y-101376544D01*
X228968142Y-101424163D01*
X229015761Y-101519401D01*
X229015761Y-101662258D01*
X228968142Y-101757496D01*
X228920523Y-101805115D01*
X228825285Y-101852734D01*
X228444333Y-101852734D01*
X229396714Y-102043210D02*
X229872904Y-102043210D01*
X229301476Y-102328924D02*
X229634809Y-101328924D01*
X229968142Y-102328924D01*
X230730047Y-101662258D02*
X230730047Y-102328924D01*
X230491952Y-101281305D02*
X230253857Y-101995591D01*
X230872904Y-101995591D01*
X131466019Y-148357104D02*
X132466019Y-148357104D01*
X132466019Y-148738057D01*
X132418400Y-148833295D01*
X132370780Y-148880914D01*
X132275542Y-148928533D01*
X132132685Y-148928533D01*
X132037447Y-148880914D01*
X131989828Y-148833295D01*
X131942209Y-148738057D01*
X131942209Y-148357104D01*
X131989828Y-149690438D02*
X131942209Y-149833295D01*
X131894590Y-149880914D01*
X131799352Y-149928533D01*
X131656495Y-149928533D01*
X131561257Y-149880914D01*
X131513638Y-149833295D01*
X131466019Y-149738057D01*
X131466019Y-149357104D01*
X132466019Y-149357104D01*
X132466019Y-149690438D01*
X132418400Y-149785676D01*
X132370780Y-149833295D01*
X132275542Y-149880914D01*
X132180304Y-149880914D01*
X132085066Y-149833295D01*
X132037447Y-149785676D01*
X131989828Y-149690438D01*
X131989828Y-149357104D01*
X132466019Y-150547580D02*
X132466019Y-150642819D01*
X132418400Y-150738057D01*
X132370780Y-150785676D01*
X132275542Y-150833295D01*
X132085066Y-150880914D01*
X131846971Y-150880914D01*
X131656495Y-150833295D01*
X131561257Y-150785676D01*
X131513638Y-150738057D01*
X131466019Y-150642819D01*
X131466019Y-150547580D01*
X131513638Y-150452342D01*
X131561257Y-150404723D01*
X131656495Y-150357104D01*
X131846971Y-150309485D01*
X132085066Y-150309485D01*
X132275542Y-150357104D01*
X132370780Y-150404723D01*
X132418400Y-150452342D01*
X132466019Y-150547580D01*
X219435095Y-84054980D02*
X219101761Y-83578790D01*
X218863666Y-84054980D02*
X218863666Y-83054980D01*
X219244619Y-83054980D01*
X219339857Y-83102600D01*
X219387476Y-83150219D01*
X219435095Y-83245457D01*
X219435095Y-83388314D01*
X219387476Y-83483552D01*
X219339857Y-83531171D01*
X219244619Y-83578790D01*
X218863666Y-83578790D01*
X219768428Y-83054980D02*
X220006523Y-84054980D01*
X220197000Y-83340695D01*
X220387476Y-84054980D01*
X220625571Y-83054980D01*
X158632314Y-117134980D02*
X158060885Y-117134980D01*
X158346600Y-117134980D02*
X158346600Y-116134980D01*
X158251361Y-116277838D01*
X158156123Y-116373076D01*
X158060885Y-116420695D01*
X159060885Y-117134980D02*
X159060885Y-116134980D01*
X159632314Y-117134980D02*
X159203742Y-116563552D01*
X159632314Y-116134980D02*
X159060885Y-116706409D01*
X228798295Y-136713400D02*
X228703057Y-136665780D01*
X228560200Y-136665780D01*
X228417342Y-136713400D01*
X228322104Y-136808638D01*
X228274485Y-136903876D01*
X228226866Y-137094352D01*
X228226866Y-137237209D01*
X228274485Y-137427685D01*
X228322104Y-137522923D01*
X228417342Y-137618161D01*
X228560200Y-137665780D01*
X228655438Y-137665780D01*
X228798295Y-137618161D01*
X228845914Y-137570542D01*
X228845914Y-137237209D01*
X228655438Y-137237209D01*
X229274485Y-137665780D02*
X229274485Y-136665780D01*
X229845914Y-137665780D01*
X229845914Y-136665780D01*
X230322104Y-137665780D02*
X230322104Y-136665780D01*
X230560200Y-136665780D01*
X230703057Y-136713400D01*
X230798295Y-136808638D01*
X230845914Y-136903876D01*
X230893533Y-137094352D01*
X230893533Y-137237209D01*
X230845914Y-137427685D01*
X230798295Y-137522923D01*
X230703057Y-137618161D01*
X230560200Y-137665780D01*
X230322104Y-137665780D01*
X84964790Y-77923742D02*
X84917171Y-77971361D01*
X84774314Y-78018980D01*
X84679076Y-78018980D01*
X84536219Y-77971361D01*
X84440980Y-77876123D01*
X84393361Y-77780885D01*
X84345742Y-77590409D01*
X84345742Y-77447552D01*
X84393361Y-77257076D01*
X84440980Y-77161838D01*
X84536219Y-77066600D01*
X84679076Y-77018980D01*
X84774314Y-77018980D01*
X84917171Y-77066600D01*
X84964790Y-77114219D01*
X85393361Y-78018980D02*
X85393361Y-77018980D01*
X85774314Y-77018980D01*
X85869552Y-77066600D01*
X85917171Y-77114219D01*
X85964790Y-77209457D01*
X85964790Y-77352314D01*
X85917171Y-77447552D01*
X85869552Y-77495171D01*
X85774314Y-77542790D01*
X85393361Y-77542790D01*
X86393361Y-77018980D02*
X86393361Y-77828504D01*
X86440980Y-77923742D01*
X86488600Y-77971361D01*
X86583838Y-78018980D01*
X86774314Y-78018980D01*
X86869552Y-77971361D01*
X86917171Y-77923742D01*
X86964790Y-77828504D01*
X86964790Y-77018980D01*
X88774314Y-77923742D02*
X88726695Y-77971361D01*
X88583838Y-78018980D01*
X88488600Y-78018980D01*
X88345742Y-77971361D01*
X88250504Y-77876123D01*
X88202885Y-77780885D01*
X88155266Y-77590409D01*
X88155266Y-77447552D01*
X88202885Y-77257076D01*
X88250504Y-77161838D01*
X88345742Y-77066600D01*
X88488600Y-77018980D01*
X88583838Y-77018980D01*
X88726695Y-77066600D01*
X88774314Y-77114219D01*
X89679076Y-78018980D02*
X89202885Y-78018980D01*
X89202885Y-77018980D01*
X90202885Y-77018980D02*
X90393361Y-77018980D01*
X90488600Y-77066600D01*
X90583838Y-77161838D01*
X90631457Y-77352314D01*
X90631457Y-77685647D01*
X90583838Y-77876123D01*
X90488600Y-77971361D01*
X90393361Y-78018980D01*
X90202885Y-78018980D01*
X90107647Y-77971361D01*
X90012409Y-77876123D01*
X89964790Y-77685647D01*
X89964790Y-77352314D01*
X90012409Y-77161838D01*
X90107647Y-77066600D01*
X90202885Y-77018980D01*
X91631457Y-77923742D02*
X91583838Y-77971361D01*
X91440980Y-78018980D01*
X91345742Y-78018980D01*
X91202885Y-77971361D01*
X91107647Y-77876123D01*
X91060028Y-77780885D01*
X91012409Y-77590409D01*
X91012409Y-77447552D01*
X91060028Y-77257076D01*
X91107647Y-77161838D01*
X91202885Y-77066600D01*
X91345742Y-77018980D01*
X91440980Y-77018980D01*
X91583838Y-77066600D01*
X91631457Y-77114219D01*
X92060028Y-78018980D02*
X92060028Y-77018980D01*
X92631457Y-78018980D02*
X92202885Y-77447552D01*
X92631457Y-77018980D02*
X92060028Y-77590409D01*
X218482714Y-40269266D02*
X218958904Y-40269266D01*
X218387476Y-40554980D02*
X218720809Y-39554980D01*
X219054142Y-40554980D01*
X219911285Y-40554980D02*
X219339857Y-40554980D01*
X219625571Y-40554980D02*
X219625571Y-39554980D01*
X219530333Y-39697838D01*
X219435095Y-39793076D01*
X219339857Y-39840695D01*
X181271400Y-42497666D02*
X181747590Y-42497666D01*
X181176161Y-42783380D02*
X181509495Y-41783380D01*
X181842828Y-42783380D01*
X182033304Y-41783380D02*
X182604733Y-41783380D01*
X182319019Y-42783380D02*
X182319019Y-41783380D01*
X182890447Y-41878619D02*
X182938066Y-41831000D01*
X183033304Y-41783380D01*
X183271400Y-41783380D01*
X183366638Y-41831000D01*
X183414257Y-41878619D01*
X183461876Y-41973857D01*
X183461876Y-42069095D01*
X183414257Y-42211952D01*
X182842828Y-42783380D01*
X183461876Y-42783380D01*
X184033304Y-42211952D02*
X183938066Y-42164333D01*
X183890447Y-42116714D01*
X183842828Y-42021476D01*
X183842828Y-41973857D01*
X183890447Y-41878619D01*
X183938066Y-41831000D01*
X184033304Y-41783380D01*
X184223780Y-41783380D01*
X184319019Y-41831000D01*
X184366638Y-41878619D01*
X184414257Y-41973857D01*
X184414257Y-42021476D01*
X184366638Y-42116714D01*
X184319019Y-42164333D01*
X184223780Y-42211952D01*
X184033304Y-42211952D01*
X183938066Y-42259571D01*
X183890447Y-42307190D01*
X183842828Y-42402428D01*
X183842828Y-42592904D01*
X183890447Y-42688142D01*
X183938066Y-42735761D01*
X184033304Y-42783380D01*
X184223780Y-42783380D01*
X184319019Y-42735761D01*
X184366638Y-42688142D01*
X184414257Y-42592904D01*
X184414257Y-42402428D01*
X184366638Y-42307190D01*
X184319019Y-42259571D01*
X184223780Y-42211952D01*
X185414257Y-42688142D02*
X185366638Y-42735761D01*
X185223780Y-42783380D01*
X185128542Y-42783380D01*
X184985685Y-42735761D01*
X184890447Y-42640523D01*
X184842828Y-42545285D01*
X184795209Y-42354809D01*
X184795209Y-42211952D01*
X184842828Y-42021476D01*
X184890447Y-41926238D01*
X184985685Y-41831000D01*
X185128542Y-41783380D01*
X185223780Y-41783380D01*
X185366638Y-41831000D01*
X185414257Y-41878619D01*
X185795209Y-41878619D02*
X185842828Y-41831000D01*
X185938066Y-41783380D01*
X186176161Y-41783380D01*
X186271400Y-41831000D01*
X186319019Y-41878619D01*
X186366638Y-41973857D01*
X186366638Y-42069095D01*
X186319019Y-42211952D01*
X185747590Y-42783380D01*
X186366638Y-42783380D01*
X187271400Y-41783380D02*
X186795209Y-41783380D01*
X186747590Y-42259571D01*
X186795209Y-42211952D01*
X186890447Y-42164333D01*
X187128542Y-42164333D01*
X187223780Y-42211952D01*
X187271400Y-42259571D01*
X187319019Y-42354809D01*
X187319019Y-42592904D01*
X187271400Y-42688142D01*
X187223780Y-42735761D01*
X187128542Y-42783380D01*
X186890447Y-42783380D01*
X186795209Y-42735761D01*
X186747590Y-42688142D01*
X188176161Y-41783380D02*
X187985685Y-41783380D01*
X187890447Y-41831000D01*
X187842828Y-41878619D01*
X187747590Y-42021476D01*
X187699971Y-42211952D01*
X187699971Y-42592904D01*
X187747590Y-42688142D01*
X187795209Y-42735761D01*
X187890447Y-42783380D01*
X188080923Y-42783380D01*
X188176161Y-42735761D01*
X188223780Y-42688142D01*
X188271400Y-42592904D01*
X188271400Y-42354809D01*
X188223780Y-42259571D01*
X188176161Y-42211952D01*
X188080923Y-42164333D01*
X187890447Y-42164333D01*
X187795209Y-42211952D01*
X187747590Y-42259571D01*
X187699971Y-42354809D01*
X228444333Y-110083882D02*
X228444333Y-109083882D01*
X228825285Y-109083882D01*
X228920523Y-109131502D01*
X228968142Y-109179121D01*
X229015761Y-109274359D01*
X229015761Y-109417216D01*
X228968142Y-109512454D01*
X228920523Y-109560073D01*
X228825285Y-109607692D01*
X228444333Y-109607692D01*
X229396714Y-109798168D02*
X229872904Y-109798168D01*
X229301476Y-110083882D02*
X229634809Y-109083882D01*
X229968142Y-110083882D01*
X230206238Y-109083882D02*
X230872904Y-109083882D01*
X230444333Y-110083882D01*
X228444332Y-117838840D02*
X228444332Y-116838840D01*
X228825285Y-116838840D01*
X228920523Y-116886460D01*
X228968142Y-116934079D01*
X229015761Y-117029317D01*
X229015761Y-117172174D01*
X228968142Y-117267412D01*
X228920523Y-117315031D01*
X228825285Y-117362650D01*
X228444332Y-117362650D01*
X229777666Y-117315031D02*
X229920523Y-117362650D01*
X229968142Y-117410269D01*
X230015761Y-117505507D01*
X230015761Y-117648364D01*
X229968142Y-117743602D01*
X229920523Y-117791221D01*
X229825285Y-117838840D01*
X229444332Y-117838840D01*
X229444332Y-116838840D01*
X229777666Y-116838840D01*
X229872904Y-116886460D01*
X229920523Y-116934079D01*
X229968142Y-117029317D01*
X229968142Y-117124555D01*
X229920523Y-117219793D01*
X229872904Y-117267412D01*
X229777666Y-117315031D01*
X229444332Y-117315031D01*
X230396713Y-116934079D02*
X230444332Y-116886460D01*
X230539570Y-116838840D01*
X230777666Y-116838840D01*
X230872904Y-116886460D01*
X230920523Y-116934079D01*
X230968142Y-117029317D01*
X230968142Y-117124555D01*
X230920523Y-117267412D01*
X230349094Y-117838840D01*
X230968142Y-117838840D01*
X128966019Y-148428533D02*
X129966019Y-148428533D01*
X129966019Y-148809485D01*
X129918400Y-148904723D01*
X129870780Y-148952342D01*
X129775542Y-148999961D01*
X129632685Y-148999961D01*
X129537447Y-148952342D01*
X129489828Y-148904723D01*
X129442209Y-148809485D01*
X129442209Y-148428533D01*
X129251733Y-149380914D02*
X129251733Y-149857104D01*
X128966019Y-149285676D02*
X129966019Y-149619009D01*
X128966019Y-149952342D01*
X129966019Y-150190438D02*
X129966019Y-150857104D01*
X128966019Y-150428533D01*
X116918400Y-148833295D02*
X116966019Y-148738057D01*
X116966019Y-148595200D01*
X116918400Y-148452342D01*
X116823161Y-148357104D01*
X116727923Y-148309485D01*
X116537447Y-148261866D01*
X116394590Y-148261866D01*
X116204114Y-148309485D01*
X116108876Y-148357104D01*
X116013638Y-148452342D01*
X115966019Y-148595200D01*
X115966019Y-148690438D01*
X116013638Y-148833295D01*
X116061257Y-148880914D01*
X116394590Y-148880914D01*
X116394590Y-148690438D01*
X115966019Y-149309485D02*
X116966019Y-149309485D01*
X115966019Y-149880914D01*
X116966019Y-149880914D01*
X115966019Y-150357104D02*
X116966019Y-150357104D01*
X116966019Y-150595200D01*
X116918400Y-150738057D01*
X116823161Y-150833295D01*
X116727923Y-150880914D01*
X116537447Y-150928533D01*
X116394590Y-150928533D01*
X116204114Y-150880914D01*
X116108876Y-150833295D01*
X116013638Y-150738057D01*
X115966019Y-150595200D01*
X115966019Y-150357104D01*
X83942780Y-116130066D02*
X83942780Y-116701495D01*
X83942780Y-116415780D02*
X82942780Y-116415780D01*
X83085638Y-116511019D01*
X83180876Y-116606257D01*
X83228495Y-116701495D01*
X83276114Y-115701495D02*
X84276114Y-115701495D01*
X83799923Y-115225304D02*
X83895161Y-115177685D01*
X83942780Y-115082447D01*
X83799923Y-115701495D02*
X83895161Y-115653876D01*
X83942780Y-115558638D01*
X83942780Y-115368161D01*
X83895161Y-115272923D01*
X83799923Y-115225304D01*
X83276114Y-115225304D01*
X83418971Y-114320542D02*
X83418971Y-114653876D01*
X83942780Y-114653876D02*
X82942780Y-114653876D01*
X82942780Y-114177685D01*
X218006523Y-73269266D02*
X218482714Y-73269266D01*
X217911285Y-73554980D02*
X218244619Y-72554980D01*
X218577952Y-73554980D01*
X219435095Y-73554980D02*
X218863666Y-73554980D01*
X219149380Y-73554980D02*
X219149380Y-72554980D01*
X219054142Y-72697838D01*
X218958904Y-72793076D01*
X218863666Y-72840695D01*
X220292238Y-72888314D02*
X220292238Y-73554980D01*
X220054142Y-72507361D02*
X219816047Y-73221647D01*
X220435095Y-73221647D01*
X85371190Y-50629771D02*
X85514047Y-50677390D01*
X85561666Y-50725009D01*
X85609285Y-50820247D01*
X85609285Y-50963104D01*
X85561666Y-51058342D01*
X85514047Y-51105961D01*
X85418809Y-51153580D01*
X85037857Y-51153580D01*
X85037857Y-50153580D01*
X85371190Y-50153580D01*
X85466428Y-50201200D01*
X85514047Y-50248819D01*
X85561666Y-50344057D01*
X85561666Y-50439295D01*
X85514047Y-50534533D01*
X85466428Y-50582152D01*
X85371190Y-50629771D01*
X85037857Y-50629771D01*
X85990238Y-50867866D02*
X86466428Y-50867866D01*
X85895000Y-51153580D02*
X86228333Y-50153580D01*
X86561666Y-51153580D01*
X86895000Y-50153580D02*
X86895000Y-50963104D01*
X86942619Y-51058342D01*
X86990238Y-51105961D01*
X87085476Y-51153580D01*
X87275952Y-51153580D01*
X87371190Y-51105961D01*
X87418809Y-51058342D01*
X87466428Y-50963104D01*
X87466428Y-50153580D01*
X87942619Y-51153580D02*
X87942619Y-50153580D01*
X88180714Y-50153580D01*
X88323571Y-50201200D01*
X88418809Y-50296438D01*
X88466428Y-50391676D01*
X88514047Y-50582152D01*
X88514047Y-50725009D01*
X88466428Y-50915485D01*
X88418809Y-51010723D01*
X88323571Y-51105961D01*
X88180714Y-51153580D01*
X87942619Y-51153580D01*
X90275952Y-51153580D02*
X89942619Y-50677390D01*
X89704523Y-51153580D02*
X89704523Y-50153580D01*
X90085476Y-50153580D01*
X90180714Y-50201200D01*
X90228333Y-50248819D01*
X90275952Y-50344057D01*
X90275952Y-50486914D01*
X90228333Y-50582152D01*
X90180714Y-50629771D01*
X90085476Y-50677390D01*
X89704523Y-50677390D01*
X90656904Y-50867866D02*
X91133095Y-50867866D01*
X90561666Y-51153580D02*
X90895000Y-50153580D01*
X91228333Y-51153580D01*
X91418809Y-50153580D02*
X91990238Y-50153580D01*
X91704523Y-51153580D02*
X91704523Y-50153580D01*
X92323571Y-50629771D02*
X92656904Y-50629771D01*
X92799761Y-51153580D02*
X92323571Y-51153580D01*
X92323571Y-50153580D01*
X92799761Y-50153580D01*
X87275952Y-52668342D02*
X87228333Y-52715961D01*
X87085476Y-52763580D01*
X86990238Y-52763580D01*
X86847380Y-52715961D01*
X86752142Y-52620723D01*
X86704523Y-52525485D01*
X86656904Y-52335009D01*
X86656904Y-52192152D01*
X86704523Y-52001676D01*
X86752142Y-51906438D01*
X86847380Y-51811200D01*
X86990238Y-51763580D01*
X87085476Y-51763580D01*
X87228333Y-51811200D01*
X87275952Y-51858819D01*
X88180714Y-52763580D02*
X87704523Y-52763580D01*
X87704523Y-51763580D01*
X88704523Y-51763580D02*
X88895000Y-51763580D01*
X88990238Y-51811200D01*
X89085476Y-51906438D01*
X89133095Y-52096914D01*
X89133095Y-52430247D01*
X89085476Y-52620723D01*
X88990238Y-52715961D01*
X88895000Y-52763580D01*
X88704523Y-52763580D01*
X88609285Y-52715961D01*
X88514047Y-52620723D01*
X88466428Y-52430247D01*
X88466428Y-52096914D01*
X88514047Y-51906438D01*
X88609285Y-51811200D01*
X88704523Y-51763580D01*
X90133095Y-52668342D02*
X90085476Y-52715961D01*
X89942619Y-52763580D01*
X89847380Y-52763580D01*
X89704523Y-52715961D01*
X89609285Y-52620723D01*
X89561666Y-52525485D01*
X89514047Y-52335009D01*
X89514047Y-52192152D01*
X89561666Y-52001676D01*
X89609285Y-51906438D01*
X89704523Y-51811200D01*
X89847380Y-51763580D01*
X89942619Y-51763580D01*
X90085476Y-51811200D01*
X90133095Y-51858819D01*
X90561666Y-52763580D02*
X90561666Y-51763580D01*
X91133095Y-52763580D02*
X90704523Y-52192152D01*
X91133095Y-51763580D02*
X90561666Y-52335009D01*
X141466019Y-148357104D02*
X142466019Y-148357104D01*
X142466019Y-148738057D01*
X142418400Y-148833295D01*
X142370780Y-148880914D01*
X142275542Y-148928533D01*
X142132685Y-148928533D01*
X142037447Y-148880914D01*
X141989828Y-148833295D01*
X141942209Y-148738057D01*
X141942209Y-148357104D01*
X141989828Y-149690438D02*
X141942209Y-149833295D01*
X141894590Y-149880914D01*
X141799352Y-149928533D01*
X141656495Y-149928533D01*
X141561257Y-149880914D01*
X141513638Y-149833295D01*
X141466019Y-149738057D01*
X141466019Y-149357104D01*
X142466019Y-149357104D01*
X142466019Y-149690438D01*
X142418400Y-149785676D01*
X142370780Y-149833295D01*
X142275542Y-149880914D01*
X142180304Y-149880914D01*
X142085066Y-149833295D01*
X142037447Y-149785676D01*
X141989828Y-149690438D01*
X141989828Y-149357104D01*
X142132685Y-150785676D02*
X141466019Y-150785676D01*
X142513638Y-150547580D02*
X141799352Y-150309485D01*
X141799352Y-150928533D01*
X234536828Y-85516404D02*
X234536828Y-84754500D01*
X234822542Y-83706880D02*
X234870161Y-83754500D01*
X234917780Y-83897357D01*
X234917780Y-83992595D01*
X234870161Y-84135452D01*
X234774923Y-84230690D01*
X234679685Y-84278309D01*
X234489209Y-84325928D01*
X234346352Y-84325928D01*
X234155876Y-84278309D01*
X234060638Y-84230690D01*
X233965400Y-84135452D01*
X233917780Y-83992595D01*
X233917780Y-83897357D01*
X233965400Y-83754500D01*
X234013019Y-83706880D01*
X234917780Y-83135452D02*
X234870161Y-83230690D01*
X234822542Y-83278309D01*
X234727304Y-83325928D01*
X234441590Y-83325928D01*
X234346352Y-83278309D01*
X234298733Y-83230690D01*
X234251114Y-83135452D01*
X234251114Y-82992595D01*
X234298733Y-82897357D01*
X234346352Y-82849738D01*
X234441590Y-82802119D01*
X234727304Y-82802119D01*
X234822542Y-82849738D01*
X234870161Y-82897357D01*
X234917780Y-82992595D01*
X234917780Y-83135452D01*
X234251114Y-82373547D02*
X234917780Y-82373547D01*
X234346352Y-82373547D02*
X234298733Y-82325928D01*
X234251114Y-82230690D01*
X234251114Y-82087833D01*
X234298733Y-81992595D01*
X234393971Y-81944976D01*
X234917780Y-81944976D01*
X234251114Y-81468785D02*
X234917780Y-81468785D01*
X234346352Y-81468785D02*
X234298733Y-81421166D01*
X234251114Y-81325928D01*
X234251114Y-81183071D01*
X234298733Y-81087833D01*
X234393971Y-81040214D01*
X234917780Y-81040214D01*
X234870161Y-80183071D02*
X234917780Y-80278309D01*
X234917780Y-80468785D01*
X234870161Y-80564023D01*
X234774923Y-80611642D01*
X234393971Y-80611642D01*
X234298733Y-80564023D01*
X234251114Y-80468785D01*
X234251114Y-80278309D01*
X234298733Y-80183071D01*
X234393971Y-80135452D01*
X234489209Y-80135452D01*
X234584447Y-80611642D01*
X234870161Y-79278309D02*
X234917780Y-79373547D01*
X234917780Y-79564023D01*
X234870161Y-79659261D01*
X234822542Y-79706880D01*
X234727304Y-79754500D01*
X234441590Y-79754500D01*
X234346352Y-79706880D01*
X234298733Y-79659261D01*
X234251114Y-79564023D01*
X234251114Y-79373547D01*
X234298733Y-79278309D01*
X234251114Y-78992595D02*
X234251114Y-78611642D01*
X233917780Y-78849738D02*
X234774923Y-78849738D01*
X234870161Y-78802119D01*
X234917780Y-78706880D01*
X234917780Y-78611642D01*
X234917780Y-76944976D02*
X234441590Y-77278309D01*
X234917780Y-77516404D02*
X233917780Y-77516404D01*
X233917780Y-77135452D01*
X233965400Y-77040214D01*
X234013019Y-76992595D01*
X234108257Y-76944976D01*
X234251114Y-76944976D01*
X234346352Y-76992595D01*
X234393971Y-77040214D01*
X234441590Y-77135452D01*
X234441590Y-77516404D01*
X234917780Y-76516404D02*
X233917780Y-76516404D01*
X233917780Y-76278309D01*
X233965400Y-76135452D01*
X234060638Y-76040214D01*
X234155876Y-75992595D01*
X234346352Y-75944976D01*
X234489209Y-75944976D01*
X234679685Y-75992595D01*
X234774923Y-76040214D01*
X234870161Y-76135452D01*
X234917780Y-76278309D01*
X234917780Y-76516404D01*
X234441590Y-75325928D02*
X234917780Y-75325928D01*
X233917780Y-75659261D02*
X234441590Y-75325928D01*
X233917780Y-74992595D01*
X234251114Y-74040214D02*
X234251114Y-73659261D01*
X233917780Y-73897357D02*
X234774923Y-73897357D01*
X234870161Y-73849738D01*
X234917780Y-73754500D01*
X234917780Y-73659261D01*
X234917780Y-73183071D02*
X234870161Y-73278309D01*
X234822542Y-73325928D01*
X234727304Y-73373547D01*
X234441590Y-73373547D01*
X234346352Y-73325928D01*
X234298733Y-73278309D01*
X234251114Y-73183071D01*
X234251114Y-73040214D01*
X234298733Y-72944976D01*
X234346352Y-72897357D01*
X234441590Y-72849738D01*
X234727304Y-72849738D01*
X234822542Y-72897357D01*
X234870161Y-72944976D01*
X234917780Y-73040214D01*
X234917780Y-73183071D01*
X233917780Y-71802119D02*
X234917780Y-71468785D01*
X233917780Y-71135452D01*
X234822542Y-70230690D02*
X234870161Y-70278309D01*
X234917780Y-70421166D01*
X234917780Y-70516404D01*
X234870161Y-70659261D01*
X234774923Y-70754500D01*
X234679685Y-70802119D01*
X234489209Y-70849738D01*
X234346352Y-70849738D01*
X234155876Y-70802119D01*
X234060638Y-70754500D01*
X233965400Y-70659261D01*
X233917780Y-70516404D01*
X233917780Y-70421166D01*
X233965400Y-70278309D01*
X234013019Y-70230690D01*
X234822542Y-69230690D02*
X234870161Y-69278309D01*
X234917780Y-69421166D01*
X234917780Y-69516404D01*
X234870161Y-69659261D01*
X234774923Y-69754500D01*
X234679685Y-69802119D01*
X234489209Y-69849738D01*
X234346352Y-69849738D01*
X234155876Y-69802119D01*
X234060638Y-69754500D01*
X233965400Y-69659261D01*
X233917780Y-69516404D01*
X233917780Y-69421166D01*
X233965400Y-69278309D01*
X234013019Y-69230690D01*
X235527780Y-85611642D02*
X236527780Y-85373547D01*
X235813495Y-85183071D01*
X236527780Y-84992595D01*
X235527780Y-84754500D01*
X235480161Y-83659261D02*
X236765876Y-84516404D01*
X235527780Y-83135452D02*
X235527780Y-82944976D01*
X235575400Y-82849738D01*
X235670638Y-82754500D01*
X235861114Y-82706880D01*
X236194447Y-82706880D01*
X236384923Y-82754500D01*
X236480161Y-82849738D01*
X236527780Y-82944976D01*
X236527780Y-83135452D01*
X236480161Y-83230690D01*
X236384923Y-83325928D01*
X236194447Y-83373547D01*
X235861114Y-83373547D01*
X235670638Y-83325928D01*
X235575400Y-83230690D01*
X235527780Y-83135452D01*
X235575400Y-80992595D02*
X235527780Y-81087833D01*
X235527780Y-81230690D01*
X235575400Y-81373547D01*
X235670638Y-81468785D01*
X235765876Y-81516404D01*
X235956352Y-81564023D01*
X236099209Y-81564023D01*
X236289685Y-81516404D01*
X236384923Y-81468785D01*
X236480161Y-81373547D01*
X236527780Y-81230690D01*
X236527780Y-81135452D01*
X236480161Y-80992595D01*
X236432542Y-80944976D01*
X236099209Y-80944976D01*
X236099209Y-81135452D01*
X236527780Y-80516404D02*
X235861114Y-80516404D01*
X236051590Y-80516404D02*
X235956352Y-80468785D01*
X235908733Y-80421166D01*
X235861114Y-80325928D01*
X235861114Y-80230690D01*
X236527780Y-79468785D02*
X236003971Y-79468785D01*
X235908733Y-79516404D01*
X235861114Y-79611642D01*
X235861114Y-79802119D01*
X235908733Y-79897357D01*
X236480161Y-79468785D02*
X236527780Y-79564023D01*
X236527780Y-79802119D01*
X236480161Y-79897357D01*
X236384923Y-79944976D01*
X236289685Y-79944976D01*
X236194447Y-79897357D01*
X236146828Y-79802119D01*
X236146828Y-79564023D01*
X236099209Y-79468785D01*
X235861114Y-78992595D02*
X236861114Y-78992595D01*
X235908733Y-78992595D02*
X235861114Y-78897357D01*
X235861114Y-78706880D01*
X235908733Y-78611642D01*
X235956352Y-78564023D01*
X236051590Y-78516404D01*
X236337304Y-78516404D01*
X236432542Y-78564023D01*
X236480161Y-78611642D01*
X236527780Y-78706880D01*
X236527780Y-78897357D01*
X236480161Y-78992595D01*
X236527780Y-78087833D02*
X235527780Y-78087833D01*
X236527780Y-77659261D02*
X236003971Y-77659261D01*
X235908733Y-77706880D01*
X235861114Y-77802119D01*
X235861114Y-77944976D01*
X235908733Y-78040214D01*
X235956352Y-78087833D01*
X236527780Y-77183071D02*
X235861114Y-77183071D01*
X235527780Y-77183071D02*
X235575400Y-77230690D01*
X235623019Y-77183071D01*
X235575400Y-77135452D01*
X235527780Y-77183071D01*
X235623019Y-77183071D01*
X236480161Y-76278309D02*
X236527780Y-76373547D01*
X236527780Y-76564023D01*
X236480161Y-76659261D01*
X236432542Y-76706880D01*
X236337304Y-76754500D01*
X236051590Y-76754500D01*
X235956352Y-76706880D01*
X235908733Y-76659261D01*
X235861114Y-76564023D01*
X235861114Y-76373547D01*
X235908733Y-76278309D01*
X236480161Y-75897357D02*
X236527780Y-75802119D01*
X236527780Y-75611642D01*
X236480161Y-75516404D01*
X236384923Y-75468785D01*
X236337304Y-75468785D01*
X236242066Y-75516404D01*
X236194447Y-75611642D01*
X236194447Y-75754500D01*
X236146828Y-75849738D01*
X236051590Y-75897357D01*
X236003971Y-75897357D01*
X235908733Y-75849738D01*
X235861114Y-75754500D01*
X235861114Y-75611642D01*
X235908733Y-75516404D01*
X236432542Y-73706880D02*
X236480161Y-73754500D01*
X236527780Y-73897357D01*
X236527780Y-73992595D01*
X236480161Y-74135452D01*
X236384923Y-74230690D01*
X236289685Y-74278309D01*
X236099209Y-74325928D01*
X235956352Y-74325928D01*
X235765876Y-74278309D01*
X235670638Y-74230690D01*
X235575400Y-74135452D01*
X235527780Y-73992595D01*
X235527780Y-73897357D01*
X235575400Y-73754500D01*
X235623019Y-73706880D01*
X236527780Y-72849738D02*
X236003971Y-72849738D01*
X235908733Y-72897357D01*
X235861114Y-72992595D01*
X235861114Y-73183071D01*
X235908733Y-73278309D01*
X236480161Y-72849738D02*
X236527780Y-72944976D01*
X236527780Y-73183071D01*
X236480161Y-73278309D01*
X236384923Y-73325928D01*
X236289685Y-73325928D01*
X236194447Y-73278309D01*
X236146828Y-73183071D01*
X236146828Y-72944976D01*
X236099209Y-72849738D01*
X236527780Y-72373547D02*
X235861114Y-72373547D01*
X236051590Y-72373547D02*
X235956352Y-72325928D01*
X235908733Y-72278309D01*
X235861114Y-72183071D01*
X235861114Y-72087833D01*
X236527780Y-71325928D02*
X235527780Y-71325928D01*
X236480161Y-71325928D02*
X236527780Y-71421166D01*
X236527780Y-71611642D01*
X236480161Y-71706880D01*
X236432542Y-71754500D01*
X236337304Y-71802119D01*
X236051590Y-71802119D01*
X235956352Y-71754500D01*
X235908733Y-71706880D01*
X235861114Y-71611642D01*
X235861114Y-71421166D01*
X235908733Y-71325928D01*
X237756828Y-85516404D02*
X237756828Y-84754500D01*
X238042542Y-83706880D02*
X238090161Y-83754500D01*
X238137780Y-83897357D01*
X238137780Y-83992595D01*
X238090161Y-84135452D01*
X237994923Y-84230690D01*
X237899685Y-84278309D01*
X237709209Y-84325928D01*
X237566352Y-84325928D01*
X237375876Y-84278309D01*
X237280638Y-84230690D01*
X237185400Y-84135452D01*
X237137780Y-83992595D01*
X237137780Y-83897357D01*
X237185400Y-83754500D01*
X237233019Y-83706880D01*
X238137780Y-83135452D02*
X238090161Y-83230690D01*
X238042542Y-83278309D01*
X237947304Y-83325928D01*
X237661590Y-83325928D01*
X237566352Y-83278309D01*
X237518733Y-83230690D01*
X237471114Y-83135452D01*
X237471114Y-82992595D01*
X237518733Y-82897357D01*
X237566352Y-82849738D01*
X237661590Y-82802119D01*
X237947304Y-82802119D01*
X238042542Y-82849738D01*
X238090161Y-82897357D01*
X238137780Y-82992595D01*
X238137780Y-83135452D01*
X237471114Y-82373547D02*
X238137780Y-82373547D01*
X237566352Y-82373547D02*
X237518733Y-82325928D01*
X237471114Y-82230690D01*
X237471114Y-82087833D01*
X237518733Y-81992595D01*
X237613971Y-81944976D01*
X238137780Y-81944976D01*
X237471114Y-81468785D02*
X238137780Y-81468785D01*
X237566352Y-81468785D02*
X237518733Y-81421166D01*
X237471114Y-81325928D01*
X237471114Y-81183071D01*
X237518733Y-81087833D01*
X237613971Y-81040214D01*
X238137780Y-81040214D01*
X238090161Y-80183071D02*
X238137780Y-80278309D01*
X238137780Y-80468785D01*
X238090161Y-80564023D01*
X237994923Y-80611642D01*
X237613971Y-80611642D01*
X237518733Y-80564023D01*
X237471114Y-80468785D01*
X237471114Y-80278309D01*
X237518733Y-80183071D01*
X237613971Y-80135452D01*
X237709209Y-80135452D01*
X237804447Y-80611642D01*
X238090161Y-79278309D02*
X238137780Y-79373547D01*
X238137780Y-79564023D01*
X238090161Y-79659261D01*
X238042542Y-79706880D01*
X237947304Y-79754500D01*
X237661590Y-79754500D01*
X237566352Y-79706880D01*
X237518733Y-79659261D01*
X237471114Y-79564023D01*
X237471114Y-79373547D01*
X237518733Y-79278309D01*
X237471114Y-78992595D02*
X237471114Y-78611642D01*
X237137780Y-78849738D02*
X237994923Y-78849738D01*
X238090161Y-78802119D01*
X238137780Y-78706880D01*
X238137780Y-78611642D01*
X238137780Y-77516404D02*
X237137780Y-77516404D01*
X237137780Y-77135452D01*
X237185400Y-77040214D01*
X237233019Y-76992595D01*
X237328257Y-76944976D01*
X237471114Y-76944976D01*
X237566352Y-76992595D01*
X237613971Y-77040214D01*
X237661590Y-77135452D01*
X237661590Y-77516404D01*
X238137780Y-76516404D02*
X237137780Y-76516404D01*
X237613971Y-76516404D02*
X237613971Y-75944976D01*
X238137780Y-75944976D02*
X237137780Y-75944976D01*
X238137780Y-75468785D02*
X237137780Y-75468785D01*
X238137780Y-74468785D02*
X238137780Y-75040214D01*
X238137780Y-74754500D02*
X237137780Y-74754500D01*
X237280638Y-74849738D01*
X237375876Y-74944976D01*
X237423495Y-75040214D01*
X237471114Y-73421166D02*
X237471114Y-73040214D01*
X237137780Y-73278309D02*
X237994923Y-73278309D01*
X238090161Y-73230690D01*
X238137780Y-73135452D01*
X238137780Y-73040214D01*
X238137780Y-72564023D02*
X238090161Y-72659261D01*
X238042542Y-72706880D01*
X237947304Y-72754500D01*
X237661590Y-72754500D01*
X237566352Y-72706880D01*
X237518733Y-72659261D01*
X237471114Y-72564023D01*
X237471114Y-72421166D01*
X237518733Y-72325928D01*
X237566352Y-72278309D01*
X237661590Y-72230690D01*
X237947304Y-72230690D01*
X238042542Y-72278309D01*
X238090161Y-72325928D01*
X238137780Y-72421166D01*
X238137780Y-72564023D01*
X238137780Y-71040214D02*
X237137780Y-71040214D01*
X237137780Y-70659261D01*
X237185400Y-70564023D01*
X237233019Y-70516404D01*
X237328257Y-70468785D01*
X237471114Y-70468785D01*
X237566352Y-70516404D01*
X237613971Y-70564023D01*
X237661590Y-70659261D01*
X237661590Y-71040214D01*
X238137780Y-70040214D02*
X237137780Y-70040214D01*
X237613971Y-70040214D02*
X237613971Y-69468785D01*
X238137780Y-69468785D02*
X237137780Y-69468785D01*
X238137780Y-68992595D02*
X237137780Y-68992595D01*
X237233019Y-68564023D02*
X237185400Y-68516404D01*
X237137780Y-68421166D01*
X237137780Y-68183071D01*
X237185400Y-68087833D01*
X237233019Y-68040214D01*
X237328257Y-67992595D01*
X237423495Y-67992595D01*
X237566352Y-68040214D01*
X238137780Y-68611642D01*
X238137780Y-67992595D01*
X238747780Y-85611642D02*
X239747780Y-85373547D01*
X239033495Y-85183071D01*
X239747780Y-84992595D01*
X238747780Y-84754500D01*
X238700161Y-83659261D02*
X239985876Y-84516404D01*
X238747780Y-83135452D02*
X238747780Y-82944976D01*
X238795400Y-82849738D01*
X238890638Y-82754500D01*
X239081114Y-82706880D01*
X239414447Y-82706880D01*
X239604923Y-82754500D01*
X239700161Y-82849738D01*
X239747780Y-82944976D01*
X239747780Y-83135452D01*
X239700161Y-83230690D01*
X239604923Y-83325928D01*
X239414447Y-83373547D01*
X239081114Y-83373547D01*
X238890638Y-83325928D01*
X238795400Y-83230690D01*
X238747780Y-83135452D01*
X239223971Y-81516404D02*
X239223971Y-81183071D01*
X239747780Y-81040214D02*
X239747780Y-81516404D01*
X238747780Y-81516404D01*
X238747780Y-81040214D01*
X239747780Y-80706880D02*
X239081114Y-80183071D01*
X239081114Y-80706880D02*
X239747780Y-80183071D01*
X239081114Y-79944976D02*
X239081114Y-79564023D01*
X238747780Y-79802119D02*
X239604923Y-79802119D01*
X239700161Y-79754500D01*
X239747780Y-79659261D01*
X239747780Y-79564023D01*
X239700161Y-78849738D02*
X239747780Y-78944976D01*
X239747780Y-79135452D01*
X239700161Y-79230690D01*
X239604923Y-79278309D01*
X239223971Y-79278309D01*
X239128733Y-79230690D01*
X239081114Y-79135452D01*
X239081114Y-78944976D01*
X239128733Y-78849738D01*
X239223971Y-78802119D01*
X239319209Y-78802119D01*
X239414447Y-79278309D01*
X239747780Y-78373547D02*
X239081114Y-78373547D01*
X239271590Y-78373547D02*
X239176352Y-78325928D01*
X239128733Y-78278309D01*
X239081114Y-78183071D01*
X239081114Y-78087833D01*
X239081114Y-77754500D02*
X239747780Y-77754500D01*
X239176352Y-77754500D02*
X239128733Y-77706880D01*
X239081114Y-77611642D01*
X239081114Y-77468785D01*
X239128733Y-77373547D01*
X239223971Y-77325928D01*
X239747780Y-77325928D01*
X239747780Y-76421166D02*
X239223971Y-76421166D01*
X239128733Y-76468785D01*
X239081114Y-76564023D01*
X239081114Y-76754500D01*
X239128733Y-76849738D01*
X239700161Y-76421166D02*
X239747780Y-76516404D01*
X239747780Y-76754500D01*
X239700161Y-76849738D01*
X239604923Y-76897357D01*
X239509685Y-76897357D01*
X239414447Y-76849738D01*
X239366828Y-76754500D01*
X239366828Y-76516404D01*
X239319209Y-76421166D01*
X239747780Y-75802119D02*
X239700161Y-75897357D01*
X239604923Y-75944976D01*
X238747780Y-75944976D01*
X239652542Y-74087833D02*
X239700161Y-74135452D01*
X239747780Y-74278309D01*
X239747780Y-74373547D01*
X239700161Y-74516404D01*
X239604923Y-74611642D01*
X239509685Y-74659261D01*
X239319209Y-74706880D01*
X239176352Y-74706880D01*
X238985876Y-74659261D01*
X238890638Y-74611642D01*
X238795400Y-74516404D01*
X238747780Y-74373547D01*
X238747780Y-74278309D01*
X238795400Y-74135452D01*
X238843019Y-74087833D01*
X239747780Y-73516404D02*
X239700161Y-73611642D01*
X239604923Y-73659261D01*
X238747780Y-73659261D01*
X239747780Y-72992595D02*
X239700161Y-73087833D01*
X239652542Y-73135452D01*
X239557304Y-73183071D01*
X239271590Y-73183071D01*
X239176352Y-73135452D01*
X239128733Y-73087833D01*
X239081114Y-72992595D01*
X239081114Y-72849738D01*
X239128733Y-72754500D01*
X239176352Y-72706880D01*
X239271590Y-72659261D01*
X239557304Y-72659261D01*
X239652542Y-72706880D01*
X239700161Y-72754500D01*
X239747780Y-72849738D01*
X239747780Y-72992595D01*
X239700161Y-71802119D02*
X239747780Y-71897357D01*
X239747780Y-72087833D01*
X239700161Y-72183071D01*
X239652542Y-72230690D01*
X239557304Y-72278309D01*
X239271590Y-72278309D01*
X239176352Y-72230690D01*
X239128733Y-72183071D01*
X239081114Y-72087833D01*
X239081114Y-71897357D01*
X239128733Y-71802119D01*
X239747780Y-71373547D02*
X238747780Y-71373547D01*
X239366828Y-71278309D02*
X239747780Y-70992595D01*
X239081114Y-70992595D02*
X239462066Y-71373547D01*
X218482714Y-58269266D02*
X218958904Y-58269266D01*
X218387476Y-58554980D02*
X218720809Y-57554980D01*
X219054142Y-58554980D01*
X219530333Y-57983552D02*
X219435095Y-57935933D01*
X219387476Y-57888314D01*
X219339857Y-57793076D01*
X219339857Y-57745457D01*
X219387476Y-57650219D01*
X219435095Y-57602600D01*
X219530333Y-57554980D01*
X219720809Y-57554980D01*
X219816047Y-57602600D01*
X219863666Y-57650219D01*
X219911285Y-57745457D01*
X219911285Y-57793076D01*
X219863666Y-57888314D01*
X219816047Y-57935933D01*
X219720809Y-57983552D01*
X219530333Y-57983552D01*
X219435095Y-58031171D01*
X219387476Y-58078790D01*
X219339857Y-58174028D01*
X219339857Y-58364504D01*
X219387476Y-58459742D01*
X219435095Y-58507361D01*
X219530333Y-58554980D01*
X219720809Y-58554980D01*
X219816047Y-58507361D01*
X219863666Y-58459742D01*
X219911285Y-58364504D01*
X219911285Y-58174028D01*
X219863666Y-58078790D01*
X219816047Y-58031171D01*
X219720809Y-57983552D01*
X228845914Y-148180142D02*
X228798295Y-148227761D01*
X228655438Y-148275380D01*
X228560200Y-148275380D01*
X228417343Y-148227761D01*
X228322105Y-148132523D01*
X228274486Y-148037285D01*
X228226867Y-147846809D01*
X228226867Y-147703952D01*
X228274486Y-147513476D01*
X228322105Y-147418238D01*
X228417343Y-147323000D01*
X228560200Y-147275380D01*
X228655438Y-147275380D01*
X228798295Y-147323000D01*
X228845914Y-147370619D01*
X229131629Y-147275380D02*
X229703057Y-147275380D01*
X229417343Y-148275380D02*
X229417343Y-147275380D01*
X229988772Y-148227761D02*
X230131629Y-148275380D01*
X230369724Y-148275380D01*
X230464962Y-148227761D01*
X230512581Y-148180142D01*
X230560200Y-148084904D01*
X230560200Y-147989666D01*
X230512581Y-147894428D01*
X230464962Y-147846809D01*
X230369724Y-147799190D01*
X230179248Y-147751571D01*
X230084010Y-147703952D01*
X230036391Y-147656333D01*
X229988772Y-147561095D01*
X229988772Y-147465857D01*
X230036391Y-147370619D01*
X230084010Y-147323000D01*
X230179248Y-147275380D01*
X230417343Y-147275380D01*
X230560200Y-147323000D01*
X134265019Y-43783342D02*
X134265019Y-44450009D01*
X133265019Y-44021438D01*
X133931685Y-45259533D02*
X133265019Y-45259533D01*
X134312638Y-45021438D02*
X133598352Y-44783342D01*
X133598352Y-45402390D01*
X133265019Y-46259533D02*
X133265019Y-45783342D01*
X134265019Y-45783342D01*
X133312638Y-46545247D02*
X133265019Y-46688104D01*
X133265019Y-46926200D01*
X133312638Y-47021438D01*
X133360257Y-47069057D01*
X133455495Y-47116676D01*
X133550733Y-47116676D01*
X133645971Y-47069057D01*
X133693590Y-47021438D01*
X133741209Y-46926200D01*
X133788828Y-46735723D01*
X133836447Y-46640485D01*
X133884066Y-46592866D01*
X133979304Y-46545247D01*
X134074542Y-46545247D01*
X134169780Y-46592866D01*
X134217400Y-46640485D01*
X134265019Y-46735723D01*
X134265019Y-46973819D01*
X134217400Y-47116676D01*
X134265019Y-47735723D02*
X134265019Y-47830961D01*
X134217400Y-47926200D01*
X134169780Y-47973819D01*
X134074542Y-48021438D01*
X133884066Y-48069057D01*
X133645971Y-48069057D01*
X133455495Y-48021438D01*
X133360257Y-47973819D01*
X133312638Y-47926200D01*
X133265019Y-47830961D01*
X133265019Y-47735723D01*
X133312638Y-47640485D01*
X133360257Y-47592866D01*
X133455495Y-47545247D01*
X133645971Y-47497628D01*
X133884066Y-47497628D01*
X134074542Y-47545247D01*
X134169780Y-47592866D01*
X134217400Y-47640485D01*
X134265019Y-47735723D01*
X134265019Y-48688104D02*
X134265019Y-48783342D01*
X134217400Y-48878580D01*
X134169780Y-48926200D01*
X134074542Y-48973819D01*
X133884066Y-49021438D01*
X133645971Y-49021438D01*
X133455495Y-48973819D01*
X133360257Y-48926200D01*
X133312638Y-48878580D01*
X133265019Y-48783342D01*
X133265019Y-48688104D01*
X133312638Y-48592866D01*
X133360257Y-48545247D01*
X133455495Y-48497628D01*
X133645971Y-48450009D01*
X133884066Y-48450009D01*
X134074542Y-48497628D01*
X134169780Y-48545247D01*
X134217400Y-48592866D01*
X134265019Y-48688104D01*
X228444333Y-99743938D02*
X228444333Y-98743938D01*
X228825285Y-98743938D01*
X228920523Y-98791558D01*
X228968142Y-98839177D01*
X229015761Y-98934415D01*
X229015761Y-99077272D01*
X228968142Y-99172510D01*
X228920523Y-99220129D01*
X228825285Y-99267748D01*
X228444333Y-99267748D01*
X229396714Y-99458224D02*
X229872904Y-99458224D01*
X229301476Y-99743938D02*
X229634809Y-98743938D01*
X229968142Y-99743938D01*
X230206238Y-98743938D02*
X230825285Y-98743938D01*
X230491952Y-99124891D01*
X230634809Y-99124891D01*
X230730047Y-99172510D01*
X230777666Y-99220129D01*
X230825285Y-99315367D01*
X230825285Y-99553462D01*
X230777666Y-99648700D01*
X230730047Y-99696319D01*
X230634809Y-99743938D01*
X230349095Y-99743938D01*
X230253857Y-99696319D01*
X230206238Y-99648700D01*
X87661780Y-115017285D02*
X87661780Y-115588714D01*
X87661780Y-115303000D02*
X86661780Y-115303000D01*
X86804638Y-115398238D01*
X86899876Y-115493476D01*
X86947495Y-115588714D01*
X87661780Y-114588714D02*
X86661780Y-114588714D01*
X87661780Y-114017285D02*
X87090352Y-114445857D01*
X86661780Y-114017285D02*
X87233209Y-114588714D01*
X218482714Y-53269266D02*
X218958904Y-53269266D01*
X218387476Y-53554980D02*
X218720809Y-52554980D01*
X219054142Y-53554980D01*
X219816047Y-52554980D02*
X219625571Y-52554980D01*
X219530333Y-52602600D01*
X219482714Y-52650219D01*
X219387476Y-52793076D01*
X219339857Y-52983552D01*
X219339857Y-53364504D01*
X219387476Y-53459742D01*
X219435095Y-53507361D01*
X219530333Y-53554980D01*
X219720809Y-53554980D01*
X219816047Y-53507361D01*
X219863666Y-53459742D01*
X219911285Y-53364504D01*
X219911285Y-53126409D01*
X219863666Y-53031171D01*
X219816047Y-52983552D01*
X219720809Y-52935933D01*
X219530333Y-52935933D01*
X219435095Y-52983552D01*
X219387476Y-53031171D01*
X219339857Y-53126409D01*
X228444333Y-94573966D02*
X228444333Y-93573966D01*
X228825285Y-93573966D01*
X228920523Y-93621586D01*
X228968142Y-93669205D01*
X229015761Y-93764443D01*
X229015761Y-93907300D01*
X228968142Y-94002538D01*
X228920523Y-94050157D01*
X228825285Y-94097776D01*
X228444333Y-94097776D01*
X229396714Y-94288252D02*
X229872904Y-94288252D01*
X229301476Y-94573966D02*
X229634809Y-93573966D01*
X229968142Y-94573966D01*
X230825285Y-94573966D02*
X230253857Y-94573966D01*
X230539571Y-94573966D02*
X230539571Y-93573966D01*
X230444333Y-93716824D01*
X230349095Y-93812062D01*
X230253857Y-93859681D01*
X228444332Y-112668868D02*
X228444332Y-111668868D01*
X228825285Y-111668868D01*
X228920523Y-111716488D01*
X228968142Y-111764107D01*
X229015761Y-111859345D01*
X229015761Y-112002202D01*
X228968142Y-112097440D01*
X228920523Y-112145059D01*
X228825285Y-112192678D01*
X228444332Y-112192678D01*
X229777666Y-112145059D02*
X229920523Y-112192678D01*
X229968142Y-112240297D01*
X230015761Y-112335535D01*
X230015761Y-112478392D01*
X229968142Y-112573630D01*
X229920523Y-112621249D01*
X229825285Y-112668868D01*
X229444332Y-112668868D01*
X229444332Y-111668868D01*
X229777666Y-111668868D01*
X229872904Y-111716488D01*
X229920523Y-111764107D01*
X229968142Y-111859345D01*
X229968142Y-111954583D01*
X229920523Y-112049821D01*
X229872904Y-112097440D01*
X229777666Y-112145059D01*
X229444332Y-112145059D01*
X230634808Y-111668868D02*
X230730047Y-111668868D01*
X230825285Y-111716488D01*
X230872904Y-111764107D01*
X230920523Y-111859345D01*
X230968142Y-112049821D01*
X230968142Y-112287916D01*
X230920523Y-112478392D01*
X230872904Y-112573630D01*
X230825285Y-112621249D01*
X230730047Y-112668868D01*
X230634808Y-112668868D01*
X230539570Y-112621249D01*
X230491951Y-112573630D01*
X230444332Y-112478392D01*
X230396713Y-112287916D01*
X230396713Y-112049821D01*
X230444332Y-111859345D01*
X230491951Y-111764107D01*
X230539570Y-111716488D01*
X230634808Y-111668868D01*
X218482714Y-37769266D02*
X218958904Y-37769266D01*
X218387476Y-38054980D02*
X218720809Y-37054980D01*
X219054142Y-38054980D01*
X219577952Y-37054980D02*
X219673190Y-37054980D01*
X219768428Y-37102600D01*
X219816047Y-37150219D01*
X219863666Y-37245457D01*
X219911285Y-37435933D01*
X219911285Y-37674028D01*
X219863666Y-37864504D01*
X219816047Y-37959742D01*
X219768428Y-38007361D01*
X219673190Y-38054980D01*
X219577952Y-38054980D01*
X219482714Y-38007361D01*
X219435095Y-37959742D01*
X219387476Y-37864504D01*
X219339857Y-37674028D01*
X219339857Y-37435933D01*
X219387476Y-37245457D01*
X219435095Y-37150219D01*
X219482714Y-37102600D01*
X219577952Y-37054980D01*
X101729780Y-146298257D02*
X101729780Y-146869685D01*
X101729780Y-146583971D02*
X100729780Y-146583971D01*
X100872638Y-146679209D01*
X100967876Y-146774447D01*
X101015495Y-146869685D01*
X101729780Y-145869685D02*
X100729780Y-145869685D01*
X101729780Y-145298257D01*
X100729780Y-145298257D01*
X100729780Y-144345876D02*
X100729780Y-144822066D01*
X101205971Y-144869685D01*
X101158352Y-144822066D01*
X101110733Y-144726828D01*
X101110733Y-144488733D01*
X101158352Y-144393495D01*
X101205971Y-144345876D01*
X101301209Y-144298257D01*
X101539304Y-144298257D01*
X101634542Y-144345876D01*
X101682161Y-144393495D01*
X101729780Y-144488733D01*
X101729780Y-144726828D01*
X101682161Y-144822066D01*
X101634542Y-144869685D01*
X101158352Y-143726828D02*
X101110733Y-143822066D01*
X101063114Y-143869685D01*
X100967876Y-143917304D01*
X100920257Y-143917304D01*
X100825019Y-143869685D01*
X100777400Y-143822066D01*
X100729780Y-143726828D01*
X100729780Y-143536352D01*
X100777400Y-143441114D01*
X100825019Y-143393495D01*
X100920257Y-143345876D01*
X100967876Y-143345876D01*
X101063114Y-143393495D01*
X101110733Y-143441114D01*
X101158352Y-143536352D01*
X101158352Y-143726828D01*
X101205971Y-143822066D01*
X101253590Y-143869685D01*
X101348828Y-143917304D01*
X101539304Y-143917304D01*
X101634542Y-143869685D01*
X101682161Y-143822066D01*
X101729780Y-143726828D01*
X101729780Y-143536352D01*
X101682161Y-143441114D01*
X101634542Y-143393495D01*
X101539304Y-143345876D01*
X101348828Y-143345876D01*
X101253590Y-143393495D01*
X101205971Y-143441114D01*
X101158352Y-143536352D01*
X101729780Y-142393495D02*
X101729780Y-142964923D01*
X101729780Y-142679209D02*
X100729780Y-142679209D01*
X100872638Y-142774447D01*
X100967876Y-142869685D01*
X101015495Y-142964923D01*
X101729780Y-141917304D02*
X101729780Y-141726828D01*
X101682161Y-141631590D01*
X101634542Y-141583971D01*
X101491685Y-141488733D01*
X101301209Y-141441114D01*
X100920257Y-141441114D01*
X100825019Y-141488733D01*
X100777400Y-141536352D01*
X100729780Y-141631590D01*
X100729780Y-141822066D01*
X100777400Y-141917304D01*
X100825019Y-141964923D01*
X100920257Y-142012542D01*
X101158352Y-142012542D01*
X101253590Y-141964923D01*
X101301209Y-141917304D01*
X101348828Y-141822066D01*
X101348828Y-141631590D01*
X101301209Y-141536352D01*
X101253590Y-141488733D01*
X101158352Y-141441114D01*
X229388333Y-58601742D02*
X229340714Y-58649361D01*
X229197857Y-58696980D01*
X229102619Y-58696980D01*
X228959761Y-58649361D01*
X228864523Y-58554123D01*
X228816904Y-58458885D01*
X228769285Y-58268409D01*
X228769285Y-58125552D01*
X228816904Y-57935076D01*
X228864523Y-57839838D01*
X228959761Y-57744600D01*
X229102619Y-57696980D01*
X229197857Y-57696980D01*
X229340714Y-57744600D01*
X229388333Y-57792219D01*
X230150238Y-58173171D02*
X230293095Y-58220790D01*
X230340714Y-58268409D01*
X230388333Y-58363647D01*
X230388333Y-58506504D01*
X230340714Y-58601742D01*
X230293095Y-58649361D01*
X230197857Y-58696980D01*
X229816904Y-58696980D01*
X229816904Y-57696980D01*
X230150238Y-57696980D01*
X230245476Y-57744600D01*
X230293095Y-57792219D01*
X230340714Y-57887457D01*
X230340714Y-57982695D01*
X230293095Y-58077933D01*
X230245476Y-58125552D01*
X230150238Y-58173171D01*
X229816904Y-58173171D01*
X231340714Y-58696980D02*
X230769285Y-58696980D01*
X231055000Y-58696980D02*
X231055000Y-57696980D01*
X230959761Y-57839838D01*
X230864523Y-57935076D01*
X230769285Y-57982695D01*
X148837914Y-32670580D02*
X148933152Y-32670580D01*
X149028390Y-32718200D01*
X149076009Y-32765819D01*
X149123628Y-32861057D01*
X149171247Y-33051533D01*
X149171247Y-33289628D01*
X149123628Y-33480104D01*
X149076009Y-33575342D01*
X149028390Y-33622961D01*
X148933152Y-33670580D01*
X148837914Y-33670580D01*
X148742676Y-33622961D01*
X148695057Y-33575342D01*
X148647438Y-33480104D01*
X148599819Y-33289628D01*
X148599819Y-33051533D01*
X148647438Y-32861057D01*
X148695057Y-32765819D01*
X148742676Y-32718200D01*
X148837914Y-32670580D01*
X149599819Y-33575342D02*
X149647438Y-33622961D01*
X149599819Y-33670580D01*
X149552200Y-33622961D01*
X149599819Y-33575342D01*
X149599819Y-33670580D01*
X150599819Y-33670580D02*
X150028390Y-33670580D01*
X150314104Y-33670580D02*
X150314104Y-32670580D01*
X150218866Y-32813438D01*
X150123628Y-32908676D01*
X150028390Y-32956295D01*
X151028390Y-33003914D02*
X151028390Y-34003914D01*
X151504580Y-33527723D02*
X151552200Y-33622961D01*
X151647438Y-33670580D01*
X151028390Y-33527723D02*
X151076009Y-33622961D01*
X151171247Y-33670580D01*
X151361723Y-33670580D01*
X151456961Y-33622961D01*
X151504580Y-33527723D01*
X151504580Y-33003914D01*
X152409342Y-33146771D02*
X152076009Y-33146771D01*
X152076009Y-33670580D02*
X152076009Y-32670580D01*
X152552200Y-32670580D01*
X228444332Y-130763780D02*
X228444332Y-129763780D01*
X228825285Y-129763780D01*
X228920523Y-129811400D01*
X228968142Y-129859019D01*
X229015761Y-129954257D01*
X229015761Y-130097114D01*
X228968142Y-130192352D01*
X228920523Y-130239971D01*
X228825285Y-130287590D01*
X228444332Y-130287590D01*
X229777666Y-130239971D02*
X229920523Y-130287590D01*
X229968142Y-130335209D01*
X230015761Y-130430447D01*
X230015761Y-130573304D01*
X229968142Y-130668542D01*
X229920523Y-130716161D01*
X229825285Y-130763780D01*
X229444332Y-130763780D01*
X229444332Y-129763780D01*
X229777666Y-129763780D01*
X229872904Y-129811400D01*
X229920523Y-129859019D01*
X229968142Y-129954257D01*
X229968142Y-130049495D01*
X229920523Y-130144733D01*
X229872904Y-130192352D01*
X229777666Y-130239971D01*
X229444332Y-130239971D01*
X230349094Y-129763780D02*
X231015761Y-129763780D01*
X230587189Y-130763780D01*
X108381114Y-32670580D02*
X108476352Y-32670580D01*
X108571590Y-32718200D01*
X108619209Y-32765819D01*
X108666828Y-32861057D01*
X108714447Y-33051533D01*
X108714447Y-33289628D01*
X108666828Y-33480104D01*
X108619209Y-33575342D01*
X108571590Y-33622961D01*
X108476352Y-33670580D01*
X108381114Y-33670580D01*
X108285876Y-33622961D01*
X108238257Y-33575342D01*
X108190638Y-33480104D01*
X108143019Y-33289628D01*
X108143019Y-33051533D01*
X108190638Y-32861057D01*
X108238257Y-32765819D01*
X108285876Y-32718200D01*
X108381114Y-32670580D01*
X109143019Y-33575342D02*
X109190638Y-33622961D01*
X109143019Y-33670580D01*
X109095400Y-33622961D01*
X109143019Y-33575342D01*
X109143019Y-33670580D01*
X110143019Y-33670580D02*
X109571590Y-33670580D01*
X109857304Y-33670580D02*
X109857304Y-32670580D01*
X109762066Y-32813438D01*
X109666828Y-32908676D01*
X109571590Y-32956295D01*
X110571590Y-33003914D02*
X110571590Y-34003914D01*
X111047780Y-33527723D02*
X111095400Y-33622961D01*
X111190638Y-33670580D01*
X110571590Y-33527723D02*
X110619209Y-33622961D01*
X110714447Y-33670580D01*
X110904923Y-33670580D01*
X111000161Y-33622961D01*
X111047780Y-33527723D01*
X111047780Y-33003914D01*
X111952542Y-33146771D02*
X111619209Y-33146771D01*
X111619209Y-33670580D02*
X111619209Y-32670580D01*
X112095400Y-32670580D01*
X228444333Y-107498896D02*
X228444333Y-106498896D01*
X228825285Y-106498896D01*
X228920523Y-106546516D01*
X228968142Y-106594135D01*
X229015761Y-106689373D01*
X229015761Y-106832230D01*
X228968142Y-106927468D01*
X228920523Y-106975087D01*
X228825285Y-107022706D01*
X228444333Y-107022706D01*
X229396714Y-107213182D02*
X229872904Y-107213182D01*
X229301476Y-107498896D02*
X229634809Y-106498896D01*
X229968142Y-107498896D01*
X230730047Y-106498896D02*
X230539571Y-106498896D01*
X230444333Y-106546516D01*
X230396714Y-106594135D01*
X230301476Y-106736992D01*
X230253857Y-106927468D01*
X230253857Y-107308420D01*
X230301476Y-107403658D01*
X230349095Y-107451277D01*
X230444333Y-107498896D01*
X230634809Y-107498896D01*
X230730047Y-107451277D01*
X230777666Y-107403658D01*
X230825285Y-107308420D01*
X230825285Y-107070325D01*
X230777666Y-106975087D01*
X230730047Y-106927468D01*
X230634809Y-106879849D01*
X230444333Y-106879849D01*
X230349095Y-106927468D01*
X230301476Y-106975087D01*
X230253857Y-107070325D01*
X217697000Y-78554980D02*
X217697000Y-77554980D01*
X218077952Y-77554980D01*
X218173190Y-77602600D01*
X218220809Y-77650219D01*
X218268428Y-77745457D01*
X218268428Y-77888314D01*
X218220809Y-77983552D01*
X218173190Y-78031171D01*
X218077952Y-78078790D01*
X217697000Y-78078790D01*
X218697000Y-78554980D02*
X218697000Y-77554980D01*
X218697000Y-78031171D02*
X219268428Y-78031171D01*
X219268428Y-78554980D02*
X219268428Y-77554980D01*
X219744619Y-78554980D02*
X219744619Y-77554980D01*
X220173190Y-77650219D02*
X220220809Y-77602600D01*
X220316047Y-77554980D01*
X220554142Y-77554980D01*
X220649380Y-77602600D01*
X220697000Y-77650219D01*
X220744619Y-77745457D01*
X220744619Y-77840695D01*
X220697000Y-77983552D01*
X220125571Y-78554980D01*
X220744619Y-78554980D01*
X218006523Y-75769266D02*
X218482714Y-75769266D01*
X217911285Y-76054980D02*
X218244619Y-75054980D01*
X218577952Y-76054980D01*
X219435095Y-76054980D02*
X218863666Y-76054980D01*
X219149380Y-76054980D02*
X219149380Y-75054980D01*
X219054142Y-75197838D01*
X218958904Y-75293076D01*
X218863666Y-75340695D01*
X220339857Y-75054980D02*
X219863666Y-75054980D01*
X219816047Y-75531171D01*
X219863666Y-75483552D01*
X219958904Y-75435933D01*
X220197000Y-75435933D01*
X220292238Y-75483552D01*
X220339857Y-75531171D01*
X220387476Y-75626409D01*
X220387476Y-75864504D01*
X220339857Y-75959742D01*
X220292238Y-76007361D01*
X220197000Y-76054980D01*
X219958904Y-76054980D01*
X219863666Y-76007361D01*
X219816047Y-75959742D01*
X128385647Y-136634980D02*
X128385647Y-135634980D01*
X128623742Y-135634980D01*
X128766600Y-135682600D01*
X128861838Y-135777838D01*
X128909457Y-135873076D01*
X128957076Y-136063552D01*
X128957076Y-136206409D01*
X128909457Y-136396885D01*
X128861838Y-136492123D01*
X128766600Y-136587361D01*
X128623742Y-136634980D01*
X128385647Y-136634980D01*
X129576123Y-135634980D02*
X129766600Y-135634980D01*
X129861838Y-135682600D01*
X129957076Y-135777838D01*
X130004695Y-135968314D01*
X130004695Y-136301647D01*
X129957076Y-136492123D01*
X129861838Y-136587361D01*
X129766600Y-136634980D01*
X129576123Y-136634980D01*
X129480885Y-136587361D01*
X129385647Y-136492123D01*
X129338028Y-136301647D01*
X129338028Y-135968314D01*
X129385647Y-135777838D01*
X129480885Y-135682600D01*
X129576123Y-135634980D01*
X130338028Y-135634980D02*
X130576123Y-136634980D01*
X130766600Y-135920695D01*
X130957076Y-136634980D01*
X131195171Y-135634980D01*
X131576123Y-136634980D02*
X131576123Y-135634980D01*
X132147552Y-136634980D01*
X132147552Y-135634980D01*
X218482714Y-48269266D02*
X218958904Y-48269266D01*
X218387476Y-48554980D02*
X218720809Y-47554980D01*
X219054142Y-48554980D01*
X219816047Y-47888314D02*
X219816047Y-48554980D01*
X219577952Y-47507361D02*
X219339857Y-48221647D01*
X219958904Y-48221647D01*
X93325780Y-94673285D02*
X93325780Y-94578047D01*
X93373400Y-94482809D01*
X93421019Y-94435190D01*
X93516257Y-94387571D01*
X93706733Y-94339952D01*
X93944828Y-94339952D01*
X94135304Y-94387571D01*
X94230542Y-94435190D01*
X94278161Y-94482809D01*
X94325780Y-94578047D01*
X94325780Y-94673285D01*
X94278161Y-94768523D01*
X94230542Y-94816142D01*
X94135304Y-94863761D01*
X93944828Y-94911380D01*
X93706733Y-94911380D01*
X93516257Y-94863761D01*
X93421019Y-94816142D01*
X93373400Y-94768523D01*
X93325780Y-94673285D01*
X94230542Y-93911380D02*
X94278161Y-93863761D01*
X94325780Y-93911380D01*
X94278161Y-93959000D01*
X94230542Y-93911380D01*
X94325780Y-93911380D01*
X94325780Y-92911380D02*
X94325780Y-93482809D01*
X94325780Y-93197095D02*
X93325780Y-93197095D01*
X93468638Y-93292333D01*
X93563876Y-93387571D01*
X93611495Y-93482809D01*
X93659114Y-92482809D02*
X94659114Y-92482809D01*
X94182923Y-92006619D02*
X94278161Y-91959000D01*
X94325780Y-91863761D01*
X94182923Y-92482809D02*
X94278161Y-92435190D01*
X94325780Y-92339952D01*
X94325780Y-92149476D01*
X94278161Y-92054238D01*
X94182923Y-92006619D01*
X93659114Y-92006619D01*
X93801971Y-91101857D02*
X93801971Y-91435190D01*
X94325780Y-91435190D02*
X93325780Y-91435190D01*
X93325780Y-90959000D01*
X149466019Y-148357104D02*
X150466019Y-148357104D01*
X150466019Y-148738057D01*
X150418400Y-148833295D01*
X150370780Y-148880914D01*
X150275542Y-148928533D01*
X150132685Y-148928533D01*
X150037447Y-148880914D01*
X149989828Y-148833295D01*
X149942209Y-148738057D01*
X149942209Y-148357104D01*
X149989828Y-149690438D02*
X149942209Y-149833295D01*
X149894590Y-149880914D01*
X149799352Y-149928533D01*
X149656495Y-149928533D01*
X149561257Y-149880914D01*
X149513638Y-149833295D01*
X149466019Y-149738057D01*
X149466019Y-149357104D01*
X150466019Y-149357104D01*
X150466019Y-149690438D01*
X150418400Y-149785676D01*
X150370780Y-149833295D01*
X150275542Y-149880914D01*
X150180304Y-149880914D01*
X150085066Y-149833295D01*
X150037447Y-149785676D01*
X149989828Y-149690438D01*
X149989828Y-149357104D01*
X150466019Y-150261866D02*
X150466019Y-150928533D01*
X149466019Y-150499961D01*
X228798295Y-149823000D02*
X228703057Y-149775380D01*
X228560200Y-149775380D01*
X228417342Y-149823000D01*
X228322104Y-149918238D01*
X228274485Y-150013476D01*
X228226866Y-150203952D01*
X228226866Y-150346809D01*
X228274485Y-150537285D01*
X228322104Y-150632523D01*
X228417342Y-150727761D01*
X228560200Y-150775380D01*
X228655438Y-150775380D01*
X228798295Y-150727761D01*
X228845914Y-150680142D01*
X228845914Y-150346809D01*
X228655438Y-150346809D01*
X229274485Y-150775380D02*
X229274485Y-149775380D01*
X229845914Y-150775380D01*
X229845914Y-149775380D01*
X230322104Y-150775380D02*
X230322104Y-149775380D01*
X230560200Y-149775380D01*
X230703057Y-149823000D01*
X230798295Y-149918238D01*
X230845914Y-150013476D01*
X230893533Y-150203952D01*
X230893533Y-150346809D01*
X230845914Y-150537285D01*
X230798295Y-150632523D01*
X230703057Y-150727761D01*
X230560200Y-150775380D01*
X230322104Y-150775380D01*
X228444332Y-120423826D02*
X228444332Y-119423826D01*
X228825285Y-119423826D01*
X228920523Y-119471446D01*
X228968142Y-119519065D01*
X229015761Y-119614303D01*
X229015761Y-119757160D01*
X228968142Y-119852398D01*
X228920523Y-119900017D01*
X228825285Y-119947636D01*
X228444332Y-119947636D01*
X229777666Y-119900017D02*
X229920523Y-119947636D01*
X229968142Y-119995255D01*
X230015761Y-120090493D01*
X230015761Y-120233350D01*
X229968142Y-120328588D01*
X229920523Y-120376207D01*
X229825285Y-120423826D01*
X229444332Y-120423826D01*
X229444332Y-119423826D01*
X229777666Y-119423826D01*
X229872904Y-119471446D01*
X229920523Y-119519065D01*
X229968142Y-119614303D01*
X229968142Y-119709541D01*
X229920523Y-119804779D01*
X229872904Y-119852398D01*
X229777666Y-119900017D01*
X229444332Y-119900017D01*
X230349094Y-119423826D02*
X230968142Y-119423826D01*
X230634808Y-119804779D01*
X230777666Y-119804779D01*
X230872904Y-119852398D01*
X230920523Y-119900017D01*
X230968142Y-119995255D01*
X230968142Y-120233350D01*
X230920523Y-120328588D01*
X230872904Y-120376207D01*
X230777666Y-120423826D01*
X230491951Y-120423826D01*
X230396713Y-120376207D01*
X230349094Y-120328588D01*
X229293095Y-34630600D02*
X229197857Y-34582980D01*
X229055000Y-34582980D01*
X228912142Y-34630600D01*
X228816904Y-34725838D01*
X228769285Y-34821076D01*
X228721666Y-35011552D01*
X228721666Y-35154409D01*
X228769285Y-35344885D01*
X228816904Y-35440123D01*
X228912142Y-35535361D01*
X229055000Y-35582980D01*
X229150238Y-35582980D01*
X229293095Y-35535361D01*
X229340714Y-35487742D01*
X229340714Y-35154409D01*
X229150238Y-35154409D01*
X229769285Y-35582980D02*
X229769285Y-34582980D01*
X230340714Y-35582980D01*
X230340714Y-34582980D01*
X230816904Y-35582980D02*
X230816904Y-34582980D01*
X231055000Y-34582980D01*
X231197857Y-34630600D01*
X231293095Y-34725838D01*
X231340714Y-34821076D01*
X231388333Y-35011552D01*
X231388333Y-35154409D01*
X231340714Y-35344885D01*
X231293095Y-35440123D01*
X231197857Y-35535361D01*
X231055000Y-35582980D01*
X230816904Y-35582980D01*
X170360417Y-129827902D02*
X170169941Y-129827902D01*
X170074703Y-129875522D01*
X170027084Y-129923141D01*
X169931846Y-130065998D01*
X169884227Y-130256474D01*
X169884227Y-130637426D01*
X169931846Y-130732664D01*
X169979465Y-130780283D01*
X170074703Y-130827902D01*
X170265179Y-130827902D01*
X170360417Y-130780283D01*
X170408036Y-130732664D01*
X170455655Y-130637426D01*
X170455655Y-130399331D01*
X170408036Y-130304093D01*
X170360417Y-130256474D01*
X170265179Y-130208855D01*
X170074703Y-130208855D01*
X169979465Y-130256474D01*
X169931846Y-130304093D01*
X169884227Y-130399331D01*
X171360417Y-129827902D02*
X170884227Y-129827902D01*
X170836608Y-130304093D01*
X170884227Y-130256474D01*
X170979465Y-130208855D01*
X171217560Y-130208855D01*
X171312798Y-130256474D01*
X171360417Y-130304093D01*
X171408036Y-130399331D01*
X171408036Y-130637426D01*
X171360417Y-130732664D01*
X171312798Y-130780283D01*
X171217560Y-130827902D01*
X170979465Y-130827902D01*
X170884227Y-130780283D01*
X170836608Y-130732664D01*
X172027084Y-129827902D02*
X172122322Y-129827902D01*
X172217560Y-129875522D01*
X172265179Y-129923141D01*
X172312798Y-130018379D01*
X172360417Y-130208855D01*
X172360417Y-130446950D01*
X172312798Y-130637426D01*
X172265179Y-130732664D01*
X172217560Y-130780283D01*
X172122322Y-130827902D01*
X172027084Y-130827902D01*
X171931846Y-130780283D01*
X171884227Y-130732664D01*
X171836608Y-130637426D01*
X171788989Y-130446950D01*
X171788989Y-130208855D01*
X171836608Y-130018379D01*
X171884227Y-129923141D01*
X171931846Y-129875522D01*
X172027084Y-129827902D01*
X172741370Y-129923141D02*
X172788989Y-129875522D01*
X172884227Y-129827902D01*
X173122322Y-129827902D01*
X173217560Y-129875522D01*
X173265179Y-129923141D01*
X173312798Y-130018379D01*
X173312798Y-130113617D01*
X173265179Y-130256474D01*
X172693751Y-130827902D01*
X173312798Y-130827902D01*
X174503274Y-130827902D02*
X174503274Y-129827902D01*
X174884227Y-129827902D01*
X174979465Y-129875522D01*
X175027084Y-129923141D01*
X175074703Y-130018379D01*
X175074703Y-130161236D01*
X175027084Y-130256474D01*
X174979465Y-130304093D01*
X174884227Y-130351712D01*
X174503274Y-130351712D01*
X175503274Y-130827902D02*
X175503274Y-130161236D01*
X175503274Y-130351712D02*
X175550893Y-130256474D01*
X175598512Y-130208855D01*
X175693751Y-130161236D01*
X175788989Y-130161236D01*
X176265179Y-130827902D02*
X176169941Y-130780283D01*
X176122322Y-130732664D01*
X176074703Y-130637426D01*
X176074703Y-130351712D01*
X176122322Y-130256474D01*
X176169941Y-130208855D01*
X176265179Y-130161236D01*
X176408036Y-130161236D01*
X176503274Y-130208855D01*
X176550893Y-130256474D01*
X176598512Y-130351712D01*
X176598512Y-130637426D01*
X176550893Y-130732664D01*
X176503274Y-130780283D01*
X176408036Y-130827902D01*
X176265179Y-130827902D01*
X176884227Y-130161236D02*
X177265179Y-130161236D01*
X177027084Y-129827902D02*
X177027084Y-130685045D01*
X177074703Y-130780283D01*
X177169941Y-130827902D01*
X177265179Y-130827902D01*
X177741370Y-130827902D02*
X177646131Y-130780283D01*
X177598512Y-130732664D01*
X177550893Y-130637426D01*
X177550893Y-130351712D01*
X177598512Y-130256474D01*
X177646131Y-130208855D01*
X177741370Y-130161236D01*
X177884227Y-130161236D01*
X177979465Y-130208855D01*
X178027084Y-130256474D01*
X178074703Y-130351712D01*
X178074703Y-130637426D01*
X178027084Y-130732664D01*
X177979465Y-130780283D01*
X177884227Y-130827902D01*
X177741370Y-130827902D01*
X178360417Y-130161236D02*
X178741370Y-130161236D01*
X178503274Y-129827902D02*
X178503274Y-130685045D01*
X178550893Y-130780283D01*
X178646131Y-130827902D01*
X178741370Y-130827902D01*
X178979465Y-130161236D02*
X179217560Y-130827902D01*
X179455655Y-130161236D02*
X179217560Y-130827902D01*
X179122322Y-131065998D01*
X179074703Y-131113617D01*
X178979465Y-131161236D01*
X179836608Y-130161236D02*
X179836608Y-131161236D01*
X179836608Y-130208855D02*
X179931846Y-130161236D01*
X180122322Y-130161236D01*
X180217560Y-130208855D01*
X180265179Y-130256474D01*
X180312798Y-130351712D01*
X180312798Y-130637426D01*
X180265179Y-130732664D01*
X180217560Y-130780283D01*
X180122322Y-130827902D01*
X179931846Y-130827902D01*
X179836608Y-130780283D01*
X181122322Y-130780283D02*
X181027084Y-130827902D01*
X180836608Y-130827902D01*
X180741370Y-130780283D01*
X180693751Y-130685045D01*
X180693751Y-130304093D01*
X180741370Y-130208855D01*
X180836608Y-130161236D01*
X181027084Y-130161236D01*
X181122322Y-130208855D01*
X181169941Y-130304093D01*
X181169941Y-130399331D01*
X180693751Y-130494569D01*
X169931846Y-132437902D02*
X169931846Y-131437902D01*
X170503274Y-132437902D02*
X170074703Y-131866474D01*
X170503274Y-131437902D02*
X169931846Y-132009331D01*
X171074703Y-132437902D02*
X170979465Y-132390283D01*
X170931846Y-132342664D01*
X170884227Y-132247426D01*
X170884227Y-131961712D01*
X170931846Y-131866474D01*
X170979465Y-131818855D01*
X171074703Y-131771236D01*
X171217560Y-131771236D01*
X171312798Y-131818855D01*
X171360417Y-131866474D01*
X171408036Y-131961712D01*
X171408036Y-132247426D01*
X171360417Y-132342664D01*
X171312798Y-132390283D01*
X171217560Y-132437902D01*
X171074703Y-132437902D01*
X171836608Y-132437902D02*
X171836608Y-131771236D01*
X171836608Y-131961712D02*
X171884227Y-131866474D01*
X171931846Y-131818855D01*
X172027084Y-131771236D01*
X172122322Y-131771236D01*
X172836608Y-132390283D02*
X172741370Y-132437902D01*
X172550893Y-132437902D01*
X172455655Y-132390283D01*
X172408036Y-132295045D01*
X172408036Y-131914093D01*
X172455655Y-131818855D01*
X172550893Y-131771236D01*
X172741370Y-131771236D01*
X172836608Y-131818855D01*
X172884227Y-131914093D01*
X172884227Y-132009331D01*
X172408036Y-132104569D01*
X173217560Y-131771236D02*
X173455655Y-132437902D01*
X173693751Y-131771236D02*
X173455655Y-132437902D01*
X173360417Y-132675998D01*
X173312798Y-132723617D01*
X173217560Y-132771236D01*
X175169941Y-131914093D02*
X175312798Y-131961712D01*
X175360417Y-132009331D01*
X175408036Y-132104569D01*
X175408036Y-132247426D01*
X175360417Y-132342664D01*
X175312798Y-132390283D01*
X175217560Y-132437902D01*
X174836608Y-132437902D01*
X174836608Y-131437902D01*
X175169941Y-131437902D01*
X175265179Y-131485522D01*
X175312798Y-131533141D01*
X175360417Y-131628379D01*
X175360417Y-131723617D01*
X175312798Y-131818855D01*
X175265179Y-131866474D01*
X175169941Y-131914093D01*
X174836608Y-131914093D01*
X175979465Y-132437902D02*
X175884227Y-132390283D01*
X175836608Y-132295045D01*
X175836608Y-131437902D01*
X176360417Y-132437902D02*
X176360417Y-131771236D01*
X176360417Y-131437902D02*
X176312798Y-131485522D01*
X176360417Y-131533141D01*
X176408036Y-131485522D01*
X176360417Y-131437902D01*
X176360417Y-131533141D01*
X176788989Y-132390283D02*
X176884227Y-132437902D01*
X177074703Y-132437902D01*
X177169941Y-132390283D01*
X177217560Y-132295045D01*
X177217560Y-132247426D01*
X177169941Y-132152188D01*
X177074703Y-132104569D01*
X176931846Y-132104569D01*
X176836608Y-132056950D01*
X176788989Y-131961712D01*
X176788989Y-131914093D01*
X176836608Y-131818855D01*
X176931846Y-131771236D01*
X177074703Y-131771236D01*
X177169941Y-131818855D01*
X177598512Y-132390283D02*
X177693751Y-132437902D01*
X177884227Y-132437902D01*
X177979465Y-132390283D01*
X178027084Y-132295045D01*
X178027084Y-132247426D01*
X177979465Y-132152188D01*
X177884227Y-132104569D01*
X177741370Y-132104569D01*
X177646131Y-132056950D01*
X177598512Y-131961712D01*
X177598512Y-131914093D01*
X177646131Y-131818855D01*
X177741370Y-131771236D01*
X177884227Y-131771236D01*
X177979465Y-131818855D01*
X179503274Y-132818855D02*
X179455655Y-132771236D01*
X179360417Y-132628379D01*
X179312798Y-132533141D01*
X179265179Y-132390283D01*
X179217560Y-132152188D01*
X179217560Y-131961712D01*
X179265179Y-131723617D01*
X179312798Y-131580760D01*
X179360417Y-131485522D01*
X179455655Y-131342664D01*
X179503274Y-131295045D01*
X179884227Y-132437902D02*
X179884227Y-131437902D01*
X180312798Y-132437902D02*
X180312798Y-131914093D01*
X180265179Y-131818855D01*
X180169941Y-131771236D01*
X180027084Y-131771236D01*
X179931846Y-131818855D01*
X179884227Y-131866474D01*
X180646131Y-131771236D02*
X181027084Y-131771236D01*
X180788989Y-131437902D02*
X180788989Y-132295045D01*
X180836608Y-132390283D01*
X180931846Y-132437902D01*
X181027084Y-132437902D01*
X181217560Y-131771236D02*
X181598512Y-131771236D01*
X181360417Y-131437902D02*
X181360417Y-132295045D01*
X181408036Y-132390283D01*
X181503274Y-132437902D01*
X181598512Y-132437902D01*
X181931846Y-131771236D02*
X181931846Y-132771236D01*
X181931846Y-131818855D02*
X182027084Y-131771236D01*
X182217560Y-131771236D01*
X182312798Y-131818855D01*
X182360417Y-131866474D01*
X182408036Y-131961712D01*
X182408036Y-132247426D01*
X182360417Y-132342664D01*
X182312798Y-132390283D01*
X182217560Y-132437902D01*
X182027084Y-132437902D01*
X181931846Y-132390283D01*
X182788989Y-132390283D02*
X182884227Y-132437902D01*
X183074703Y-132437902D01*
X183169941Y-132390283D01*
X183217560Y-132295045D01*
X183217560Y-132247426D01*
X183169941Y-132152188D01*
X183074703Y-132104569D01*
X182931846Y-132104569D01*
X182836608Y-132056950D01*
X182788989Y-131961712D01*
X182788989Y-131914093D01*
X182836608Y-131818855D01*
X182931846Y-131771236D01*
X183074703Y-131771236D01*
X183169941Y-131818855D01*
X183646131Y-132342664D02*
X183693751Y-132390283D01*
X183646131Y-132437902D01*
X183598512Y-132390283D01*
X183646131Y-132342664D01*
X183646131Y-132437902D01*
X183646131Y-131818855D02*
X183693751Y-131866474D01*
X183646131Y-131914093D01*
X183598512Y-131866474D01*
X183646131Y-131818855D01*
X183646131Y-131914093D01*
X184836608Y-131390283D02*
X183979465Y-132675998D01*
X185884227Y-131390283D02*
X185027084Y-132675998D01*
X186646131Y-131771236D02*
X186646131Y-132580760D01*
X186598512Y-132675998D01*
X186550893Y-132723617D01*
X186455655Y-132771236D01*
X186312798Y-132771236D01*
X186217560Y-132723617D01*
X186646131Y-132390283D02*
X186550893Y-132437902D01*
X186360417Y-132437902D01*
X186265179Y-132390283D01*
X186217560Y-132342664D01*
X186169941Y-132247426D01*
X186169941Y-131961712D01*
X186217560Y-131866474D01*
X186265179Y-131818855D01*
X186360417Y-131771236D01*
X186550893Y-131771236D01*
X186646131Y-131818855D01*
X187122322Y-132437902D02*
X187122322Y-131771236D01*
X187122322Y-131437902D02*
X187074703Y-131485522D01*
X187122322Y-131533141D01*
X187169941Y-131485522D01*
X187122322Y-131437902D01*
X187122322Y-131533141D01*
X187455655Y-131771236D02*
X187836608Y-131771236D01*
X187598512Y-131437902D02*
X187598512Y-132295045D01*
X187646131Y-132390283D01*
X187741370Y-132437902D01*
X187836608Y-132437902D01*
X188169941Y-132437902D02*
X188169941Y-131437902D01*
X188598512Y-132437902D02*
X188598512Y-131914093D01*
X188550893Y-131818855D01*
X188455655Y-131771236D01*
X188312798Y-131771236D01*
X188217560Y-131818855D01*
X188169941Y-131866474D01*
X189503274Y-131771236D02*
X189503274Y-132437902D01*
X189074703Y-131771236D02*
X189074703Y-132295045D01*
X189122322Y-132390283D01*
X189217560Y-132437902D01*
X189360417Y-132437902D01*
X189455655Y-132390283D01*
X189503274Y-132342664D01*
X189979465Y-132437902D02*
X189979465Y-131437902D01*
X189979465Y-131818855D02*
X190074703Y-131771236D01*
X190265179Y-131771236D01*
X190360417Y-131818855D01*
X190408036Y-131866474D01*
X190455655Y-131961712D01*
X190455655Y-132247426D01*
X190408036Y-132342664D01*
X190360417Y-132390283D01*
X190265179Y-132437902D01*
X190074703Y-132437902D01*
X189979465Y-132390283D01*
X190884227Y-132342664D02*
X190931846Y-132390283D01*
X190884227Y-132437902D01*
X190836608Y-132390283D01*
X190884227Y-132342664D01*
X190884227Y-132437902D01*
X191788989Y-132390283D02*
X191693751Y-132437902D01*
X191503274Y-132437902D01*
X191408036Y-132390283D01*
X191360417Y-132342664D01*
X191312798Y-132247426D01*
X191312798Y-131961712D01*
X191360417Y-131866474D01*
X191408036Y-131818855D01*
X191503274Y-131771236D01*
X191693751Y-131771236D01*
X191788989Y-131818855D01*
X192360417Y-132437902D02*
X192265179Y-132390283D01*
X192217560Y-132342664D01*
X192169941Y-132247426D01*
X192169941Y-131961712D01*
X192217560Y-131866474D01*
X192265179Y-131818855D01*
X192360417Y-131771236D01*
X192503274Y-131771236D01*
X192598512Y-131818855D01*
X192646131Y-131866474D01*
X192693751Y-131961712D01*
X192693751Y-132247426D01*
X192646131Y-132342664D01*
X192598512Y-132390283D01*
X192503274Y-132437902D01*
X192360417Y-132437902D01*
X193122322Y-132437902D02*
X193122322Y-131771236D01*
X193122322Y-131866474D02*
X193169941Y-131818855D01*
X193265179Y-131771236D01*
X193408036Y-131771236D01*
X193503274Y-131818855D01*
X193550893Y-131914093D01*
X193550893Y-132437902D01*
X193550893Y-131914093D02*
X193598512Y-131818855D01*
X193693751Y-131771236D01*
X193836608Y-131771236D01*
X193931846Y-131818855D01*
X193979465Y-131914093D01*
X193979465Y-132437902D01*
X195169941Y-131390283D02*
X194312798Y-132675998D01*
X195503274Y-132437902D02*
X195503274Y-131437902D01*
X195598512Y-132056950D02*
X195884227Y-132437902D01*
X195884227Y-131771236D02*
X195503274Y-132152188D01*
X196312798Y-132437902D02*
X196312798Y-131437902D01*
X196312798Y-131818855D02*
X196408036Y-131771236D01*
X196598512Y-131771236D01*
X196693751Y-131818855D01*
X196741370Y-131866474D01*
X196788989Y-131961712D01*
X196788989Y-132247426D01*
X196741370Y-132342664D01*
X196693751Y-132390283D01*
X196598512Y-132437902D01*
X196408036Y-132437902D01*
X196312798Y-132390283D01*
X197360417Y-132437902D02*
X197265179Y-132390283D01*
X197217560Y-132295045D01*
X197217560Y-131437902D01*
X197741370Y-132437902D02*
X197741370Y-131771236D01*
X197741370Y-131437902D02*
X197693751Y-131485522D01*
X197741370Y-131533141D01*
X197788989Y-131485522D01*
X197741370Y-131437902D01*
X197741370Y-131533141D01*
X198169941Y-132390283D02*
X198265179Y-132437902D01*
X198455655Y-132437902D01*
X198550893Y-132390283D01*
X198598512Y-132295045D01*
X198598512Y-132247426D01*
X198550893Y-132152188D01*
X198455655Y-132104569D01*
X198312798Y-132104569D01*
X198217560Y-132056950D01*
X198169941Y-131961712D01*
X198169941Y-131914093D01*
X198217560Y-131818855D01*
X198312798Y-131771236D01*
X198455655Y-131771236D01*
X198550893Y-131818855D01*
X198979465Y-132390283D02*
X199074703Y-132437902D01*
X199265179Y-132437902D01*
X199360417Y-132390283D01*
X199408036Y-132295045D01*
X199408036Y-132247426D01*
X199360417Y-132152188D01*
X199265179Y-132104569D01*
X199122322Y-132104569D01*
X199027084Y-132056950D01*
X198979465Y-131961712D01*
X198979465Y-131914093D01*
X199027084Y-131818855D01*
X199122322Y-131771236D01*
X199265179Y-131771236D01*
X199360417Y-131818855D01*
X199836608Y-131914093D02*
X200169941Y-131914093D01*
X200312798Y-132437902D02*
X199836608Y-132437902D01*
X199836608Y-131437902D01*
X200312798Y-131437902D01*
X200646131Y-132437902D02*
X201169941Y-131771236D01*
X200646131Y-131771236D02*
X201169941Y-132437902D01*
X201408036Y-131771236D02*
X201788989Y-131771236D01*
X201550893Y-131437902D02*
X201550893Y-132295045D01*
X201598512Y-132390283D01*
X201693751Y-132437902D01*
X201788989Y-132437902D01*
X202503274Y-132390283D02*
X202408036Y-132437902D01*
X202217560Y-132437902D01*
X202122322Y-132390283D01*
X202074703Y-132295045D01*
X202074703Y-131914093D01*
X202122322Y-131818855D01*
X202217560Y-131771236D01*
X202408036Y-131771236D01*
X202503274Y-131818855D01*
X202550893Y-131914093D01*
X202550893Y-132009331D01*
X202074703Y-132104569D01*
X202979465Y-132437902D02*
X202979465Y-131771236D01*
X202979465Y-131961712D02*
X203027084Y-131866474D01*
X203074703Y-131818855D01*
X203169941Y-131771236D01*
X203265179Y-131771236D01*
X203598512Y-131771236D02*
X203598512Y-132437902D01*
X203598512Y-131866474D02*
X203646131Y-131818855D01*
X203741370Y-131771236D01*
X203884227Y-131771236D01*
X203979465Y-131818855D01*
X204027084Y-131914093D01*
X204027084Y-132437902D01*
X204931846Y-132437902D02*
X204931846Y-131914093D01*
X204884227Y-131818855D01*
X204788989Y-131771236D01*
X204598512Y-131771236D01*
X204503274Y-131818855D01*
X204931846Y-132390283D02*
X204836608Y-132437902D01*
X204598512Y-132437902D01*
X204503274Y-132390283D01*
X204455655Y-132295045D01*
X204455655Y-132199807D01*
X204503274Y-132104569D01*
X204598512Y-132056950D01*
X204836608Y-132056950D01*
X204931846Y-132009331D01*
X205550893Y-132437902D02*
X205455655Y-132390283D01*
X205408036Y-132295045D01*
X205408036Y-131437902D01*
X206646131Y-131390283D02*
X205788989Y-132675998D01*
X207408036Y-131437902D02*
X207217560Y-131437902D01*
X207122322Y-131485522D01*
X207074703Y-131533141D01*
X206979465Y-131675998D01*
X206931846Y-131866474D01*
X206931846Y-132247426D01*
X206979465Y-132342664D01*
X207027084Y-132390283D01*
X207122322Y-132437902D01*
X207312798Y-132437902D01*
X207408036Y-132390283D01*
X207455655Y-132342664D01*
X207503274Y-132247426D01*
X207503274Y-132009331D01*
X207455655Y-131914093D01*
X207408036Y-131866474D01*
X207312798Y-131818855D01*
X207122322Y-131818855D01*
X207027084Y-131866474D01*
X206979465Y-131914093D01*
X206931846Y-132009331D01*
X208408036Y-131437902D02*
X207931846Y-131437902D01*
X207884227Y-131914093D01*
X207931846Y-131866474D01*
X208027084Y-131818855D01*
X208265179Y-131818855D01*
X208360417Y-131866474D01*
X208408036Y-131914093D01*
X208455655Y-132009331D01*
X208455655Y-132247426D01*
X208408036Y-132342664D01*
X208360417Y-132390283D01*
X208265179Y-132437902D01*
X208027084Y-132437902D01*
X207931846Y-132390283D01*
X207884227Y-132342664D01*
X209074703Y-131437902D02*
X209169941Y-131437902D01*
X209265179Y-131485522D01*
X209312798Y-131533141D01*
X209360417Y-131628379D01*
X209408036Y-131818855D01*
X209408036Y-132056950D01*
X209360417Y-132247426D01*
X209312798Y-132342664D01*
X209265179Y-132390283D01*
X209169941Y-132437902D01*
X209074703Y-132437902D01*
X208979465Y-132390283D01*
X208931846Y-132342664D01*
X208884227Y-132247426D01*
X208836608Y-132056950D01*
X208836608Y-131818855D01*
X208884227Y-131628379D01*
X208931846Y-131533141D01*
X208979465Y-131485522D01*
X209074703Y-131437902D01*
X209788989Y-131533141D02*
X209836608Y-131485522D01*
X209931846Y-131437902D01*
X210169941Y-131437902D01*
X210265179Y-131485522D01*
X210312798Y-131533141D01*
X210360417Y-131628379D01*
X210360417Y-131723617D01*
X210312798Y-131866474D01*
X209741370Y-132437902D01*
X210360417Y-132437902D01*
X210693751Y-132818855D02*
X210741370Y-132771236D01*
X210836608Y-132628379D01*
X210884227Y-132533141D01*
X210931846Y-132390283D01*
X210979465Y-132152188D01*
X210979465Y-131961712D01*
X210931846Y-131723617D01*
X210884227Y-131580760D01*
X210836608Y-131485522D01*
X210741370Y-131342664D01*
X210693751Y-131295045D01*
%TO.C,U1*%
X98579780Y-128417304D02*
X99389304Y-128417304D01*
X99484542Y-128369685D01*
X99532161Y-128322066D01*
X99579780Y-128226828D01*
X99579780Y-128036352D01*
X99532161Y-127941114D01*
X99484542Y-127893495D01*
X99389304Y-127845876D01*
X98579780Y-127845876D01*
X99579780Y-126845876D02*
X99579780Y-127417304D01*
X99579780Y-127131590D02*
X98579780Y-127131590D01*
X98722638Y-127226828D01*
X98817876Y-127322066D01*
X98865495Y-127417304D01*
D11*
%TO.C,C1*%
X81769400Y-115463400D02*
G75*
G03*
X81769400Y-115463400I-2120000J0D01*
G01*
%TO.C,SW4*%
X127616600Y-111302600D02*
X132816600Y-111302600D01*
X127146600Y-109332600D02*
X127146600Y-107132600D01*
X128216600Y-105062600D02*
X132616600Y-105062600D01*
X133386600Y-107132600D02*
X133386600Y-109332600D01*
X131680814Y-108182600D02*
G75*
G03*
X131680814Y-108182600I-1414214J0D01*
G01*
%TO.C,SW5*%
X127616600Y-133802600D02*
X132816600Y-133802600D01*
X133386600Y-129632600D02*
X133386600Y-131832600D01*
X128216600Y-127562600D02*
X132616600Y-127562600D01*
X127146600Y-131832600D02*
X127146600Y-129632600D01*
X131680814Y-130682600D02*
G75*
G03*
X131680814Y-130682600I-1414214J0D01*
G01*
%TO.C,J5*%
X224267800Y-130966600D02*
X226927800Y-130966600D01*
X225597800Y-90206600D02*
X226927800Y-90206600D01*
X224267800Y-92806600D02*
X226927800Y-92806600D01*
X226927800Y-92806600D02*
X226927800Y-130966600D01*
X226927800Y-90206600D02*
X226927800Y-91536600D01*
X224267800Y-92806600D02*
X224267800Y-130966600D01*
%TO.C,J2*%
X226937000Y-33892600D02*
X226937000Y-84812600D01*
X221737000Y-36492600D02*
X221737000Y-84812600D01*
X221737000Y-36492600D02*
X224337000Y-36492600D01*
X221737000Y-33892600D02*
X223067000Y-33892600D01*
X224337000Y-36492600D02*
X224337000Y-33892600D01*
X224337000Y-33892600D02*
X226937000Y-33892600D01*
X221737000Y-35222600D02*
X221737000Y-33892600D01*
X221737000Y-84812600D02*
X226937000Y-84812600D01*
%TO.C,U3*%
X167708400Y-48836800D02*
X203388400Y-48836800D01*
X203388400Y-35916800D02*
X167708400Y-35916800D01*
X167648400Y-51326800D02*
X203448400Y-51326800D01*
X203448400Y-33426800D02*
X167648400Y-33426800D01*
X203388400Y-41376800D02*
X203388400Y-35916800D01*
X203388400Y-48836800D02*
X203388400Y-43376800D01*
X203448400Y-51326800D02*
X203448400Y-33426800D01*
X167648400Y-33426800D02*
X167648400Y-51326800D01*
X167708400Y-35916800D02*
X167708400Y-48836800D01*
X203388400Y-41376800D02*
G75*
G03*
X203388400Y-43376800I0J-1000000D01*
G01*
%TO.C,C11*%
X158994200Y-31848200D02*
X158994200Y-34588200D01*
X153754200Y-34588200D02*
X158994200Y-34588200D01*
X153754200Y-31848200D02*
X158994200Y-31848200D01*
X153754200Y-31848200D02*
X153754200Y-34588200D01*
%TO.C,U2*%
X159022400Y-58004400D02*
X107982400Y-58004400D01*
X158962400Y-60494400D02*
X108042400Y-60494400D01*
X107982400Y-75904400D02*
X159022400Y-75904400D01*
X158962400Y-73414400D02*
X158962400Y-60494400D01*
X108042400Y-60494400D02*
X108042400Y-65954400D01*
X107982400Y-58004400D02*
X107982400Y-75904400D01*
X159022400Y-75904400D02*
X159022400Y-58004400D01*
X108042400Y-67954400D02*
X108042400Y-73414400D01*
X108042400Y-73414400D02*
X158962400Y-73414400D01*
X108042400Y-67954400D02*
G75*
G03*
X108042400Y-65954400I0J1000000D01*
G01*
%TO.C,D2*%
X99228400Y-113356400D02*
X96138400Y-113356400D01*
X96138570Y-113356400D02*
G75*
G03*
X97683862Y-118906400I1544830J-2560000D01*
G01*
X97682938Y-118906400D02*
G75*
G03*
X99228230Y-113356400I462J2990000D01*
G01*
X100183400Y-115916400D02*
G75*
G03*
X100183400Y-115916400I-2500000J0D01*
G01*
%TO.C,C9*%
X86647400Y-134785400D02*
X81407400Y-134785400D01*
X81407400Y-137525400D02*
X81407400Y-134785400D01*
X86647400Y-137525400D02*
X81407400Y-137525400D01*
X86647400Y-137525400D02*
X86647400Y-134785400D01*
%TO.C,C5*%
X208527400Y-96079400D02*
X208527400Y-101319400D01*
X205787400Y-96079400D02*
X205787400Y-101319400D01*
X208527400Y-101319400D02*
X205787400Y-101319400D01*
X208527400Y-96079400D02*
X205787400Y-96079400D01*
%TO.C,R2*%
X87269400Y-118843000D02*
X87269400Y-118073000D01*
X87269400Y-110763000D02*
X87269400Y-111533000D01*
X88639400Y-118073000D02*
X88639400Y-111533000D01*
X88639400Y-111533000D02*
X85899400Y-111533000D01*
X85899400Y-118073000D02*
X88639400Y-118073000D01*
X85899400Y-111533000D02*
X85899400Y-118073000D01*
%TO.C,C4*%
X208527400Y-70679400D02*
X205787400Y-70679400D01*
X208527400Y-75919400D02*
X205787400Y-75919400D01*
X208527400Y-70679400D02*
X208527400Y-75919400D01*
X205787400Y-70679400D02*
X205787400Y-75919400D01*
%TO.C,SW2*%
X119886600Y-118632600D02*
X119886600Y-120832600D01*
X114716600Y-116562600D02*
X119116600Y-116562600D01*
X114116600Y-122802600D02*
X119316600Y-122802600D01*
X113646600Y-120832600D02*
X113646600Y-118632600D01*
X118180814Y-119682600D02*
G75*
G03*
X118180814Y-119682600I-1414214J0D01*
G01*
%TO.C,R1*%
X90725400Y-118073000D02*
X93465400Y-118073000D01*
X92095400Y-110763000D02*
X92095400Y-111533000D01*
X93465400Y-118073000D02*
X93465400Y-111533000D01*
X90725400Y-111533000D02*
X90725400Y-118073000D01*
X93465400Y-111533000D02*
X90725400Y-111533000D01*
X92095400Y-118843000D02*
X92095400Y-118073000D01*
%TO.C,U5*%
X107982400Y-101304400D02*
X159022400Y-101304400D01*
X108042400Y-85894400D02*
X108042400Y-91354400D01*
X158962400Y-85894400D02*
X108042400Y-85894400D01*
X108042400Y-93354400D02*
X108042400Y-98814400D01*
X108042400Y-98814400D02*
X158962400Y-98814400D01*
X158962400Y-98814400D02*
X158962400Y-85894400D01*
X159022400Y-83404400D02*
X107982400Y-83404400D01*
X107982400Y-83404400D02*
X107982400Y-101304400D01*
X159022400Y-101304400D02*
X159022400Y-83404400D01*
X108042400Y-93354400D02*
G75*
G03*
X108042400Y-91354400I0J1000000D01*
G01*
%TO.C,X2*%
X82687000Y-61448200D02*
X94837000Y-61448200D01*
X81937000Y-41298200D02*
X81937000Y-60698200D01*
X94837000Y-61448200D02*
X94837000Y-41298200D01*
X94087000Y-40548200D02*
X82687000Y-40548200D01*
X94837000Y-41298200D02*
G75*
G03*
X94087000Y-40548200I-750000J0D01*
G01*
X81937000Y-60698200D02*
G75*
G03*
X82687000Y-61448200I750000J0D01*
G01*
X82687000Y-40548200D02*
G75*
G03*
X81937000Y-41298200I0J-750000D01*
G01*
%TO.C,J1*%
X77627400Y-140097900D02*
X92327400Y-140097900D01*
X77627400Y-149297900D02*
X77627400Y-140097900D01*
X92327400Y-149297900D02*
X90427400Y-149297900D01*
X92327400Y-146597900D02*
X92327400Y-149297900D01*
X92527400Y-140947900D02*
X92527400Y-139897900D01*
X92327400Y-140097900D02*
X92327400Y-142697900D01*
X91477400Y-139897900D02*
X92527400Y-139897900D01*
X86427400Y-149297900D02*
X77627400Y-149297900D01*
%TO.C,R4*%
X155576600Y-118032600D02*
X162116600Y-118032600D01*
X162116600Y-115292600D02*
X155576600Y-115292600D01*
X162886600Y-116662600D02*
X162116600Y-116662600D01*
X155576600Y-115292600D02*
X155576600Y-118032600D01*
X162116600Y-118032600D02*
X162116600Y-115292600D01*
X154806600Y-116662600D02*
X155576600Y-116662600D01*
%TO.C,G\u002A\u002A\u002A*%
G36*
X210218125Y-124778373D02*
G01*
X209546062Y-124378027D01*
X209062886Y-124114054D01*
X208785923Y-123995768D01*
X208587169Y-124000067D01*
X208338655Y-124131884D01*
X207993982Y-124421065D01*
X207728270Y-124676063D01*
X206970928Y-125306768D01*
X206043646Y-125900347D01*
X205033458Y-126411839D01*
X204027403Y-126796287D01*
X203253793Y-126987374D01*
X202739990Y-127080380D01*
X202412196Y-127174487D01*
X202193780Y-127312759D01*
X202008116Y-127538258D01*
X201855155Y-127773347D01*
X201445676Y-128264482D01*
X201007776Y-128500747D01*
X200553158Y-128477804D01*
X200297055Y-128351049D01*
X200065866Y-128140714D01*
X199990208Y-127857493D01*
X199996104Y-127637422D01*
X199993680Y-127209361D01*
X199873350Y-126955295D01*
X199581499Y-126814222D01*
X199211738Y-126745007D01*
X198812758Y-126671776D01*
X198232287Y-126544380D01*
X197528342Y-126377691D01*
X196758940Y-126186580D01*
X195982100Y-125985921D01*
X195255838Y-125790583D01*
X194638172Y-125615438D01*
X194187119Y-125475359D01*
X194020822Y-125414423D01*
X193539621Y-125261472D01*
X193102577Y-125254587D01*
X192622325Y-125404370D01*
X192154011Y-125640953D01*
X191710544Y-125882981D01*
X191121080Y-126198986D01*
X190475871Y-126540782D01*
X190072167Y-126752481D01*
X185979903Y-128929863D01*
X185507873Y-129149601D01*
X185059335Y-129298907D01*
X184783044Y-129342085D01*
X184455266Y-129275063D01*
X183976853Y-129097504D01*
X183423537Y-128838502D01*
X183289968Y-128768503D01*
X182724400Y-128463999D01*
X182167195Y-128161246D01*
X181718025Y-127914469D01*
X181627665Y-127864170D01*
X181242686Y-127651793D01*
X180711035Y-127362270D01*
X180120796Y-127043462D01*
X179832377Y-126888647D01*
X179442631Y-126679421D01*
X179072879Y-126479413D01*
X178688790Y-126269590D01*
X178256032Y-126030921D01*
X177740276Y-125744374D01*
X177107191Y-125390915D01*
X176322446Y-124951512D01*
X175351711Y-124407133D01*
X174979055Y-124198039D01*
X174329704Y-123813050D01*
X173826256Y-123472397D01*
X173505702Y-123202364D01*
X173418450Y-123089041D01*
X173290299Y-122660353D01*
X173264449Y-122246019D01*
X173808792Y-122246019D01*
X173810470Y-122703096D01*
X173895706Y-122983797D01*
X174008269Y-123113273D01*
X174194852Y-123236392D01*
X174587978Y-123469815D01*
X175159780Y-123798180D01*
X175882392Y-124206124D01*
X176727948Y-124678288D01*
X177668581Y-125199307D01*
X178676426Y-125753821D01*
X179723616Y-126326468D01*
X180782285Y-126901886D01*
X181824567Y-127464714D01*
X182822595Y-127999588D01*
X183748503Y-128491149D01*
X184085905Y-128668777D01*
X184450703Y-128839261D01*
X184738578Y-128937531D01*
X184805705Y-128947014D01*
X184986821Y-128887453D01*
X185353929Y-128723905D01*
X185859165Y-128479071D01*
X186454664Y-128175653D01*
X186669455Y-128063040D01*
X187970348Y-127376104D01*
X189054856Y-126802737D01*
X189941577Y-126331919D01*
X190649107Y-125952629D01*
X191196046Y-125653847D01*
X191600989Y-125424553D01*
X191882535Y-125253727D01*
X192059282Y-125130349D01*
X192149826Y-125043398D01*
X192172766Y-124981854D01*
X192146698Y-124934697D01*
X192090222Y-124890907D01*
X192059490Y-124869108D01*
X191879177Y-124760426D01*
X191686785Y-124718206D01*
X191440311Y-124755172D01*
X191097749Y-124884050D01*
X190617097Y-125117566D01*
X189956351Y-125468444D01*
X189798264Y-125554165D01*
X189181673Y-125874707D01*
X188617772Y-126141556D01*
X188162278Y-126330147D01*
X187870911Y-126415913D01*
X187837781Y-126418563D01*
X187488322Y-126353234D01*
X187068749Y-126187924D01*
X186942493Y-126121098D01*
X186419812Y-125821884D01*
X185370342Y-126387067D01*
X184871209Y-126641235D01*
X184436726Y-126836137D01*
X184136098Y-126941739D01*
X184068077Y-126952250D01*
X183890377Y-126890430D01*
X183511639Y-126715659D01*
X182963423Y-126443969D01*
X182277290Y-126091393D01*
X181484801Y-125673965D01*
X181079876Y-125456279D01*
X187080230Y-125456279D01*
X187105682Y-125563436D01*
X187290263Y-125708449D01*
X187544215Y-125835395D01*
X187773741Y-125888376D01*
X187985488Y-125828626D01*
X188371923Y-125666704D01*
X188874684Y-125428602D01*
X189341418Y-125190208D01*
X189870656Y-124898475D01*
X190299735Y-124637973D01*
X190580853Y-124439333D01*
X190667880Y-124340227D01*
X190563778Y-124160698D01*
X190282754Y-124101545D01*
X189884617Y-124161908D01*
X189429174Y-124340926D01*
X189395456Y-124358535D01*
X189012098Y-124547046D01*
X188711293Y-124667743D01*
X188606283Y-124691517D01*
X188425824Y-124749940D01*
X188099903Y-124896509D01*
X187714419Y-125088178D01*
X187355271Y-125281901D01*
X187108357Y-125434629D01*
X187080230Y-125456279D01*
X181079876Y-125456279D01*
X180617518Y-125207717D01*
X180386196Y-125081854D01*
X179219730Y-124445448D01*
X178265373Y-123923310D01*
X177501845Y-123502159D01*
X176907867Y-123168715D01*
X176462157Y-122909697D01*
X176143435Y-122711824D01*
X175930422Y-122561817D01*
X175801837Y-122446394D01*
X175736400Y-122352275D01*
X175712831Y-122266180D01*
X175709848Y-122174827D01*
X175709863Y-122163464D01*
X175728447Y-122062887D01*
X175801657Y-121958895D01*
X175955685Y-121837880D01*
X176216722Y-121686236D01*
X176610959Y-121490356D01*
X177164588Y-121236632D01*
X177903799Y-120911459D01*
X178854784Y-120501229D01*
X179167455Y-120367180D01*
X180194149Y-119925199D01*
X181002594Y-119570767D01*
X181620307Y-119289755D01*
X182074804Y-119068029D01*
X182393601Y-118891460D01*
X182514109Y-118808182D01*
X183405849Y-118808182D01*
X183517161Y-119128336D01*
X183820802Y-119502137D01*
X184337893Y-119964604D01*
X184352112Y-119976273D01*
X184726800Y-120256496D01*
X185237453Y-120601569D01*
X185838158Y-120984444D01*
X186483003Y-121378073D01*
X187126076Y-121755408D01*
X187721465Y-122089401D01*
X188223257Y-122353004D01*
X188585540Y-122519168D01*
X188744211Y-122563768D01*
X189066005Y-122635558D01*
X189238265Y-122810753D01*
X189206244Y-123029090D01*
X189188322Y-123052646D01*
X188939459Y-123208952D01*
X188822123Y-123228690D01*
X188520907Y-123311269D01*
X188223795Y-123507650D01*
X188033915Y-123740794D01*
X188010911Y-123834660D01*
X188117603Y-123990003D01*
X188387046Y-124036214D01*
X188743291Y-123981468D01*
X189110386Y-123833938D01*
X189316501Y-123694135D01*
X189583746Y-123490858D01*
X189822039Y-123394992D01*
X190099294Y-123409179D01*
X190483428Y-123536061D01*
X191000894Y-123759657D01*
X191924280Y-124141365D01*
X193025951Y-124544129D01*
X194245156Y-124950050D01*
X195521143Y-125341225D01*
X196793161Y-125699756D01*
X198000457Y-126007742D01*
X199082282Y-126247283D01*
X199951564Y-126396938D01*
X200526371Y-126494955D01*
X200859011Y-126615611D01*
X200973248Y-126786053D01*
X200892845Y-127033427D01*
X200724009Y-127279359D01*
X200488854Y-127662467D01*
X200477470Y-127901855D01*
X200689870Y-127997584D01*
X200889699Y-127990500D01*
X201164659Y-127887607D01*
X201392585Y-127612819D01*
X201508816Y-127391061D01*
X201676188Y-127066566D01*
X201846477Y-126858757D01*
X202087195Y-126729043D01*
X202465854Y-126638835D01*
X202957870Y-126562769D01*
X204085718Y-126296522D01*
X205197819Y-125842477D01*
X206248631Y-125233466D01*
X207192613Y-124502323D01*
X207907974Y-123760909D01*
X209625188Y-123760909D01*
X209679330Y-123889094D01*
X209707813Y-123909112D01*
X209937824Y-124052753D01*
X210256872Y-124258613D01*
X210285780Y-124277538D01*
X210553693Y-124452033D01*
X210699648Y-124544893D01*
X210706609Y-124548812D01*
X210777390Y-124449222D01*
X210936332Y-124182589D01*
X211076941Y-123935079D01*
X211262859Y-123561124D01*
X211365096Y-123272165D01*
X211370919Y-123170419D01*
X211230188Y-123025419D01*
X210937004Y-122821395D01*
X210772965Y-122724356D01*
X210229487Y-122419499D01*
X209879143Y-123110869D01*
X209687744Y-123520361D01*
X209625188Y-123760909D01*
X207907974Y-123760909D01*
X207984225Y-123681881D01*
X208577924Y-122804973D01*
X208783527Y-122362748D01*
X208938467Y-121798470D01*
X209051151Y-121044141D01*
X209117616Y-120172910D01*
X209133899Y-119257924D01*
X209096036Y-118372331D01*
X209031602Y-117784201D01*
X208799962Y-116688422D01*
X208438738Y-115579389D01*
X207986341Y-114564028D01*
X207689367Y-114047757D01*
X207058391Y-113240543D01*
X206236100Y-112449884D01*
X205294256Y-111731430D01*
X204304623Y-111140832D01*
X203474206Y-110779068D01*
X202779909Y-110535504D01*
X202334248Y-110967456D01*
X201823820Y-111309575D01*
X201283823Y-111419045D01*
X200769423Y-111308256D01*
X200335788Y-110989601D01*
X200038081Y-110475471D01*
X200029360Y-110449742D01*
X199886460Y-110136144D01*
X199668338Y-109996647D01*
X199397684Y-109955479D01*
X199084599Y-109960218D01*
X198922044Y-110024282D01*
X198915623Y-110045014D01*
X198836490Y-110222260D01*
X198639668Y-110501170D01*
X198571340Y-110584979D01*
X198301411Y-110850876D01*
X198009715Y-110969133D01*
X197620023Y-110994135D01*
X197234373Y-110969501D01*
X196952515Y-110860140D01*
X196664553Y-110612868D01*
X196522703Y-110463062D01*
X196032419Y-109931989D01*
X194515120Y-110120475D01*
X193872730Y-110205089D01*
X193168908Y-110305694D01*
X192453780Y-110414163D01*
X191777473Y-110522368D01*
X191190115Y-110622182D01*
X190741831Y-110705477D01*
X190482749Y-110764127D01*
X190440293Y-110781158D01*
X190398989Y-110919352D01*
X190328308Y-111239617D01*
X190270606Y-111531542D01*
X190171939Y-111955250D01*
X190064596Y-112273333D01*
X190003698Y-112379148D01*
X189826601Y-112445891D01*
X189693250Y-112289845D01*
X189623997Y-111953158D01*
X189627021Y-111599036D01*
X189647197Y-111226006D01*
X189607456Y-111051731D01*
X189475340Y-111010417D01*
X189342170Y-111021619D01*
X189137575Y-111075103D01*
X189030129Y-111222092D01*
X188979391Y-111535855D01*
X188967423Y-111700553D01*
X188929670Y-112084681D01*
X188857767Y-112265888D01*
X188716691Y-112307219D01*
X188634963Y-112298982D01*
X188429855Y-112211561D01*
X188329426Y-111976758D01*
X188302098Y-111758795D01*
X188261351Y-111438166D01*
X188212057Y-111268275D01*
X188200510Y-111260103D01*
X188054793Y-111293449D01*
X187710858Y-111383266D01*
X187226585Y-111514226D01*
X186867982Y-111613037D01*
X185966367Y-111891868D01*
X185318231Y-112167128D01*
X184911897Y-112456058D01*
X184735691Y-112775895D01*
X184777937Y-113143877D01*
X185026959Y-113577244D01*
X185307519Y-113917044D01*
X185694048Y-114304044D01*
X186084417Y-114626045D01*
X186378117Y-114805088D01*
X186668447Y-114975736D01*
X186811050Y-115156358D01*
X186814052Y-115180246D01*
X186700817Y-115401691D01*
X186439328Y-115544413D01*
X186149130Y-115544840D01*
X186098301Y-115567041D01*
X186233422Y-115709890D01*
X186271045Y-115741572D01*
X186496746Y-116029193D01*
X186482277Y-116276699D01*
X186244556Y-116428843D01*
X186053566Y-116451815D01*
X185683685Y-116457140D01*
X186057507Y-116659790D01*
X186349926Y-116892079D01*
X186391122Y-117105145D01*
X186195161Y-117260766D01*
X185814396Y-117320403D01*
X185368015Y-117394983D01*
X184839782Y-117579152D01*
X184306689Y-117834024D01*
X183845727Y-118120714D01*
X183533887Y-118400334D01*
X183465745Y-118506655D01*
X183405849Y-118808182D01*
X182514109Y-118808182D01*
X182604215Y-118745914D01*
X182734162Y-118617261D01*
X182808131Y-118497442D01*
X183031943Y-118123492D01*
X183320752Y-117754947D01*
X183331703Y-117743088D01*
X183529591Y-117510360D01*
X183599950Y-117384603D01*
X183590536Y-117377381D01*
X183528822Y-117395629D01*
X183375711Y-117454945D01*
X183115262Y-117562190D01*
X182731534Y-117724223D01*
X182208586Y-117947903D01*
X181530477Y-118240090D01*
X180681265Y-118607645D01*
X179645010Y-119057425D01*
X178405770Y-119596292D01*
X176947605Y-120231105D01*
X176042324Y-120625462D01*
X173848083Y-121581480D01*
X173808792Y-122246019D01*
X173264449Y-122246019D01*
X173258750Y-122154679D01*
X173325030Y-121699005D01*
X173403273Y-121516270D01*
X173474164Y-121312008D01*
X173398810Y-121076319D01*
X173229274Y-120819907D01*
X173132193Y-120678239D01*
X173037712Y-120515059D01*
X172936822Y-120304985D01*
X172820518Y-120022637D01*
X172679794Y-119642632D01*
X172505641Y-119139589D01*
X172289053Y-118488128D01*
X172021025Y-117662867D01*
X171692548Y-116638424D01*
X171294616Y-115389418D01*
X171229018Y-115183140D01*
X170736860Y-113633886D01*
X170320653Y-112318097D01*
X169975339Y-111215904D01*
X169695859Y-110307443D01*
X169477155Y-109572844D01*
X169314170Y-108992242D01*
X169201845Y-108545769D01*
X169135121Y-108213559D01*
X169127596Y-108145204D01*
X169526094Y-108145204D01*
X169565452Y-108324824D01*
X169676905Y-108725811D01*
X169850519Y-109316528D01*
X170076360Y-110065338D01*
X170344495Y-110940605D01*
X170644990Y-111910691D01*
X170967910Y-112943960D01*
X171303324Y-114008775D01*
X171641296Y-115073500D01*
X171971893Y-116106498D01*
X172285181Y-117076131D01*
X172571228Y-117950764D01*
X172820098Y-118698760D01*
X173021859Y-119288481D01*
X173051263Y-119372145D01*
X173340165Y-120064175D01*
X173639239Y-120548183D01*
X173932764Y-120801685D01*
X174074025Y-120834973D01*
X174221326Y-120783504D01*
X174584692Y-120636873D01*
X175136615Y-120406738D01*
X175849586Y-120104760D01*
X176696097Y-119742599D01*
X177648640Y-119331913D01*
X178679705Y-118884364D01*
X178813481Y-118826086D01*
X179887351Y-118358136D01*
X180915744Y-117910120D01*
X181865635Y-117496416D01*
X182291754Y-117310889D01*
X183755413Y-117310889D01*
X183821905Y-117377381D01*
X183888397Y-117310889D01*
X183821905Y-117244397D01*
X183755413Y-117310889D01*
X182291754Y-117310889D01*
X182704004Y-117131400D01*
X183397826Y-116829451D01*
X183914080Y-116604947D01*
X184219743Y-116472264D01*
X184220858Y-116471781D01*
X184647095Y-116273249D01*
X184972179Y-116095952D01*
X185116466Y-115987213D01*
X185196815Y-115757366D01*
X185222318Y-115441810D01*
X185198424Y-115133279D01*
X185130579Y-114924508D01*
X185052010Y-114890005D01*
X184839596Y-114979803D01*
X184418682Y-115160381D01*
X183824649Y-115416399D01*
X183092877Y-115732520D01*
X182258747Y-116093403D01*
X181357641Y-116483711D01*
X180424940Y-116888104D01*
X179496024Y-117291243D01*
X178606275Y-117677790D01*
X177791074Y-118032406D01*
X177085801Y-118339751D01*
X176525837Y-118584487D01*
X176200505Y-118727433D01*
X175536907Y-119012432D01*
X175071804Y-119190265D01*
X174765813Y-119272724D01*
X174579549Y-119271604D01*
X174507337Y-119234457D01*
X174419684Y-119071919D01*
X174263936Y-118688745D01*
X174051949Y-118117966D01*
X173795580Y-117392613D01*
X173506683Y-116545716D01*
X173197116Y-115610307D01*
X173107712Y-115335064D01*
X172773556Y-114302216D01*
X172441662Y-113276716D01*
X172127779Y-112307200D01*
X171847657Y-111442303D01*
X171617044Y-110730663D01*
X171451690Y-110220914D01*
X171445145Y-110200760D01*
X171271176Y-109631569D01*
X171166283Y-109232111D01*
X171753162Y-109232111D01*
X171797603Y-109486470D01*
X171923769Y-109923837D01*
X171935154Y-109961120D01*
X172160069Y-110685639D01*
X172424949Y-111520945D01*
X172718791Y-112434037D01*
X173030591Y-113391914D01*
X173349344Y-114361576D01*
X173664046Y-115310022D01*
X173963694Y-116204251D01*
X174237283Y-117011262D01*
X174473808Y-117698054D01*
X174662267Y-118231627D01*
X174791654Y-118578980D01*
X174850966Y-118707112D01*
X174851544Y-118707224D01*
X175019908Y-118654130D01*
X175309174Y-118525650D01*
X175323725Y-118518571D01*
X175574631Y-118404167D01*
X176020212Y-118209084D01*
X176609749Y-117955213D01*
X177292521Y-117664444D01*
X177771120Y-117462311D01*
X178561771Y-117127659D01*
X179422442Y-116760173D01*
X180319261Y-116374640D01*
X181218356Y-115985847D01*
X182085856Y-115608582D01*
X182887887Y-115257632D01*
X183590578Y-114947786D01*
X184160058Y-114693829D01*
X184562455Y-114510551D01*
X184763896Y-114412737D01*
X184779844Y-114402514D01*
X184744012Y-114272228D01*
X184592869Y-114002948D01*
X184493400Y-113850331D01*
X184196254Y-113240892D01*
X184158682Y-112680873D01*
X184377226Y-112180265D01*
X184848431Y-111749058D01*
X185305395Y-111503232D01*
X185644751Y-111329603D01*
X185852534Y-111177974D01*
X185883162Y-111125158D01*
X185841564Y-110956439D01*
X185726930Y-110584318D01*
X185554501Y-110053171D01*
X185339517Y-109407377D01*
X185097219Y-108691313D01*
X184842847Y-107949357D01*
X184591643Y-107225888D01*
X184358846Y-106565284D01*
X184159696Y-106011922D01*
X184009436Y-105610181D01*
X183923304Y-105404438D01*
X183912929Y-105388160D01*
X183767973Y-105404418D01*
X183401254Y-105492216D01*
X182844513Y-105642617D01*
X182129490Y-105846686D01*
X181287924Y-106095487D01*
X180351554Y-106380084D01*
X179965361Y-106499524D01*
X178876223Y-106837283D01*
X177758643Y-107182590D01*
X176668808Y-107518173D01*
X175662909Y-107826764D01*
X174797133Y-108091092D01*
X174127669Y-108293886D01*
X174114052Y-108297982D01*
X173411791Y-108512217D01*
X172788605Y-108707968D01*
X172294235Y-108869179D01*
X171978425Y-108979791D01*
X171899767Y-109012766D01*
X171788024Y-109095847D01*
X171753162Y-109232111D01*
X171166283Y-109232111D01*
X171146674Y-109157433D01*
X171084803Y-108833441D01*
X171090778Y-108717700D01*
X171219232Y-108663140D01*
X171556910Y-108546164D01*
X172108952Y-108365160D01*
X172880494Y-108118516D01*
X173876677Y-107804619D01*
X175102638Y-107421857D01*
X176563515Y-106968619D01*
X178264448Y-106443292D01*
X180210575Y-105844265D01*
X182050931Y-105279153D01*
X182722296Y-105081201D01*
X183317364Y-104920642D01*
X183783168Y-104810672D01*
X184066740Y-104764485D01*
X184112188Y-104765648D01*
X184212637Y-104838698D01*
X184339449Y-105040490D01*
X184502712Y-105395299D01*
X184712515Y-105927401D01*
X184978945Y-106661072D01*
X185312092Y-107620585D01*
X185374247Y-107802512D01*
X185663220Y-108648766D01*
X185924657Y-109412278D01*
X186146021Y-110056610D01*
X186314779Y-110545323D01*
X186418394Y-110841980D01*
X186444721Y-110914196D01*
X186596943Y-110980695D01*
X186882646Y-110960139D01*
X187194250Y-110877852D01*
X187424174Y-110759157D01*
X187478973Y-110670741D01*
X187437781Y-110473064D01*
X187323067Y-110067693D01*
X187148128Y-109494509D01*
X186926261Y-108793392D01*
X186670762Y-108004222D01*
X186394928Y-107166879D01*
X186112056Y-106321243D01*
X185835442Y-105507195D01*
X185578382Y-104764615D01*
X185354173Y-104133382D01*
X185176111Y-103653377D01*
X185057494Y-103364480D01*
X185021734Y-103300769D01*
X184899804Y-103276809D01*
X184625068Y-103308066D01*
X184188218Y-103397231D01*
X183579949Y-103546992D01*
X182790954Y-103760038D01*
X181811927Y-104039058D01*
X180633562Y-104386742D01*
X179246552Y-104805777D01*
X177641592Y-105298853D01*
X175809375Y-105868659D01*
X173740594Y-106517884D01*
X172152534Y-107019193D01*
X171267460Y-107301447D01*
X170605209Y-107520170D01*
X170134062Y-107688961D01*
X169822304Y-107821416D01*
X169638216Y-107931134D01*
X169550080Y-108031713D01*
X169526181Y-108136751D01*
X169526094Y-108145204D01*
X169127596Y-108145204D01*
X169108941Y-107975743D01*
X169118246Y-107812456D01*
X169157978Y-107703830D01*
X169223079Y-107629999D01*
X169293371Y-107580521D01*
X169482113Y-107495463D01*
X169856975Y-107348970D01*
X170352103Y-107164746D01*
X170901643Y-106966492D01*
X171439741Y-106777913D01*
X171900541Y-106622711D01*
X172218192Y-106524588D01*
X172252272Y-106515529D01*
X172573637Y-106425387D01*
X173140720Y-106256250D01*
X173945999Y-106010414D01*
X174981952Y-105690176D01*
X176241054Y-105297831D01*
X176241801Y-105297598D01*
X177078706Y-105037353D01*
X178014466Y-104748493D01*
X178924264Y-104469449D01*
X179566408Y-104273995D01*
X180340547Y-104037770D01*
X181175332Y-103780126D01*
X181955350Y-103536815D01*
X182425570Y-103388250D01*
X183267098Y-103148385D01*
X184026300Y-102985902D01*
X184663318Y-102905516D01*
X185138290Y-102911944D01*
X185411355Y-103009904D01*
X185432203Y-103032479D01*
X185503618Y-103195594D01*
X185642692Y-103571863D01*
X185836080Y-104121104D01*
X186070438Y-104803138D01*
X186332421Y-105577785D01*
X186608684Y-106404864D01*
X186885885Y-107244195D01*
X187150677Y-108055599D01*
X187389716Y-108798894D01*
X187589659Y-109433901D01*
X187737161Y-109920439D01*
X187818877Y-110218328D01*
X187819232Y-110219853D01*
X187942735Y-110508686D01*
X188087376Y-110647100D01*
X188293372Y-110608614D01*
X188446904Y-110344192D01*
X188531523Y-109891417D01*
X188542848Y-109606542D01*
X188568231Y-109208946D01*
X188654776Y-109025927D01*
X188742324Y-108999370D01*
X188863189Y-109065620D01*
X188925070Y-109297763D01*
X188941801Y-109722936D01*
X188958639Y-110133265D01*
X189001964Y-110419826D01*
X189041539Y-110501319D01*
X189227300Y-110507351D01*
X189541770Y-110447251D01*
X189562734Y-110441656D01*
X189864417Y-110306470D01*
X190060031Y-110050149D01*
X190169474Y-109771323D01*
X190334911Y-109380873D01*
X190491361Y-109171764D01*
X190605449Y-109158122D01*
X190643797Y-109354072D01*
X190615757Y-109582452D01*
X190581129Y-109932995D01*
X190659900Y-110107583D01*
X190726285Y-110143993D01*
X190930710Y-110152265D01*
X191336923Y-110117241D01*
X191885466Y-110045527D01*
X192496796Y-109947247D01*
X193570167Y-109782195D01*
X194731409Y-109642206D01*
X195913378Y-109532436D01*
X197048927Y-109458042D01*
X198070912Y-109424182D01*
X198912185Y-109436013D01*
X199048607Y-109444025D01*
X200004948Y-109543425D01*
X201069068Y-109710022D01*
X202139476Y-109924208D01*
X203114682Y-110166373D01*
X203673207Y-110337549D01*
X204798689Y-110837688D01*
X205901988Y-111542961D01*
X206917400Y-112400014D01*
X207779222Y-113355491D01*
X208261172Y-114063221D01*
X208701914Y-114885636D01*
X209030427Y-115687476D01*
X209262437Y-116532501D01*
X209413666Y-117484470D01*
X209499840Y-118607142D01*
X209521228Y-119172669D01*
X209547811Y-120019384D01*
X209582945Y-120644962D01*
X209643940Y-121094092D01*
X209748109Y-121411461D01*
X209912765Y-121641757D01*
X210155219Y-121829668D01*
X210492784Y-122019882D01*
X210657729Y-122106314D01*
X211102407Y-122348922D01*
X211502823Y-122584114D01*
X211673175Y-122693684D01*
X211929427Y-122862481D01*
X212345993Y-123128827D01*
X212856787Y-123450696D01*
X213211434Y-123671894D01*
X214094908Y-124247639D01*
X214750809Y-124740419D01*
X215197688Y-125168076D01*
X215454096Y-125548450D01*
X215538587Y-125899382D01*
X215538659Y-125909915D01*
X215451895Y-126474092D01*
X215196457Y-126838730D01*
X214779627Y-127003736D01*
X214208687Y-126969019D01*
X213490919Y-126734484D01*
X212633605Y-126300041D01*
X212071549Y-125953993D01*
X211173714Y-125376625D01*
X212216320Y-125376625D01*
X212321387Y-125515609D01*
X212578443Y-125698516D01*
X212892520Y-125870517D01*
X213168652Y-125976785D01*
X213273249Y-125986829D01*
X213466663Y-125861990D01*
X213707059Y-125593171D01*
X213771941Y-125502082D01*
X213965124Y-125177243D01*
X214069720Y-124927066D01*
X214075832Y-124884831D01*
X213970093Y-124725743D01*
X213700885Y-124506772D01*
X213511691Y-124385364D01*
X212947550Y-124052204D01*
X212583069Y-124671075D01*
X212379379Y-125031108D01*
X212246074Y-125293884D01*
X212216320Y-125376625D01*
X211173714Y-125376625D01*
X211064735Y-125306544D01*
X210218125Y-124778373D01*
G37*
G36*
X188964373Y-114392497D02*
G01*
X189220381Y-114648385D01*
X189261216Y-114742996D01*
X189285522Y-115112654D01*
X189119250Y-115384115D01*
X188830639Y-115520442D01*
X188487928Y-115484703D01*
X188219886Y-115306626D01*
X188029855Y-115006626D01*
X188097066Y-114716824D01*
X188265913Y-114528143D01*
X188619849Y-114346725D01*
X188964373Y-114392497D01*
G37*
G36*
X203008513Y-121293479D02*
G01*
X203109897Y-121381678D01*
X203215497Y-121533281D01*
X203184863Y-121708902D01*
X203000131Y-121993042D01*
X202972773Y-122030300D01*
X202712785Y-122475444D01*
X202653718Y-122817929D01*
X202799204Y-123029094D01*
X202843612Y-123049516D01*
X203116085Y-123025217D01*
X203389570Y-122786556D01*
X203621057Y-122381469D01*
X203724698Y-122067473D01*
X203854844Y-121683918D01*
X204003830Y-121530992D01*
X204084636Y-121528267D01*
X204281024Y-121679959D01*
X204344120Y-121989449D01*
X204287810Y-122393004D01*
X204125984Y-122826889D01*
X203872530Y-123227370D01*
X203668786Y-123436596D01*
X203198106Y-123708439D01*
X202749232Y-123716179D01*
X202326907Y-123459825D01*
X202300677Y-123434211D01*
X202040397Y-123004272D01*
X202008269Y-122501338D01*
X202196180Y-121974548D01*
X202596013Y-121473039D01*
X202629708Y-121441977D01*
X202852223Y-121274921D01*
X203008513Y-121293479D01*
G37*
G36*
X192116412Y-118313700D02*
G01*
X192235233Y-118415223D01*
X192314249Y-118582932D01*
X192227300Y-118750017D01*
X192002511Y-118944589D01*
X191727925Y-119248305D01*
X191605284Y-119569674D01*
X191650112Y-119834939D01*
X191791240Y-119948442D01*
X192035747Y-119917649D01*
X192242863Y-119628709D01*
X192327986Y-119397829D01*
X192475167Y-119149109D01*
X192649941Y-119123296D01*
X192792366Y-119292145D01*
X192842494Y-119627414D01*
X192841934Y-119639980D01*
X192710151Y-120090901D01*
X192411778Y-120407027D01*
X192015812Y-120561423D01*
X191591248Y-120527153D01*
X191207714Y-120277960D01*
X190972965Y-119850029D01*
X190990387Y-119347588D01*
X191203871Y-118868858D01*
X191512248Y-118486696D01*
X191832265Y-118294678D01*
X192116412Y-118313700D01*
G37*
G36*
X187956380Y-119225745D02*
G01*
X188177424Y-119466663D01*
X188225311Y-119803753D01*
X188146583Y-120032044D01*
X187903719Y-120246433D01*
X187563390Y-120306102D01*
X187240369Y-120209562D01*
X187084699Y-120045809D01*
X186955323Y-119644274D01*
X187063166Y-119352443D01*
X187225391Y-119232532D01*
X187619822Y-119131025D01*
X187956380Y-119225745D01*
G37*
G36*
X188744712Y-116616237D02*
G01*
X188894070Y-116747855D01*
X189055148Y-116965942D01*
X189009065Y-117182610D01*
X188972447Y-117244742D01*
X188837096Y-117596780D01*
X188808816Y-117814425D01*
X188737006Y-118145414D01*
X188563115Y-118366851D01*
X188349451Y-118420547D01*
X188232551Y-118352599D01*
X188156128Y-118156821D01*
X188143895Y-118022672D01*
X188023853Y-117798366D01*
X187811434Y-117697959D01*
X187534129Y-117546735D01*
X187465546Y-117342415D01*
X187598416Y-117169820D01*
X187861706Y-117111412D01*
X188266715Y-116994264D01*
X188448250Y-116812198D01*
X188610199Y-116609368D01*
X188744712Y-116616237D01*
G37*
%TO.C,C3*%
X101652400Y-96084400D02*
X101652400Y-101324400D01*
X104392400Y-96084400D02*
X101652400Y-96084400D01*
X104392400Y-96084400D02*
X104392400Y-101324400D01*
X104392400Y-101324400D02*
X101652400Y-101324400D01*
%TO.C,SW3*%
X139646600Y-121082600D02*
X139646600Y-118882600D01*
X140116600Y-123052600D02*
X145316600Y-123052600D01*
X140716600Y-116812600D02*
X145116600Y-116812600D01*
X145886600Y-118882600D02*
X145886600Y-121082600D01*
X144180814Y-119932600D02*
G75*
G03*
X144180814Y-119932600I-1414214J0D01*
G01*
%TO.C,U9*%
X112204200Y-36709200D02*
G75*
G03*
X114204200Y-36709200I1000000J0D01*
G01*
X108064200Y-36649200D02*
X108064200Y-54669200D01*
X118344200Y-36649200D02*
X108064200Y-36649200D01*
X115854200Y-36709200D02*
X114204200Y-36709200D01*
X115854200Y-54609200D02*
X115854200Y-36709200D01*
X112204200Y-36709200D02*
X110554200Y-36709200D01*
X110554200Y-36709200D02*
X110554200Y-54609200D01*
X118344200Y-54669200D02*
X118344200Y-36649200D01*
X108064200Y-54669200D02*
X118344200Y-54669200D01*
X110554200Y-54609200D02*
X115854200Y-54609200D01*
%TO.C,RV1*%
X179581200Y-144932400D02*
X179581200Y-150002400D01*
X169811200Y-144932400D02*
X169811200Y-150002400D01*
X179581200Y-144932400D02*
X169811200Y-144932400D01*
X179581200Y-150002400D02*
X169811200Y-150002400D01*
%TO.C,C7*%
X92503400Y-96079400D02*
X95243400Y-96079400D01*
X92503400Y-101319400D02*
X95243400Y-101319400D01*
X95243400Y-101319400D02*
X95243400Y-96079400D01*
X92503400Y-101319400D02*
X92503400Y-96079400D01*
%TO.C,J4*%
X225572000Y-135900800D02*
X226902000Y-135900800D01*
X224242000Y-138500800D02*
X226902000Y-138500800D01*
X224242000Y-151260800D02*
X226902000Y-151260800D01*
X224242000Y-138500800D02*
X224242000Y-151260800D01*
X226902000Y-138500800D02*
X226902000Y-151260800D01*
X226902000Y-135900800D02*
X226902000Y-137230800D01*
%TO.C,C12*%
X205758200Y-51504200D02*
X208498200Y-51504200D01*
X205758200Y-46264200D02*
X208498200Y-46264200D01*
X205758200Y-51504200D02*
X205758200Y-46264200D01*
X208498200Y-51504200D02*
X208498200Y-46264200D01*
%TO.C,C6*%
X133403400Y-34588200D02*
X138643400Y-34588200D01*
X133403400Y-31848200D02*
X138643400Y-31848200D01*
X138643400Y-31848200D02*
X138643400Y-34588200D01*
X133403400Y-31848200D02*
X133403400Y-34588200D01*
%TO.C,U7*%
X128409600Y-36649200D02*
X128409600Y-54669200D01*
X130899600Y-36709200D02*
X130899600Y-54609200D01*
X136199600Y-54609200D02*
X136199600Y-36709200D01*
X130899600Y-54609200D02*
X136199600Y-54609200D01*
X132549600Y-36709200D02*
X130899600Y-36709200D01*
X136199600Y-36709200D02*
X134549600Y-36709200D01*
X138689600Y-54669200D02*
X138689600Y-36649200D01*
X128409600Y-54669200D02*
X138689600Y-54669200D01*
X138689600Y-36649200D02*
X128409600Y-36649200D01*
X132549600Y-36709200D02*
G75*
G03*
X134549600Y-36709200I1000000J0D01*
G01*
%TO.C,C2*%
X104697200Y-76076800D02*
X101957200Y-76076800D01*
X104697200Y-70836800D02*
X104697200Y-76076800D01*
X101957200Y-70836800D02*
X101957200Y-76076800D01*
X104697200Y-70836800D02*
X101957200Y-70836800D01*
%TO.C,R3*%
X155576600Y-108312600D02*
X155576600Y-111052600D01*
X154806600Y-109682600D02*
X155576600Y-109682600D01*
X162886600Y-109682600D02*
X162116600Y-109682600D01*
X155576600Y-111052600D02*
X162116600Y-111052600D01*
X162116600Y-108312600D02*
X155576600Y-108312600D01*
X162116600Y-111052600D02*
X162116600Y-108312600D01*
%TO.C,U6*%
X152895000Y-36709200D02*
G75*
G03*
X154895000Y-36709200I1000000J0D01*
G01*
X152895000Y-36709200D02*
X151245000Y-36709200D01*
X151245000Y-54609200D02*
X156545000Y-54609200D01*
X156545000Y-36709200D02*
X154895000Y-36709200D01*
X148755000Y-54669200D02*
X159035000Y-54669200D01*
X159035000Y-54669200D02*
X159035000Y-36649200D01*
X156545000Y-54609200D02*
X156545000Y-36709200D01*
X151245000Y-36709200D02*
X151245000Y-54609200D01*
X148755000Y-36649200D02*
X148755000Y-54669200D01*
X159035000Y-36649200D02*
X148755000Y-36649200D01*
%TO.C,SW1*%
X84097400Y-98235400D02*
X84097400Y-102635400D01*
X79827400Y-97165400D02*
X82027400Y-97165400D01*
X77857400Y-97635400D02*
X77857400Y-102835400D01*
X82027400Y-103405400D02*
X79827400Y-103405400D01*
X82391614Y-100285400D02*
G75*
G03*
X82391614Y-100285400I-1414214J0D01*
G01*
%TO.C,R5*%
X162116600Y-122292600D02*
X155576600Y-122292600D01*
X155576600Y-122292600D02*
X155576600Y-125032600D01*
X154806600Y-123662600D02*
X155576600Y-123662600D01*
X162886600Y-123662600D02*
X162116600Y-123662600D01*
X155576600Y-125032600D02*
X162116600Y-125032600D01*
X162116600Y-125032600D02*
X162116600Y-122292600D01*
%TO.C,U4*%
X167742400Y-73404400D02*
X203422400Y-73404400D01*
X203482400Y-75894400D02*
X203482400Y-57994400D01*
X167682400Y-57994400D02*
X167682400Y-75894400D01*
X167742400Y-60484400D02*
X167742400Y-73404400D01*
X167682400Y-75894400D02*
X203482400Y-75894400D01*
X203422400Y-65944400D02*
X203422400Y-60484400D01*
X203422400Y-60484400D02*
X167742400Y-60484400D01*
X203422400Y-73404400D02*
X203422400Y-67944400D01*
X203482400Y-57994400D02*
X167682400Y-57994400D01*
X203422400Y-65944400D02*
G75*
G03*
X203422400Y-67944400I0J-1000000D01*
G01*
%TO.C,U8*%
X203402400Y-98804400D02*
X203402400Y-93344400D01*
X203462400Y-101294400D02*
X203462400Y-83394400D01*
X203402400Y-85884400D02*
X167722400Y-85884400D01*
X167722400Y-85884400D02*
X167722400Y-98804400D01*
X167662400Y-83394400D02*
X167662400Y-101294400D01*
X203462400Y-83394400D02*
X167662400Y-83394400D01*
X167662400Y-101294400D02*
X203462400Y-101294400D01*
X203402400Y-91344400D02*
X203402400Y-85884400D01*
X167722400Y-98804400D02*
X203402400Y-98804400D01*
X203402400Y-91344400D02*
G75*
G03*
X203402400Y-93344400I0J-1000000D01*
G01*
%TO.C,X1*%
X94188600Y-66608600D02*
X82788600Y-66608600D01*
X94938600Y-87508600D02*
X94938600Y-67358600D01*
X82038600Y-67358600D02*
X82038600Y-86758600D01*
X82788600Y-87508600D02*
X94938600Y-87508600D01*
X82788600Y-66608600D02*
G75*
G03*
X82038600Y-67358600I0J-750000D01*
G01*
X94938600Y-67358600D02*
G75*
G03*
X94188600Y-66608600I-750000J0D01*
G01*
X82038600Y-86758600D02*
G75*
G03*
X82788600Y-87508600I750000J0D01*
G01*
%TO.C,C10*%
X189246600Y-78635000D02*
X194486600Y-78635000D01*
X194486600Y-81060000D02*
X194486600Y-81375000D01*
X194486600Y-78635000D02*
X194486600Y-78950000D01*
X189246600Y-81375000D02*
X194486600Y-81375000D01*
X189246600Y-81060000D02*
X189246600Y-81375000D01*
X189246600Y-78635000D02*
X189246600Y-78950000D01*
%TO.C,C8*%
X113165000Y-31848200D02*
X113165000Y-34588200D01*
X118405000Y-31848200D02*
X118405000Y-34588200D01*
X113165000Y-34588200D02*
X118405000Y-34588200D01*
X113165000Y-31848200D02*
X118405000Y-31848200D01*
%TO.C,U1*%
X98127400Y-122535400D02*
X98127400Y-132775400D01*
X82237400Y-127655400D02*
X79697400Y-127655400D01*
X98127400Y-132775400D02*
X82237400Y-132775400D01*
X98127400Y-122535400D02*
X82237400Y-122535400D01*
X82237400Y-130195400D02*
X79697400Y-130195400D01*
X82237400Y-125115400D02*
X79697400Y-125115400D01*
X82237400Y-122535400D02*
X82237400Y-132775400D01*
%TO.C,R6*%
X155576600Y-132032600D02*
X162116600Y-132032600D01*
X162886600Y-130662600D02*
X162116600Y-130662600D01*
X162116600Y-129292600D02*
X155576600Y-129292600D01*
X155576600Y-129292600D02*
X155576600Y-132032600D01*
X162116600Y-132032600D02*
X162116600Y-129292600D01*
X154806600Y-130662600D02*
X155576600Y-130662600D01*
%TO.C,D1*%
X98127400Y-147715400D02*
X98127400Y-146695400D01*
X98127400Y-140235400D02*
X98127400Y-141255400D01*
X99597400Y-142035400D02*
X96657400Y-142035400D01*
X96657400Y-141255400D02*
X96657400Y-146695400D01*
X99597400Y-141255400D02*
X96657400Y-141255400D01*
X96657400Y-146695400D02*
X99597400Y-146695400D01*
X99597400Y-142155400D02*
X96657400Y-142155400D01*
X99597400Y-142275400D02*
X96657400Y-142275400D01*
X99597400Y-146695400D02*
X99597400Y-141255400D01*
%TO.C,J3*%
X156163400Y-147070200D02*
X156163400Y-144410200D01*
X115403400Y-145740200D02*
X115403400Y-144410200D01*
X118003400Y-147070200D02*
X118003400Y-144410200D01*
X118003400Y-147070200D02*
X156163400Y-147070200D01*
X115403400Y-144410200D02*
X116733400Y-144410200D01*
X118003400Y-144410200D02*
X156163400Y-144410200D01*
%TD*%
M02*
