M48
; DRILL file {KiCad (6.0.7)} date Wed Aug 24 20:40:54 2022
; FORMAT={-:-/ absolute / inch / decimal}
; #@! TF.CreationDate,2022-08-24T20:40:54-04:00
; #@! TF.GenerationSoftware,Kicad,Pcbnew,(6.0.7)
; #@! TF.FileFunction,Plated,1,2,PTH
FMAT,2
INCH
; #@! TA.AperFunction,Plated,PTH,ViaDrill
T1C0.0157
; #@! TA.AperFunction,Plated,PTH,ComponentDrill
T2C0.0236
; #@! TA.AperFunction,Plated,PTH,ComponentDrill
T3C0.0315
; #@! TA.AperFunction,Plated,PTH,ComponentDrill
T4C0.0354
; #@! TA.AperFunction,Plated,PTH,ComponentDrill
T5C0.0394
; #@! TA.AperFunction,Plated,PTH,ComponentDrill
T6C0.0433
%
G90
G05
T1
X3.9852Y-2.6784
X4.5133Y-2.6436
X4.8111Y-3.3423
X4.8242Y-2.4774
X4.8473Y-3.5083
X5.0226Y-3.9856
X5.1024Y-2.964
X5.1783Y-3.3694
X5.2031Y-3.4003
X5.2407Y-2.3252
X5.2855Y-2.9951
X5.2979Y-2.6915
X5.3209Y-2.7527
X5.352Y-3.2009
X5.383Y-3.1175
X5.4152Y-3.0601
X5.577Y-2.9044
X5.6462Y-3.2307
X5.6696Y-2.5033
X5.7191Y-2.5318
X5.9743Y-2.7409
X5.9754Y-3.6413
X5.983Y-3.7282
X6.0323Y-3.6391
X6.0719Y-3.3838
X6.1335Y-3.3552
X6.1625Y-3.2902
X6.225Y-2.293
X6.4292Y-3.5704
X6.4309Y-4.0549
X6.4711Y-4.0598
X6.4943Y-4.1846
X6.5041Y-2.2751
X6.5107Y-4.0175
X6.5994Y-4.0538
X6.6041Y-2.2411
X6.7289Y-4.0776
X6.7319Y-4.117
X6.9018Y-4.0301
X6.9553Y-4.0926
X7.0744Y-2.3252
X7.1199Y-4.0003
T2
X2.9065Y-4.0846
X2.9065Y-4.1437
T3
X2.9035Y-2.7472
X2.9579Y-1.9047
X2.9579Y-2.5047
X3.002Y-2.7472
X3.0087Y-3.0535
X3.0185Y-3.8386
X3.0709Y-4.8622
X3.1693Y-4.8622
X3.2579Y-1.9047
X3.2579Y-2.5047
X3.35Y-3.4
X3.35Y-3.4984
X3.4087Y-3.0535
X3.4185Y-3.8386
X3.8189Y-2.3441
X3.8189Y-2.4425
X3.8189Y-3.3457
X3.8189Y-3.4441
X4.0691Y-1.8443
X4.0691Y-2.4443
X4.0691Y-2.8443
X4.0691Y-3.4443
X4.1691Y-1.8443
X4.1691Y-2.4443
X4.1691Y-2.8443
X4.1691Y-3.4443
X4.2691Y-1.8443
X4.2691Y-2.4443
X4.2691Y-2.8443
X4.2691Y-3.4443
X4.3691Y-1.8443
X4.3691Y-2.4443
X4.3691Y-2.8443
X4.3691Y-3.4443
X4.4691Y-1.8443
X4.4691Y-2.4443
X4.4691Y-2.8443
X4.4691Y-3.4443
X4.5691Y-1.8443
X4.5691Y-2.4443
X4.5691Y-2.8443
X4.5691Y-3.4443
X4.6691Y-1.8443
X4.6691Y-2.4443
X4.6691Y-2.8443
X4.6691Y-3.4443
X4.7691Y-1.8443
X4.7691Y-2.4443
X4.7691Y-2.8443
X4.7691Y-3.4443
X4.8691Y-1.8443
X4.8691Y-2.4443
X4.8691Y-2.8443
X4.8691Y-3.4443
X4.9691Y-1.8443
X4.9691Y-2.4443
X4.9691Y-2.8443
X4.9691Y-3.4443
X5.0691Y-1.8443
X5.0691Y-2.4443
X5.0691Y-2.8443
X5.0691Y-3.4443
X5.1691Y-1.8443
X5.1691Y-2.4443
X5.1691Y-2.8443
X5.1691Y-3.4443
X5.2691Y-1.8443
X5.2691Y-2.4443
X5.2691Y-2.8443
X5.2691Y-3.4443
X5.3691Y-1.8443
X5.3691Y-2.4443
X5.3691Y-2.8443
X5.3691Y-3.4443
X5.4691Y-1.8443
X5.4691Y-2.4443
X5.4691Y-2.8443
X5.4691Y-3.4443
X5.5691Y-1.8443
X5.5691Y-2.4443
X5.5691Y-2.8443
X5.5691Y-3.4443
X5.6691Y-1.8443
X5.6691Y-2.4443
X5.6691Y-2.8443
X5.6691Y-3.4443
X5.7691Y-1.8443
X5.7691Y-2.4443
X5.7691Y-2.8443
X5.7691Y-3.4443
X5.8691Y-1.8443
X5.8691Y-2.4443
X5.8691Y-2.8443
X5.8691Y-3.4443
X5.9691Y-1.8443
X5.9691Y-2.4443
X5.9691Y-2.8443
X5.9691Y-3.4443
X6.0827Y-4.4488
X6.0827Y-4.7236
X6.0827Y-4.9992
X6.0827Y-5.2748
X6.4187Y-1.8441
X6.4187Y-2.4441
X6.4187Y-2.8441
X6.4187Y-3.4441
X6.4827Y-4.4488
X6.4827Y-4.7236
X6.4827Y-4.9992
X6.4827Y-5.2748
X6.5187Y-1.8441
X6.5187Y-2.4441
X6.5187Y-2.8441
X6.5187Y-3.4441
X6.6187Y-1.8441
X6.6187Y-2.4441
X6.6187Y-2.8441
X6.6187Y-3.4441
X6.7187Y-1.8441
X6.7187Y-2.4441
X6.7187Y-2.8441
X6.7187Y-3.4441
X6.8187Y-1.8441
X6.8187Y-2.4441
X6.8187Y-2.8441
X6.8187Y-3.4441
X6.9187Y-1.8441
X6.9187Y-2.4441
X6.9187Y-2.8441
X6.9187Y-3.4441
X7.0187Y-1.8441
X7.0187Y-2.4441
X7.0187Y-2.8441
X7.0187Y-3.4441
X7.1187Y-1.8441
X7.1187Y-2.4441
X7.1187Y-2.8441
X7.1187Y-3.4441
X7.2187Y-1.8441
X7.2187Y-2.4441
X7.2187Y-2.8441
X7.2187Y-3.4441
X7.3187Y-1.8441
X7.3187Y-2.4441
X7.3187Y-2.8441
X7.3187Y-3.4441
X7.4187Y-1.8441
X7.4187Y-2.4441
X7.4187Y-2.8441
X7.4187Y-3.4441
X7.5187Y-1.8441
X7.5187Y-2.4441
X7.5187Y-2.8441
X7.5187Y-3.4441
X7.6187Y-1.8441
X7.6187Y-2.4441
X7.6187Y-2.8441
X7.6187Y-3.4441
X7.7187Y-1.8441
X7.7187Y-2.4441
X7.7187Y-2.8441
X7.7187Y-3.4441
X8.0189Y-1.8441
X8.0189Y-1.9425
X8.0189Y-3.35
X8.0189Y-3.4484
X8.2677Y-2.8484
X8.2677Y-2.9484
X8.2677Y-3.0484
X8.2677Y-3.1484
X8.2677Y-3.2484
X8.2677Y-3.3484
X8.2677Y-3.4484
X8.2693Y-1.8441
X8.2693Y-1.9441
X8.2693Y-2.0441
X8.2693Y-2.1441
X8.2693Y-2.2441
X8.2693Y-2.3441
X8.2693Y-2.4441
X8.3268Y-3.7976
X8.3268Y-3.8976
X8.3268Y-3.9976
X8.45Y-2.65
X8.5484Y-2.65
X8.5677Y-2.8484
X8.5677Y-2.9484
X8.5677Y-3.0484
X8.5677Y-3.1484
X8.5677Y-3.2484
X8.5677Y-3.3484
X8.5677Y-3.4484
X8.5693Y-1.8441
X8.5693Y-1.9441
X8.5693Y-2.0441
X8.5693Y-2.1441
X8.5693Y-2.2441
X8.5693Y-2.3441
X8.5693Y-2.4441
T4
X3.435Y-4.064
X3.435Y-4.164
T5
X2.9114Y-3.322
X2.9114Y-3.578
X3.0886Y-3.322
X3.0886Y-3.578
X4.0795Y-3.7941
X4.0795Y-3.8941
X4.1795Y-3.7941
X4.1795Y-3.8941
X4.2795Y-3.7941
X4.2795Y-3.8941
X4.3795Y-3.7941
X4.3795Y-3.8941
X4.4795Y-3.7941
X4.4795Y-3.8941
X4.498Y-4.7539
X4.498Y-4.9311
X4.5795Y-3.7941
X4.5795Y-3.8941
X4.6795Y-3.7941
X4.6795Y-3.8941
X4.7539Y-4.7539
X4.7539Y-4.9311
X4.7795Y-3.7941
X4.7795Y-3.8941
X4.8795Y-3.7941
X4.8795Y-3.8941
X4.9795Y-3.7941
X4.9795Y-3.8941
X5.0295Y-4.3012
X5.0295Y-4.4783
X5.0295Y-5.187
X5.0295Y-5.3642
X5.0795Y-3.7941
X5.0795Y-3.8941
X5.1795Y-3.7941
X5.1795Y-3.8941
X5.2795Y-3.7941
X5.2795Y-3.8941
X5.2854Y-4.3012
X5.2854Y-4.4783
X5.2854Y-5.187
X5.2854Y-5.3642
X5.3795Y-3.7941
X5.3795Y-3.8941
X5.4795Y-3.7941
X5.4795Y-3.8941
X5.5217Y-4.7638
X5.5217Y-4.9409
X5.5795Y-3.7941
X5.5795Y-3.8941
X5.6795Y-3.7941
X5.6795Y-3.8941
X5.7776Y-4.7638
X5.7776Y-4.9409
X5.7795Y-3.7941
X5.7795Y-3.8941
X5.8795Y-3.7941
X5.8795Y-3.8941
X5.9795Y-3.7941
X5.9795Y-3.8941
X6.4691Y-3.8443
X6.5691Y-3.8443
X6.6691Y-3.8443
X6.7691Y-3.8443
X6.8691Y-3.8443
X6.9691Y-3.8443
X7.0691Y-3.8443
X7.1691Y-3.8443
X7.2691Y-3.8443
X7.3691Y-3.8443
X7.4691Y-3.8443
X7.5691Y-3.8443
X7.6691Y-3.8443
X7.7691Y-3.8443
X7.8691Y-3.8443
X7.9691Y-3.8443
T6
X2.9043Y-4.4276
X2.9043Y-4.5276
X2.9043Y-4.6276
X3.6752Y-4.9701
X3.6752Y-5.3701
T5
G00X3.1752Y-5.1592
M15
G01X3.1752Y-5.2379
M16
G05
G00X3.2539Y-5.3836
M15
G01X3.3327Y-5.3836
M16
G05
G00X3.4114Y-5.1592
M15
G01X3.4114Y-5.2379
M16
G05
T0
M30
