%TF.GenerationSoftware,KiCad,Pcbnew,(6.0.7)*%
%TF.CreationDate,2022-08-24T20:40:47-04:00*%
%TF.ProjectId,6502,36353032-2e6b-4696-9361-645f70636258,1.0*%
%TF.SameCoordinates,Original*%
%TF.FileFunction,Copper,L1,Top*%
%TF.FilePolarity,Positive*%
%FSLAX46Y46*%
G04 Gerber Fmt 4.6, Leading zero omitted, Abs format (unit mm)*
G04 Created by KiCad (PCBNEW (6.0.7)) date 2022-08-24 20:40:47*
%MOMM*%
%LPD*%
G01*
G04 APERTURE LIST*
G04 Aperture macros list*
%AMRoundRect*
0 Rectangle with rounded corners*
0 $1 Rounding radius*
0 $2 $3 $4 $5 $6 $7 $8 $9 X,Y pos of 4 corners*
0 Add a 4 corners polygon primitive as box body*
4,1,4,$2,$3,$4,$5,$6,$7,$8,$9,$2,$3,0*
0 Add four circle primitives for the rounded corners*
1,1,$1+$1,$2,$3*
1,1,$1+$1,$4,$5*
1,1,$1+$1,$6,$7*
1,1,$1+$1,$8,$9*
0 Add four rect primitives between the rounded corners*
20,1,$1+$1,$2,$3,$4,$5,0*
20,1,$1+$1,$4,$5,$6,$7,0*
20,1,$1+$1,$6,$7,$8,$9,0*
20,1,$1+$1,$8,$9,$2,$3,0*%
G04 Aperture macros list end*
%TA.AperFunction,ComponentPad*%
%ADD10C,1.200000*%
%TD*%
%TA.AperFunction,ComponentPad*%
%ADD11R,1.700000X1.700000*%
%TD*%
%TA.AperFunction,ComponentPad*%
%ADD12C,1.700000*%
%TD*%
%TA.AperFunction,ComponentPad*%
%ADD13O,1.700000X1.700000*%
%TD*%
%TA.AperFunction,ComponentPad*%
%ADD14R,1.600000X1.600000*%
%TD*%
%TA.AperFunction,ComponentPad*%
%ADD15O,1.600000X1.600000*%
%TD*%
%TA.AperFunction,ComponentPad*%
%ADD16R,1.800000X1.800000*%
%TD*%
%TA.AperFunction,ComponentPad*%
%ADD17C,1.800000*%
%TD*%
%TA.AperFunction,ComponentPad*%
%ADD18C,1.600000*%
%TD*%
%TA.AperFunction,ComponentPad*%
%ADD19R,3.500000X3.500000*%
%TD*%
%TA.AperFunction,ComponentPad*%
%ADD20RoundRect,0.750000X-0.750000X-1.000000X0.750000X-1.000000X0.750000X1.000000X-0.750000X1.000000X0*%
%TD*%
%TA.AperFunction,ComponentPad*%
%ADD21RoundRect,0.875000X-0.875000X-0.875000X0.875000X-0.875000X0.875000X0.875000X-0.875000X0.875000X0*%
%TD*%
%TA.AperFunction,ComponentPad*%
%ADD22C,1.440000*%
%TD*%
%TA.AperFunction,ComponentPad*%
%ADD23R,2.000000X1.905000*%
%TD*%
%TA.AperFunction,ComponentPad*%
%ADD24O,2.000000X1.905000*%
%TD*%
%TA.AperFunction,ComponentPad*%
%ADD25R,2.200000X2.200000*%
%TD*%
%TA.AperFunction,ComponentPad*%
%ADD26O,2.200000X2.200000*%
%TD*%
%TA.AperFunction,ViaPad*%
%ADD27C,0.800000*%
%TD*%
%TA.AperFunction,Conductor*%
%ADD28C,0.250000*%
%TD*%
%TA.AperFunction,Conductor*%
%ADD29C,1.000000*%
%TD*%
G04 APERTURE END LIST*
D10*
%TO.P,C1,1*%
%TO.N,Net-(C1-Pad1)*%
X73825000Y-105250000D03*
%TO.P,C1,2*%
%TO.N,GND*%
X73825000Y-103750000D03*
%TD*%
D11*
%TO.P,SW4,1,1*%
%TO.N,GND*%
X127750000Y-109250000D03*
D12*
X134250000Y-109250000D03*
%TO.P,SW4,2,2*%
%TO.N,/PA2*%
X127750000Y-113750000D03*
X134250000Y-113750000D03*
%TD*%
%TO.P,SW5,1,1*%
%TO.N,GND*%
X134250000Y-131750000D03*
D11*
X127750000Y-131750000D03*
D12*
%TO.P,SW5,2,2*%
%TO.N,/PA3*%
X134250000Y-136250000D03*
X127750000Y-136250000D03*
%TD*%
D11*
%TO.P,J2,1,Pin_1*%
%TO.N,VCC*%
X151880000Y-96370000D03*
D13*
%TO.P,J2,2,Pin_2*%
%TO.N,GND*%
X151880000Y-98910000D03*
%TO.P,J2,3,Pin_3*%
%TO.N,/A0*%
X149340000Y-96370000D03*
%TO.P,J2,4,Pin_4*%
%TO.N,/D0*%
X149340000Y-98910000D03*
%TO.P,J2,5,Pin_5*%
%TO.N,/A1*%
X146800000Y-96370000D03*
%TO.P,J2,6,Pin_6*%
%TO.N,/D1*%
X146800000Y-98910000D03*
%TO.P,J2,7,Pin_7*%
%TO.N,/A2*%
X144260000Y-96370000D03*
%TO.P,J2,8,Pin_8*%
%TO.N,/D2*%
X144260000Y-98910000D03*
%TO.P,J2,9,Pin_9*%
%TO.N,/A3*%
X141720000Y-96370000D03*
%TO.P,J2,10,Pin_10*%
%TO.N,/D3*%
X141720000Y-98910000D03*
%TO.P,J2,11,Pin_11*%
%TO.N,/A4*%
X139180000Y-96370000D03*
%TO.P,J2,12,Pin_12*%
%TO.N,/D4*%
X139180000Y-98910000D03*
%TO.P,J2,13,Pin_13*%
%TO.N,/A5*%
X136640000Y-96370000D03*
%TO.P,J2,14,Pin_14*%
%TO.N,/D5*%
X136640000Y-98910000D03*
%TO.P,J2,15,Pin_15*%
%TO.N,/A6*%
X134100000Y-96370000D03*
%TO.P,J2,16,Pin_16*%
%TO.N,/D6*%
X134100000Y-98910000D03*
%TO.P,J2,17,Pin_17*%
%TO.N,/A7*%
X131560000Y-96370000D03*
%TO.P,J2,18,Pin_18*%
%TO.N,/D7*%
X131560000Y-98910000D03*
%TO.P,J2,19,Pin_19*%
%TO.N,/A8*%
X129020000Y-96370000D03*
%TO.P,J2,20,Pin_20*%
%TO.N,/CB1*%
X129020000Y-98910000D03*
%TO.P,J2,21,Pin_21*%
%TO.N,/A9*%
X126480000Y-96370000D03*
%TO.P,J2,22,Pin_22*%
%TO.N,/CB2*%
X126480000Y-98910000D03*
%TO.P,J2,23,Pin_23*%
%TO.N,/A10*%
X123940000Y-96370000D03*
%TO.P,J2,24,Pin_24*%
%TO.N,unconnected-(J2-Pad24)*%
X123940000Y-98910000D03*
%TO.P,J2,25,Pin_25*%
%TO.N,/A11*%
X121400000Y-96370000D03*
%TO.P,J2,26,Pin_26*%
%TO.N,unconnected-(J2-Pad26)*%
X121400000Y-98910000D03*
%TO.P,J2,27,Pin_27*%
%TO.N,/A12*%
X118860000Y-96370000D03*
%TO.P,J2,28,Pin_28*%
%TO.N,unconnected-(J2-Pad28)*%
X118860000Y-98910000D03*
%TO.P,J2,29,Pin_29*%
%TO.N,/A13*%
X116320000Y-96370000D03*
%TO.P,J2,30,Pin_30*%
%TO.N,unconnected-(J2-Pad30)*%
X116320000Y-98910000D03*
%TO.P,J2,31,Pin_31*%
%TO.N,/A14*%
X113780000Y-96370000D03*
%TO.P,J2,32,Pin_32*%
%TO.N,/PHI1*%
X113780000Y-98910000D03*
%TO.P,J2,33,Pin_33*%
%TO.N,/A15*%
X111240000Y-96370000D03*
%TO.P,J2,34,Pin_34*%
%TO.N,/PHI2*%
X111240000Y-98910000D03*
%TO.P,J2,35,Pin_35*%
X108700000Y-96370000D03*
%TO.P,J2,36,Pin_36*%
%TO.N,/~{PHI2}*%
X108700000Y-98910000D03*
%TO.P,J2,37,Pin_37*%
%TO.N,/~{IRQ}*%
X106160000Y-96370000D03*
%TO.P,J2,38,Pin_38*%
%TO.N,/RDY*%
X106160000Y-98910000D03*
%TO.P,J2,39,Pin_39*%
%TO.N,/~{RW}*%
X103620000Y-96370000D03*
%TO.P,J2,40,Pin_40*%
%TO.N,VCC*%
X103620000Y-98910000D03*
%TD*%
D14*
%TO.P,U3,1,A14*%
%TO.N,/A14*%
X196055000Y-46840000D03*
D15*
%TO.P,U3,2,A12*%
%TO.N,/A12*%
X193515000Y-46840000D03*
%TO.P,U3,3,A7*%
%TO.N,/A7*%
X190975000Y-46840000D03*
%TO.P,U3,4,A6*%
%TO.N,/A6*%
X188435000Y-46840000D03*
%TO.P,U3,5,A5*%
%TO.N,/A5*%
X185895000Y-46840000D03*
%TO.P,U3,6,A4*%
%TO.N,/A4*%
X183355000Y-46840000D03*
%TO.P,U3,7,A3*%
%TO.N,/A3*%
X180815000Y-46840000D03*
%TO.P,U3,8,A2*%
%TO.N,/A2*%
X178275000Y-46840000D03*
%TO.P,U3,9,A1*%
%TO.N,/A1*%
X175735000Y-46840000D03*
%TO.P,U3,10,A0*%
%TO.N,/A0*%
X173195000Y-46840000D03*
%TO.P,U3,11,D0*%
%TO.N,/D0*%
X170655000Y-46840000D03*
%TO.P,U3,12,D1*%
%TO.N,/D1*%
X168115000Y-46840000D03*
%TO.P,U3,13,D2*%
%TO.N,/D2*%
X165575000Y-46840000D03*
%TO.P,U3,14,GND*%
%TO.N,GND*%
X163035000Y-46840000D03*
%TO.P,U3,15,D3*%
%TO.N,/D3*%
X163035000Y-62080000D03*
%TO.P,U3,16,D4*%
%TO.N,/D4*%
X165575000Y-62080000D03*
%TO.P,U3,17,D5*%
%TO.N,/D5*%
X168115000Y-62080000D03*
%TO.P,U3,18,D6*%
%TO.N,/D6*%
X170655000Y-62080000D03*
%TO.P,U3,19,D7*%
%TO.N,/D7*%
X173195000Y-62080000D03*
%TO.P,U3,20,~{CS}*%
%TO.N,/~{ROMCS}*%
X175735000Y-62080000D03*
%TO.P,U3,21,A10*%
%TO.N,/A10*%
X178275000Y-62080000D03*
%TO.P,U3,22,~{OE}*%
%TO.N,/~{ROMCS}*%
X180815000Y-62080000D03*
%TO.P,U3,23,A11*%
%TO.N,/A11*%
X183355000Y-62080000D03*
%TO.P,U3,24,A9*%
%TO.N,/A9*%
X185895000Y-62080000D03*
%TO.P,U3,25,A8*%
%TO.N,/A8*%
X188435000Y-62080000D03*
%TO.P,U3,26,A13*%
%TO.N,/A13*%
X190975000Y-62080000D03*
%TO.P,U3,27,~{WE}*%
%TO.N,VCC*%
X193515000Y-62080000D03*
%TO.P,U3,28,VCC*%
X196055000Y-62080000D03*
%TD*%
D14*
%TO.P,U2,1,~{VP}*%
%TO.N,unconnected-(U2-Pad1)*%
X103355000Y-62085000D03*
D15*
%TO.P,U2,2,RDY*%
%TO.N,/RDY*%
X105895000Y-62085000D03*
%TO.P,U2,3,\u03D51*%
%TO.N,unconnected-(U2-Pad3)*%
X108435000Y-62085000D03*
%TO.P,U2,4,~{IRQ}*%
%TO.N,/~{IRQ}*%
X110975000Y-62085000D03*
%TO.P,U2,5,~{ML}*%
%TO.N,unconnected-(U2-Pad5)*%
X113515000Y-62085000D03*
%TO.P,U2,6,~{NMI}*%
%TO.N,VCC*%
X116055000Y-62085000D03*
%TO.P,U2,7,SYNC*%
%TO.N,unconnected-(U2-Pad7)*%
X118595000Y-62085000D03*
%TO.P,U2,8,VDD*%
%TO.N,VCC*%
X121135000Y-62085000D03*
%TO.P,U2,9,A0*%
%TO.N,/A0*%
X123675000Y-62085000D03*
%TO.P,U2,10,A1*%
%TO.N,/A1*%
X126215000Y-62085000D03*
%TO.P,U2,11,A2*%
%TO.N,/A2*%
X128755000Y-62085000D03*
%TO.P,U2,12,A3*%
%TO.N,/A3*%
X131295000Y-62085000D03*
%TO.P,U2,13,A4*%
%TO.N,/A4*%
X133835000Y-62085000D03*
%TO.P,U2,14,A5*%
%TO.N,/A5*%
X136375000Y-62085000D03*
%TO.P,U2,15,A6*%
%TO.N,/A6*%
X138915000Y-62085000D03*
%TO.P,U2,16,A7*%
%TO.N,/A7*%
X141455000Y-62085000D03*
%TO.P,U2,17,A8*%
%TO.N,/A8*%
X143995000Y-62085000D03*
%TO.P,U2,18,A9*%
%TO.N,/A9*%
X146535000Y-62085000D03*
%TO.P,U2,19,A10*%
%TO.N,/A10*%
X149075000Y-62085000D03*
%TO.P,U2,20,A11*%
%TO.N,/A11*%
X151615000Y-62085000D03*
%TO.P,U2,21,VSS*%
%TO.N,GND*%
X151615000Y-46845000D03*
%TO.P,U2,22,A12*%
%TO.N,/A12*%
X149075000Y-46845000D03*
%TO.P,U2,23,A13*%
%TO.N,/A13*%
X146535000Y-46845000D03*
%TO.P,U2,24,A14*%
%TO.N,/A14*%
X143995000Y-46845000D03*
%TO.P,U2,25,A15*%
%TO.N,/A15*%
X141455000Y-46845000D03*
%TO.P,U2,26,D7*%
%TO.N,/D7*%
X138915000Y-46845000D03*
%TO.P,U2,27,D6*%
%TO.N,/D6*%
X136375000Y-46845000D03*
%TO.P,U2,28,D5*%
%TO.N,/D5*%
X133835000Y-46845000D03*
%TO.P,U2,29,D4*%
%TO.N,/D4*%
X131295000Y-46845000D03*
%TO.P,U2,30,D3*%
%TO.N,/D3*%
X128755000Y-46845000D03*
%TO.P,U2,31,D2*%
%TO.N,/D2*%
X126215000Y-46845000D03*
%TO.P,U2,32,D1*%
%TO.N,/D1*%
X123675000Y-46845000D03*
%TO.P,U2,33,D0*%
%TO.N,/D0*%
X121135000Y-46845000D03*
%TO.P,U2,34,R/~{W}*%
%TO.N,/~{RW}*%
X118595000Y-46845000D03*
%TO.P,U2,35,nc*%
%TO.N,unconnected-(U2-Pad35)*%
X116055000Y-46845000D03*
%TO.P,U2,36,BE*%
%TO.N,/RDY*%
X113515000Y-46845000D03*
%TO.P,U2,37,\u03D50*%
%TO.N,/PHI2*%
X110975000Y-46845000D03*
%TO.P,U2,38,~{SO}*%
%TO.N,VCC*%
X108435000Y-46845000D03*
%TO.P,U2,39,\u03D52*%
%TO.N,unconnected-(U2-Pad39)*%
X105895000Y-46845000D03*
%TO.P,U2,40,~{RES}*%
%TO.N,/~{RES}*%
X103355000Y-46845000D03*
%TD*%
D16*
%TO.P,D2,1,K*%
%TO.N,Net-(D2-Pad1)*%
X87250000Y-103225000D03*
D17*
%TO.P,D2,2,A*%
%TO.N,VCC*%
X87250000Y-105765000D03*
%TD*%
D18*
%TO.P,C9,1*%
%TO.N,GND*%
X80500000Y-123500000D03*
%TO.P,C9,2*%
%TO.N,VCC*%
X78000000Y-123500000D03*
%TD*%
%TO.P,C5,1*%
%TO.N,GND*%
X203680000Y-85090000D03*
%TO.P,C5,2*%
%TO.N,VCC*%
X203680000Y-87590000D03*
%TD*%
%TO.P,R2,1*%
%TO.N,VCC*%
X76420000Y-77560000D03*
D15*
%TO.P,R2,2*%
%TO.N,/~{RES}*%
X86580000Y-77560000D03*
%TD*%
D18*
%TO.P,C4,1*%
%TO.N,GND*%
X203680000Y-46840000D03*
%TO.P,C4,2*%
%TO.N,VCC*%
X203680000Y-49340000D03*
%TD*%
D12*
%TO.P,SW2,1,1*%
%TO.N,GND*%
X120750000Y-120750000D03*
D11*
X114250000Y-120750000D03*
D12*
%TO.P,SW2,2,2*%
%TO.N,/PA0*%
X114250000Y-125250000D03*
X120750000Y-125250000D03*
%TD*%
D18*
%TO.P,R1,1*%
%TO.N,Net-(D2-Pad1)*%
X86830000Y-97500000D03*
D15*
%TO.P,R1,2*%
%TO.N,GND*%
X76670000Y-97500000D03*
%TD*%
D14*
%TO.P,U5,1,VSS*%
%TO.N,GND*%
X103355000Y-87485000D03*
D15*
%TO.P,U5,2,PA0*%
%TO.N,/PA0*%
X105895000Y-87485000D03*
%TO.P,U5,3,PA1*%
%TO.N,/PA1*%
X108435000Y-87485000D03*
%TO.P,U5,4,PA2*%
%TO.N,/PA2*%
X110975000Y-87485000D03*
%TO.P,U5,5,PA3*%
%TO.N,/PA3*%
X113515000Y-87485000D03*
%TO.P,U5,6,PA4*%
%TO.N,/PA4*%
X116055000Y-87485000D03*
%TO.P,U5,7,PA5*%
%TO.N,/PA5*%
X118595000Y-87485000D03*
%TO.P,U5,8,PA6*%
%TO.N,/PA6*%
X121135000Y-87485000D03*
%TO.P,U5,9,PA7*%
%TO.N,/PA7*%
X123675000Y-87485000D03*
%TO.P,U5,10,PB0*%
%TO.N,/PB0*%
X126215000Y-87485000D03*
%TO.P,U5,11,PB1*%
%TO.N,/PB1*%
X128755000Y-87485000D03*
%TO.P,U5,12,PB2*%
%TO.N,/PB2*%
X131295000Y-87485000D03*
%TO.P,U5,13,PB3*%
%TO.N,/PB3*%
X133835000Y-87485000D03*
%TO.P,U5,14,PB4*%
%TO.N,/PB4*%
X136375000Y-87485000D03*
%TO.P,U5,15,PB5*%
%TO.N,/PB5*%
X138915000Y-87485000D03*
%TO.P,U5,16,PB6*%
%TO.N,/PB6*%
X141455000Y-87485000D03*
%TO.P,U5,17,PB7*%
%TO.N,/PB7*%
X143995000Y-87485000D03*
%TO.P,U5,18,CB1*%
%TO.N,/CB1*%
X146535000Y-87485000D03*
%TO.P,U5,19,CB2*%
%TO.N,/CB2*%
X149075000Y-87485000D03*
%TO.P,U5,20,VCC*%
%TO.N,VCC*%
X151615000Y-87485000D03*
%TO.P,U5,21,~{IRQ}*%
%TO.N,/~{IRQ}*%
X151615000Y-72245000D03*
%TO.P,U5,22,R/~{W}*%
%TO.N,/~{RW}*%
X149075000Y-72245000D03*
%TO.P,U5,23,~{CS2}*%
%TO.N,/~{VIACS2}*%
X146535000Y-72245000D03*
%TO.P,U5,24,CS1*%
%TO.N,/A13*%
X143995000Y-72245000D03*
%TO.P,U5,25,\u03D52*%
%TO.N,/PHI2*%
X141455000Y-72245000D03*
%TO.P,U5,26,D7*%
%TO.N,/D7*%
X138915000Y-72245000D03*
%TO.P,U5,27,D6*%
%TO.N,/D6*%
X136375000Y-72245000D03*
%TO.P,U5,28,D5*%
%TO.N,/D5*%
X133835000Y-72245000D03*
%TO.P,U5,29,D4*%
%TO.N,/D4*%
X131295000Y-72245000D03*
%TO.P,U5,30,D3*%
%TO.N,/D3*%
X128755000Y-72245000D03*
%TO.P,U5,31,D2*%
%TO.N,/D2*%
X126215000Y-72245000D03*
%TO.P,U5,32,D1*%
%TO.N,/D1*%
X123675000Y-72245000D03*
%TO.P,U5,33,D0*%
%TO.N,/D0*%
X121135000Y-72245000D03*
%TO.P,U5,34,~{RES}*%
%TO.N,/~{RES}*%
X118595000Y-72245000D03*
%TO.P,U5,35,RS3*%
%TO.N,/A3*%
X116055000Y-72245000D03*
%TO.P,U5,36,RS2*%
%TO.N,/A2*%
X113515000Y-72245000D03*
%TO.P,U5,37,RS1*%
%TO.N,/A1*%
X110975000Y-72245000D03*
%TO.P,U5,38,RS0*%
%TO.N,/A0*%
X108435000Y-72245000D03*
%TO.P,U5,39,CA2*%
%TO.N,/CA2*%
X105895000Y-72245000D03*
%TO.P,U5,40,CA1*%
%TO.N,/CA1*%
X103355000Y-72245000D03*
%TD*%
D19*
%TO.P,J1,1*%
%TO.N,Net-(D1-Pad2)*%
X86650000Y-132042500D03*
D20*
%TO.P,J1,2*%
%TO.N,GND*%
X80650000Y-132042500D03*
D21*
%TO.P,J1,3*%
%TO.N,N/C*%
X83650000Y-136742500D03*
%TD*%
D18*
%TO.P,R4,1*%
%TO.N,VCC*%
X154500000Y-119980000D03*
D15*
%TO.P,R4,2*%
%TO.N,/PA1*%
X164660000Y-119980000D03*
%TD*%
D18*
%TO.P,C3,1*%
%TO.N,GND*%
X97000000Y-87480000D03*
%TO.P,C3,2*%
%TO.N,VCC*%
X97000000Y-84980000D03*
%TD*%
D12*
%TO.P,SW3,1,1*%
%TO.N,GND*%
X146750000Y-121000000D03*
D11*
X140250000Y-121000000D03*
D12*
%TO.P,SW3,2,2*%
%TO.N,/PA1*%
X146750000Y-125500000D03*
X140250000Y-125500000D03*
%TD*%
D22*
%TO.P,RV1,1,1*%
%TO.N,/CNTRST*%
X211500000Y-96460000D03*
%TO.P,RV1,2,2*%
%TO.N,GND*%
X211500000Y-99000000D03*
%TO.P,RV1,3,3*%
%TO.N,VCC*%
X211500000Y-101540000D03*
%TD*%
D18*
%TO.P,C7,1*%
%TO.N,GND*%
X85090000Y-86360000D03*
%TO.P,C7,2*%
%TO.N,/~{RES}*%
X85090000Y-88860000D03*
%TD*%
%TO.P,C6,1*%
%TO.N,GND*%
X214630000Y-67310000D03*
%TO.P,C6,2*%
%TO.N,VCC*%
X217130000Y-67310000D03*
%TD*%
D14*
%TO.P,U7,1*%
%TO.N,/PHI2*%
X210040000Y-46840000D03*
D15*
%TO.P,U7,2*%
X210040000Y-49380000D03*
%TO.P,U7,3*%
%TO.N,/~{PHI2}*%
X210040000Y-51920000D03*
%TO.P,U7,4*%
%TO.N,Net-(U7-Pad11)*%
X210040000Y-54460000D03*
%TO.P,U7,5*%
X210040000Y-57000000D03*
%TO.P,U7,6*%
%TO.N,/~{RAMCS}*%
X210040000Y-59540000D03*
%TO.P,U7,7,GND*%
%TO.N,GND*%
X210040000Y-62080000D03*
%TO.P,U7,8*%
%TO.N,Net-(U7-Pad12)*%
X217660000Y-62080000D03*
%TO.P,U7,9*%
%TO.N,/~{PHI2}*%
X217660000Y-59540000D03*
%TO.P,U7,10*%
%TO.N,/~{A14}*%
X217660000Y-57000000D03*
%TO.P,U7,11*%
%TO.N,Net-(U7-Pad11)*%
X217660000Y-54460000D03*
%TO.P,U7,12*%
%TO.N,Net-(U7-Pad12)*%
X217660000Y-51920000D03*
%TO.P,U7,13*%
%TO.N,/RDY*%
X217660000Y-49380000D03*
%TO.P,U7,14,VCC*%
%TO.N,VCC*%
X217660000Y-46840000D03*
%TD*%
D18*
%TO.P,C2,1*%
%TO.N,VCC*%
X97000000Y-62040000D03*
%TO.P,C2,2*%
%TO.N,GND*%
X97000000Y-59540000D03*
%TD*%
%TO.P,R3,1*%
%TO.N,VCC*%
X154500000Y-113000000D03*
D15*
%TO.P,R3,2*%
%TO.N,/PA0*%
X164660000Y-113000000D03*
%TD*%
D14*
%TO.P,U6,1*%
%TO.N,/A14*%
X210000000Y-72350000D03*
D15*
%TO.P,U6,2*%
X210000000Y-74890000D03*
%TO.P,U6,3*%
%TO.N,/~{A14}*%
X210000000Y-77430000D03*
%TO.P,U6,4*%
%TO.N,/A14*%
X210000000Y-79970000D03*
%TO.P,U6,5*%
%TO.N,/~{A15}*%
X210000000Y-82510000D03*
%TO.P,U6,6*%
%TO.N,/~{VIACS2}*%
X210000000Y-85050000D03*
%TO.P,U6,7,GND*%
%TO.N,GND*%
X210000000Y-87590000D03*
%TO.P,U6,8*%
%TO.N,/~{A15}*%
X217620000Y-87590000D03*
%TO.P,U6,9*%
%TO.N,/A15*%
X217620000Y-85050000D03*
%TO.P,U6,10*%
X217620000Y-82510000D03*
%TO.P,U6,11*%
%TO.N,/~{ROMCS}*%
X217620000Y-79970000D03*
%TO.P,U6,12*%
%TO.N,/A14*%
X217620000Y-77430000D03*
%TO.P,U6,13*%
%TO.N,/A15*%
X217620000Y-74890000D03*
%TO.P,U6,14,VCC*%
%TO.N,VCC*%
X217620000Y-72350000D03*
%TD*%
D12*
%TO.P,SW1,1,1*%
%TO.N,GND*%
X78450000Y-90880000D03*
D11*
X78450000Y-84380000D03*
D12*
%TO.P,SW1,2,2*%
%TO.N,/~{RES}*%
X73950000Y-84380000D03*
X73950000Y-90880000D03*
%TD*%
D18*
%TO.P,R5,1*%
%TO.N,VCC*%
X154500000Y-126980000D03*
D15*
%TO.P,R5,2*%
%TO.N,/PA2*%
X164660000Y-126980000D03*
%TD*%
D14*
%TO.P,U4,1,A14*%
%TO.N,/A15*%
X196055000Y-72240000D03*
D15*
%TO.P,U4,2,A12*%
%TO.N,/A12*%
X193515000Y-72240000D03*
%TO.P,U4,3,A7*%
%TO.N,/A7*%
X190975000Y-72240000D03*
%TO.P,U4,4,A6*%
%TO.N,/A6*%
X188435000Y-72240000D03*
%TO.P,U4,5,A5*%
%TO.N,/A5*%
X185895000Y-72240000D03*
%TO.P,U4,6,A4*%
%TO.N,/A4*%
X183355000Y-72240000D03*
%TO.P,U4,7,A3*%
%TO.N,/A3*%
X180815000Y-72240000D03*
%TO.P,U4,8,A2*%
%TO.N,/A2*%
X178275000Y-72240000D03*
%TO.P,U4,9,A1*%
%TO.N,/A1*%
X175735000Y-72240000D03*
%TO.P,U4,10,A0*%
%TO.N,/A0*%
X173195000Y-72240000D03*
%TO.P,U4,11,Q0*%
%TO.N,/D0*%
X170655000Y-72240000D03*
%TO.P,U4,12,Q1*%
%TO.N,/D1*%
X168115000Y-72240000D03*
%TO.P,U4,13,Q2*%
%TO.N,/D2*%
X165575000Y-72240000D03*
%TO.P,U4,14,GND*%
%TO.N,GND*%
X163035000Y-72240000D03*
%TO.P,U4,15,Q3*%
%TO.N,/D3*%
X163035000Y-87480000D03*
%TO.P,U4,16,Q4*%
%TO.N,/D4*%
X165575000Y-87480000D03*
%TO.P,U4,17,Q5*%
%TO.N,/D5*%
X168115000Y-87480000D03*
%TO.P,U4,18,Q6*%
%TO.N,/D6*%
X170655000Y-87480000D03*
%TO.P,U4,19,Q7*%
%TO.N,/D7*%
X173195000Y-87480000D03*
%TO.P,U4,20,~{CS}*%
%TO.N,/~{RAMCS}*%
X175735000Y-87480000D03*
%TO.P,U4,21,A10*%
%TO.N,/A10*%
X178275000Y-87480000D03*
%TO.P,U4,22,~{OE}*%
%TO.N,/A14*%
X180815000Y-87480000D03*
%TO.P,U4,23,A11*%
%TO.N,/A11*%
X183355000Y-87480000D03*
%TO.P,U4,24,A9*%
%TO.N,/A9*%
X185895000Y-87480000D03*
%TO.P,U4,25,A8*%
%TO.N,/A8*%
X188435000Y-87480000D03*
%TO.P,U4,26,A13*%
%TO.N,/A13*%
X190975000Y-87480000D03*
%TO.P,U4,27,~{WE}*%
%TO.N,/~{RW}*%
X193515000Y-87480000D03*
%TO.P,U4,28,VCC*%
%TO.N,VCC*%
X196055000Y-87480000D03*
%TD*%
D14*
%TO.P,X1,1,EN*%
%TO.N,unconnected-(X1-Pad1)*%
X82750000Y-63620000D03*
D18*
%TO.P,X1,7,GND*%
%TO.N,GND*%
X82750000Y-48380000D03*
%TO.P,X1,8,OUT*%
%TO.N,/PHI1*%
X75130000Y-48380000D03*
%TO.P,X1,14,Vcc*%
%TO.N,VCC*%
X75130000Y-63620000D03*
%TD*%
%TO.P,C8,1*%
%TO.N,GND*%
X76250000Y-69780000D03*
%TO.P,C8,2*%
%TO.N,VCC*%
X73750000Y-69780000D03*
%TD*%
D23*
%TO.P,U1,1,IN*%
%TO.N,Net-(C1-Pad1)*%
X73770000Y-112460000D03*
D24*
%TO.P,U1,2,GND*%
%TO.N,GND*%
X73770000Y-115000000D03*
%TO.P,U1,3,OUT*%
%TO.N,VCC*%
X73770000Y-117540000D03*
%TD*%
D18*
%TO.P,R6,1*%
%TO.N,VCC*%
X154500000Y-133980000D03*
D15*
%TO.P,R6,2*%
%TO.N,/PA3*%
X164660000Y-133980000D03*
%TD*%
D25*
%TO.P,D1,1,K*%
%TO.N,Net-(C1-Pad1)*%
X93350000Y-126240000D03*
D26*
%TO.P,D1,2,A*%
%TO.N,Net-(D1-Pad2)*%
X93350000Y-136400000D03*
%TD*%
D11*
%TO.P,J3,1,Pin_1*%
%TO.N,VCC*%
X164315000Y-97645000D03*
D13*
%TO.P,J3,2,Pin_2*%
%TO.N,GND*%
X166855000Y-97645000D03*
%TO.P,J3,3,Pin_3*%
%TO.N,/CNTRST*%
X169395000Y-97645000D03*
%TO.P,J3,4,Pin_4*%
%TO.N,/PA5*%
X171935000Y-97645000D03*
%TO.P,J3,5,Pin_5*%
%TO.N,/PA6*%
X174475000Y-97645000D03*
%TO.P,J3,6,Pin_6*%
%TO.N,/PA7*%
X177015000Y-97645000D03*
%TO.P,J3,7,Pin_7*%
%TO.N,/PB0*%
X179555000Y-97645000D03*
%TO.P,J3,8,Pin_8*%
%TO.N,/PB1*%
X182095000Y-97645000D03*
%TO.P,J3,9,Pin_9*%
%TO.N,/PB2*%
X184635000Y-97645000D03*
%TO.P,J3,10,Pin_10*%
%TO.N,/PB3*%
X187175000Y-97645000D03*
%TO.P,J3,11,Pin_11*%
%TO.N,/PB4*%
X189715000Y-97645000D03*
%TO.P,J3,12,Pin_12*%
%TO.N,/PB5*%
X192255000Y-97645000D03*
%TO.P,J3,13,Pin_13*%
%TO.N,/PB6*%
X194795000Y-97645000D03*
%TO.P,J3,14,Pin_14*%
%TO.N,/PB7*%
X197335000Y-97645000D03*
%TO.P,J3,15,Pin_15*%
%TO.N,VCC*%
X199875000Y-97645000D03*
%TO.P,J3,16,Pin_16*%
%TO.N,GND*%
X202415000Y-97645000D03*
%TD*%
D27*
%TO.N,/~{PHI2}*%
X164954100Y-106289300D03*
%TO.N,/~{VIACS2}*%
X151746800Y-69619500D03*
%TO.N,/PB7*%
X151968400Y-94696200D03*
%TO.N,/~{RES}*%
X101224000Y-68031900D03*
%TO.N,/D0*%
X114638800Y-67146700D03*
%TO.N,/D1*%
X122534000Y-62925700D03*
%TO.N,/D2*%
X134252300Y-76075600D03*
%TO.N,/D3*%
X158113900Y-58241000D03*
%TO.N,/D4*%
X131529800Y-85583700D03*
X165203900Y-57786900D03*
%TO.N,/D5*%
X167743600Y-56924500D03*
%TO.N,/D6*%
X165370900Y-102044100D03*
X144008200Y-63583100D03*
%TO.N,/D7*%
X167625100Y-102965500D03*
X145265000Y-64308400D03*
%TO.N,/A14*%
X176665200Y-103953200D03*
%TO.N,/A11*%
X143413200Y-82058900D03*
%TO.N,/A10*%
X170915200Y-103571200D03*
%TO.N,/A9*%
X136728100Y-79183300D03*
X122201400Y-84894100D03*
%TO.N,/A8*%
X163302600Y-90687000D03*
X163344700Y-102995600D03*
%TO.N,/A7*%
X135940900Y-81302700D03*
X123121900Y-89110400D03*
%TO.N,/A6*%
X135151900Y-69918300D03*
X129600300Y-75285200D03*
%TO.N,/A4*%
X132159600Y-86368800D03*
%TO.N,/~{IRQ}*%
X141655700Y-73771700D03*
%TO.N,/PB2*%
X180846300Y-101608500D03*
%TO.N,/PB1*%
X151776100Y-92489200D03*
%TO.N,/PB0*%
X175304900Y-102365800D03*
%TO.N,/PA7*%
X170991500Y-104571600D03*
%TO.N,/PA6*%
X153219600Y-92432000D03*
%TO.N,/PA5*%
X164365300Y-103118000D03*
X127573300Y-101233200D03*
%TO.N,/A3*%
X179689700Y-59059900D03*
X133112800Y-59059900D03*
%TO.N,/A2*%
X134567000Y-68363000D03*
X154226700Y-85947400D03*
%TO.N,/A1*%
X155790500Y-85222000D03*
%TO.N,/A0*%
X156526800Y-83570900D03*
X137546300Y-77727400D03*
%TD*%
D28*
%TO.N,/~{PHI2}*%
X210040000Y-51920000D02*
X217660000Y-59540000D01*
X109875300Y-99277300D02*
X109875300Y-98910000D01*
X116887300Y-106289300D02*
X109875300Y-99277300D01*
X164954100Y-106289300D02*
X116887300Y-106289300D01*
X108700000Y-98910000D02*
X109875300Y-98910000D01*
%TO.N,Net-(U7-Pad12)*%
X219420000Y-62080000D02*
X217660000Y-62080000D01*
X219500000Y-62000000D02*
X219420000Y-62080000D01*
X219500000Y-55641000D02*
X219500000Y-62000000D01*
X218785000Y-54926000D02*
X219500000Y-55641000D01*
X218785000Y-53045000D02*
X218785000Y-54926000D01*
X217660000Y-51920000D02*
X218785000Y-53045000D01*
%TO.N,Net-(U7-Pad11)*%
X210040000Y-57000000D02*
X210040000Y-54460000D01*
X213705000Y-60665000D02*
X210040000Y-57000000D01*
X218185000Y-60665000D02*
X213705000Y-60665000D01*
X218785000Y-60065000D02*
X218185000Y-60665000D01*
X218785000Y-59074000D02*
X218785000Y-60065000D01*
X217836000Y-58125000D02*
X218785000Y-59074000D01*
X217194000Y-58125000D02*
X217836000Y-58125000D01*
X216535000Y-57466000D02*
X217194000Y-58125000D01*
X216535000Y-55585000D02*
X216535000Y-57466000D01*
X217660000Y-54460000D02*
X216535000Y-55585000D01*
%TO.N,/~{A15}*%
X215080000Y-87590000D02*
X210000000Y-82510000D01*
X217620000Y-87590000D02*
X215080000Y-87590000D01*
%TO.N,/~{VIACS2}*%
X177293700Y-69619500D02*
X151746800Y-69619500D01*
X179545000Y-71870800D02*
X177293700Y-69619500D01*
X179545000Y-72627100D02*
X179545000Y-71870800D01*
X190842600Y-83924700D02*
X179545000Y-72627100D01*
X207749400Y-83924700D02*
X190842600Y-83924700D01*
X208874700Y-85050000D02*
X207749400Y-83924700D01*
X210000000Y-85050000D02*
X208874700Y-85050000D01*
%TO.N,/PA3*%
X127750000Y-136250000D02*
X134250000Y-136250000D01*
%TO.N,/PA2*%
X134250000Y-113750000D02*
X127750000Y-113750000D01*
X136133500Y-111866500D02*
X134250000Y-113750000D01*
X165135300Y-111866500D02*
X136133500Y-111866500D01*
X165787700Y-112518900D02*
X165135300Y-111866500D01*
X165787700Y-124727000D02*
X165787700Y-112518900D01*
X164660000Y-125854700D02*
X165787700Y-124727000D01*
X164660000Y-126980000D02*
X164660000Y-125854700D01*
%TO.N,/PA1*%
X140250000Y-125500000D02*
X146750000Y-125500000D01*
X158014700Y-125500000D02*
X163534700Y-119980000D01*
X146750000Y-125500000D02*
X158014700Y-125500000D01*
X164660000Y-119980000D02*
X163534700Y-119980000D01*
%TO.N,/PA0*%
X120750000Y-125250000D02*
X114250000Y-125250000D01*
X129510000Y-116490000D02*
X120750000Y-125250000D01*
X160044700Y-116490000D02*
X129510000Y-116490000D01*
X163534700Y-113000000D02*
X160044700Y-116490000D01*
X164660000Y-113000000D02*
X163534700Y-113000000D01*
%TO.N,/PB7*%
X151206200Y-94696200D02*
X143995000Y-87485000D01*
X151968400Y-94696200D02*
X151206200Y-94696200D01*
%TO.N,/~{ROMCS}*%
X217620000Y-79970000D02*
X216494700Y-79970000D01*
X182900400Y-64165400D02*
X180815000Y-62080000D01*
X187074400Y-64165400D02*
X182900400Y-64165400D01*
X194929600Y-72020600D02*
X187074400Y-64165400D01*
X194929600Y-73185400D02*
X194929600Y-72020600D01*
X202904800Y-81160600D02*
X194929600Y-73185400D01*
X215304100Y-81160600D02*
X202904800Y-81160600D01*
X216494700Y-79970000D02*
X215304100Y-81160600D01*
X176876700Y-63221700D02*
X175735000Y-62080000D01*
X178829300Y-63221700D02*
X176876700Y-63221700D01*
X179689700Y-62361300D02*
X178829300Y-63221700D01*
X179689700Y-62080000D02*
X179689700Y-62361300D01*
X180815000Y-62080000D02*
X179689700Y-62080000D01*
%TO.N,/~{RES}*%
X73950000Y-86840000D02*
X73950000Y-84380000D01*
X75970000Y-88860000D02*
X73950000Y-86840000D01*
X73950000Y-90880000D02*
X75970000Y-88860000D01*
X75970000Y-88860000D02*
X85090000Y-88860000D01*
X113537900Y-68031900D02*
X101224000Y-68031900D01*
X117469700Y-71963700D02*
X113537900Y-68031900D01*
X117469700Y-72245000D02*
X117469700Y-71963700D01*
X118595000Y-72245000D02*
X117469700Y-72245000D01*
%TO.N,/PB6*%
X194795000Y-97645000D02*
X193619700Y-97645000D01*
X141455000Y-87485000D02*
X142580300Y-87485000D01*
X193619700Y-97277600D02*
X193619700Y-97645000D01*
X191892400Y-95550300D02*
X193619700Y-97277600D01*
X174894100Y-95550300D02*
X191892400Y-95550300D01*
X173205000Y-97239400D02*
X174894100Y-95550300D01*
X173205000Y-98049300D02*
X173205000Y-97239400D01*
X171965300Y-99289000D02*
X173205000Y-98049300D01*
X153409900Y-99289000D02*
X171965300Y-99289000D01*
X152594200Y-100104700D02*
X153409900Y-99289000D01*
X151412000Y-100104700D02*
X152594200Y-100104700D01*
X150673200Y-99365900D02*
X151412000Y-100104700D01*
X150673200Y-96002100D02*
X150673200Y-99365900D01*
X142580300Y-87909200D02*
X150673200Y-96002100D01*
X142580300Y-87485000D02*
X142580300Y-87909200D01*
%TO.N,/PB5*%
X140040300Y-87933600D02*
X140040300Y-87485000D01*
X148070000Y-95963300D02*
X140040300Y-87933600D01*
X148070000Y-99369700D02*
X148070000Y-95963300D01*
X149269100Y-100568800D02*
X148070000Y-99369700D01*
X153403900Y-100568800D02*
X149269100Y-100568800D01*
X154233300Y-99739400D02*
X153403900Y-100568800D01*
X181721500Y-99739400D02*
X154233300Y-99739400D01*
X183365000Y-98095900D02*
X181721500Y-99739400D01*
X183365000Y-97164400D02*
X183365000Y-98095900D01*
X184517800Y-96011600D02*
X183365000Y-97164400D01*
X189813600Y-96011600D02*
X184517800Y-96011600D01*
X191079700Y-97277700D02*
X189813600Y-96011600D01*
X191079700Y-97645000D02*
X191079700Y-97277700D01*
X192255000Y-97645000D02*
X191079700Y-97645000D01*
X138915000Y-87485000D02*
X140040300Y-87485000D01*
%TO.N,/PHI2*%
X111240000Y-98910000D02*
X108700000Y-96370000D01*
X210040000Y-46840000D02*
X210040000Y-49380000D01*
%TO.N,/PB4*%
X189715000Y-97645000D02*
X188539700Y-97645000D01*
X136375000Y-87485000D02*
X137500300Y-87485000D01*
X188539700Y-97277600D02*
X188539700Y-97645000D01*
X187731800Y-96469700D02*
X188539700Y-97277600D01*
X186618200Y-96469700D02*
X187731800Y-96469700D01*
X185846900Y-97241000D02*
X186618200Y-96469700D01*
X185846900Y-98129400D02*
X185846900Y-97241000D01*
X183558100Y-100418200D02*
X185846900Y-98129400D01*
X154191400Y-100418200D02*
X183558100Y-100418200D01*
X153590400Y-101019200D02*
X154191400Y-100418200D01*
X147164800Y-101019200D02*
X153590400Y-101019200D01*
X145530000Y-99384400D02*
X147164800Y-101019200D01*
X145530000Y-95962100D02*
X145530000Y-99384400D01*
X137500300Y-87932400D02*
X145530000Y-95962100D01*
X137500300Y-87485000D02*
X137500300Y-87932400D01*
%TO.N,/~{RW}*%
X148415000Y-71585000D02*
X149075000Y-72245000D01*
X193515000Y-90485000D02*
X193515000Y-87480000D01*
X192500000Y-91500000D02*
X193515000Y-90485000D01*
X156000000Y-91500000D02*
X192500000Y-91500000D01*
X153500000Y-89000000D02*
X156000000Y-91500000D01*
X153500000Y-81500000D02*
X153500000Y-89000000D01*
X148415000Y-76415000D02*
X153500000Y-81500000D01*
X148415000Y-71585000D02*
X148415000Y-76415000D01*
X147830000Y-71000000D02*
X148415000Y-71585000D01*
X140739000Y-71000000D02*
X147830000Y-71000000D01*
X132500000Y-62761400D02*
X140739000Y-71000000D01*
X132500000Y-60750000D02*
X132500000Y-62761400D01*
X118595000Y-46845000D02*
X132500000Y-60750000D01*
%TO.N,/D0*%
X170655000Y-46840000D02*
X169529700Y-46840000D01*
X121135000Y-46845000D02*
X122260300Y-46845000D01*
X121135000Y-72245000D02*
X120009700Y-72245000D01*
X122260300Y-46563600D02*
X122260300Y-46845000D01*
X124461700Y-44362200D02*
X122260300Y-46563600D01*
X167232200Y-44362200D02*
X124461700Y-44362200D01*
X169529700Y-46659700D02*
X167232200Y-44362200D01*
X169529700Y-46840000D02*
X169529700Y-46659700D01*
X115192700Y-67146700D02*
X114638800Y-67146700D01*
X120009700Y-71963700D02*
X115192700Y-67146700D01*
X120009700Y-72245000D02*
X120009700Y-71963700D01*
%TO.N,/D1*%
X123675000Y-46845000D02*
X124800300Y-46845000D01*
X168115000Y-46840000D02*
X166989700Y-46840000D01*
X124800300Y-46563700D02*
X124800300Y-46845000D01*
X126551500Y-44812500D02*
X124800300Y-46563700D01*
X165155000Y-44812500D02*
X126551500Y-44812500D01*
X166989700Y-46647200D02*
X165155000Y-44812500D01*
X166989700Y-46840000D02*
X166989700Y-46647200D01*
X123675000Y-64066700D02*
X123675000Y-72245000D01*
X122534000Y-62925700D02*
X123675000Y-64066700D01*
%TO.N,/D2*%
X126215000Y-72245000D02*
X126215000Y-73370300D01*
X127340300Y-46563700D02*
X127340300Y-46845000D01*
X128641100Y-45262900D02*
X127340300Y-46563700D01*
X163153900Y-45262900D02*
X128641100Y-45262900D01*
X164449700Y-46558700D02*
X163153900Y-45262900D01*
X164449700Y-46840000D02*
X164449700Y-46558700D01*
X165575000Y-46840000D02*
X164449700Y-46840000D01*
X126215000Y-46845000D02*
X127340300Y-46845000D01*
X128920300Y-76075600D02*
X134252300Y-76075600D01*
X126215000Y-73370300D02*
X128920300Y-76075600D01*
%TO.N,/D3*%
X129880300Y-47126300D02*
X129880300Y-46845000D01*
X140995000Y-58241000D02*
X129880300Y-47126300D01*
X158113900Y-58241000D02*
X140995000Y-58241000D01*
X128755000Y-46845000D02*
X129880300Y-46845000D01*
%TO.N,/D4*%
X139180000Y-98910000D02*
X138004700Y-98910000D01*
X130124900Y-86988600D02*
X131529800Y-85583700D01*
X130124900Y-89179500D02*
X130124900Y-86988600D01*
X135464600Y-94519200D02*
X130124900Y-89179500D01*
X135464600Y-96859400D02*
X135464600Y-94519200D01*
X136339900Y-97734700D02*
X135464600Y-96859400D01*
X137196800Y-97734700D02*
X136339900Y-97734700D01*
X138004700Y-98542600D02*
X137196800Y-97734700D01*
X138004700Y-98910000D02*
X138004700Y-98542600D01*
X131295000Y-46845000D02*
X132420300Y-46845000D01*
X132420300Y-47126300D02*
X132420300Y-46845000D01*
X142809700Y-57515700D02*
X132420300Y-47126300D01*
X164932700Y-57515700D02*
X142809700Y-57515700D01*
X165203900Y-57786900D02*
X164932700Y-57515700D01*
%TO.N,/D5*%
X133835000Y-46845000D02*
X134960300Y-46845000D01*
X134960300Y-47049300D02*
X134960300Y-46845000D01*
X144835500Y-56924500D02*
X134960300Y-47049300D01*
X167743600Y-56924500D02*
X144835500Y-56924500D01*
%TO.N,/D6*%
X134100000Y-98910000D02*
X135275300Y-98910000D01*
X170655000Y-62080000D02*
X169529700Y-62080000D01*
X145565500Y-63583100D02*
X144008200Y-63583100D01*
X145663000Y-63680600D02*
X145565500Y-63583100D01*
X168210400Y-63680600D02*
X145663000Y-63680600D01*
X169529700Y-62361300D02*
X168210400Y-63680600D01*
X169529700Y-62080000D02*
X169529700Y-62361300D01*
X165146800Y-101820000D02*
X165370900Y-102044100D01*
X159600200Y-101820000D02*
X165146800Y-101820000D01*
X159050100Y-102370100D02*
X159600200Y-101820000D01*
X138368100Y-102370100D02*
X159050100Y-102370100D01*
X135275300Y-99277300D02*
X138368100Y-102370100D01*
X135275300Y-98910000D02*
X135275300Y-99277300D01*
%TO.N,/D7*%
X131560000Y-98910000D02*
X132735300Y-98910000D01*
X173195000Y-62080000D02*
X172069700Y-62080000D01*
X170122600Y-64308400D02*
X145265000Y-64308400D01*
X172069700Y-62361300D02*
X170122600Y-64308400D01*
X172069700Y-62080000D02*
X172069700Y-62361300D01*
X132735300Y-99277300D02*
X132735300Y-98910000D01*
X136278400Y-102820400D02*
X132735300Y-99277300D01*
X160649900Y-102820400D02*
X136278400Y-102820400D01*
X161200000Y-102270300D02*
X160649900Y-102820400D01*
X164571200Y-102270300D02*
X161200000Y-102270300D01*
X165266400Y-102965500D02*
X164571200Y-102270300D01*
X167625100Y-102965500D02*
X165266400Y-102965500D01*
%TO.N,/A15*%
X217620000Y-82510000D02*
X217620000Y-85050000D01*
X219000000Y-81130000D02*
X217620000Y-82510000D01*
X219000000Y-76270000D02*
X219000000Y-81130000D01*
X217620000Y-74890000D02*
X219000000Y-76270000D01*
X217620000Y-74890000D02*
X216494700Y-74890000D01*
X196055000Y-72240000D02*
X197180300Y-72240000D01*
X141455000Y-46845000D02*
X142580300Y-46845000D01*
X142580300Y-47126300D02*
X142580300Y-46845000D01*
X144449600Y-48995600D02*
X142580300Y-47126300D01*
X179509800Y-48995600D02*
X144449600Y-48995600D01*
X192245000Y-61730800D02*
X179509800Y-48995600D01*
X192245000Y-65273900D02*
X192245000Y-61730800D01*
X198195700Y-71224600D02*
X192245000Y-65273900D01*
X212829300Y-71224600D02*
X198195700Y-71224600D01*
X216494700Y-74890000D02*
X212829300Y-71224600D01*
X198195700Y-71224600D02*
X197180300Y-72240000D01*
%TO.N,/A14*%
X210000000Y-74890000D02*
X210000000Y-72350000D01*
X212540000Y-77430000D02*
X210000000Y-74890000D01*
X217620000Y-77430000D02*
X212540000Y-77430000D01*
X208875000Y-76015000D02*
X210000000Y-74890000D01*
X208875000Y-78845000D02*
X208875000Y-76015000D01*
X210000000Y-79970000D02*
X208875000Y-78845000D01*
X145572400Y-48422400D02*
X143995000Y-46845000D01*
X193628600Y-48422400D02*
X145572400Y-48422400D01*
X194929700Y-47121300D02*
X193628600Y-48422400D01*
X194929700Y-46840000D02*
X194929700Y-47121300D01*
X196055000Y-46840000D02*
X194929700Y-46840000D01*
X113780000Y-96370000D02*
X113780000Y-97545300D01*
X113412600Y-97545300D02*
X113780000Y-97545300D01*
X112604700Y-98353200D02*
X113412600Y-97545300D01*
X112604700Y-99410200D02*
X112604700Y-98353200D01*
X118758500Y-105564000D02*
X112604700Y-99410200D01*
X175054400Y-105564000D02*
X118758500Y-105564000D01*
X176665200Y-103953200D02*
X175054400Y-105564000D01*
%TO.N,/A13*%
X145409700Y-46563600D02*
X145409700Y-46845000D01*
X144565800Y-45719700D02*
X145409700Y-46563600D01*
X140979400Y-45719700D02*
X144565800Y-45719700D01*
X140267700Y-46431400D02*
X140979400Y-45719700D01*
X140267700Y-47319500D02*
X140267700Y-46431400D01*
X143757200Y-50809000D02*
X140267700Y-47319500D01*
X178860000Y-50809000D02*
X143757200Y-50809000D01*
X189849700Y-61798700D02*
X178860000Y-50809000D01*
X189849700Y-62080000D02*
X189849700Y-61798700D01*
X190975000Y-62080000D02*
X189849700Y-62080000D01*
X146535000Y-46845000D02*
X145409700Y-46845000D01*
X119865000Y-91649700D02*
X116320000Y-95194700D01*
X119865000Y-86128900D02*
X119865000Y-91649700D01*
X127538700Y-78455200D02*
X119865000Y-86128900D01*
X138910100Y-78455200D02*
X127538700Y-78455200D01*
X143995000Y-73370300D02*
X138910100Y-78455200D01*
X143995000Y-72245000D02*
X143995000Y-73370300D01*
X116320000Y-96370000D02*
X116320000Y-95194700D01*
%TO.N,/A12*%
X150200300Y-47126400D02*
X150200300Y-46845000D01*
X151044200Y-47970300D02*
X150200300Y-47126400D01*
X191540700Y-47970300D02*
X151044200Y-47970300D01*
X192389700Y-47121300D02*
X191540700Y-47970300D01*
X192389700Y-46840000D02*
X192389700Y-47121300D01*
X193515000Y-46840000D02*
X192389700Y-46840000D01*
X149075000Y-46845000D02*
X150200300Y-46845000D01*
%TO.N,/A11*%
X121400000Y-96370000D02*
X121400000Y-95194700D01*
X183355000Y-62080000D02*
X182229700Y-62080000D01*
X151615000Y-62085000D02*
X152740300Y-62085000D01*
X182229700Y-61798700D02*
X182229700Y-62080000D01*
X181255400Y-60824400D02*
X182229700Y-61798700D01*
X178823300Y-60824400D02*
X181255400Y-60824400D01*
X178462000Y-60463100D02*
X178823300Y-60824400D01*
X154362200Y-60463100D02*
X178462000Y-60463100D01*
X152740300Y-62085000D02*
X154362200Y-60463100D01*
X129971500Y-82058900D02*
X143413200Y-82058900D01*
X124936600Y-87093800D02*
X129971500Y-82058900D01*
X124936600Y-88610400D02*
X124936600Y-87093800D01*
X124731600Y-88815400D02*
X124936600Y-88610400D01*
X124731600Y-91863100D02*
X124731600Y-88815400D01*
X121400000Y-95194700D02*
X124731600Y-91863100D01*
%TO.N,/A10*%
X123940000Y-96370000D02*
X123940000Y-97545300D01*
X150200300Y-62366400D02*
X150200300Y-62085000D01*
X151044200Y-63210300D02*
X150200300Y-62366400D01*
X153657400Y-63210300D02*
X151044200Y-63210300D01*
X155919000Y-60948700D02*
X153657400Y-63210300D01*
X176299700Y-60948700D02*
X155919000Y-60948700D01*
X177149700Y-61798700D02*
X176299700Y-60948700D01*
X177149700Y-62080000D02*
X177149700Y-61798700D01*
X178275000Y-62080000D02*
X177149700Y-62080000D01*
X149075000Y-62085000D02*
X150200300Y-62085000D01*
X123572700Y-97545300D02*
X123940000Y-97545300D01*
X122759900Y-98358100D02*
X123572700Y-97545300D01*
X122759900Y-99449400D02*
X122759900Y-98358100D01*
X127973900Y-104663400D02*
X122759900Y-99449400D01*
X169823000Y-104663400D02*
X127973900Y-104663400D01*
X170915200Y-103571200D02*
X169823000Y-104663400D01*
%TO.N,/A9*%
X185895000Y-62080000D02*
X184769700Y-62080000D01*
X146535000Y-62085000D02*
X147660300Y-62085000D01*
X184769700Y-61798600D02*
X184769700Y-62080000D01*
X183345100Y-60374000D02*
X184769700Y-61798600D01*
X179009800Y-60374000D02*
X183345100Y-60374000D01*
X178648000Y-60012200D02*
X179009800Y-60374000D01*
X149534500Y-60012200D02*
X178648000Y-60012200D01*
X147660300Y-61886400D02*
X149534500Y-60012200D01*
X147660300Y-62085000D02*
X147660300Y-61886400D01*
X127912200Y-79183300D02*
X136728100Y-79183300D01*
X122201400Y-84894100D02*
X127912200Y-79183300D01*
%TO.N,/A8*%
X143995000Y-62085000D02*
X145120300Y-62085000D01*
X188435000Y-62080000D02*
X187309700Y-62080000D01*
X184384000Y-90687000D02*
X163302600Y-90687000D01*
X187309700Y-87761300D02*
X184384000Y-90687000D01*
X187309700Y-87480000D02*
X187309700Y-87761300D01*
X129020000Y-96370000D02*
X129020000Y-97545300D01*
X188435000Y-87480000D02*
X187309700Y-87480000D01*
X187309700Y-61798700D02*
X187309700Y-62080000D01*
X185344200Y-59833200D02*
X187309700Y-61798700D01*
X179105900Y-59833200D02*
X185344200Y-59833200D01*
X178834600Y-59561900D02*
X179105900Y-59833200D01*
X147446900Y-59561900D02*
X178834600Y-59561900D01*
X145120300Y-61888500D02*
X147446900Y-59561900D01*
X145120300Y-62085000D02*
X145120300Y-61888500D01*
X163069600Y-103270700D02*
X163344700Y-102995600D01*
X134258000Y-103270700D02*
X163069600Y-103270700D01*
X130195300Y-99208000D02*
X134258000Y-103270700D01*
X130195300Y-98353200D02*
X130195300Y-99208000D01*
X129387400Y-97545300D02*
X130195300Y-98353200D01*
X129020000Y-97545300D02*
X129387400Y-97545300D01*
%TO.N,/A7*%
X190975000Y-72240000D02*
X189849700Y-72240000D01*
X141455000Y-62085000D02*
X142580300Y-62085000D01*
X142580300Y-63210300D02*
X142580300Y-62085000D01*
X144854100Y-65484100D02*
X142580300Y-63210300D01*
X183375100Y-65484100D02*
X144854100Y-65484100D01*
X189849700Y-71958700D02*
X183375100Y-65484100D01*
X189849700Y-72240000D02*
X189849700Y-71958700D01*
X128196600Y-81302700D02*
X135940900Y-81302700D01*
X122510700Y-86988600D02*
X128196600Y-81302700D01*
X122510700Y-88499200D02*
X122510700Y-86988600D01*
X123121900Y-89110400D02*
X122510700Y-88499200D01*
%TO.N,/A6*%
X134523800Y-69918300D02*
X135151900Y-69918300D01*
X132565000Y-71877100D02*
X134523800Y-69918300D01*
X132565000Y-72575000D02*
X132565000Y-71877100D01*
X129854800Y-75285200D02*
X132565000Y-72575000D01*
X129600300Y-75285200D02*
X129854800Y-75285200D01*
X140040300Y-62366300D02*
X140040300Y-62085000D01*
X145115300Y-67441300D02*
X140040300Y-62366300D01*
X182792300Y-67441300D02*
X145115300Y-67441300D01*
X187309700Y-71958700D02*
X182792300Y-67441300D01*
X187309700Y-72240000D02*
X187309700Y-71958700D01*
X188435000Y-72240000D02*
X187309700Y-72240000D01*
X138915000Y-62085000D02*
X140040300Y-62085000D01*
%TO.N,/A5*%
X185895000Y-72240000D02*
X184769700Y-72240000D01*
X136375000Y-62085000D02*
X137500300Y-62085000D01*
X184769700Y-71958700D02*
X184769700Y-72240000D01*
X180702700Y-67891700D02*
X184769700Y-71958700D01*
X143114200Y-67891700D02*
X180702700Y-67891700D01*
X137500300Y-62277800D02*
X143114200Y-67891700D01*
X137500300Y-62085000D02*
X137500300Y-62277800D01*
%TO.N,/A4*%
X183355000Y-72240000D02*
X182229700Y-72240000D01*
X133835000Y-62085000D02*
X134960300Y-62085000D01*
X134960300Y-62272200D02*
X134960300Y-62085000D01*
X141170100Y-68482000D02*
X134960300Y-62272200D01*
X178753000Y-68482000D02*
X141170100Y-68482000D01*
X182229700Y-71958700D02*
X178753000Y-68482000D01*
X182229700Y-72240000D02*
X182229700Y-71958700D01*
X132420400Y-86629600D02*
X132159600Y-86368800D01*
X132420400Y-88240400D02*
X132420400Y-86629600D01*
X139180000Y-95000000D02*
X132420400Y-88240400D01*
X139180000Y-96370000D02*
X139180000Y-95000000D01*
%TO.N,/PB3*%
X133835000Y-87485000D02*
X134960300Y-87485000D01*
X187175000Y-97645000D02*
X187175000Y-98820300D01*
X185126800Y-100868500D02*
X187175000Y-98820300D01*
X159277900Y-100868500D02*
X185126800Y-100868500D01*
X158676900Y-101469500D02*
X159277900Y-100868500D01*
X145107600Y-101469500D02*
X158676900Y-101469500D01*
X142990000Y-99351900D02*
X145107600Y-101469500D01*
X142990000Y-95952600D02*
X142990000Y-99351900D01*
X134960300Y-87922900D02*
X142990000Y-95952600D01*
X134960300Y-87485000D02*
X134960300Y-87922900D01*
%TO.N,/~{IRQ}*%
X112100300Y-61803600D02*
X112100300Y-62085000D01*
X112944200Y-60959700D02*
X112100300Y-61803600D01*
X124187100Y-60959700D02*
X112944200Y-60959700D01*
X124945000Y-61717600D02*
X124187100Y-60959700D01*
X124945000Y-62480800D02*
X124945000Y-61717600D01*
X131612400Y-69148200D02*
X124945000Y-62480800D01*
X137411100Y-69148200D02*
X131612400Y-69148200D01*
X140185000Y-71922100D02*
X137411100Y-69148200D01*
X140185000Y-72574500D02*
X140185000Y-71922100D01*
X141382200Y-73771700D02*
X140185000Y-72574500D01*
X141655700Y-73771700D02*
X141382200Y-73771700D01*
X110975000Y-62085000D02*
X112100300Y-62085000D01*
%TO.N,/PB2*%
X180556600Y-101318800D02*
X180846300Y-101608500D01*
X159464500Y-101318800D02*
X180556600Y-101318800D01*
X158863500Y-101919800D02*
X159464500Y-101318800D01*
X143063700Y-101919800D02*
X158863500Y-101919800D01*
X140355400Y-99211500D02*
X143063700Y-101919800D01*
X140355400Y-98384400D02*
X140355400Y-99211500D01*
X139577600Y-97606600D02*
X140355400Y-98384400D01*
X138732400Y-97606600D02*
X139577600Y-97606600D01*
X137910000Y-96784200D02*
X138732400Y-97606600D01*
X137910000Y-95572600D02*
X137910000Y-96784200D01*
X131295000Y-88957600D02*
X137910000Y-95572600D01*
X131295000Y-87485000D02*
X131295000Y-88957600D01*
%TO.N,/PB1*%
X149941600Y-92489200D02*
X151776100Y-92489200D01*
X145265000Y-87812600D02*
X149941600Y-92489200D01*
X145265000Y-87086000D02*
X145265000Y-87812600D01*
X143027600Y-84848600D02*
X145265000Y-87086000D01*
X131199500Y-84848600D02*
X143027600Y-84848600D01*
X128755000Y-87293100D02*
X131199500Y-84848600D01*
X128755000Y-87485000D02*
X128755000Y-87293100D01*
%TO.N,/PB0*%
X126215000Y-87485000D02*
X126215000Y-88610300D01*
X169253300Y-102365800D02*
X175304900Y-102365800D01*
X167406000Y-104213100D02*
X169253300Y-102365800D01*
X129527500Y-104213100D02*
X167406000Y-104213100D01*
X125251000Y-99936600D02*
X129527500Y-104213100D01*
X125251000Y-89574300D02*
X125251000Y-99936600D01*
X126215000Y-88610300D02*
X125251000Y-89574300D01*
%TO.N,/PA7*%
X123675000Y-87485000D02*
X123675000Y-88610300D01*
X123893600Y-88828900D02*
X123675000Y-88610300D01*
X123893600Y-90191900D02*
X123893600Y-88828900D01*
X120186200Y-93899300D02*
X123893600Y-90191900D01*
X120186200Y-99433900D02*
X120186200Y-93899300D01*
X125866000Y-105113700D02*
X120186200Y-99433900D01*
X170449400Y-105113700D02*
X125866000Y-105113700D01*
X170991500Y-104571600D02*
X170449400Y-105113700D01*
%TO.N,/PA6*%
X128066400Y-80553600D02*
X121135000Y-87485000D01*
X143807000Y-80553600D02*
X128066400Y-80553600D01*
X150345000Y-87091600D02*
X143807000Y-80553600D01*
X150345000Y-89557400D02*
X150345000Y-87091600D01*
X153219600Y-92432000D02*
X150345000Y-89557400D01*
%TO.N,/PA5*%
X130102800Y-103762700D02*
X127573300Y-101233200D01*
X163720600Y-103762700D02*
X130102800Y-103762700D01*
X164365300Y-103118000D02*
X163720600Y-103762700D01*
%TO.N,/CNTRST*%
X169395000Y-97645000D02*
X170570300Y-97645000D01*
X208667300Y-99292700D02*
X211500000Y-96460000D01*
X197304100Y-99292700D02*
X208667300Y-99292700D01*
X196065000Y-98053600D02*
X197304100Y-99292700D01*
X196065000Y-97248600D02*
X196065000Y-98053600D01*
X193916300Y-95099900D02*
X196065000Y-97248600D01*
X172748100Y-95099900D02*
X193916300Y-95099900D01*
X170570300Y-97277700D02*
X172748100Y-95099900D01*
X170570300Y-97645000D02*
X170570300Y-97277700D01*
%TO.N,/RDY*%
X113515000Y-53339700D02*
X105895000Y-60959700D01*
X113515000Y-46845000D02*
X113515000Y-53339700D01*
X105895000Y-62085000D02*
X105895000Y-60959700D01*
%TO.N,/PHI1*%
X75130000Y-61510000D02*
X75130000Y-48380000D01*
X102230000Y-88610000D02*
X75130000Y-61510000D01*
X107682000Y-88610000D02*
X102230000Y-88610000D01*
X114955000Y-95883300D02*
X107682000Y-88610000D01*
X114955000Y-97735000D02*
X114955000Y-95883300D01*
X113780000Y-98910000D02*
X114955000Y-97735000D01*
%TO.N,/CB2*%
X126847400Y-97734700D02*
X126480000Y-97734700D01*
X127655300Y-96926800D02*
X126847400Y-97734700D01*
X127655300Y-91704600D02*
X127655300Y-96926800D01*
X127595800Y-91645100D02*
X127655300Y-91704600D01*
X127595800Y-87016600D02*
X127595800Y-91645100D01*
X130247000Y-84365400D02*
X127595800Y-87016600D01*
X145111400Y-84365400D02*
X130247000Y-84365400D01*
X147949700Y-87203700D02*
X145111400Y-84365400D01*
X147949700Y-87485000D02*
X147949700Y-87203700D01*
X149075000Y-87485000D02*
X147949700Y-87485000D01*
X126480000Y-98910000D02*
X126480000Y-97734700D01*
%TO.N,/A3*%
X133112800Y-59059900D02*
X179689700Y-59059900D01*
%TO.N,/A2*%
X129414300Y-63210300D02*
X128755000Y-63210300D01*
X134567000Y-68363000D02*
X129414300Y-63210300D01*
X128755000Y-62085000D02*
X128755000Y-63210300D01*
X178275000Y-72240000D02*
X177149700Y-72240000D01*
X163723600Y-85947400D02*
X154226700Y-85947400D01*
X177149700Y-72521300D02*
X163723600Y-85947400D01*
X177149700Y-72240000D02*
X177149700Y-72521300D01*
%TO.N,/A1*%
X175735000Y-46840000D02*
X174609700Y-46840000D01*
X126215000Y-62085000D02*
X126215000Y-60959700D01*
X117433500Y-52178200D02*
X126215000Y-60959700D01*
X117433500Y-46395900D02*
X117433500Y-52178200D01*
X119917500Y-43911900D02*
X117433500Y-46395900D01*
X171962900Y-43911900D02*
X119917500Y-43911900D01*
X174609700Y-46558700D02*
X171962900Y-43911900D01*
X174609700Y-46840000D02*
X174609700Y-46558700D01*
X175735000Y-72240000D02*
X174609700Y-72240000D01*
X161909000Y-85222000D02*
X155790500Y-85222000D01*
X174609700Y-72521300D02*
X161909000Y-85222000D01*
X174609700Y-72240000D02*
X174609700Y-72521300D01*
%TO.N,/A0*%
X108435000Y-72245000D02*
X109560300Y-72245000D01*
X123675000Y-62085000D02*
X123675000Y-63210300D01*
X173195000Y-72240000D02*
X172069700Y-72240000D01*
X124865600Y-64400900D02*
X124865600Y-73370200D01*
X123675000Y-63210300D02*
X124865600Y-64400900D01*
X109560300Y-72526300D02*
X109560300Y-72245000D01*
X110417800Y-73383800D02*
X109560300Y-72526300D01*
X124852000Y-73383800D02*
X110417800Y-73383800D01*
X124865600Y-73370200D02*
X124852000Y-73383800D01*
X129222800Y-77727400D02*
X137546300Y-77727400D01*
X124865600Y-73370200D02*
X129222800Y-77727400D01*
X161020100Y-83570900D02*
X156526800Y-83570900D01*
X172069700Y-72521300D02*
X161020100Y-83570900D01*
X172069700Y-72240000D02*
X172069700Y-72521300D01*
D29*
%TO.N,Net-(D2-Pad1)*%
X87250000Y-97920000D02*
X86830000Y-97500000D01*
X87250000Y-103225000D02*
X87250000Y-97920000D01*
%TO.N,Net-(D1-Pad2)*%
X86650000Y-132042000D02*
X86650500Y-132042000D01*
X88992500Y-132042000D02*
X93350000Y-136400000D01*
X86650500Y-132042000D02*
X88992500Y-132042000D01*
D28*
X86650500Y-132042000D02*
X86650000Y-132042500D01*
D29*
%TO.N,VCC*%
X223000000Y-46500000D02*
X223000000Y-68060000D01*
X116055000Y-65555000D02*
X115570000Y-66040000D01*
X116055000Y-62085000D02*
X116055000Y-65555000D01*
X151615000Y-88785000D02*
X155540000Y-92710000D01*
X151615000Y-87485000D02*
X151615000Y-88785000D01*
X81392200Y-101180000D02*
X69000000Y-101180000D01*
X85977200Y-105765000D02*
X81392200Y-101180000D01*
X87250000Y-105765000D02*
X85977200Y-105765000D01*
X73750000Y-65000000D02*
X75130000Y-63620000D01*
X73750000Y-69780000D02*
X73750000Y-65000000D01*
X222660000Y-46840000D02*
X223000000Y-46500000D01*
X217660000Y-46840000D02*
X222660000Y-46840000D01*
X69000000Y-70270000D02*
X69000000Y-83400000D01*
X199390000Y-45050000D02*
X199390000Y-40640000D01*
X203680000Y-49340000D02*
X199390000Y-45050000D01*
X222250000Y-67310000D02*
X223000000Y-68060000D01*
X217130000Y-67310000D02*
X222250000Y-67310000D01*
X164315000Y-97645000D02*
X164315000Y-96035000D01*
X69490000Y-69780000D02*
X73750000Y-69780000D01*
X69000000Y-70270000D02*
X69490000Y-69780000D01*
X196165000Y-87590000D02*
X196055000Y-87480000D01*
X203680000Y-87590000D02*
X196165000Y-87590000D01*
X108435000Y-50605000D02*
X108435000Y-46845000D01*
X97000000Y-62040000D02*
X108435000Y-50605000D01*
X167640000Y-92710000D02*
X164315000Y-96035000D01*
X196850000Y-92710000D02*
X167640000Y-92710000D01*
X199875000Y-95735000D02*
X196850000Y-92710000D01*
X199875000Y-97645000D02*
X199875000Y-95735000D01*
X203680000Y-93840000D02*
X199875000Y-97645000D01*
X203680000Y-87590000D02*
X203680000Y-93840000D01*
X217620000Y-67800000D02*
X217130000Y-67310000D01*
X217620000Y-72350000D02*
X217620000Y-67800000D01*
X155540000Y-92710000D02*
X151880000Y-96370000D01*
X121135000Y-65555000D02*
X121135000Y-62085000D01*
X120650000Y-66040000D02*
X121135000Y-65555000D01*
X115570000Y-66040000D02*
X120650000Y-66040000D01*
X73770000Y-119270000D02*
X78000000Y-123500000D01*
X73770000Y-117540000D02*
X73770000Y-119270000D01*
X100330000Y-95620000D02*
X103620000Y-98910000D01*
X100330000Y-88310000D02*
X100330000Y-95620000D01*
X97000000Y-84980000D02*
X100330000Y-88310000D01*
X101000000Y-66040000D02*
X115570000Y-66040000D01*
X97000000Y-62040000D02*
X101000000Y-66040000D01*
X164315000Y-97645000D02*
X164315000Y-96035000D01*
X161290000Y-92710000D02*
X155540000Y-92710000D01*
X164315000Y-95735000D02*
X161290000Y-92710000D01*
X164315000Y-96035000D02*
X164315000Y-95735000D01*
X69000000Y-83400000D02*
X69000000Y-101180000D01*
X69000000Y-112770000D02*
X73770000Y-117540000D01*
X69000000Y-101180000D02*
X69000000Y-112770000D01*
X216500000Y-40000000D02*
X223000000Y-46500000D01*
X199173500Y-40000000D02*
X216500000Y-40000000D01*
D28*
X199390000Y-40216500D02*
X199390000Y-40640000D01*
X199173500Y-40000000D02*
X199390000Y-40216500D01*
D29*
X223000000Y-68060000D02*
X223000000Y-90170000D01*
X219040000Y-101540000D02*
X211500000Y-101540000D01*
X223000000Y-105500000D02*
X219040000Y-101540000D01*
X223000000Y-90170000D02*
X223000000Y-105500000D01*
X206260000Y-90170000D02*
X222250000Y-90170000D01*
X203680000Y-87590000D02*
X206260000Y-90170000D01*
D28*
X222250000Y-90170000D02*
X223000000Y-90170000D01*
D29*
X91440000Y-56480000D02*
X91440000Y-40630000D01*
X97000000Y-62040000D02*
X91440000Y-56480000D01*
D28*
X74004600Y-79975400D02*
X74004600Y-80010000D01*
X76420000Y-77560000D02*
X74004600Y-79975400D01*
D29*
X92030000Y-80010000D02*
X74004600Y-80010000D01*
X97000000Y-84980000D02*
X92030000Y-80010000D01*
X72390000Y-80010000D02*
X69000000Y-83400000D01*
X74004600Y-80010000D02*
X72390000Y-80010000D01*
D28*
X108435000Y-40000000D02*
X108435000Y-46845000D01*
D29*
X70500000Y-40000000D02*
X108435000Y-40000000D01*
X69000000Y-41500000D02*
X70500000Y-40000000D01*
X69000000Y-70270000D02*
X69000000Y-41500000D01*
X108435000Y-40000000D02*
X199173500Y-40000000D01*
X203680000Y-54455000D02*
X199867500Y-58267500D01*
X203680000Y-49340000D02*
X203680000Y-54455000D01*
X199867500Y-58267500D02*
X196055000Y-62080000D01*
D28*
X194640300Y-61798700D02*
X194640300Y-62080000D01*
X198171500Y-58267500D02*
X194640300Y-61798700D01*
X199867500Y-58267500D02*
X198171500Y-58267500D01*
X193515000Y-62080000D02*
X194640300Y-62080000D01*
%TO.N,GND*%
X210525300Y-63205300D02*
X214630000Y-67310000D01*
X210040000Y-63205300D02*
X210525300Y-63205300D01*
X210040000Y-62080000D02*
X210040000Y-63205300D01*
X86210000Y-87480000D02*
X85090000Y-86360000D01*
X97000000Y-87480000D02*
X86210000Y-87480000D01*
X114250000Y-120750000D02*
X113074700Y-120750000D01*
X106144400Y-127680300D02*
X82725400Y-127680300D01*
X113074700Y-120750000D02*
X106144400Y-127680300D01*
X82725400Y-129967100D02*
X82725400Y-127680300D01*
X80650000Y-132042500D02*
X82725400Y-129967100D01*
X134250000Y-109250000D02*
X127750000Y-109250000D01*
X127750000Y-109250000D02*
X127750000Y-110425300D01*
X152745300Y-46840000D02*
X152740300Y-46845000D01*
X163035000Y-46840000D02*
X152745300Y-46840000D01*
X151615000Y-46845000D02*
X152740300Y-46845000D01*
X151880000Y-98910000D02*
X153055300Y-98910000D01*
X120750000Y-117425300D02*
X120750000Y-120750000D01*
X127750000Y-110425300D02*
X120750000Y-117425300D01*
X114250000Y-120750000D02*
X115425300Y-120750000D01*
X120750000Y-120750000D02*
X115425300Y-120750000D01*
X166855000Y-97645000D02*
X165679700Y-97645000D01*
X140250000Y-121000000D02*
X146750000Y-121000000D01*
X140250000Y-121000000D02*
X140250000Y-122175300D01*
X134250000Y-128175300D02*
X134250000Y-131750000D01*
X140250000Y-122175300D02*
X134250000Y-128175300D01*
X127750000Y-131750000D02*
X128925300Y-131750000D01*
X134250000Y-131750000D02*
X128925300Y-131750000D01*
X82725400Y-125725400D02*
X80500000Y-123500000D01*
X82725400Y-127680300D02*
X82725400Y-125725400D01*
X80500000Y-121730000D02*
X73770000Y-115000000D01*
X80500000Y-123500000D02*
X80500000Y-121730000D01*
X153126600Y-98838700D02*
X153055300Y-98910000D01*
X165294100Y-98838700D02*
X153126600Y-98838700D01*
X165679700Y-98453100D02*
X165294100Y-98838700D01*
X165679700Y-97645000D02*
X165679700Y-98453100D01*
X206374700Y-85090000D02*
X203680000Y-85090000D01*
X208874700Y-87590000D02*
X206374700Y-85090000D01*
X210000000Y-87590000D02*
X208874700Y-87590000D01*
X168030300Y-97277700D02*
X168030300Y-97645000D01*
X170658500Y-94649500D02*
X168030300Y-97277700D01*
X196098100Y-94649500D02*
X170658500Y-94649500D01*
X198605000Y-97156400D02*
X196098100Y-94649500D01*
X198605000Y-98039500D02*
X198605000Y-97156400D01*
X199407800Y-98842300D02*
X198605000Y-98039500D01*
X200409700Y-98842300D02*
X199407800Y-98842300D01*
X201239700Y-98012300D02*
X200409700Y-98842300D01*
X201239700Y-97645000D02*
X201239700Y-98012300D01*
X202415000Y-97645000D02*
X201239700Y-97645000D01*
X166855000Y-97645000D02*
X168030300Y-97645000D01*
D29*
%TO.N,Net-(C1-Pad1)*%
X73770000Y-105305000D02*
X73825000Y-105250000D01*
X73770000Y-112460000D02*
X73770000Y-105305000D01*
X87550000Y-126240000D02*
X73770000Y-112460000D01*
X93350000Y-126240000D02*
X87550000Y-126240000D01*
%TD*%
M02*
