%TF.GenerationSoftware,KiCad,Pcbnew,(6.0.7)*%
%TF.CreationDate,2022-09-03T14:48:31-04:00*%
%TF.ProjectId,6502,36353032-2e6b-4696-9361-645f70636258,1.1*%
%TF.SameCoordinates,Original*%
%TF.FileFunction,Soldermask,Bot*%
%TF.FilePolarity,Negative*%
%FSLAX46Y46*%
G04 Gerber Fmt 4.6, Leading zero omitted, Abs format (unit mm)*
G04 Created by KiCad (PCBNEW (6.0.7)) date 2022-09-03 14:48:31*
%MOMM*%
%LPD*%
G01*
G04 APERTURE LIST*
G04 Aperture macros list*
%AMRoundRect*
0 Rectangle with rounded corners*
0 $1 Rounding radius*
0 $2 $3 $4 $5 $6 $7 $8 $9 X,Y pos of 4 corners*
0 Add a 4 corners polygon primitive as box body*
4,1,4,$2,$3,$4,$5,$6,$7,$8,$9,$2,$3,0*
0 Add four circle primitives for the rounded corners*
1,1,$1+$1,$2,$3*
1,1,$1+$1,$4,$5*
1,1,$1+$1,$6,$7*
1,1,$1+$1,$8,$9*
0 Add four rect primitives between the rounded corners*
20,1,$1+$1,$2,$3,$4,$5,0*
20,1,$1+$1,$4,$5,$6,$7,0*
20,1,$1+$1,$6,$7,$8,$9,0*
20,1,$1+$1,$8,$9,$2,$3,0*%
G04 Aperture macros list end*
%ADD10C,1.200000*%
%ADD11R,1.700000X1.700000*%
%ADD12C,1.700000*%
%ADD13O,1.700000X1.700000*%
%ADD14R,1.600000X1.600000*%
%ADD15O,1.600000X1.600000*%
%ADD16C,3.500000*%
%ADD17C,1.600000*%
%ADD18R,1.800000X1.800000*%
%ADD19C,1.800000*%
%ADD20RoundRect,0.875000X-0.875000X-0.875000X0.875000X-0.875000X0.875000X0.875000X-0.875000X0.875000X0*%
%ADD21RoundRect,0.750000X-0.750000X-1.000000X0.750000X-1.000000X0.750000X1.000000X-0.750000X1.000000X0*%
%ADD22R,3.500000X3.500000*%
%ADD23C,1.440000*%
%ADD24O,2.000000X1.905000*%
%ADD25R,2.000000X1.905000*%
%ADD26O,3.500000X3.500000*%
%ADD27R,2.200000X2.200000*%
%ADD28O,2.200000X2.200000*%
G04 APERTURE END LIST*
D10*
%TO.C,C1*%
X79649400Y-116213400D03*
X79649400Y-114713400D03*
%TD*%
D11*
%TO.C,SW4*%
X127016600Y-105932600D03*
D12*
X133516600Y-105932600D03*
X127016600Y-110432600D03*
X133516600Y-110432600D03*
%TD*%
%TO.C,SW5*%
X133516600Y-128432600D03*
D11*
X127016600Y-128432600D03*
D12*
X133516600Y-132932600D03*
X127016600Y-132932600D03*
%TD*%
D11*
%TO.C,J5*%
X225597800Y-91536600D03*
D13*
X225597800Y-94076600D03*
X225597800Y-96616600D03*
X225597800Y-99156600D03*
X225597800Y-101696600D03*
X225597800Y-104236600D03*
X225597800Y-106776600D03*
X225597800Y-109316600D03*
X225597800Y-111856600D03*
X225597800Y-114396600D03*
X225597800Y-116936600D03*
X225597800Y-119476600D03*
X225597800Y-122016600D03*
X225597800Y-124556600D03*
X225597800Y-127096600D03*
X225597800Y-129636600D03*
%TD*%
D11*
%TO.C,J2*%
X223067000Y-35222600D03*
D13*
X225607000Y-35222600D03*
X223067000Y-37762600D03*
X225607000Y-37762600D03*
X223067000Y-40302600D03*
X225607000Y-40302600D03*
X223067000Y-42842600D03*
X225607000Y-42842600D03*
X223067000Y-45382600D03*
X225607000Y-45382600D03*
X223067000Y-47922600D03*
X225607000Y-47922600D03*
X223067000Y-50462600D03*
X225607000Y-50462600D03*
X223067000Y-53002600D03*
X225607000Y-53002600D03*
X223067000Y-55542600D03*
X225607000Y-55542600D03*
X223067000Y-58082600D03*
X225607000Y-58082600D03*
X223067000Y-60622600D03*
X225607000Y-60622600D03*
X223067000Y-63162600D03*
X225607000Y-63162600D03*
X223067000Y-65702600D03*
X225607000Y-65702600D03*
X223067000Y-68242600D03*
X225607000Y-68242600D03*
X223067000Y-70782600D03*
X225607000Y-70782600D03*
X223067000Y-73322600D03*
X225607000Y-73322600D03*
X223067000Y-75862600D03*
X225607000Y-75862600D03*
X223067000Y-78402600D03*
X225607000Y-78402600D03*
X223067000Y-80942600D03*
X225607000Y-80942600D03*
X223067000Y-83482600D03*
X225607000Y-83482600D03*
%TD*%
D14*
%TO.C,U3*%
X202058400Y-34756800D03*
D15*
X199518400Y-34756800D03*
X196978400Y-34756800D03*
X194438400Y-34756800D03*
X191898400Y-34756800D03*
X189358400Y-34756800D03*
X186818400Y-34756800D03*
X184278400Y-34756800D03*
X181738400Y-34756800D03*
X179198400Y-34756800D03*
X176658400Y-34756800D03*
X174118400Y-34756800D03*
X171578400Y-34756800D03*
X169038400Y-34756800D03*
X169038400Y-49996800D03*
X171578400Y-49996800D03*
X174118400Y-49996800D03*
X176658400Y-49996800D03*
X179198400Y-49996800D03*
X181738400Y-49996800D03*
X184278400Y-49996800D03*
X186818400Y-49996800D03*
X189358400Y-49996800D03*
X191898400Y-49996800D03*
X194438400Y-49996800D03*
X196978400Y-49996800D03*
X199518400Y-49996800D03*
X202058400Y-49996800D03*
%TD*%
D16*
%TO.C,SW*%
X73219400Y-154040200D03*
%TD*%
D17*
%TO.C,C11*%
X155124200Y-33218200D03*
X157624200Y-33218200D03*
%TD*%
D14*
%TO.C,U2*%
X109372400Y-74574400D03*
D15*
X111912400Y-74574400D03*
X114452400Y-74574400D03*
X116992400Y-74574400D03*
X119532400Y-74574400D03*
X122072400Y-74574400D03*
X124612400Y-74574400D03*
X127152400Y-74574400D03*
X129692400Y-74574400D03*
X132232400Y-74574400D03*
X134772400Y-74574400D03*
X137312400Y-74574400D03*
X139852400Y-74574400D03*
X142392400Y-74574400D03*
X144932400Y-74574400D03*
X147472400Y-74574400D03*
X150012400Y-74574400D03*
X152552400Y-74574400D03*
X155092400Y-74574400D03*
X157632400Y-74574400D03*
X157632400Y-59334400D03*
X155092400Y-59334400D03*
X152552400Y-59334400D03*
X150012400Y-59334400D03*
X147472400Y-59334400D03*
X144932400Y-59334400D03*
X142392400Y-59334400D03*
X139852400Y-59334400D03*
X137312400Y-59334400D03*
X134772400Y-59334400D03*
X132232400Y-59334400D03*
X129692400Y-59334400D03*
X127152400Y-59334400D03*
X124612400Y-59334400D03*
X122072400Y-59334400D03*
X119532400Y-59334400D03*
X116992400Y-59334400D03*
X114452400Y-59334400D03*
X111912400Y-59334400D03*
X109372400Y-59334400D03*
%TD*%
D16*
%TO.C,SE*%
X237354200Y-153938600D03*
%TD*%
D18*
%TO.C,D2*%
X97683400Y-114646400D03*
D19*
X97683400Y-117186400D03*
%TD*%
D17*
%TO.C,C9*%
X85277400Y-136155400D03*
X82777400Y-136155400D03*
%TD*%
%TO.C,C5*%
X207157400Y-97449400D03*
X207157400Y-99949400D03*
%TD*%
%TO.C,R2*%
X87269400Y-119883000D03*
D15*
X87269400Y-109723000D03*
%TD*%
D17*
%TO.C,C4*%
X207157400Y-72049400D03*
X207157400Y-74549400D03*
%TD*%
D12*
%TO.C,SW2*%
X120016600Y-117432600D03*
D11*
X113516600Y-117432600D03*
D12*
X113516600Y-121932600D03*
X120016600Y-121932600D03*
%TD*%
D17*
%TO.C,R1*%
X92095400Y-109723000D03*
D15*
X92095400Y-119883000D03*
%TD*%
D14*
%TO.C,U5*%
X109372400Y-99974400D03*
D15*
X111912400Y-99974400D03*
X114452400Y-99974400D03*
X116992400Y-99974400D03*
X119532400Y-99974400D03*
X122072400Y-99974400D03*
X124612400Y-99974400D03*
X127152400Y-99974400D03*
X129692400Y-99974400D03*
X132232400Y-99974400D03*
X134772400Y-99974400D03*
X137312400Y-99974400D03*
X139852400Y-99974400D03*
X142392400Y-99974400D03*
X144932400Y-99974400D03*
X147472400Y-99974400D03*
X150012400Y-99974400D03*
X152552400Y-99974400D03*
X155092400Y-99974400D03*
X157632400Y-99974400D03*
X157632400Y-84734400D03*
X155092400Y-84734400D03*
X152552400Y-84734400D03*
X150012400Y-84734400D03*
X147472400Y-84734400D03*
X144932400Y-84734400D03*
X142392400Y-84734400D03*
X139852400Y-84734400D03*
X137312400Y-84734400D03*
X134772400Y-84734400D03*
X132232400Y-84734400D03*
X129692400Y-84734400D03*
X127152400Y-84734400D03*
X124612400Y-84734400D03*
X122072400Y-84734400D03*
X119532400Y-84734400D03*
X116992400Y-84734400D03*
X114452400Y-84734400D03*
X111912400Y-84734400D03*
X109372400Y-84734400D03*
%TD*%
D14*
%TO.C,X2*%
X92197000Y-58618200D03*
D17*
X92197000Y-43378200D03*
X84577000Y-43378200D03*
X84577000Y-58618200D03*
%TD*%
D20*
%TO.C,J1*%
X88427400Y-149397900D03*
D21*
X85427400Y-144697900D03*
D22*
X91427400Y-144697900D03*
%TD*%
D17*
%TO.C,R4*%
X153766600Y-116662600D03*
D15*
X163926600Y-116662600D03*
%TD*%
D17*
%TO.C,C3*%
X103022400Y-97454400D03*
X103022400Y-99954400D03*
%TD*%
D12*
%TO.C,SW3*%
X146016600Y-117682600D03*
D11*
X139516600Y-117682600D03*
D12*
X146016600Y-122182600D03*
X139516600Y-122182600D03*
%TD*%
D15*
%TO.C,U9*%
X117014200Y-38039200D03*
X117014200Y-40579200D03*
X117014200Y-43119200D03*
X117014200Y-45659200D03*
X117014200Y-48199200D03*
X117014200Y-50739200D03*
X117014200Y-53279200D03*
X109394200Y-53279200D03*
X109394200Y-50739200D03*
X109394200Y-48199200D03*
X109394200Y-45659200D03*
X109394200Y-43119200D03*
X109394200Y-40579200D03*
D14*
X109394200Y-38039200D03*
%TD*%
D23*
%TO.C,RV1*%
X177236200Y-147467400D03*
X174696200Y-147467400D03*
X172156200Y-147467400D03*
%TD*%
D17*
%TO.C,C7*%
X93873400Y-99949400D03*
X93873400Y-97449400D03*
%TD*%
D13*
%TO.C,J4*%
X225572000Y-149930800D03*
X225572000Y-147390800D03*
X225572000Y-144850800D03*
X225572000Y-142310800D03*
X225572000Y-139770800D03*
D11*
X225572000Y-137230800D03*
%TD*%
D17*
%TO.C,C12*%
X207128200Y-50134200D03*
X207128200Y-47634200D03*
%TD*%
%TO.C,C6*%
X134773400Y-33218200D03*
X137273400Y-33218200D03*
%TD*%
D14*
%TO.C,U7*%
X129739600Y-38039200D03*
D15*
X129739600Y-40579200D03*
X129739600Y-43119200D03*
X129739600Y-45659200D03*
X129739600Y-48199200D03*
X129739600Y-50739200D03*
X129739600Y-53279200D03*
X137359600Y-53279200D03*
X137359600Y-50739200D03*
X137359600Y-48199200D03*
X137359600Y-45659200D03*
X137359600Y-43119200D03*
X137359600Y-40579200D03*
X137359600Y-38039200D03*
%TD*%
D17*
%TO.C,C2*%
X103327200Y-72206800D03*
X103327200Y-74706800D03*
%TD*%
%TO.C,R3*%
X153766600Y-109682600D03*
D15*
X163926600Y-109682600D03*
%TD*%
%TO.C,U6*%
X157705000Y-38039200D03*
X157705000Y-40579200D03*
X157705000Y-43119200D03*
X157705000Y-45659200D03*
X157705000Y-48199200D03*
X157705000Y-50739200D03*
X157705000Y-53279200D03*
X150085000Y-53279200D03*
X150085000Y-50739200D03*
X150085000Y-48199200D03*
X150085000Y-45659200D03*
X150085000Y-43119200D03*
X150085000Y-40579200D03*
D14*
X150085000Y-38039200D03*
%TD*%
D12*
%TO.C,SW1*%
X83227400Y-103535400D03*
D11*
X83227400Y-97035400D03*
D12*
X78727400Y-97035400D03*
X78727400Y-103535400D03*
%TD*%
D17*
%TO.C,R5*%
X153766600Y-123662600D03*
D15*
X163926600Y-123662600D03*
%TD*%
D14*
%TO.C,U4*%
X202092400Y-59324400D03*
D15*
X199552400Y-59324400D03*
X197012400Y-59324400D03*
X194472400Y-59324400D03*
X191932400Y-59324400D03*
X189392400Y-59324400D03*
X186852400Y-59324400D03*
X184312400Y-59324400D03*
X181772400Y-59324400D03*
X179232400Y-59324400D03*
X176692400Y-59324400D03*
X174152400Y-59324400D03*
X171612400Y-59324400D03*
X169072400Y-59324400D03*
X169072400Y-74564400D03*
X171612400Y-74564400D03*
X174152400Y-74564400D03*
X176692400Y-74564400D03*
X179232400Y-74564400D03*
X181772400Y-74564400D03*
X184312400Y-74564400D03*
X186852400Y-74564400D03*
X189392400Y-74564400D03*
X191932400Y-74564400D03*
X194472400Y-74564400D03*
X197012400Y-74564400D03*
X199552400Y-74564400D03*
X202092400Y-74564400D03*
%TD*%
D14*
%TO.C,U8*%
X202072400Y-84724400D03*
D15*
X199532400Y-84724400D03*
X196992400Y-84724400D03*
X194452400Y-84724400D03*
X191912400Y-84724400D03*
X189372400Y-84724400D03*
X186832400Y-84724400D03*
X184292400Y-84724400D03*
X181752400Y-84724400D03*
X179212400Y-84724400D03*
X176672400Y-84724400D03*
X174132400Y-84724400D03*
X171592400Y-84724400D03*
X169052400Y-84724400D03*
X169052400Y-99964400D03*
X171592400Y-99964400D03*
X174132400Y-99964400D03*
X176672400Y-99964400D03*
X179212400Y-99964400D03*
X181752400Y-99964400D03*
X184292400Y-99964400D03*
X186832400Y-99964400D03*
X189372400Y-99964400D03*
X191912400Y-99964400D03*
X194452400Y-99964400D03*
X196992400Y-99964400D03*
X199532400Y-99964400D03*
X202072400Y-99964400D03*
%TD*%
D14*
%TO.C,X1*%
X92298600Y-84678600D03*
D17*
X92298600Y-69438600D03*
X84678600Y-69438600D03*
X84678600Y-84678600D03*
%TD*%
D16*
%TO.C,NW*%
X73270200Y-31053400D03*
%TD*%
D17*
%TO.C,C10*%
X189366600Y-80005000D03*
X194366600Y-80005000D03*
%TD*%
D16*
%TO.C,NE*%
X237354200Y-31205800D03*
%TD*%
D17*
%TO.C,C8*%
X114535000Y-33218200D03*
X117035000Y-33218200D03*
%TD*%
D24*
%TO.C,U1*%
X78547400Y-130195400D03*
X78547400Y-127655400D03*
D25*
X78547400Y-125115400D03*
D26*
X95207400Y-127655400D03*
%TD*%
D17*
%TO.C,R6*%
X153766600Y-130662600D03*
D15*
X163926600Y-130662600D03*
%TD*%
D27*
%TO.C,D1*%
X98127400Y-138895400D03*
D28*
X98127400Y-149055400D03*
%TD*%
D11*
%TO.C,J3*%
X116733400Y-145740200D03*
D13*
X119273400Y-145740200D03*
X121813400Y-145740200D03*
X124353400Y-145740200D03*
X126893400Y-145740200D03*
X129433400Y-145740200D03*
X131973400Y-145740200D03*
X134513400Y-145740200D03*
X137053400Y-145740200D03*
X139593400Y-145740200D03*
X142133400Y-145740200D03*
X144673400Y-145740200D03*
X147213400Y-145740200D03*
X149753400Y-145740200D03*
X152293400Y-145740200D03*
X154833400Y-145740200D03*
%TD*%
M02*
