M48
; DRILL file {KiCad (6.0.7)} date Thu Oct 13 11:24:44 2022
; FORMAT={-:-/ absolute / inch / decimal}
; #@! TF.CreationDate,2022-10-13T11:24:44-04:00
; #@! TF.GenerationSoftware,Kicad,Pcbnew,(6.0.7)
; #@! TF.FileFunction,Plated,1,2,PTH
FMAT,2
INCH
; #@! TA.AperFunction,Plated,PTH,ViaDrill
T1C0.0157
; #@! TA.AperFunction,Plated,PTH,ComponentDrill
T2C0.0295
; #@! TA.AperFunction,Plated,PTH,ComponentDrill
T3C0.0315
; #@! TA.AperFunction,Plated,PTH,ComponentDrill
T4C0.0394
; #@! TA.AperFunction,Plated,PTH,ComponentDrill
T5C0.0469
; #@! TA.AperFunction,Plated,PTH,ComponentDrill
T6C0.1252
%
G90
G05
T1
X4.9968Y-3.6916
X5.1677Y-4.3001
X5.2321Y-8.683
X5.2364Y-8.6405
X5.2715Y-8.6811
X5.3104Y-4.2207
X5.3554Y-4.1469
X5.4599Y-5.0928
X5.4766Y-4.9951
X5.5062Y-4.8774
X5.515Y-4.2917
X5.547Y-4.3178
X5.5504Y-4.1534
X5.6719Y-6.7072
X5.6886Y-5.9457
X5.7264Y-4.2895
X5.7658Y-4.2969
X5.7797Y-6.6279
X5.8038Y-8.6447
X5.8213Y-6.13
X5.8269Y-4.3613
X5.8564Y-6.8178
X5.891Y-5.4463
X5.8989Y-4.3547
X5.9115Y-7.4922
X5.9373Y-4.0317
X5.955Y-4.2083
X5.9676Y-4.4049
X5.9676Y-5.8465
X6.0002Y-4.31
X6.014Y-7.5207
X6.0944Y-3.6678
X6.2323Y-5.8342
X6.2343Y-8.3574
X6.2431Y-5.6857
X6.2883Y-6.1091
X6.297Y-5.7532
X6.3067Y-5.8758
X6.3422Y-5.9639
X6.3532Y-5.3235
X6.3989Y-5.2588
X6.444Y-4.8459
X6.4651Y-5.119
X6.4689Y-6.2314
X6.4794Y-5.0726
X6.4992Y-7.2202
X6.5918Y-5.1288
X6.6687Y-6.3795
X6.6784Y-4.3218
X6.6903Y-5.6306
X6.7115Y-7.6702
X6.7146Y-6.4658
X6.7155Y-5.0766
X6.7346Y-6.5133
X6.7916Y-7.4302
X6.8167Y-6.8364
X6.8318Y-7.4914
X6.8441Y-5.405
X6.8846Y-5.5659
X6.8911Y-6.57
X6.8945Y-7.6398
X6.9632Y-5.5659
X7.0159Y-6.0394
X7.0201Y-5.3544
X7.0241Y-6.5698
X7.0286Y-7.5599
X7.0764Y-6.3344
X7.2478Y-5.6013
X7.3163Y-8.5668
X7.3392Y-7.9046
X7.4233Y-5.6381
X7.4516Y-8.1644
X7.5588Y-7.042
X7.5871Y-4.2932
X7.6125Y-7.6991
X7.636Y-6.9233
X7.6653Y-5.4973
X7.7344Y-8.0603
X7.763Y-7.1477
X7.7704Y-5.5883
X7.8252Y-5.3837
X7.86Y-5.3465
X7.8834Y-3.736
X7.9262Y-4.8566
X7.9437Y-8.1622
X7.9462Y-5.6897
X7.9643Y-5.9238
X8.0795Y-6.039
X8.262Y-4.6488
X8.2971Y-5.3801
X8.3315Y-8.4914
X8.3544Y-6.6025
X8.3992Y-4.3496
X8.481Y-6.2694
X8.4829Y-4.4028
X8.4829Y-4.5157
X8.5015Y-6.0184
X8.5043Y-6.5464
X8.5361Y-4.2315
X8.5692Y-5.2415
X8.5868Y-4.1912
X8.6154Y-4.1155
X8.6441Y-3.1675
X8.6478Y-7.4517
X8.6653Y-4.3204
X8.673Y-4.2682
X8.7358Y-7.9679
X8.7674Y-3.7658
X8.8038Y-3.5839
X8.8705Y-6.8199
X8.9461Y-3.2188
X8.9991Y-5.4963
X9.012Y-5.1563
X9.0448Y-4.6629
X9.0682Y-5.4287
X9.0733Y-4.9295
X9.1581Y-5.2343
X9.1845Y-7.2783
X9.2809Y-5.6699
X9.3016Y-6.9394
X9.3135Y-5.4181
X9.3267Y-7.0094
X9.351Y-6.6948
X9.3545Y-6.0724
X9.3545Y-6.6137
X9.371Y-6.8934
X9.3748Y-5.8204
X9.389Y-8.5068
X9.3937Y-5.3287
X9.4304Y-7.3496
X9.463Y-7.0871
X9.5404Y-7.4148
X9.5836Y-6.1994
X9.6286Y-7.7569
X9.6389Y-7.3484
X9.6452Y-7.5022
X9.6593Y-6.3789
X9.6872Y-6.351
X9.6982Y-5.1563
X9.7205Y-6.5329
X9.7227Y-6.4935
X9.7391Y-6.6403
X9.7765Y-5.213
X9.8172Y-3.2979
X9.858Y-3.2668
X9.9207Y-7.786
X9.9522Y-4.4934
X9.9782Y-4.9059
X10.1149Y-4.5875
X10.2388Y-5.5368
X10.2571Y-6.58
X10.291Y-6.6148
X10.3611Y-5.2987
X10.4878Y-4.5618
X10.5582Y-8.3918
X10.5606Y-6.726
X10.582Y-8.4409
X10.6019Y-7.385
X10.6382Y-6.1662
X10.7325Y-7.3565
X10.7559Y-6.1677
X10.7852Y-6.9089
X10.8735Y-6.6223
X10.9306Y-2.4068
X10.9877Y-6.7851
X11.0568Y-6.5324
X11.0879Y-3.7937
X11.1737Y-4.2934
X11.2029Y-4.5138
X11.2292Y-8.3972
X11.2335Y-4.3344
X11.2345Y-3.0163
X11.2407Y-6.1623
X11.2435Y-3.6332
X11.4031Y-6.8535
T2
X6.5576Y-3.238
X6.6076Y-3.238
X6.6576Y-3.238
X6.8456Y-3.238
X6.8956Y-3.238
X6.9456Y-3.238
X7.1336Y-3.238
X7.1836Y-3.238
X7.2336Y-3.238
T3
X5.1616Y-6.851
X5.1616Y-6.951
X5.1616Y-7.051
X5.1616Y-7.151
X5.1616Y-7.251
X5.1616Y-7.351
X5.1616Y-7.451
X5.1616Y-7.551
X5.1616Y-8.0122
X5.1616Y-8.1122
X5.1616Y-8.2122
X5.1616Y-8.3122
X5.1616Y-8.4122
X5.1616Y-8.5122
X5.1616Y-8.6122
X5.3644Y-6.651
X5.3644Y-7.8029
X5.4616Y-6.851
X5.4616Y-6.951
X5.4616Y-7.051
X5.4616Y-7.151
X5.4616Y-7.251
X5.4616Y-7.351
X5.4616Y-7.451
X5.4616Y-7.551
X5.4616Y-8.0122
X5.4616Y-8.1122
X5.4616Y-8.2122
X5.4616Y-8.3122
X5.4616Y-8.4122
X5.4616Y-8.5122
X5.4616Y-8.6122
X5.4628Y-6.651
X5.4628Y-7.8029
X5.7512Y-6.851
X5.7512Y-6.951
X5.7512Y-7.051
X5.7512Y-7.151
X5.7512Y-7.251
X5.7512Y-7.351
X5.7512Y-7.451
X5.7512Y-8.0122
X5.7512Y-8.1122
X5.7512Y-8.2122
X5.7512Y-8.3122
X5.7512Y-8.4122
X5.7512Y-8.5122
X5.7512Y-8.6122
X5.954Y-6.651
X5.954Y-7.8029
X6.0259Y-3.5222
X6.0259Y-3.9222
X6.0512Y-6.851
X6.0512Y-6.951
X6.0512Y-7.051
X6.0512Y-7.151
X6.0512Y-7.251
X6.0512Y-7.351
X6.0512Y-7.451
X6.0512Y-8.0122
X6.0512Y-8.1122
X6.0512Y-8.2122
X6.0512Y-8.3122
X6.0512Y-8.4122
X6.0512Y-8.5122
X6.0512Y-8.6122
X6.0524Y-6.651
X6.0524Y-7.8029
X6.1724Y-3.5222
X6.1724Y-3.9222
X6.3188Y-3.5222
X6.3188Y-3.9222
X6.3408Y-6.866
X6.3408Y-6.966
X6.3408Y-7.066
X6.3408Y-7.166
X6.3408Y-7.266
X6.3408Y-7.366
X6.3408Y-7.466
X6.3408Y-8.0122
X6.3408Y-8.1122
X6.3408Y-8.2122
X6.3408Y-8.3122
X6.3408Y-8.4122
X6.3408Y-8.5122
X6.3408Y-8.6122
X6.4653Y-3.5222
X6.4653Y-3.9222
X6.5435Y-6.6542
X6.5435Y-7.8029
X6.6118Y-3.5222
X6.6118Y-3.9222
X6.6408Y-6.866
X6.6408Y-6.966
X6.6408Y-7.066
X6.6408Y-7.166
X6.6408Y-7.266
X6.6408Y-7.366
X6.6408Y-7.466
X6.6408Y-8.0122
X6.6408Y-8.1122
X6.6408Y-8.2122
X6.6408Y-8.3122
X6.6408Y-8.4122
X6.6408Y-8.5122
X6.6408Y-8.6122
X6.642Y-6.6542
X6.642Y-7.8029
X6.7582Y-3.5222
X6.7582Y-3.9222
X6.9047Y-3.5222
X6.9047Y-3.9222
X6.958Y-4.3824
X6.958Y-4.4824
X6.958Y-4.5824
X6.958Y-4.6824
X6.958Y-4.7824
X6.958Y-4.8824
X6.958Y-4.9824
X6.958Y-5.0824
X6.958Y-5.1824
X6.958Y-5.2824
X6.958Y-5.6884
X6.958Y-5.7884
X6.958Y-5.8884
X6.958Y-5.9884
X6.958Y-6.0884
X6.958Y-6.1884
X6.958Y-6.2884
X6.958Y-6.3884
X6.958Y-6.4884
X6.958Y-6.5884
X6.958Y-6.992
X6.958Y-7.092
X6.958Y-7.192
X6.958Y-7.292
X6.958Y-7.392
X6.958Y-7.492
X6.958Y-7.592
X6.958Y-8.0122
X6.958Y-8.1122
X6.958Y-8.2122
X6.958Y-8.3122
X6.958Y-8.4122
X6.958Y-8.5122
X6.958Y-8.6122
X7.0511Y-3.5222
X7.0511Y-3.9222
X7.1608Y-6.7802
X7.1608Y-7.8004
X7.1624Y-4.1962
X7.1664Y-5.5002
X7.1976Y-3.5222
X7.1976Y-3.9222
X7.258Y-4.3824
X7.258Y-4.4824
X7.258Y-4.5824
X7.258Y-4.6824
X7.258Y-4.7824
X7.258Y-4.8824
X7.258Y-4.9824
X7.258Y-5.0824
X7.258Y-5.1824
X7.258Y-5.2824
X7.258Y-5.6884
X7.258Y-5.7884
X7.258Y-5.8884
X7.258Y-5.9884
X7.258Y-6.0884
X7.258Y-6.1884
X7.258Y-6.2884
X7.258Y-6.3884
X7.258Y-6.4884
X7.258Y-6.5884
X7.258Y-6.992
X7.258Y-7.092
X7.258Y-7.192
X7.258Y-7.292
X7.258Y-7.392
X7.258Y-7.492
X7.258Y-7.592
X7.258Y-8.0122
X7.258Y-8.1122
X7.258Y-8.2122
X7.258Y-8.3122
X7.258Y-8.4122
X7.258Y-8.5122
X7.258Y-8.6122
X7.2592Y-6.7802
X7.2592Y-7.8004
X7.2608Y-4.1962
X7.2648Y-5.5002
X7.3441Y-3.5222
X7.3441Y-3.9222
X7.4905Y-3.5222
X7.4905Y-3.9222
X7.512Y-7.7122
X7.512Y-7.8122
X7.512Y-7.9122
X7.512Y-8.0122
X7.512Y-8.1122
X7.512Y-8.2122
X7.512Y-8.3122
X7.512Y-8.4122
X7.512Y-8.5122
X7.512Y-8.6122
X7.5428Y-4.408
X7.5428Y-4.508
X7.5428Y-4.608
X7.5428Y-4.708
X7.5428Y-4.808
X7.5428Y-4.908
X7.5428Y-5.008
X7.5428Y-5.7224
X7.5428Y-5.8224
X7.5428Y-5.9224
X7.5428Y-6.0224
X7.5428Y-6.1224
X7.5428Y-6.2224
X7.5428Y-6.3224
X7.5428Y-6.4224
X7.5428Y-6.5224
X7.5428Y-6.6224
X7.637Y-3.5222
X7.637Y-3.9222
X7.7148Y-7.5122
X7.7456Y-4.1962
X7.7456Y-5.5002
X7.7835Y-3.5222
X7.7835Y-3.9222
X7.812Y-7.7122
X7.812Y-7.8122
X7.812Y-7.9122
X7.812Y-8.0122
X7.812Y-8.1122
X7.812Y-8.2122
X7.812Y-8.3122
X7.812Y-8.4122
X7.812Y-8.5122
X7.812Y-8.6122
X7.8132Y-7.5122
X7.8428Y-4.408
X7.8428Y-4.508
X7.8428Y-4.608
X7.8428Y-4.708
X7.8428Y-4.808
X7.8428Y-4.908
X7.8428Y-5.008
X7.8428Y-5.7224
X7.8428Y-5.8224
X7.8428Y-5.9224
X7.8428Y-6.0224
X7.8428Y-6.1224
X7.8428Y-6.2224
X7.8428Y-6.3224
X7.8428Y-6.4224
X7.8428Y-6.5224
X7.8428Y-6.6224
X7.844Y-4.1962
X7.844Y-5.5002
X7.9299Y-3.5222
X7.9299Y-3.9222
X8.12Y-6.7064
X8.12Y-6.8064
X8.12Y-6.9064
X8.12Y-7.0064
X8.12Y-7.1064
X8.12Y-7.2064
X8.12Y-7.3064
X8.12Y-7.4064
X8.12Y-7.5064
X8.12Y-7.6064
X8.12Y-8.0122
X8.12Y-8.1122
X8.12Y-8.2122
X8.12Y-8.3122
X8.12Y-8.4122
X8.12Y-8.5122
X8.12Y-8.6122
X8.126Y-4.408
X8.126Y-4.508
X8.126Y-4.608
X8.126Y-4.708
X8.126Y-4.808
X8.126Y-4.908
X8.126Y-5.008
X8.126Y-5.108
X8.126Y-5.694
X8.126Y-5.794
X8.126Y-5.894
X8.126Y-5.994
X8.126Y-6.094
X8.126Y-6.194
X8.126Y-6.294
X8.2296Y-2.6762
X8.2296Y-2.9762
X8.3212Y-4.1962
X8.3224Y-6.5062
X8.3228Y-7.8004
X8.3288Y-5.5002
X8.4196Y-4.1962
X8.42Y-6.7064
X8.42Y-6.8064
X8.42Y-6.9064
X8.42Y-7.0064
X8.42Y-7.1064
X8.42Y-7.2064
X8.42Y-7.3064
X8.42Y-7.4064
X8.42Y-7.5064
X8.42Y-7.6064
X8.42Y-8.0122
X8.42Y-8.1122
X8.42Y-8.2122
X8.42Y-8.3122
X8.42Y-8.4122
X8.42Y-8.5122
X8.42Y-8.6122
X8.4208Y-6.5062
X8.4212Y-7.8004
X8.426Y-4.408
X8.426Y-4.508
X8.426Y-4.608
X8.426Y-4.708
X8.426Y-4.808
X8.426Y-4.908
X8.426Y-5.008
X8.426Y-5.108
X8.426Y-5.694
X8.426Y-5.794
X8.426Y-5.894
X8.426Y-5.994
X8.426Y-6.094
X8.426Y-6.194
X8.426Y-6.294
X8.4272Y-5.5002
X8.5296Y-2.6762
X8.5296Y-2.9762
X8.654Y-7.7122
X8.654Y-7.8122
X8.654Y-7.9122
X8.654Y-8.0122
X8.654Y-8.1122
X8.654Y-8.2122
X8.654Y-8.3122
X8.654Y-8.4122
X8.654Y-8.5122
X8.654Y-8.6122
X8.8568Y-7.48
X8.9024Y-5.7184
X8.9024Y-5.8184
X8.9024Y-5.9184
X8.9024Y-6.0184
X8.9024Y-6.1184
X8.9024Y-6.2184
X8.9024Y-6.3184
X8.9024Y-6.4184
X8.9024Y-6.5184
X8.9024Y-6.6184
X8.942Y-2.4218
X8.942Y-2.5218
X8.942Y-2.6218
X8.942Y-2.7218
X8.942Y-2.8218
X8.942Y-2.9218
X8.942Y-3.0218
X8.942Y-3.1218
X8.942Y-3.6616
X8.942Y-3.7616
X8.942Y-3.8616
X8.942Y-3.9616
X8.942Y-4.0616
X8.942Y-4.1616
X8.942Y-4.2616
X8.942Y-4.3616
X8.942Y-4.4616
X8.942Y-4.5616
X8.942Y-4.6616
X8.942Y-4.7616
X8.942Y-4.8616
X8.942Y-4.9616
X8.954Y-7.7122
X8.954Y-7.8122
X8.954Y-7.9122
X8.954Y-8.0122
X8.954Y-8.1122
X8.954Y-8.2122
X8.954Y-8.3122
X8.954Y-8.4122
X8.954Y-8.5122
X8.954Y-8.6122
X8.9552Y-7.48
X9.1051Y-5.5002
X9.1448Y-2.2218
X9.188Y-7.7122
X9.188Y-7.8122
X9.188Y-7.9122
X9.188Y-8.0122
X9.188Y-8.1122
X9.188Y-8.2122
X9.188Y-8.3122
X9.188Y-8.4122
X9.188Y-8.5122
X9.188Y-8.6122
X9.2024Y-5.7184
X9.2024Y-5.8184
X9.2024Y-5.9184
X9.2024Y-6.0184
X9.2024Y-6.1184
X9.2024Y-6.2184
X9.2024Y-6.3184
X9.2024Y-6.4184
X9.2024Y-6.5184
X9.2024Y-6.6184
X9.2036Y-5.5002
X9.242Y-2.4218
X9.242Y-2.5218
X9.242Y-2.6218
X9.242Y-2.7218
X9.242Y-2.8218
X9.242Y-2.9218
X9.242Y-3.0218
X9.242Y-3.1218
X9.2432Y-2.2218
X9.3908Y-7.5122
X9.4459Y-3.4616
X9.488Y-7.7122
X9.488Y-7.8122
X9.488Y-7.9122
X9.488Y-8.0122
X9.488Y-8.1122
X9.488Y-8.2122
X9.488Y-8.3122
X9.488Y-8.4122
X9.488Y-8.5122
X9.488Y-8.6122
X9.4892Y-7.5122
X9.4961Y-5.7224
X9.4961Y-5.8224
X9.4961Y-5.9224
X9.4961Y-6.0224
X9.4961Y-6.1224
X9.4961Y-6.2224
X9.4961Y-6.3224
X9.4961Y-6.4224
X9.4961Y-6.5224
X9.4961Y-6.6224
X9.5293Y-2.4218
X9.5293Y-2.5218
X9.5293Y-2.6218
X9.5293Y-2.7218
X9.5293Y-2.8218
X9.5293Y-2.9218
X9.5293Y-3.0218
X9.5293Y-3.1218
X9.542Y-3.6616
X9.542Y-3.7616
X9.542Y-3.8616
X9.542Y-3.9616
X9.542Y-4.0616
X9.542Y-4.1616
X9.542Y-4.2616
X9.542Y-4.3616
X9.542Y-4.4616
X9.542Y-4.5616
X9.542Y-4.6616
X9.542Y-4.7616
X9.542Y-4.8616
X9.542Y-4.9616
X9.5444Y-3.4616
X9.6988Y-5.5002
X9.7367Y-2.2218
X9.7656Y-7.3122
X9.7656Y-7.4122
X9.7656Y-7.5122
X9.7656Y-7.6122
X9.7656Y-7.7122
X9.7656Y-7.8122
X9.7656Y-7.9122
X9.7656Y-8.0122
X9.7656Y-8.1122
X9.7656Y-8.2122
X9.7656Y-8.3122
X9.7656Y-8.4122
X9.7656Y-8.5122
X9.7656Y-8.6122
X9.7961Y-5.7224
X9.7961Y-5.8224
X9.7961Y-5.9224
X9.7961Y-6.0224
X9.7961Y-6.1224
X9.7961Y-6.2224
X9.7961Y-6.3224
X9.7961Y-6.4224
X9.7961Y-6.5224
X9.7961Y-6.6224
X9.7972Y-5.5002
X9.8254Y-3.659
X9.8254Y-3.759
X9.8254Y-3.859
X9.8254Y-3.959
X9.8254Y-4.059
X9.8254Y-4.159
X9.8254Y-4.259
X9.8254Y-4.359
X9.8254Y-4.459
X9.8254Y-4.559
X9.8254Y-4.659
X9.8254Y-4.759
X9.8254Y-4.859
X9.8254Y-4.959
X9.8293Y-2.4218
X9.8293Y-2.5218
X9.8293Y-2.6218
X9.8293Y-2.7218
X9.8293Y-2.8218
X9.8293Y-2.9218
X9.8293Y-3.0218
X9.8293Y-3.1218
X9.8352Y-2.2218
X10.0897Y-5.7002
X10.0897Y-5.8002
X10.0897Y-5.9002
X10.0897Y-6.0002
X10.0897Y-6.1002
X10.0897Y-6.2002
X10.0897Y-6.3002
X10.0897Y-6.4002
X10.0897Y-6.5002
X10.0897Y-6.6002
X10.1213Y-2.4218
X10.1213Y-2.5218
X10.1213Y-2.6218
X10.1213Y-2.7218
X10.1213Y-2.8218
X10.1213Y-2.9218
X10.1213Y-3.0218
X10.1213Y-3.1218
X10.2686Y-7.1548
X10.2925Y-5.5002
X10.3241Y-2.2218
X10.3293Y-3.4616
X10.3656Y-7.3122
X10.3656Y-7.4122
X10.3656Y-7.5122
X10.3656Y-7.6122
X10.3656Y-7.7122
X10.3656Y-7.8122
X10.3656Y-7.9122
X10.3656Y-8.0122
X10.3656Y-8.1122
X10.3656Y-8.2122
X10.3656Y-8.3122
X10.3656Y-8.4122
X10.3656Y-8.5122
X10.3656Y-8.6122
X10.367Y-7.1548
X10.3897Y-5.7002
X10.3897Y-5.8002
X10.3897Y-5.9002
X10.3897Y-6.0002
X10.3897Y-6.1002
X10.3897Y-6.2002
X10.3897Y-6.3002
X10.3897Y-6.4002
X10.3897Y-6.5002
X10.3897Y-6.6002
X10.3909Y-5.5002
X10.4213Y-2.4218
X10.4213Y-2.5218
X10.4213Y-2.6218
X10.4213Y-2.7218
X10.4213Y-2.8218
X10.4213Y-2.9218
X10.4213Y-3.0218
X10.4213Y-3.1218
X10.4225Y-2.2218
X10.4254Y-3.659
X10.4254Y-3.759
X10.4254Y-3.859
X10.4254Y-3.959
X10.4254Y-4.059
X10.4254Y-4.159
X10.4254Y-4.259
X10.4254Y-4.359
X10.4254Y-4.459
X10.4254Y-4.559
X10.4254Y-4.659
X10.4254Y-4.759
X10.4254Y-4.859
X10.4254Y-4.959
X10.4278Y-3.4616
X10.7023Y-5.7002
X10.7023Y-5.8002
X10.7023Y-5.9002
X10.7023Y-6.0002
X10.7023Y-6.1002
X10.7023Y-6.2002
X10.7023Y-6.3002
X10.7023Y-6.4002
X10.7023Y-6.5002
X10.7023Y-6.6002
X10.7087Y-2.44
X10.7087Y-2.54
X10.7087Y-2.64
X10.7087Y-2.74
X10.7087Y-2.84
X10.7087Y-2.94
X10.7087Y-3.04
X10.7087Y-3.14
X10.7087Y-3.6938
X10.7087Y-3.7938
X10.7087Y-3.8938
X10.7087Y-3.9938
X10.7087Y-4.0938
X10.7087Y-4.1938
X10.7087Y-4.2938
X10.7087Y-4.3938
X10.7087Y-4.4938
X10.7087Y-4.5938
X10.7122Y-7.7184
X10.7122Y-7.8184
X10.7122Y-7.9184
X10.7122Y-8.0184
X10.7122Y-8.1184
X10.7122Y-8.2184
X10.7122Y-8.3184
X10.7122Y-8.4184
X10.7122Y-8.5184
X10.7122Y-8.6184
X10.9051Y-5.5002
X10.9114Y-2.2218
X10.9114Y-3.4616
X10.9149Y-7.4962
X11.0023Y-5.7002
X11.0023Y-5.8002
X11.0023Y-5.9002
X11.0023Y-6.0002
X11.0023Y-6.1002
X11.0023Y-6.2002
X11.0023Y-6.3002
X11.0023Y-6.4002
X11.0023Y-6.5002
X11.0023Y-6.6002
X11.0035Y-5.5002
X11.0087Y-2.44
X11.0087Y-2.54
X11.0087Y-2.64
X11.0087Y-2.74
X11.0087Y-2.84
X11.0087Y-2.94
X11.0087Y-3.04
X11.0087Y-3.14
X11.0087Y-3.6938
X11.0087Y-3.7938
X11.0087Y-3.8938
X11.0087Y-3.9938
X11.0087Y-4.0938
X11.0087Y-4.1938
X11.0087Y-4.2938
X11.0087Y-4.3938
X11.0087Y-4.4938
X11.0087Y-4.5938
X11.0098Y-2.2218
X11.0098Y-3.4616
X11.0122Y-7.7184
X11.0122Y-7.8184
X11.0122Y-7.9184
X11.0122Y-8.0184
X11.0122Y-8.1184
X11.0122Y-8.2184
X11.0122Y-8.3184
X11.0122Y-8.4184
X11.0122Y-8.5184
X11.0122Y-8.6184
X11.0134Y-7.4962
X11.296Y-2.4336
X11.296Y-2.5336
X11.296Y-2.6336
X11.296Y-2.7336
X11.296Y-2.8336
X11.296Y-2.9336
X11.296Y-3.0336
X11.296Y-3.1336
X11.296Y-3.6838
X11.296Y-3.7838
X11.296Y-3.8838
X11.296Y-3.9838
X11.296Y-4.0838
X11.296Y-4.1838
X11.296Y-4.2838
X11.296Y-4.3838
X11.296Y-4.4838
X11.296Y-4.5838
X11.296Y-5.7324
X11.296Y-5.8324
X11.296Y-5.9324
X11.296Y-6.0324
X11.296Y-6.1324
X11.296Y-6.2324
X11.296Y-6.3324
X11.296Y-6.4324
X11.296Y-6.5324
X11.296Y-6.6324
X11.296Y-7.9172
X11.296Y-8.0172
X11.296Y-8.1172
X11.296Y-8.2172
X11.296Y-8.3172
X11.296Y-8.4172
X11.296Y-8.5172
X11.296Y-8.6172
X11.4988Y-2.2218
X11.4988Y-3.4616
X11.4988Y-5.5002
X11.4988Y-7.712
X11.596Y-2.4336
X11.596Y-2.5336
X11.596Y-2.6336
X11.596Y-2.7336
X11.596Y-2.8336
X11.596Y-2.9336
X11.596Y-3.0336
X11.596Y-3.1336
X11.596Y-3.6838
X11.596Y-3.7838
X11.596Y-3.8838
X11.596Y-3.9838
X11.596Y-4.0838
X11.596Y-4.1838
X11.596Y-4.2838
X11.596Y-4.3838
X11.596Y-4.4838
X11.596Y-4.5838
X11.596Y-5.7324
X11.596Y-5.8324
X11.596Y-5.9324
X11.596Y-6.0324
X11.596Y-6.1324
X11.596Y-6.2324
X11.596Y-6.3324
X11.596Y-6.4324
X11.596Y-6.5324
X11.596Y-6.6324
X11.596Y-7.9172
X11.596Y-8.0172
X11.596Y-8.1172
X11.596Y-8.2172
X11.596Y-8.3172
X11.596Y-8.4172
X11.596Y-8.5172
X11.596Y-8.6172
X11.5972Y-2.2218
X11.5972Y-3.4616
X11.5972Y-5.5002
X11.5972Y-7.712
T4
X5.1594Y-2.135
X5.1594Y-2.235
X5.1594Y-2.335
X5.1594Y-2.435
X5.1594Y-2.535
X5.1594Y-2.635
X5.1594Y-2.735
X5.1594Y-2.835
X5.1594Y-2.935
X5.1594Y-3.035
X5.1594Y-3.135
X5.1594Y-3.235
X5.1594Y-3.335
X5.1594Y-3.435
X5.1594Y-3.535
X5.1594Y-3.635
X5.1594Y-3.735
X5.1594Y-3.835
X5.1594Y-3.935
X5.1594Y-4.035
X5.1616Y-4.3928
X5.1616Y-4.4928
X5.1616Y-4.5928
X5.1616Y-4.6928
X5.1616Y-4.7928
X5.1616Y-4.8928
X5.1616Y-4.9928
X5.1616Y-5.0928
X5.1616Y-5.1928
X5.1616Y-5.2928
X5.1616Y-5.3928
X5.1616Y-5.4928
X5.1616Y-5.5928
X5.1616Y-5.6928
X5.1616Y-5.7928
X5.1616Y-5.8928
X5.1616Y-5.9928
X5.1616Y-6.0928
X5.1616Y-6.1928
X5.1616Y-6.2928
X5.2594Y-2.135
X5.2594Y-2.235
X5.2594Y-2.335
X5.2594Y-2.435
X5.2594Y-2.535
X5.2594Y-2.635
X5.2594Y-2.735
X5.2594Y-2.835
X5.2594Y-2.935
X5.2594Y-3.035
X5.2594Y-3.135
X5.2594Y-3.235
X5.2594Y-3.335
X5.2594Y-3.435
X5.2594Y-3.535
X5.2594Y-3.635
X5.2594Y-3.735
X5.2594Y-3.835
X5.2594Y-3.935
X5.2594Y-4.035
X5.2616Y-4.3928
X5.2616Y-4.4928
X5.2616Y-4.5928
X5.2616Y-4.6928
X5.2616Y-4.7928
X5.2616Y-4.8928
X5.2616Y-4.9928
X5.2616Y-5.0928
X5.2616Y-5.1928
X5.2616Y-5.2928
X5.2616Y-5.3928
X5.2616Y-5.4928
X5.2616Y-5.5928
X5.2616Y-5.6928
X5.2616Y-5.7928
X5.2616Y-5.8928
X5.2616Y-5.9928
X5.2616Y-6.0928
X5.2616Y-6.1928
X5.2616Y-6.2928
X5.6236Y-2.1428
X5.6236Y-2.2428
X5.6236Y-2.3428
X5.6236Y-2.4428
X5.6236Y-2.5428
X5.6236Y-2.6428
X5.6236Y-2.7428
X5.6236Y-2.8428
X5.6236Y-2.9428
X5.6236Y-3.0428
X5.6236Y-3.1428
X5.6236Y-3.2428
X5.6236Y-3.3428
X5.6236Y-3.4428
X5.6236Y-3.5428
X5.6236Y-3.6428
X5.6236Y-3.7428
X5.6236Y-3.8428
X5.6236Y-3.9428
X5.6236Y-4.0428
X5.6256Y-4.3928
X5.6256Y-4.4928
X5.6256Y-4.5928
X5.6256Y-4.6928
X5.6256Y-4.7928
X5.6256Y-4.8928
X5.6256Y-4.9928
X5.6256Y-5.0928
X5.6256Y-5.1928
X5.6256Y-5.2928
X5.6256Y-5.3928
X5.6256Y-5.4928
X5.6256Y-5.5928
X5.6256Y-5.6928
X5.6256Y-5.7928
X5.6256Y-5.8928
X5.6256Y-5.9928
X5.6256Y-6.0928
X5.6256Y-6.1928
X5.6256Y-6.2928
X5.7236Y-2.1428
X5.7236Y-2.2428
X5.7236Y-2.3428
X5.7236Y-2.4428
X5.7236Y-2.5428
X5.7236Y-2.6428
X5.7236Y-2.7428
X5.7236Y-2.8428
X5.7236Y-2.9428
X5.7236Y-3.0428
X5.7236Y-3.1428
X5.7236Y-3.2428
X5.7236Y-3.3428
X5.7236Y-3.4428
X5.7236Y-3.5428
X5.7236Y-3.6428
X5.7236Y-3.7428
X5.7236Y-3.8428
X5.7236Y-3.9428
X5.7236Y-4.0428
X5.7256Y-4.3928
X5.7256Y-4.4928
X5.7256Y-4.5928
X5.7256Y-4.6928
X5.7256Y-4.7928
X5.7256Y-4.8928
X5.7256Y-4.9928
X5.7256Y-5.0928
X5.7256Y-5.1928
X5.7256Y-5.2928
X5.7256Y-5.3928
X5.7256Y-5.4928
X5.7256Y-5.5928
X5.7256Y-5.6928
X5.7256Y-5.7928
X5.7256Y-5.8928
X5.7256Y-5.9928
X5.7256Y-6.0928
X5.7256Y-6.1928
X5.7256Y-6.2928
X6.0656Y-4.3928
X6.0656Y-4.4928
X6.0656Y-4.5928
X6.0656Y-4.6928
X6.0656Y-4.7928
X6.0656Y-4.8928
X6.0656Y-4.9928
X6.0656Y-5.0928
X6.0656Y-5.1928
X6.0656Y-5.2928
X6.0656Y-5.3928
X6.0656Y-5.4928
X6.0656Y-5.5928
X6.0656Y-5.6928
X6.0656Y-5.7928
X6.0656Y-5.8928
X6.0656Y-5.9928
X6.0656Y-6.0928
X6.0656Y-6.1928
X6.0656Y-6.2928
X6.1656Y-4.3928
X6.1656Y-4.4928
X6.1656Y-4.5928
X6.1656Y-4.6928
X6.1656Y-4.7928
X6.1656Y-4.8928
X6.1656Y-4.9928
X6.1656Y-5.0928
X6.1656Y-5.1928
X6.1656Y-5.2928
X6.1656Y-5.3928
X6.1656Y-5.4928
X6.1656Y-5.5928
X6.1656Y-5.6928
X6.1656Y-5.7928
X6.1656Y-5.8928
X6.1656Y-5.9928
X6.1656Y-6.0928
X6.1656Y-6.1928
X6.1656Y-6.2928
X6.5396Y-4.3928
X6.5396Y-4.4928
X6.5396Y-4.5928
X6.5396Y-4.6928
X6.5396Y-4.7928
X6.5396Y-4.8928
X6.5396Y-4.9928
X6.5396Y-5.0928
X6.5396Y-5.1928
X6.5396Y-5.2928
X6.5396Y-5.3928
X6.5396Y-5.4928
X6.5396Y-5.5928
X6.5396Y-5.6928
X6.5396Y-5.7928
X6.5396Y-5.8928
X6.5396Y-5.9928
X6.5396Y-6.0928
X6.5396Y-6.1928
X6.5396Y-6.2928
X6.6396Y-4.3928
X6.6396Y-4.4928
X6.6396Y-4.5928
X6.6396Y-4.6928
X6.6396Y-4.7928
X6.6396Y-4.8928
X6.6396Y-4.9928
X6.6396Y-5.0928
X6.6396Y-5.1928
X6.6396Y-5.2928
X6.6396Y-5.3928
X6.6396Y-5.4928
X6.6396Y-5.5928
X6.6396Y-5.6928
X6.6396Y-5.7928
X6.6396Y-5.8928
X6.6396Y-5.9928
X6.6396Y-6.0928
X6.6396Y-6.1928
X6.6396Y-6.2928
T5
X6.6848Y-2.882
X6.7297Y-2.782
X6.7297Y-2.982
X6.7746Y-2.882
X6.8195Y-2.782
X6.8195Y-2.982
X6.8644Y-2.882
X6.9093Y-2.782
X6.9093Y-2.982
X6.9541Y-2.882
X6.999Y-2.782
X6.999Y-2.982
X7.0439Y-2.882
X7.0888Y-2.782
X7.0888Y-2.982
T6
X6.4075Y-2.882
X7.3917Y-2.882
T0
M30
