%TF.GenerationSoftware,KiCad,Pcbnew,(6.0.7)*%
%TF.CreationDate,2022-10-13T11:24:39-04:00*%
%TF.ProjectId,VGA,5647412e-6b69-4636-9164-5f7063625858,1.0*%
%TF.SameCoordinates,Original*%
%TF.FileFunction,Legend,Top*%
%TF.FilePolarity,Positive*%
%FSLAX46Y46*%
G04 Gerber Fmt 4.6, Leading zero omitted, Abs format (unit mm)*
G04 Created by KiCad (PCBNEW (6.0.7)) date 2022-10-13 11:24:39*
%MOMM*%
%LPD*%
G01*
G04 APERTURE LIST*
%ADD10C,0.150000*%
%ADD11C,0.120000*%
%ADD12C,0.400000*%
%ADD13C,0.127000*%
G04 APERTURE END LIST*
D10*
%TO.C,R4*%
X157230680Y-95085057D02*
X156754490Y-95418391D01*
X157230680Y-95656486D02*
X156230680Y-95656486D01*
X156230680Y-95275533D01*
X156278300Y-95180295D01*
X156325919Y-95132676D01*
X156421157Y-95085057D01*
X156564014Y-95085057D01*
X156659252Y-95132676D01*
X156706871Y-95180295D01*
X156754490Y-95275533D01*
X156754490Y-95656486D01*
X156564014Y-94227914D02*
X157230680Y-94227914D01*
X156183061Y-94466010D02*
X156897347Y-94704105D01*
X156897347Y-94085057D01*
%TO.C,C15*%
X212005142Y-195987142D02*
X211957523Y-196034761D01*
X211814666Y-196082380D01*
X211719428Y-196082380D01*
X211576571Y-196034761D01*
X211481333Y-195939523D01*
X211433714Y-195844285D01*
X211386095Y-195653809D01*
X211386095Y-195510952D01*
X211433714Y-195320476D01*
X211481333Y-195225238D01*
X211576571Y-195130000D01*
X211719428Y-195082380D01*
X211814666Y-195082380D01*
X211957523Y-195130000D01*
X212005142Y-195177619D01*
X212957523Y-196082380D02*
X212386095Y-196082380D01*
X212671809Y-196082380D02*
X212671809Y-195082380D01*
X212576571Y-195225238D01*
X212481333Y-195320476D01*
X212386095Y-195368095D01*
X213862285Y-195082380D02*
X213386095Y-195082380D01*
X213338476Y-195558571D01*
X213386095Y-195510952D01*
X213481333Y-195463333D01*
X213719428Y-195463333D01*
X213814666Y-195510952D01*
X213862285Y-195558571D01*
X213909904Y-195653809D01*
X213909904Y-195891904D01*
X213862285Y-195987142D01*
X213814666Y-196034761D01*
X213719428Y-196082380D01*
X213481333Y-196082380D01*
X213386095Y-196034761D01*
X213338476Y-195987142D01*
%TO.C,C35*%
X182633542Y-137562142D02*
X182585923Y-137609761D01*
X182443066Y-137657380D01*
X182347828Y-137657380D01*
X182204971Y-137609761D01*
X182109733Y-137514523D01*
X182062114Y-137419285D01*
X182014495Y-137228809D01*
X182014495Y-137085952D01*
X182062114Y-136895476D01*
X182109733Y-136800238D01*
X182204971Y-136705000D01*
X182347828Y-136657380D01*
X182443066Y-136657380D01*
X182585923Y-136705000D01*
X182633542Y-136752619D01*
X182966876Y-136657380D02*
X183585923Y-136657380D01*
X183252590Y-137038333D01*
X183395447Y-137038333D01*
X183490685Y-137085952D01*
X183538304Y-137133571D01*
X183585923Y-137228809D01*
X183585923Y-137466904D01*
X183538304Y-137562142D01*
X183490685Y-137609761D01*
X183395447Y-137657380D01*
X183109733Y-137657380D01*
X183014495Y-137609761D01*
X182966876Y-137562142D01*
X184490685Y-136657380D02*
X184014495Y-136657380D01*
X183966876Y-137133571D01*
X184014495Y-137085952D01*
X184109733Y-137038333D01*
X184347828Y-137038333D01*
X184443066Y-137085952D01*
X184490685Y-137133571D01*
X184538304Y-137228809D01*
X184538304Y-137466904D01*
X184490685Y-137562142D01*
X184443066Y-137609761D01*
X184347828Y-137657380D01*
X184109733Y-137657380D01*
X184014495Y-137609761D01*
X183966876Y-137562142D01*
%TO.C,U7*%
X134152895Y-200632180D02*
X134152895Y-201441704D01*
X134200514Y-201536942D01*
X134248133Y-201584561D01*
X134343371Y-201632180D01*
X134533847Y-201632180D01*
X134629085Y-201584561D01*
X134676704Y-201536942D01*
X134724323Y-201441704D01*
X134724323Y-200632180D01*
X135105276Y-200632180D02*
X135771942Y-200632180D01*
X135343371Y-201632180D01*
%TO.C,C12*%
X182490342Y-195987142D02*
X182442723Y-196034761D01*
X182299866Y-196082380D01*
X182204628Y-196082380D01*
X182061771Y-196034761D01*
X181966533Y-195939523D01*
X181918914Y-195844285D01*
X181871295Y-195653809D01*
X181871295Y-195510952D01*
X181918914Y-195320476D01*
X181966533Y-195225238D01*
X182061771Y-195130000D01*
X182204628Y-195082380D01*
X182299866Y-195082380D01*
X182442723Y-195130000D01*
X182490342Y-195177619D01*
X183442723Y-196082380D02*
X182871295Y-196082380D01*
X183157009Y-196082380D02*
X183157009Y-195082380D01*
X183061771Y-195225238D01*
X182966533Y-195320476D01*
X182871295Y-195368095D01*
X183823676Y-195177619D02*
X183871295Y-195130000D01*
X183966533Y-195082380D01*
X184204628Y-195082380D01*
X184299866Y-195130000D01*
X184347485Y-195177619D01*
X184395104Y-195272857D01*
X184395104Y-195368095D01*
X184347485Y-195510952D01*
X183776057Y-196082380D01*
X184395104Y-196082380D01*
%TO.C,U4*%
X164104095Y-200632180D02*
X164104095Y-201441704D01*
X164151714Y-201536942D01*
X164199333Y-201584561D01*
X164294571Y-201632180D01*
X164485047Y-201632180D01*
X164580285Y-201584561D01*
X164627904Y-201536942D01*
X164675523Y-201441704D01*
X164675523Y-200632180D01*
X165580285Y-200965514D02*
X165580285Y-201632180D01*
X165342190Y-200584561D02*
X165104095Y-201298847D01*
X165723142Y-201298847D01*
%TO.C,U18*%
X258851304Y-141907380D02*
X258851304Y-142716904D01*
X258898923Y-142812142D01*
X258946542Y-142859761D01*
X259041780Y-142907380D01*
X259232257Y-142907380D01*
X259327495Y-142859761D01*
X259375114Y-142812142D01*
X259422733Y-142716904D01*
X259422733Y-141907380D01*
X260422733Y-142907380D02*
X259851304Y-142907380D01*
X260137019Y-142907380D02*
X260137019Y-141907380D01*
X260041780Y-142050238D01*
X259946542Y-142145476D01*
X259851304Y-142193095D01*
X260994161Y-142335952D02*
X260898923Y-142288333D01*
X260851304Y-142240714D01*
X260803685Y-142145476D01*
X260803685Y-142097857D01*
X260851304Y-142002619D01*
X260898923Y-141955000D01*
X260994161Y-141907380D01*
X261184638Y-141907380D01*
X261279876Y-141955000D01*
X261327495Y-142002619D01*
X261375114Y-142097857D01*
X261375114Y-142145476D01*
X261327495Y-142240714D01*
X261279876Y-142288333D01*
X261184638Y-142335952D01*
X260994161Y-142335952D01*
X260898923Y-142383571D01*
X260851304Y-142431190D01*
X260803685Y-142526428D01*
X260803685Y-142716904D01*
X260851304Y-142812142D01*
X260898923Y-142859761D01*
X260994161Y-142907380D01*
X261184638Y-142907380D01*
X261279876Y-142859761D01*
X261327495Y-142812142D01*
X261375114Y-142716904D01*
X261375114Y-142526428D01*
X261327495Y-142431190D01*
X261279876Y-142383571D01*
X261184638Y-142335952D01*
%TO.C,Q2*%
X167737961Y-86353419D02*
X167642723Y-86305800D01*
X167547485Y-86210561D01*
X167404628Y-86067704D01*
X167309390Y-86020085D01*
X167214152Y-86020085D01*
X167261771Y-86258180D02*
X167166533Y-86210561D01*
X167071295Y-86115323D01*
X167023676Y-85924847D01*
X167023676Y-85591514D01*
X167071295Y-85401038D01*
X167166533Y-85305800D01*
X167261771Y-85258180D01*
X167452247Y-85258180D01*
X167547485Y-85305800D01*
X167642723Y-85401038D01*
X167690342Y-85591514D01*
X167690342Y-85924847D01*
X167642723Y-86115323D01*
X167547485Y-86210561D01*
X167452247Y-86258180D01*
X167261771Y-86258180D01*
X168071295Y-85353419D02*
X168118914Y-85305800D01*
X168214152Y-85258180D01*
X168452247Y-85258180D01*
X168547485Y-85305800D01*
X168595104Y-85353419D01*
X168642723Y-85448657D01*
X168642723Y-85543895D01*
X168595104Y-85686752D01*
X168023676Y-86258180D01*
X168642723Y-86258180D01*
%TO.C,C9*%
X152313733Y-166792942D02*
X152266114Y-166840561D01*
X152123257Y-166888180D01*
X152028019Y-166888180D01*
X151885161Y-166840561D01*
X151789923Y-166745323D01*
X151742304Y-166650085D01*
X151694685Y-166459609D01*
X151694685Y-166316752D01*
X151742304Y-166126276D01*
X151789923Y-166031038D01*
X151885161Y-165935800D01*
X152028019Y-165888180D01*
X152123257Y-165888180D01*
X152266114Y-165935800D01*
X152313733Y-165983419D01*
X152789923Y-166888180D02*
X152980400Y-166888180D01*
X153075638Y-166840561D01*
X153123257Y-166792942D01*
X153218495Y-166650085D01*
X153266114Y-166459609D01*
X153266114Y-166078657D01*
X153218495Y-165983419D01*
X153170876Y-165935800D01*
X153075638Y-165888180D01*
X152885161Y-165888180D01*
X152789923Y-165935800D01*
X152742304Y-165983419D01*
X152694685Y-166078657D01*
X152694685Y-166316752D01*
X152742304Y-166411990D01*
X152789923Y-166459609D01*
X152885161Y-166507228D01*
X153075638Y-166507228D01*
X153170876Y-166459609D01*
X153218495Y-166411990D01*
X153266114Y-166316752D01*
%TO.C,U11*%
X222383504Y-193012180D02*
X222383504Y-193821704D01*
X222431123Y-193916942D01*
X222478742Y-193964561D01*
X222573980Y-194012180D01*
X222764457Y-194012180D01*
X222859695Y-193964561D01*
X222907314Y-193916942D01*
X222954933Y-193821704D01*
X222954933Y-193012180D01*
X223954933Y-194012180D02*
X223383504Y-194012180D01*
X223669219Y-194012180D02*
X223669219Y-193012180D01*
X223573980Y-193155038D01*
X223478742Y-193250276D01*
X223383504Y-193297895D01*
X224907314Y-194012180D02*
X224335885Y-194012180D01*
X224621600Y-194012180D02*
X224621600Y-193012180D01*
X224526361Y-193155038D01*
X224431123Y-193250276D01*
X224335885Y-193297895D01*
%TO.C,U29*%
X228901104Y-141905580D02*
X228901104Y-142715104D01*
X228948723Y-142810342D01*
X228996342Y-142857961D01*
X229091580Y-142905580D01*
X229282057Y-142905580D01*
X229377295Y-142857961D01*
X229424914Y-142810342D01*
X229472533Y-142715104D01*
X229472533Y-141905580D01*
X229901104Y-142000819D02*
X229948723Y-141953200D01*
X230043961Y-141905580D01*
X230282057Y-141905580D01*
X230377295Y-141953200D01*
X230424914Y-142000819D01*
X230472533Y-142096057D01*
X230472533Y-142191295D01*
X230424914Y-142334152D01*
X229853485Y-142905580D01*
X230472533Y-142905580D01*
X230948723Y-142905580D02*
X231139200Y-142905580D01*
X231234438Y-142857961D01*
X231282057Y-142810342D01*
X231377295Y-142667485D01*
X231424914Y-142477009D01*
X231424914Y-142096057D01*
X231377295Y-142000819D01*
X231329676Y-141953200D01*
X231234438Y-141905580D01*
X231043961Y-141905580D01*
X230948723Y-141953200D01*
X230901104Y-142000819D01*
X230853485Y-142096057D01*
X230853485Y-142334152D01*
X230901104Y-142429390D01*
X230948723Y-142477009D01*
X231043961Y-142524628D01*
X231234438Y-142524628D01*
X231329676Y-142477009D01*
X231377295Y-142429390D01*
X231424914Y-142334152D01*
%TO.C,C28*%
X211965542Y-104440542D02*
X211917923Y-104488161D01*
X211775066Y-104535780D01*
X211679828Y-104535780D01*
X211536971Y-104488161D01*
X211441733Y-104392923D01*
X211394114Y-104297685D01*
X211346495Y-104107209D01*
X211346495Y-103964352D01*
X211394114Y-103773876D01*
X211441733Y-103678638D01*
X211536971Y-103583400D01*
X211679828Y-103535780D01*
X211775066Y-103535780D01*
X211917923Y-103583400D01*
X211965542Y-103631019D01*
X212346495Y-103631019D02*
X212394114Y-103583400D01*
X212489352Y-103535780D01*
X212727447Y-103535780D01*
X212822685Y-103583400D01*
X212870304Y-103631019D01*
X212917923Y-103726257D01*
X212917923Y-103821495D01*
X212870304Y-103964352D01*
X212298876Y-104535780D01*
X212917923Y-104535780D01*
X213489352Y-103964352D02*
X213394114Y-103916733D01*
X213346495Y-103869114D01*
X213298876Y-103773876D01*
X213298876Y-103726257D01*
X213346495Y-103631019D01*
X213394114Y-103583400D01*
X213489352Y-103535780D01*
X213679828Y-103535780D01*
X213775066Y-103583400D01*
X213822685Y-103631019D01*
X213870304Y-103726257D01*
X213870304Y-103773876D01*
X213822685Y-103869114D01*
X213775066Y-103916733D01*
X213679828Y-103964352D01*
X213489352Y-103964352D01*
X213394114Y-104011971D01*
X213346495Y-104059590D01*
X213298876Y-104154828D01*
X213298876Y-104345304D01*
X213346495Y-104440542D01*
X213394114Y-104488161D01*
X213489352Y-104535780D01*
X213679828Y-104535780D01*
X213775066Y-104488161D01*
X213822685Y-104440542D01*
X213870304Y-104345304D01*
X213870304Y-104154828D01*
X213822685Y-104059590D01*
X213775066Y-104011971D01*
X213679828Y-103964352D01*
%TO.C,C36*%
X197344742Y-104440542D02*
X197297123Y-104488161D01*
X197154266Y-104535780D01*
X197059028Y-104535780D01*
X196916171Y-104488161D01*
X196820933Y-104392923D01*
X196773314Y-104297685D01*
X196725695Y-104107209D01*
X196725695Y-103964352D01*
X196773314Y-103773876D01*
X196820933Y-103678638D01*
X196916171Y-103583400D01*
X197059028Y-103535780D01*
X197154266Y-103535780D01*
X197297123Y-103583400D01*
X197344742Y-103631019D01*
X197678076Y-103535780D02*
X198297123Y-103535780D01*
X197963790Y-103916733D01*
X198106647Y-103916733D01*
X198201885Y-103964352D01*
X198249504Y-104011971D01*
X198297123Y-104107209D01*
X198297123Y-104345304D01*
X198249504Y-104440542D01*
X198201885Y-104488161D01*
X198106647Y-104535780D01*
X197820933Y-104535780D01*
X197725695Y-104488161D01*
X197678076Y-104440542D01*
X199154266Y-103535780D02*
X198963790Y-103535780D01*
X198868552Y-103583400D01*
X198820933Y-103631019D01*
X198725695Y-103773876D01*
X198678076Y-103964352D01*
X198678076Y-104345304D01*
X198725695Y-104440542D01*
X198773314Y-104488161D01*
X198868552Y-104535780D01*
X199059028Y-104535780D01*
X199154266Y-104488161D01*
X199201885Y-104440542D01*
X199249504Y-104345304D01*
X199249504Y-104107209D01*
X199201885Y-104011971D01*
X199154266Y-103964352D01*
X199059028Y-103916733D01*
X198868552Y-103916733D01*
X198773314Y-103964352D01*
X198725695Y-104011971D01*
X198678076Y-104107209D01*
%TO.C,J7*%
X143329066Y-50709601D02*
X143329066Y-51423887D01*
X143281447Y-51566744D01*
X143186209Y-51661982D01*
X143043352Y-51709601D01*
X142948114Y-51709601D01*
X143710019Y-50709601D02*
X144376685Y-50709601D01*
X143948114Y-51709601D01*
%TO.C,R7*%
X186837948Y-95085057D02*
X186361758Y-95418391D01*
X186837948Y-95656486D02*
X185837948Y-95656486D01*
X185837948Y-95275533D01*
X185885568Y-95180295D01*
X185933187Y-95132676D01*
X186028425Y-95085057D01*
X186171282Y-95085057D01*
X186266520Y-95132676D01*
X186314139Y-95180295D01*
X186361758Y-95275533D01*
X186361758Y-95656486D01*
X185837948Y-94751724D02*
X185837948Y-94085057D01*
X186837948Y-94513629D01*
%TO.C,C16*%
X262036542Y-137562142D02*
X261988923Y-137609761D01*
X261846066Y-137657380D01*
X261750828Y-137657380D01*
X261607971Y-137609761D01*
X261512733Y-137514523D01*
X261465114Y-137419285D01*
X261417495Y-137228809D01*
X261417495Y-137085952D01*
X261465114Y-136895476D01*
X261512733Y-136800238D01*
X261607971Y-136705000D01*
X261750828Y-136657380D01*
X261846066Y-136657380D01*
X261988923Y-136705000D01*
X262036542Y-136752619D01*
X262988923Y-137657380D02*
X262417495Y-137657380D01*
X262703209Y-137657380D02*
X262703209Y-136657380D01*
X262607971Y-136800238D01*
X262512733Y-136895476D01*
X262417495Y-136943095D01*
X263846066Y-136657380D02*
X263655590Y-136657380D01*
X263560352Y-136705000D01*
X263512733Y-136752619D01*
X263417495Y-136895476D01*
X263369876Y-137085952D01*
X263369876Y-137466904D01*
X263417495Y-137562142D01*
X263465114Y-137609761D01*
X263560352Y-137657380D01*
X263750828Y-137657380D01*
X263846066Y-137609761D01*
X263893685Y-137562142D01*
X263941304Y-137466904D01*
X263941304Y-137228809D01*
X263893685Y-137133571D01*
X263846066Y-137085952D01*
X263750828Y-137038333D01*
X263560352Y-137038333D01*
X263465114Y-137085952D01*
X263417495Y-137133571D01*
X263369876Y-137228809D01*
%TO.C,U28*%
X274295404Y-192700580D02*
X274295404Y-193510104D01*
X274343023Y-193605342D01*
X274390642Y-193652961D01*
X274485880Y-193700580D01*
X274676357Y-193700580D01*
X274771595Y-193652961D01*
X274819214Y-193605342D01*
X274866833Y-193510104D01*
X274866833Y-192700580D01*
X275295404Y-192795819D02*
X275343023Y-192748200D01*
X275438261Y-192700580D01*
X275676357Y-192700580D01*
X275771595Y-192748200D01*
X275819214Y-192795819D01*
X275866833Y-192891057D01*
X275866833Y-192986295D01*
X275819214Y-193129152D01*
X275247785Y-193700580D01*
X275866833Y-193700580D01*
X276438261Y-193129152D02*
X276343023Y-193081533D01*
X276295404Y-193033914D01*
X276247785Y-192938676D01*
X276247785Y-192891057D01*
X276295404Y-192795819D01*
X276343023Y-192748200D01*
X276438261Y-192700580D01*
X276628738Y-192700580D01*
X276723976Y-192748200D01*
X276771595Y-192795819D01*
X276819214Y-192891057D01*
X276819214Y-192938676D01*
X276771595Y-193033914D01*
X276723976Y-193081533D01*
X276628738Y-193129152D01*
X276438261Y-193129152D01*
X276343023Y-193176771D01*
X276295404Y-193224390D01*
X276247785Y-193319628D01*
X276247785Y-193510104D01*
X276295404Y-193605342D01*
X276343023Y-193652961D01*
X276438261Y-193700580D01*
X276628738Y-193700580D01*
X276723976Y-193652961D01*
X276771595Y-193605342D01*
X276819214Y-193510104D01*
X276819214Y-193319628D01*
X276771595Y-193224390D01*
X276723976Y-193176771D01*
X276628738Y-193129152D01*
%TO.C,X1*%
X204844380Y-72594923D02*
X205844380Y-71928257D01*
X204844380Y-71928257D02*
X205844380Y-72594923D01*
X205844380Y-71023495D02*
X205844380Y-71594923D01*
X205844380Y-71309209D02*
X204844380Y-71309209D01*
X204987238Y-71404447D01*
X205082476Y-71499685D01*
X205130095Y-71594923D01*
%TO.C,U13*%
X235947104Y-193012180D02*
X235947104Y-193821704D01*
X235994723Y-193916942D01*
X236042342Y-193964561D01*
X236137580Y-194012180D01*
X236328057Y-194012180D01*
X236423295Y-193964561D01*
X236470914Y-193916942D01*
X236518533Y-193821704D01*
X236518533Y-193012180D01*
X237518533Y-194012180D02*
X236947104Y-194012180D01*
X237232819Y-194012180D02*
X237232819Y-193012180D01*
X237137580Y-193155038D01*
X237042342Y-193250276D01*
X236947104Y-193297895D01*
X237851866Y-193012180D02*
X238470914Y-193012180D01*
X238137580Y-193393133D01*
X238280438Y-193393133D01*
X238375676Y-193440752D01*
X238423295Y-193488371D01*
X238470914Y-193583609D01*
X238470914Y-193821704D01*
X238423295Y-193916942D01*
X238375676Y-193964561D01*
X238280438Y-194012180D01*
X237994723Y-194012180D01*
X237899485Y-193964561D01*
X237851866Y-193916942D01*
%TO.C,R8*%
X161154080Y-95085057D02*
X160677890Y-95418391D01*
X161154080Y-95656486D02*
X160154080Y-95656486D01*
X160154080Y-95275533D01*
X160201700Y-95180295D01*
X160249319Y-95132676D01*
X160344557Y-95085057D01*
X160487414Y-95085057D01*
X160582652Y-95132676D01*
X160630271Y-95180295D01*
X160677890Y-95275533D01*
X160677890Y-95656486D01*
X160582652Y-94513629D02*
X160535033Y-94608867D01*
X160487414Y-94656486D01*
X160392176Y-94704105D01*
X160344557Y-94704105D01*
X160249319Y-94656486D01*
X160201700Y-94608867D01*
X160154080Y-94513629D01*
X160154080Y-94323152D01*
X160201700Y-94227914D01*
X160249319Y-94180295D01*
X160344557Y-94132676D01*
X160392176Y-94132676D01*
X160487414Y-94180295D01*
X160535033Y-94227914D01*
X160582652Y-94323152D01*
X160582652Y-94513629D01*
X160630271Y-94608867D01*
X160677890Y-94656486D01*
X160773128Y-94704105D01*
X160963604Y-94704105D01*
X161058842Y-94656486D01*
X161106461Y-94608867D01*
X161154080Y-94513629D01*
X161154080Y-94323152D01*
X161106461Y-94227914D01*
X161058842Y-94180295D01*
X160963604Y-94132676D01*
X160773128Y-94132676D01*
X160677890Y-94180295D01*
X160630271Y-94227914D01*
X160582652Y-94323152D01*
%TO.C,J1*%
X132051466Y-50557201D02*
X132051466Y-51271487D01*
X132003847Y-51414344D01*
X131908609Y-51509582D01*
X131765752Y-51557201D01*
X131670514Y-51557201D01*
X133051466Y-51557201D02*
X132480038Y-51557201D01*
X132765752Y-51557201D02*
X132765752Y-50557201D01*
X132670514Y-50700059D01*
X132575276Y-50795297D01*
X132480038Y-50842916D01*
%TO.C,C1*%
X248396433Y-54290942D02*
X248348814Y-54338561D01*
X248205957Y-54386180D01*
X248110719Y-54386180D01*
X247967861Y-54338561D01*
X247872623Y-54243323D01*
X247825004Y-54148085D01*
X247777385Y-53957609D01*
X247777385Y-53814752D01*
X247825004Y-53624276D01*
X247872623Y-53529038D01*
X247967861Y-53433800D01*
X248110719Y-53386180D01*
X248205957Y-53386180D01*
X248348814Y-53433800D01*
X248396433Y-53481419D01*
X249348814Y-54386180D02*
X248777385Y-54386180D01*
X249063100Y-54386180D02*
X249063100Y-53386180D01*
X248967861Y-53529038D01*
X248872623Y-53624276D01*
X248777385Y-53671895D01*
%TO.C,C6*%
X137338133Y-166792942D02*
X137290514Y-166840561D01*
X137147657Y-166888180D01*
X137052419Y-166888180D01*
X136909561Y-166840561D01*
X136814323Y-166745323D01*
X136766704Y-166650085D01*
X136719085Y-166459609D01*
X136719085Y-166316752D01*
X136766704Y-166126276D01*
X136814323Y-166031038D01*
X136909561Y-165935800D01*
X137052419Y-165888180D01*
X137147657Y-165888180D01*
X137290514Y-165935800D01*
X137338133Y-165983419D01*
X138195276Y-165888180D02*
X138004800Y-165888180D01*
X137909561Y-165935800D01*
X137861942Y-165983419D01*
X137766704Y-166126276D01*
X137719085Y-166316752D01*
X137719085Y-166697704D01*
X137766704Y-166792942D01*
X137814323Y-166840561D01*
X137909561Y-166888180D01*
X138100038Y-166888180D01*
X138195276Y-166840561D01*
X138242895Y-166792942D01*
X138290514Y-166697704D01*
X138290514Y-166459609D01*
X138242895Y-166364371D01*
X138195276Y-166316752D01*
X138100038Y-166269133D01*
X137909561Y-166269133D01*
X137814323Y-166316752D01*
X137766704Y-166364371D01*
X137719085Y-166459609D01*
%TO.C,U14*%
X289490304Y-90690980D02*
X289490304Y-91500504D01*
X289537923Y-91595742D01*
X289585542Y-91643361D01*
X289680780Y-91690980D01*
X289871257Y-91690980D01*
X289966495Y-91643361D01*
X290014114Y-91595742D01*
X290061733Y-91500504D01*
X290061733Y-90690980D01*
X291061733Y-91690980D02*
X290490304Y-91690980D01*
X290776019Y-91690980D02*
X290776019Y-90690980D01*
X290680780Y-90833838D01*
X290585542Y-90929076D01*
X290490304Y-90976695D01*
X291918876Y-91024314D02*
X291918876Y-91690980D01*
X291680780Y-90643361D02*
X291442685Y-91357647D01*
X292061733Y-91357647D01*
%TO.C,U9*%
X149128495Y-171138180D02*
X149128495Y-171947704D01*
X149176114Y-172042942D01*
X149223733Y-172090561D01*
X149318971Y-172138180D01*
X149509447Y-172138180D01*
X149604685Y-172090561D01*
X149652304Y-172042942D01*
X149699923Y-171947704D01*
X149699923Y-171138180D01*
X150223733Y-172138180D02*
X150414209Y-172138180D01*
X150509447Y-172090561D01*
X150557066Y-172042942D01*
X150652304Y-171900085D01*
X150699923Y-171709609D01*
X150699923Y-171328657D01*
X150652304Y-171233419D01*
X150604685Y-171185800D01*
X150509447Y-171138180D01*
X150318971Y-171138180D01*
X150223733Y-171185800D01*
X150176114Y-171233419D01*
X150128495Y-171328657D01*
X150128495Y-171566752D01*
X150176114Y-171661990D01*
X150223733Y-171709609D01*
X150318971Y-171757228D01*
X150509447Y-171757228D01*
X150604685Y-171709609D01*
X150652304Y-171661990D01*
X150699923Y-171566752D01*
%TO.C,U12*%
X194159504Y-142471180D02*
X194159504Y-143280704D01*
X194207123Y-143375942D01*
X194254742Y-143423561D01*
X194349980Y-143471180D01*
X194540457Y-143471180D01*
X194635695Y-143423561D01*
X194683314Y-143375942D01*
X194730933Y-143280704D01*
X194730933Y-142471180D01*
X195730933Y-143471180D02*
X195159504Y-143471180D01*
X195445219Y-143471180D02*
X195445219Y-142471180D01*
X195349980Y-142614038D01*
X195254742Y-142709276D01*
X195159504Y-142756895D01*
X196111885Y-142566419D02*
X196159504Y-142518800D01*
X196254742Y-142471180D01*
X196492838Y-142471180D01*
X196588076Y-142518800D01*
X196635695Y-142566419D01*
X196683314Y-142661657D01*
X196683314Y-142756895D01*
X196635695Y-142899752D01*
X196064266Y-143471180D01*
X196683314Y-143471180D01*
%TO.C,R10*%
X183322380Y-95085057D02*
X182846190Y-95418390D01*
X183322380Y-95656485D02*
X182322380Y-95656485D01*
X182322380Y-95275533D01*
X182370000Y-95180295D01*
X182417619Y-95132676D01*
X182512857Y-95085057D01*
X182655714Y-95085057D01*
X182750952Y-95132676D01*
X182798571Y-95180295D01*
X182846190Y-95275533D01*
X182846190Y-95656485D01*
X183322380Y-94132676D02*
X183322380Y-94704104D01*
X183322380Y-94418390D02*
X182322380Y-94418390D01*
X182465238Y-94513628D01*
X182560476Y-94608866D01*
X182608095Y-94704104D01*
X182322380Y-93513628D02*
X182322380Y-93418390D01*
X182370000Y-93323152D01*
X182417619Y-93275533D01*
X182512857Y-93227914D01*
X182703333Y-93180295D01*
X182941428Y-93180295D01*
X183131904Y-93227914D01*
X183227142Y-93275533D01*
X183274761Y-93323152D01*
X183322380Y-93418390D01*
X183322380Y-93513628D01*
X183274761Y-93608866D01*
X183227142Y-93656485D01*
X183131904Y-93704104D01*
X182941428Y-93751723D01*
X182703333Y-93751723D01*
X182512857Y-93704104D01*
X182417619Y-93656485D01*
X182370000Y-93608866D01*
X182322380Y-93513628D01*
%TO.C,R1*%
X194326380Y-95085057D02*
X193850190Y-95418391D01*
X194326380Y-95656486D02*
X193326380Y-95656486D01*
X193326380Y-95275533D01*
X193374000Y-95180295D01*
X193421619Y-95132676D01*
X193516857Y-95085057D01*
X193659714Y-95085057D01*
X193754952Y-95132676D01*
X193802571Y-95180295D01*
X193850190Y-95275533D01*
X193850190Y-95656486D01*
X194326380Y-94132676D02*
X194326380Y-94704105D01*
X194326380Y-94418391D02*
X193326380Y-94418391D01*
X193469238Y-94513629D01*
X193564476Y-94608867D01*
X193612095Y-94704105D01*
%TO.C,J8*%
X165650666Y-107381980D02*
X165650666Y-108096266D01*
X165603047Y-108239123D01*
X165507809Y-108334361D01*
X165364952Y-108381980D01*
X165269714Y-108381980D01*
X166269714Y-107810552D02*
X166174476Y-107762933D01*
X166126857Y-107715314D01*
X166079238Y-107620076D01*
X166079238Y-107572457D01*
X166126857Y-107477219D01*
X166174476Y-107429600D01*
X166269714Y-107381980D01*
X166460190Y-107381980D01*
X166555428Y-107429600D01*
X166603047Y-107477219D01*
X166650666Y-107572457D01*
X166650666Y-107620076D01*
X166603047Y-107715314D01*
X166555428Y-107762933D01*
X166460190Y-107810552D01*
X166269714Y-107810552D01*
X166174476Y-107858171D01*
X166126857Y-107905790D01*
X166079238Y-108001028D01*
X166079238Y-108191504D01*
X166126857Y-108286742D01*
X166174476Y-108334361D01*
X166269714Y-108381980D01*
X166460190Y-108381980D01*
X166555428Y-108334361D01*
X166603047Y-108286742D01*
X166650666Y-108191504D01*
X166650666Y-108001028D01*
X166603047Y-107905790D01*
X166555428Y-107858171D01*
X166460190Y-107810552D01*
%TO.C,U2*%
X245093395Y-58636180D02*
X245093395Y-59445704D01*
X245141014Y-59540942D01*
X245188633Y-59588561D01*
X245283871Y-59636180D01*
X245474347Y-59636180D01*
X245569585Y-59588561D01*
X245617204Y-59540942D01*
X245664823Y-59445704D01*
X245664823Y-58636180D01*
X246093395Y-58731419D02*
X246141014Y-58683800D01*
X246236252Y-58636180D01*
X246474347Y-58636180D01*
X246569585Y-58683800D01*
X246617204Y-58731419D01*
X246664823Y-58826657D01*
X246664823Y-58921895D01*
X246617204Y-59064752D01*
X246045776Y-59636180D01*
X246664823Y-59636180D01*
%TO.C,C3*%
X137338133Y-196051142D02*
X137290514Y-196098761D01*
X137147657Y-196146380D01*
X137052419Y-196146380D01*
X136909561Y-196098761D01*
X136814323Y-196003523D01*
X136766704Y-195908285D01*
X136719085Y-195717809D01*
X136719085Y-195574952D01*
X136766704Y-195384476D01*
X136814323Y-195289238D01*
X136909561Y-195194000D01*
X137052419Y-195146380D01*
X137147657Y-195146380D01*
X137290514Y-195194000D01*
X137338133Y-195241619D01*
X137671466Y-195146380D02*
X138290514Y-195146380D01*
X137957180Y-195527333D01*
X138100038Y-195527333D01*
X138195276Y-195574952D01*
X138242895Y-195622571D01*
X138290514Y-195717809D01*
X138290514Y-195955904D01*
X138242895Y-196051142D01*
X138195276Y-196098761D01*
X138100038Y-196146380D01*
X137814323Y-196146380D01*
X137719085Y-196098761D01*
X137671466Y-196051142D01*
%TO.C,U36*%
X179305104Y-108435180D02*
X179305104Y-109244704D01*
X179352723Y-109339942D01*
X179400342Y-109387561D01*
X179495580Y-109435180D01*
X179686057Y-109435180D01*
X179781295Y-109387561D01*
X179828914Y-109339942D01*
X179876533Y-109244704D01*
X179876533Y-108435180D01*
X180257485Y-108435180D02*
X180876533Y-108435180D01*
X180543200Y-108816133D01*
X180686057Y-108816133D01*
X180781295Y-108863752D01*
X180828914Y-108911371D01*
X180876533Y-109006609D01*
X180876533Y-109244704D01*
X180828914Y-109339942D01*
X180781295Y-109387561D01*
X180686057Y-109435180D01*
X180400342Y-109435180D01*
X180305104Y-109387561D01*
X180257485Y-109339942D01*
X181733676Y-108435180D02*
X181543200Y-108435180D01*
X181447961Y-108482800D01*
X181400342Y-108530419D01*
X181305104Y-108673276D01*
X181257485Y-108863752D01*
X181257485Y-109244704D01*
X181305104Y-109339942D01*
X181352723Y-109387561D01*
X181447961Y-109435180D01*
X181638438Y-109435180D01*
X181733676Y-109387561D01*
X181781295Y-109339942D01*
X181828914Y-109244704D01*
X181828914Y-109006609D01*
X181781295Y-108911371D01*
X181733676Y-108863752D01*
X181638438Y-108816133D01*
X181447961Y-108816133D01*
X181352723Y-108863752D01*
X181305104Y-108911371D01*
X181257485Y-109006609D01*
%TO.C,J6*%
X155003066Y-108699580D02*
X155003066Y-109413866D01*
X154955447Y-109556723D01*
X154860209Y-109651961D01*
X154717352Y-109699580D01*
X154622114Y-109699580D01*
X155907828Y-108699580D02*
X155717352Y-108699580D01*
X155622114Y-108747200D01*
X155574495Y-108794819D01*
X155479257Y-108937676D01*
X155431638Y-109128152D01*
X155431638Y-109509104D01*
X155479257Y-109604342D01*
X155526876Y-109651961D01*
X155622114Y-109699580D01*
X155812590Y-109699580D01*
X155907828Y-109651961D01*
X155955447Y-109604342D01*
X156003066Y-109509104D01*
X156003066Y-109271009D01*
X155955447Y-109175771D01*
X155907828Y-109128152D01*
X155812590Y-109080533D01*
X155622114Y-109080533D01*
X155526876Y-109128152D01*
X155479257Y-109175771D01*
X155431638Y-109271009D01*
%TO.C,U24*%
X274571904Y-59098380D02*
X274571904Y-59907904D01*
X274619523Y-60003142D01*
X274667142Y-60050761D01*
X274762380Y-60098380D01*
X274952857Y-60098380D01*
X275048095Y-60050761D01*
X275095714Y-60003142D01*
X275143333Y-59907904D01*
X275143333Y-59098380D01*
X275571904Y-59193619D02*
X275619523Y-59146000D01*
X275714761Y-59098380D01*
X275952857Y-59098380D01*
X276048095Y-59146000D01*
X276095714Y-59193619D01*
X276143333Y-59288857D01*
X276143333Y-59384095D01*
X276095714Y-59526952D01*
X275524285Y-60098380D01*
X276143333Y-60098380D01*
X277000476Y-59431714D02*
X277000476Y-60098380D01*
X276762380Y-59050761D02*
X276524285Y-59765047D01*
X277143333Y-59765047D01*
%TO.C,R3*%
X164721780Y-95085057D02*
X164245590Y-95418391D01*
X164721780Y-95656486D02*
X163721780Y-95656486D01*
X163721780Y-95275533D01*
X163769400Y-95180295D01*
X163817019Y-95132676D01*
X163912257Y-95085057D01*
X164055114Y-95085057D01*
X164150352Y-95132676D01*
X164197971Y-95180295D01*
X164245590Y-95275533D01*
X164245590Y-95656486D01*
X163721780Y-94751724D02*
X163721780Y-94132676D01*
X164102733Y-94466010D01*
X164102733Y-94323152D01*
X164150352Y-94227914D01*
X164197971Y-94180295D01*
X164293209Y-94132676D01*
X164531304Y-94132676D01*
X164626542Y-94180295D01*
X164674161Y-94227914D01*
X164721780Y-94323152D01*
X164721780Y-94608867D01*
X164674161Y-94704105D01*
X164626542Y-94751724D01*
%TO.C,U8*%
X164104095Y-171518780D02*
X164104095Y-172328304D01*
X164151714Y-172423542D01*
X164199333Y-172471161D01*
X164294571Y-172518780D01*
X164485047Y-172518780D01*
X164580285Y-172471161D01*
X164627904Y-172423542D01*
X164675523Y-172328304D01*
X164675523Y-171518780D01*
X165294571Y-171947352D02*
X165199333Y-171899733D01*
X165151714Y-171852114D01*
X165104095Y-171756876D01*
X165104095Y-171709257D01*
X165151714Y-171614019D01*
X165199333Y-171566400D01*
X165294571Y-171518780D01*
X165485047Y-171518780D01*
X165580285Y-171566400D01*
X165627904Y-171614019D01*
X165675523Y-171709257D01*
X165675523Y-171756876D01*
X165627904Y-171852114D01*
X165580285Y-171899733D01*
X165485047Y-171947352D01*
X165294571Y-171947352D01*
X165199333Y-171994971D01*
X165151714Y-172042590D01*
X165104095Y-172137828D01*
X165104095Y-172328304D01*
X165151714Y-172423542D01*
X165199333Y-172471161D01*
X165294571Y-172518780D01*
X165485047Y-172518780D01*
X165580285Y-172471161D01*
X165627904Y-172423542D01*
X165675523Y-172328304D01*
X165675523Y-172137828D01*
X165627904Y-172042590D01*
X165580285Y-171994971D01*
X165485047Y-171947352D01*
%TO.C,R11*%
X153459780Y-95085057D02*
X152983590Y-95418390D01*
X153459780Y-95656485D02*
X152459780Y-95656485D01*
X152459780Y-95275533D01*
X152507400Y-95180295D01*
X152555019Y-95132676D01*
X152650257Y-95085057D01*
X152793114Y-95085057D01*
X152888352Y-95132676D01*
X152935971Y-95180295D01*
X152983590Y-95275533D01*
X152983590Y-95656485D01*
X153459780Y-94132676D02*
X153459780Y-94704104D01*
X153459780Y-94418390D02*
X152459780Y-94418390D01*
X152602638Y-94513628D01*
X152697876Y-94608866D01*
X152745495Y-94704104D01*
X153459780Y-93180295D02*
X153459780Y-93751723D01*
X153459780Y-93466009D02*
X152459780Y-93466009D01*
X152602638Y-93561247D01*
X152697876Y-93656485D01*
X152745495Y-93751723D01*
%TO.C,C18*%
X182490342Y-170074142D02*
X182442723Y-170121761D01*
X182299866Y-170169380D01*
X182204628Y-170169380D01*
X182061771Y-170121761D01*
X181966533Y-170026523D01*
X181918914Y-169931285D01*
X181871295Y-169740809D01*
X181871295Y-169597952D01*
X181918914Y-169407476D01*
X181966533Y-169312238D01*
X182061771Y-169217000D01*
X182204628Y-169169380D01*
X182299866Y-169169380D01*
X182442723Y-169217000D01*
X182490342Y-169264619D01*
X183442723Y-170169380D02*
X182871295Y-170169380D01*
X183157009Y-170169380D02*
X183157009Y-169169380D01*
X183061771Y-169312238D01*
X182966533Y-169407476D01*
X182871295Y-169455095D01*
X184014152Y-169597952D02*
X183918914Y-169550333D01*
X183871295Y-169502714D01*
X183823676Y-169407476D01*
X183823676Y-169359857D01*
X183871295Y-169264619D01*
X183918914Y-169217000D01*
X184014152Y-169169380D01*
X184204628Y-169169380D01*
X184299866Y-169217000D01*
X184347485Y-169264619D01*
X184395104Y-169359857D01*
X184395104Y-169407476D01*
X184347485Y-169502714D01*
X184299866Y-169550333D01*
X184204628Y-169597952D01*
X184014152Y-169597952D01*
X183918914Y-169645571D01*
X183871295Y-169693190D01*
X183823676Y-169788428D01*
X183823676Y-169978904D01*
X183871295Y-170074142D01*
X183918914Y-170121761D01*
X184014152Y-170169380D01*
X184204628Y-170169380D01*
X184299866Y-170121761D01*
X184347485Y-170074142D01*
X184395104Y-169978904D01*
X184395104Y-169788428D01*
X184347485Y-169693190D01*
X184299866Y-169645571D01*
X184204628Y-169597952D01*
%TO.C,U16*%
X208819904Y-167464780D02*
X208819904Y-168274304D01*
X208867523Y-168369542D01*
X208915142Y-168417161D01*
X209010380Y-168464780D01*
X209200857Y-168464780D01*
X209296095Y-168417161D01*
X209343714Y-168369542D01*
X209391333Y-168274304D01*
X209391333Y-167464780D01*
X210391333Y-168464780D02*
X209819904Y-168464780D01*
X210105619Y-168464780D02*
X210105619Y-167464780D01*
X210010380Y-167607638D01*
X209915142Y-167702876D01*
X209819904Y-167750495D01*
X211248476Y-167464780D02*
X211058000Y-167464780D01*
X210962761Y-167512400D01*
X210915142Y-167560019D01*
X210819904Y-167702876D01*
X210772285Y-167893352D01*
X210772285Y-168274304D01*
X210819904Y-168369542D01*
X210867523Y-168417161D01*
X210962761Y-168464780D01*
X211153238Y-168464780D01*
X211248476Y-168417161D01*
X211296095Y-168369542D01*
X211343714Y-168274304D01*
X211343714Y-168036209D01*
X211296095Y-167940971D01*
X211248476Y-167893352D01*
X211153238Y-167845733D01*
X210962761Y-167845733D01*
X210867523Y-167893352D01*
X210819904Y-167940971D01*
X210772285Y-168036209D01*
%TO.C,C2*%
X167305533Y-166792942D02*
X167257914Y-166840561D01*
X167115057Y-166888180D01*
X167019819Y-166888180D01*
X166876961Y-166840561D01*
X166781723Y-166745323D01*
X166734104Y-166650085D01*
X166686485Y-166459609D01*
X166686485Y-166316752D01*
X166734104Y-166126276D01*
X166781723Y-166031038D01*
X166876961Y-165935800D01*
X167019819Y-165888180D01*
X167115057Y-165888180D01*
X167257914Y-165935800D01*
X167305533Y-165983419D01*
X167686485Y-165983419D02*
X167734104Y-165935800D01*
X167829342Y-165888180D01*
X168067438Y-165888180D01*
X168162676Y-165935800D01*
X168210295Y-165983419D01*
X168257914Y-166078657D01*
X168257914Y-166173895D01*
X168210295Y-166316752D01*
X167638866Y-166888180D01*
X168257914Y-166888180D01*
%TO.C,C30*%
X277846242Y-188260542D02*
X277798623Y-188308161D01*
X277655766Y-188355780D01*
X277560528Y-188355780D01*
X277417671Y-188308161D01*
X277322433Y-188212923D01*
X277274814Y-188117685D01*
X277227195Y-187927209D01*
X277227195Y-187784352D01*
X277274814Y-187593876D01*
X277322433Y-187498638D01*
X277417671Y-187403400D01*
X277560528Y-187355780D01*
X277655766Y-187355780D01*
X277798623Y-187403400D01*
X277846242Y-187451019D01*
X278179576Y-187355780D02*
X278798623Y-187355780D01*
X278465290Y-187736733D01*
X278608147Y-187736733D01*
X278703385Y-187784352D01*
X278751004Y-187831971D01*
X278798623Y-187927209D01*
X278798623Y-188165304D01*
X278751004Y-188260542D01*
X278703385Y-188308161D01*
X278608147Y-188355780D01*
X278322433Y-188355780D01*
X278227195Y-188308161D01*
X278179576Y-188260542D01*
X279417671Y-187355780D02*
X279512909Y-187355780D01*
X279608147Y-187403400D01*
X279655766Y-187451019D01*
X279703385Y-187546257D01*
X279751004Y-187736733D01*
X279751004Y-187974828D01*
X279703385Y-188165304D01*
X279655766Y-188260542D01*
X279608147Y-188308161D01*
X279512909Y-188355780D01*
X279417671Y-188355780D01*
X279322433Y-188308161D01*
X279274814Y-188260542D01*
X279227195Y-188165304D01*
X279179576Y-187974828D01*
X279179576Y-187736733D01*
X279227195Y-187546257D01*
X279274814Y-187451019D01*
X279322433Y-187403400D01*
X279417671Y-187355780D01*
%TO.C,C17*%
X196561942Y-188666942D02*
X196514323Y-188714561D01*
X196371466Y-188762180D01*
X196276228Y-188762180D01*
X196133371Y-188714561D01*
X196038133Y-188619323D01*
X195990514Y-188524085D01*
X195942895Y-188333609D01*
X195942895Y-188190752D01*
X195990514Y-188000276D01*
X196038133Y-187905038D01*
X196133371Y-187809800D01*
X196276228Y-187762180D01*
X196371466Y-187762180D01*
X196514323Y-187809800D01*
X196561942Y-187857419D01*
X197514323Y-188762180D02*
X196942895Y-188762180D01*
X197228609Y-188762180D02*
X197228609Y-187762180D01*
X197133371Y-187905038D01*
X197038133Y-188000276D01*
X196942895Y-188047895D01*
X197847657Y-187762180D02*
X198514323Y-187762180D01*
X198085752Y-188762180D01*
%TO.C,Q1*%
X182368361Y-86353419D02*
X182273123Y-86305800D01*
X182177885Y-86210561D01*
X182035028Y-86067704D01*
X181939790Y-86020085D01*
X181844552Y-86020085D01*
X181892171Y-86258180D02*
X181796933Y-86210561D01*
X181701695Y-86115323D01*
X181654076Y-85924847D01*
X181654076Y-85591514D01*
X181701695Y-85401038D01*
X181796933Y-85305800D01*
X181892171Y-85258180D01*
X182082647Y-85258180D01*
X182177885Y-85305800D01*
X182273123Y-85401038D01*
X182320742Y-85591514D01*
X182320742Y-85924847D01*
X182273123Y-86115323D01*
X182177885Y-86210561D01*
X182082647Y-86258180D01*
X181892171Y-86258180D01*
X183273123Y-86258180D02*
X182701695Y-86258180D01*
X182987409Y-86258180D02*
X182987409Y-85258180D01*
X182892171Y-85401038D01*
X182796933Y-85496276D01*
X182701695Y-85543895D01*
%TO.C,J5*%
X143827066Y-108699580D02*
X143827066Y-109413866D01*
X143779447Y-109556723D01*
X143684209Y-109651961D01*
X143541352Y-109699580D01*
X143446114Y-109699580D01*
X144779447Y-108699580D02*
X144303257Y-108699580D01*
X144255638Y-109175771D01*
X144303257Y-109128152D01*
X144398495Y-109080533D01*
X144636590Y-109080533D01*
X144731828Y-109128152D01*
X144779447Y-109175771D01*
X144827066Y-109271009D01*
X144827066Y-109509104D01*
X144779447Y-109604342D01*
X144731828Y-109651961D01*
X144636590Y-109699580D01*
X144398495Y-109699580D01*
X144303257Y-109651961D01*
X144255638Y-109604342D01*
%TO.C,C32*%
X256776142Y-181626542D02*
X256728523Y-181674161D01*
X256585666Y-181721780D01*
X256490428Y-181721780D01*
X256347571Y-181674161D01*
X256252333Y-181578923D01*
X256204714Y-181483685D01*
X256157095Y-181293209D01*
X256157095Y-181150352D01*
X256204714Y-180959876D01*
X256252333Y-180864638D01*
X256347571Y-180769400D01*
X256490428Y-180721780D01*
X256585666Y-180721780D01*
X256728523Y-180769400D01*
X256776142Y-180817019D01*
X257109476Y-180721780D02*
X257728523Y-180721780D01*
X257395190Y-181102733D01*
X257538047Y-181102733D01*
X257633285Y-181150352D01*
X257680904Y-181197971D01*
X257728523Y-181293209D01*
X257728523Y-181531304D01*
X257680904Y-181626542D01*
X257633285Y-181674161D01*
X257538047Y-181721780D01*
X257252333Y-181721780D01*
X257157095Y-181674161D01*
X257109476Y-181626542D01*
X258109476Y-180817019D02*
X258157095Y-180769400D01*
X258252333Y-180721780D01*
X258490428Y-180721780D01*
X258585666Y-180769400D01*
X258633285Y-180817019D01*
X258680904Y-180912257D01*
X258680904Y-181007495D01*
X258633285Y-181150352D01*
X258061857Y-181721780D01*
X258680904Y-181721780D01*
%TO.C,U31*%
X289490304Y-58935980D02*
X289490304Y-59745504D01*
X289537923Y-59840742D01*
X289585542Y-59888361D01*
X289680780Y-59935980D01*
X289871257Y-59935980D01*
X289966495Y-59888361D01*
X290014114Y-59840742D01*
X290061733Y-59745504D01*
X290061733Y-58935980D01*
X290442685Y-58935980D02*
X291061733Y-58935980D01*
X290728400Y-59316933D01*
X290871257Y-59316933D01*
X290966495Y-59364552D01*
X291014114Y-59412171D01*
X291061733Y-59507409D01*
X291061733Y-59745504D01*
X291014114Y-59840742D01*
X290966495Y-59888361D01*
X290871257Y-59935980D01*
X290585542Y-59935980D01*
X290490304Y-59888361D01*
X290442685Y-59840742D01*
X292014114Y-59935980D02*
X291442685Y-59935980D01*
X291728400Y-59935980D02*
X291728400Y-58935980D01*
X291633161Y-59078838D01*
X291537923Y-59174076D01*
X291442685Y-59221695D01*
%TO.C,U5*%
X149128495Y-200632180D02*
X149128495Y-201441704D01*
X149176114Y-201536942D01*
X149223733Y-201584561D01*
X149318971Y-201632180D01*
X149509447Y-201632180D01*
X149604685Y-201584561D01*
X149652304Y-201536942D01*
X149699923Y-201441704D01*
X149699923Y-200632180D01*
X150652304Y-200632180D02*
X150176114Y-200632180D01*
X150128495Y-201108371D01*
X150176114Y-201060752D01*
X150271352Y-201013133D01*
X150509447Y-201013133D01*
X150604685Y-201060752D01*
X150652304Y-201108371D01*
X150699923Y-201203609D01*
X150699923Y-201441704D01*
X150652304Y-201536942D01*
X150604685Y-201584561D01*
X150509447Y-201632180D01*
X150271352Y-201632180D01*
X150176114Y-201584561D01*
X150128495Y-201536942D01*
%TO.C,C22*%
X197344742Y-137562142D02*
X197297123Y-137609761D01*
X197154266Y-137657380D01*
X197059028Y-137657380D01*
X196916171Y-137609761D01*
X196820933Y-137514523D01*
X196773314Y-137419285D01*
X196725695Y-137228809D01*
X196725695Y-137085952D01*
X196773314Y-136895476D01*
X196820933Y-136800238D01*
X196916171Y-136705000D01*
X197059028Y-136657380D01*
X197154266Y-136657380D01*
X197297123Y-136705000D01*
X197344742Y-136752619D01*
X197725695Y-136752619D02*
X197773314Y-136705000D01*
X197868552Y-136657380D01*
X198106647Y-136657380D01*
X198201885Y-136705000D01*
X198249504Y-136752619D01*
X198297123Y-136847857D01*
X198297123Y-136943095D01*
X198249504Y-137085952D01*
X197678076Y-137657380D01*
X198297123Y-137657380D01*
X198678076Y-136752619D02*
X198725695Y-136705000D01*
X198820933Y-136657380D01*
X199059028Y-136657380D01*
X199154266Y-136705000D01*
X199201885Y-136752619D01*
X199249504Y-136847857D01*
X199249504Y-136943095D01*
X199201885Y-137085952D01*
X198630457Y-137657380D01*
X199249504Y-137657380D01*
%TO.C,U20*%
X179305104Y-174719180D02*
X179305104Y-175528704D01*
X179352723Y-175623942D01*
X179400342Y-175671561D01*
X179495580Y-175719180D01*
X179686057Y-175719180D01*
X179781295Y-175671561D01*
X179828914Y-175623942D01*
X179876533Y-175528704D01*
X179876533Y-174719180D01*
X180305104Y-174814419D02*
X180352723Y-174766800D01*
X180447961Y-174719180D01*
X180686057Y-174719180D01*
X180781295Y-174766800D01*
X180828914Y-174814419D01*
X180876533Y-174909657D01*
X180876533Y-175004895D01*
X180828914Y-175147752D01*
X180257485Y-175719180D01*
X180876533Y-175719180D01*
X181495580Y-174719180D02*
X181590819Y-174719180D01*
X181686057Y-174766800D01*
X181733676Y-174814419D01*
X181781295Y-174909657D01*
X181828914Y-175100133D01*
X181828914Y-175338228D01*
X181781295Y-175528704D01*
X181733676Y-175623942D01*
X181686057Y-175671561D01*
X181590819Y-175719180D01*
X181495580Y-175719180D01*
X181400342Y-175671561D01*
X181352723Y-175623942D01*
X181305104Y-175528704D01*
X181257485Y-175338228D01*
X181257485Y-175100133D01*
X181305104Y-174909657D01*
X181352723Y-174814419D01*
X181400342Y-174766800D01*
X181495580Y-174719180D01*
%TO.C,J3*%
X130649466Y-107381980D02*
X130649466Y-108096266D01*
X130601847Y-108239123D01*
X130506609Y-108334361D01*
X130363752Y-108381980D01*
X130268514Y-108381980D01*
X131030419Y-107381980D02*
X131649466Y-107381980D01*
X131316133Y-107762933D01*
X131458990Y-107762933D01*
X131554228Y-107810552D01*
X131601847Y-107858171D01*
X131649466Y-107953409D01*
X131649466Y-108191504D01*
X131601847Y-108286742D01*
X131554228Y-108334361D01*
X131458990Y-108381980D01*
X131173276Y-108381980D01*
X131078038Y-108334361D01*
X131030419Y-108286742D01*
%TO.C,C4*%
X212633733Y-137562142D02*
X212586114Y-137609761D01*
X212443257Y-137657380D01*
X212348019Y-137657380D01*
X212205161Y-137609761D01*
X212109923Y-137514523D01*
X212062304Y-137419285D01*
X212014685Y-137228809D01*
X212014685Y-137085952D01*
X212062304Y-136895476D01*
X212109923Y-136800238D01*
X212205161Y-136705000D01*
X212348019Y-136657380D01*
X212443257Y-136657380D01*
X212586114Y-136705000D01*
X212633733Y-136752619D01*
X213490876Y-136990714D02*
X213490876Y-137657380D01*
X213252780Y-136609761D02*
X213014685Y-137324047D01*
X213633733Y-137324047D01*
%TO.C,U34*%
X208972304Y-141749980D02*
X208972304Y-142559504D01*
X209019923Y-142654742D01*
X209067542Y-142702361D01*
X209162780Y-142749980D01*
X209353257Y-142749980D01*
X209448495Y-142702361D01*
X209496114Y-142654742D01*
X209543733Y-142559504D01*
X209543733Y-141749980D01*
X209924685Y-141749980D02*
X210543733Y-141749980D01*
X210210400Y-142130933D01*
X210353257Y-142130933D01*
X210448495Y-142178552D01*
X210496114Y-142226171D01*
X210543733Y-142321409D01*
X210543733Y-142559504D01*
X210496114Y-142654742D01*
X210448495Y-142702361D01*
X210353257Y-142749980D01*
X210067542Y-142749980D01*
X209972304Y-142702361D01*
X209924685Y-142654742D01*
X211400876Y-142083314D02*
X211400876Y-142749980D01*
X211162780Y-141702361D02*
X210924685Y-142416647D01*
X211543733Y-142416647D01*
%TO.C,U21*%
X208819904Y-200632180D02*
X208819904Y-201441704D01*
X208867523Y-201536942D01*
X208915142Y-201584561D01*
X209010380Y-201632180D01*
X209200857Y-201632180D01*
X209296095Y-201584561D01*
X209343714Y-201536942D01*
X209391333Y-201441704D01*
X209391333Y-200632180D01*
X209819904Y-200727419D02*
X209867523Y-200679800D01*
X209962761Y-200632180D01*
X210200857Y-200632180D01*
X210296095Y-200679800D01*
X210343714Y-200727419D01*
X210391333Y-200822657D01*
X210391333Y-200917895D01*
X210343714Y-201060752D01*
X209772285Y-201632180D01*
X210391333Y-201632180D01*
X211343714Y-201632180D02*
X210772285Y-201632180D01*
X211058000Y-201632180D02*
X211058000Y-200632180D01*
X210962761Y-200775038D01*
X210867523Y-200870276D01*
X210772285Y-200917895D01*
%TO.C,U3*%
X260129595Y-58636180D02*
X260129595Y-59445704D01*
X260177214Y-59540942D01*
X260224833Y-59588561D01*
X260320071Y-59636180D01*
X260510547Y-59636180D01*
X260605785Y-59588561D01*
X260653404Y-59540942D01*
X260701023Y-59445704D01*
X260701023Y-58636180D01*
X261081976Y-58636180D02*
X261701023Y-58636180D01*
X261367690Y-59017133D01*
X261510547Y-59017133D01*
X261605785Y-59064752D01*
X261653404Y-59112371D01*
X261701023Y-59207609D01*
X261701023Y-59445704D01*
X261653404Y-59540942D01*
X261605785Y-59588561D01*
X261510547Y-59636180D01*
X261224833Y-59636180D01*
X261129595Y-59588561D01*
X261081976Y-59540942D01*
%TO.C,U15*%
X274571904Y-90944980D02*
X274571904Y-91754504D01*
X274619523Y-91849742D01*
X274667142Y-91897361D01*
X274762380Y-91944980D01*
X274952857Y-91944980D01*
X275048095Y-91897361D01*
X275095714Y-91849742D01*
X275143333Y-91754504D01*
X275143333Y-90944980D01*
X276143333Y-91944980D02*
X275571904Y-91944980D01*
X275857619Y-91944980D02*
X275857619Y-90944980D01*
X275762380Y-91087838D01*
X275667142Y-91183076D01*
X275571904Y-91230695D01*
X277048095Y-90944980D02*
X276571904Y-90944980D01*
X276524285Y-91421171D01*
X276571904Y-91373552D01*
X276667142Y-91325933D01*
X276905238Y-91325933D01*
X277000476Y-91373552D01*
X277048095Y-91421171D01*
X277095714Y-91516409D01*
X277095714Y-91754504D01*
X277048095Y-91849742D01*
X277000476Y-91897361D01*
X276905238Y-91944980D01*
X276667142Y-91944980D01*
X276571904Y-91897361D01*
X276524285Y-91849742D01*
%TO.C,U10*%
X243772004Y-142471180D02*
X243772004Y-143280704D01*
X243819623Y-143375942D01*
X243867242Y-143423561D01*
X243962480Y-143471180D01*
X244152957Y-143471180D01*
X244248195Y-143423561D01*
X244295814Y-143375942D01*
X244343433Y-143280704D01*
X244343433Y-142471180D01*
X245343433Y-143471180D02*
X244772004Y-143471180D01*
X245057719Y-143471180D02*
X245057719Y-142471180D01*
X244962480Y-142614038D01*
X244867242Y-142709276D01*
X244772004Y-142756895D01*
X245962480Y-142471180D02*
X246057719Y-142471180D01*
X246152957Y-142518800D01*
X246200576Y-142566419D01*
X246248195Y-142661657D01*
X246295814Y-142852133D01*
X246295814Y-143090228D01*
X246248195Y-143280704D01*
X246200576Y-143375942D01*
X246152957Y-143423561D01*
X246057719Y-143471180D01*
X245962480Y-143471180D01*
X245867242Y-143423561D01*
X245819623Y-143375942D01*
X245772004Y-143280704D01*
X245724385Y-143090228D01*
X245724385Y-142852133D01*
X245772004Y-142661657D01*
X245819623Y-142566419D01*
X245867242Y-142518800D01*
X245962480Y-142471180D01*
%TO.C,U30*%
X289698704Y-197755580D02*
X289698704Y-198565104D01*
X289746323Y-198660342D01*
X289793942Y-198707961D01*
X289889180Y-198755580D01*
X290079657Y-198755580D01*
X290174895Y-198707961D01*
X290222514Y-198660342D01*
X290270133Y-198565104D01*
X290270133Y-197755580D01*
X290651085Y-197755580D02*
X291270133Y-197755580D01*
X290936800Y-198136533D01*
X291079657Y-198136533D01*
X291174895Y-198184152D01*
X291222514Y-198231771D01*
X291270133Y-198327009D01*
X291270133Y-198565104D01*
X291222514Y-198660342D01*
X291174895Y-198707961D01*
X291079657Y-198755580D01*
X290793942Y-198755580D01*
X290698704Y-198707961D01*
X290651085Y-198660342D01*
X291889180Y-197755580D02*
X291984419Y-197755580D01*
X292079657Y-197803200D01*
X292127276Y-197850819D01*
X292174895Y-197946057D01*
X292222514Y-198136533D01*
X292222514Y-198374628D01*
X292174895Y-198565104D01*
X292127276Y-198660342D01*
X292079657Y-198707961D01*
X291984419Y-198755580D01*
X291889180Y-198755580D01*
X291793942Y-198707961D01*
X291746323Y-198660342D01*
X291698704Y-198565104D01*
X291651085Y-198374628D01*
X291651085Y-198136533D01*
X291698704Y-197946057D01*
X291746323Y-197850819D01*
X291793942Y-197803200D01*
X291889180Y-197755580D01*
%TO.C,U19*%
X274411004Y-141907380D02*
X274411004Y-142716904D01*
X274458623Y-142812142D01*
X274506242Y-142859761D01*
X274601480Y-142907380D01*
X274791957Y-142907380D01*
X274887195Y-142859761D01*
X274934814Y-142812142D01*
X274982433Y-142716904D01*
X274982433Y-141907380D01*
X275982433Y-142907380D02*
X275411004Y-142907380D01*
X275696719Y-142907380D02*
X275696719Y-141907380D01*
X275601480Y-142050238D01*
X275506242Y-142145476D01*
X275411004Y-142193095D01*
X276458623Y-142907380D02*
X276649100Y-142907380D01*
X276744338Y-142859761D01*
X276791957Y-142812142D01*
X276887195Y-142669285D01*
X276934814Y-142478809D01*
X276934814Y-142097857D01*
X276887195Y-142002619D01*
X276839576Y-141955000D01*
X276744338Y-141907380D01*
X276553861Y-141907380D01*
X276458623Y-141955000D01*
X276411004Y-142002619D01*
X276363385Y-142097857D01*
X276363385Y-142335952D01*
X276411004Y-142431190D01*
X276458623Y-142478809D01*
X276553861Y-142526428D01*
X276744338Y-142526428D01*
X276839576Y-142478809D01*
X276887195Y-142431190D01*
X276934814Y-142335952D01*
%TO.C,C24*%
X292675542Y-137562142D02*
X292627923Y-137609761D01*
X292485066Y-137657380D01*
X292389828Y-137657380D01*
X292246971Y-137609761D01*
X292151733Y-137514523D01*
X292104114Y-137419285D01*
X292056495Y-137228809D01*
X292056495Y-137085952D01*
X292104114Y-136895476D01*
X292151733Y-136800238D01*
X292246971Y-136705000D01*
X292389828Y-136657380D01*
X292485066Y-136657380D01*
X292627923Y-136705000D01*
X292675542Y-136752619D01*
X293056495Y-136752619D02*
X293104114Y-136705000D01*
X293199352Y-136657380D01*
X293437447Y-136657380D01*
X293532685Y-136705000D01*
X293580304Y-136752619D01*
X293627923Y-136847857D01*
X293627923Y-136943095D01*
X293580304Y-137085952D01*
X293008876Y-137657380D01*
X293627923Y-137657380D01*
X294485066Y-136990714D02*
X294485066Y-137657380D01*
X294246971Y-136609761D02*
X294008876Y-137324047D01*
X294627923Y-137324047D01*
%TO.C,R12*%
X168340280Y-95085057D02*
X167864090Y-95418390D01*
X168340280Y-95656485D02*
X167340280Y-95656485D01*
X167340280Y-95275533D01*
X167387900Y-95180295D01*
X167435519Y-95132676D01*
X167530757Y-95085057D01*
X167673614Y-95085057D01*
X167768852Y-95132676D01*
X167816471Y-95180295D01*
X167864090Y-95275533D01*
X167864090Y-95656485D01*
X168340280Y-94132676D02*
X168340280Y-94704104D01*
X168340280Y-94418390D02*
X167340280Y-94418390D01*
X167483138Y-94513628D01*
X167578376Y-94608866D01*
X167625995Y-94704104D01*
X167435519Y-93751723D02*
X167387900Y-93704104D01*
X167340280Y-93608866D01*
X167340280Y-93370771D01*
X167387900Y-93275533D01*
X167435519Y-93227914D01*
X167530757Y-93180295D01*
X167625995Y-93180295D01*
X167768852Y-93227914D01*
X168340280Y-93799342D01*
X168340280Y-93180295D01*
%TO.C,C13*%
X225568742Y-187849142D02*
X225521123Y-187896761D01*
X225378266Y-187944380D01*
X225283028Y-187944380D01*
X225140171Y-187896761D01*
X225044933Y-187801523D01*
X224997314Y-187706285D01*
X224949695Y-187515809D01*
X224949695Y-187372952D01*
X224997314Y-187182476D01*
X225044933Y-187087238D01*
X225140171Y-186992000D01*
X225283028Y-186944380D01*
X225378266Y-186944380D01*
X225521123Y-186992000D01*
X225568742Y-187039619D01*
X226521123Y-187944380D02*
X225949695Y-187944380D01*
X226235409Y-187944380D02*
X226235409Y-186944380D01*
X226140171Y-187087238D01*
X226044933Y-187182476D01*
X225949695Y-187230095D01*
X226854457Y-186944380D02*
X227473504Y-186944380D01*
X227140171Y-187325333D01*
X227283028Y-187325333D01*
X227378266Y-187372952D01*
X227425885Y-187420571D01*
X227473504Y-187515809D01*
X227473504Y-187753904D01*
X227425885Y-187849142D01*
X227378266Y-187896761D01*
X227283028Y-187944380D01*
X226997314Y-187944380D01*
X226902076Y-187896761D01*
X226854457Y-187849142D01*
%TO.C,R13*%
X201872180Y-95085057D02*
X201395990Y-95418390D01*
X201872180Y-95656485D02*
X200872180Y-95656485D01*
X200872180Y-95275533D01*
X200919800Y-95180295D01*
X200967419Y-95132676D01*
X201062657Y-95085057D01*
X201205514Y-95085057D01*
X201300752Y-95132676D01*
X201348371Y-95180295D01*
X201395990Y-95275533D01*
X201395990Y-95656485D01*
X201872180Y-94132676D02*
X201872180Y-94704104D01*
X201872180Y-94418390D02*
X200872180Y-94418390D01*
X201015038Y-94513628D01*
X201110276Y-94608866D01*
X201157895Y-94704104D01*
X200872180Y-93799342D02*
X200872180Y-93180295D01*
X201253133Y-93513628D01*
X201253133Y-93370771D01*
X201300752Y-93275533D01*
X201348371Y-93227914D01*
X201443609Y-93180295D01*
X201681704Y-93180295D01*
X201776942Y-93227914D01*
X201824561Y-93275533D01*
X201872180Y-93370771D01*
X201872180Y-93656485D01*
X201824561Y-93751723D01*
X201776942Y-93799342D01*
%TO.C,R14*%
X198152080Y-95085057D02*
X197675890Y-95418390D01*
X198152080Y-95656485D02*
X197152080Y-95656485D01*
X197152080Y-95275533D01*
X197199700Y-95180295D01*
X197247319Y-95132676D01*
X197342557Y-95085057D01*
X197485414Y-95085057D01*
X197580652Y-95132676D01*
X197628271Y-95180295D01*
X197675890Y-95275533D01*
X197675890Y-95656485D01*
X198152080Y-94132676D02*
X198152080Y-94704104D01*
X198152080Y-94418390D02*
X197152080Y-94418390D01*
X197294938Y-94513628D01*
X197390176Y-94608866D01*
X197437795Y-94704104D01*
X197485414Y-93275533D02*
X198152080Y-93275533D01*
X197104461Y-93513628D02*
X197818747Y-93751723D01*
X197818747Y-93132676D01*
%TO.C,C27*%
X232883942Y-54290942D02*
X232836323Y-54338561D01*
X232693466Y-54386180D01*
X232598228Y-54386180D01*
X232455371Y-54338561D01*
X232360133Y-54243323D01*
X232312514Y-54148085D01*
X232264895Y-53957609D01*
X232264895Y-53814752D01*
X232312514Y-53624276D01*
X232360133Y-53529038D01*
X232455371Y-53433800D01*
X232598228Y-53386180D01*
X232693466Y-53386180D01*
X232836323Y-53433800D01*
X232883942Y-53481419D01*
X233264895Y-53481419D02*
X233312514Y-53433800D01*
X233407752Y-53386180D01*
X233645847Y-53386180D01*
X233741085Y-53433800D01*
X233788704Y-53481419D01*
X233836323Y-53576657D01*
X233836323Y-53671895D01*
X233788704Y-53814752D01*
X233217276Y-54386180D01*
X233836323Y-54386180D01*
X234169657Y-53386180D02*
X234836323Y-53386180D01*
X234407752Y-54386180D01*
%TO.C,C31*%
X292676342Y-193741942D02*
X292628723Y-193789561D01*
X292485866Y-193837180D01*
X292390628Y-193837180D01*
X292247771Y-193789561D01*
X292152533Y-193694323D01*
X292104914Y-193599085D01*
X292057295Y-193408609D01*
X292057295Y-193265752D01*
X292104914Y-193075276D01*
X292152533Y-192980038D01*
X292247771Y-192884800D01*
X292390628Y-192837180D01*
X292485866Y-192837180D01*
X292628723Y-192884800D01*
X292676342Y-192932419D01*
X293009676Y-192837180D02*
X293628723Y-192837180D01*
X293295390Y-193218133D01*
X293438247Y-193218133D01*
X293533485Y-193265752D01*
X293581104Y-193313371D01*
X293628723Y-193408609D01*
X293628723Y-193646704D01*
X293581104Y-193741942D01*
X293533485Y-193789561D01*
X293438247Y-193837180D01*
X293152533Y-193837180D01*
X293057295Y-193789561D01*
X293009676Y-193741942D01*
X294581104Y-193837180D02*
X294009676Y-193837180D01*
X294295390Y-193837180D02*
X294295390Y-192837180D01*
X294200152Y-192980038D01*
X294104914Y-193075276D01*
X294009676Y-193122895D01*
%TO.C,C8*%
X263314833Y-54290942D02*
X263267214Y-54338561D01*
X263124357Y-54386180D01*
X263029119Y-54386180D01*
X262886261Y-54338561D01*
X262791023Y-54243323D01*
X262743404Y-54148085D01*
X262695785Y-53957609D01*
X262695785Y-53814752D01*
X262743404Y-53624276D01*
X262791023Y-53529038D01*
X262886261Y-53433800D01*
X263029119Y-53386180D01*
X263124357Y-53386180D01*
X263267214Y-53433800D01*
X263314833Y-53481419D01*
X263886261Y-53814752D02*
X263791023Y-53767133D01*
X263743404Y-53719514D01*
X263695785Y-53624276D01*
X263695785Y-53576657D01*
X263743404Y-53481419D01*
X263791023Y-53433800D01*
X263886261Y-53386180D01*
X264076738Y-53386180D01*
X264171976Y-53433800D01*
X264219595Y-53481419D01*
X264267214Y-53576657D01*
X264267214Y-53624276D01*
X264219595Y-53719514D01*
X264171976Y-53767133D01*
X264076738Y-53814752D01*
X263886261Y-53814752D01*
X263791023Y-53862371D01*
X263743404Y-53909990D01*
X263695785Y-54005228D01*
X263695785Y-54195704D01*
X263743404Y-54290942D01*
X263791023Y-54338561D01*
X263886261Y-54386180D01*
X264076738Y-54386180D01*
X264171976Y-54338561D01*
X264219595Y-54290942D01*
X264267214Y-54195704D01*
X264267214Y-54005228D01*
X264219595Y-53909990D01*
X264171976Y-53862371D01*
X264076738Y-53814752D01*
%TO.C,C34*%
X182531942Y-104440542D02*
X182484323Y-104488161D01*
X182341466Y-104535780D01*
X182246228Y-104535780D01*
X182103371Y-104488161D01*
X182008133Y-104392923D01*
X181960514Y-104297685D01*
X181912895Y-104107209D01*
X181912895Y-103964352D01*
X181960514Y-103773876D01*
X182008133Y-103678638D01*
X182103371Y-103583400D01*
X182246228Y-103535780D01*
X182341466Y-103535780D01*
X182484323Y-103583400D01*
X182531942Y-103631019D01*
X182865276Y-103535780D02*
X183484323Y-103535780D01*
X183150990Y-103916733D01*
X183293847Y-103916733D01*
X183389085Y-103964352D01*
X183436704Y-104011971D01*
X183484323Y-104107209D01*
X183484323Y-104345304D01*
X183436704Y-104440542D01*
X183389085Y-104488161D01*
X183293847Y-104535780D01*
X183008133Y-104535780D01*
X182912895Y-104488161D01*
X182865276Y-104440542D01*
X184341466Y-103869114D02*
X184341466Y-104535780D01*
X184103371Y-103488161D02*
X183865276Y-104202447D01*
X184484323Y-104202447D01*
%TO.C,U25*%
X193376704Y-193012180D02*
X193376704Y-193821704D01*
X193424323Y-193916942D01*
X193471942Y-193964561D01*
X193567180Y-194012180D01*
X193757657Y-194012180D01*
X193852895Y-193964561D01*
X193900514Y-193916942D01*
X193948133Y-193821704D01*
X193948133Y-193012180D01*
X194376704Y-193107419D02*
X194424323Y-193059800D01*
X194519561Y-193012180D01*
X194757657Y-193012180D01*
X194852895Y-193059800D01*
X194900514Y-193107419D01*
X194948133Y-193202657D01*
X194948133Y-193297895D01*
X194900514Y-193440752D01*
X194329085Y-194012180D01*
X194948133Y-194012180D01*
X195852895Y-193012180D02*
X195376704Y-193012180D01*
X195329085Y-193488371D01*
X195376704Y-193440752D01*
X195471942Y-193393133D01*
X195710038Y-193393133D01*
X195805276Y-193440752D01*
X195852895Y-193488371D01*
X195900514Y-193583609D01*
X195900514Y-193821704D01*
X195852895Y-193916942D01*
X195805276Y-193964561D01*
X195710038Y-194012180D01*
X195471942Y-194012180D01*
X195376704Y-193964561D01*
X195329085Y-193916942D01*
%TO.C,U33*%
X194367904Y-108621580D02*
X194367904Y-109431104D01*
X194415523Y-109526342D01*
X194463142Y-109573961D01*
X194558380Y-109621580D01*
X194748857Y-109621580D01*
X194844095Y-109573961D01*
X194891714Y-109526342D01*
X194939333Y-109431104D01*
X194939333Y-108621580D01*
X195320285Y-108621580D02*
X195939333Y-108621580D01*
X195606000Y-109002533D01*
X195748857Y-109002533D01*
X195844095Y-109050152D01*
X195891714Y-109097771D01*
X195939333Y-109193009D01*
X195939333Y-109431104D01*
X195891714Y-109526342D01*
X195844095Y-109573961D01*
X195748857Y-109621580D01*
X195463142Y-109621580D01*
X195367904Y-109573961D01*
X195320285Y-109526342D01*
X196272666Y-108621580D02*
X196891714Y-108621580D01*
X196558380Y-109002533D01*
X196701238Y-109002533D01*
X196796476Y-109050152D01*
X196844095Y-109097771D01*
X196891714Y-109193009D01*
X196891714Y-109431104D01*
X196844095Y-109526342D01*
X196796476Y-109573961D01*
X196701238Y-109621580D01*
X196415523Y-109621580D01*
X196320285Y-109573961D01*
X196272666Y-109526342D01*
%TO.C,U32*%
X208972304Y-109085580D02*
X208972304Y-109895104D01*
X209019923Y-109990342D01*
X209067542Y-110037961D01*
X209162780Y-110085580D01*
X209353257Y-110085580D01*
X209448495Y-110037961D01*
X209496114Y-109990342D01*
X209543733Y-109895104D01*
X209543733Y-109085580D01*
X209924685Y-109085580D02*
X210543733Y-109085580D01*
X210210400Y-109466533D01*
X210353257Y-109466533D01*
X210448495Y-109514152D01*
X210496114Y-109561771D01*
X210543733Y-109657009D01*
X210543733Y-109895104D01*
X210496114Y-109990342D01*
X210448495Y-110037961D01*
X210353257Y-110085580D01*
X210067542Y-110085580D01*
X209972304Y-110037961D01*
X209924685Y-109990342D01*
X210924685Y-109180819D02*
X210972304Y-109133200D01*
X211067542Y-109085580D01*
X211305638Y-109085580D01*
X211400876Y-109133200D01*
X211448495Y-109180819D01*
X211496114Y-109276057D01*
X211496114Y-109371295D01*
X211448495Y-109514152D01*
X210877066Y-110085580D01*
X211496114Y-110085580D01*
%TO.C,C19*%
X277757142Y-85781942D02*
X277709523Y-85829561D01*
X277566666Y-85877180D01*
X277471428Y-85877180D01*
X277328571Y-85829561D01*
X277233333Y-85734323D01*
X277185714Y-85639085D01*
X277138095Y-85448609D01*
X277138095Y-85305752D01*
X277185714Y-85115276D01*
X277233333Y-85020038D01*
X277328571Y-84924800D01*
X277471428Y-84877180D01*
X277566666Y-84877180D01*
X277709523Y-84924800D01*
X277757142Y-84972419D01*
X278709523Y-85877180D02*
X278138095Y-85877180D01*
X278423809Y-85877180D02*
X278423809Y-84877180D01*
X278328571Y-85020038D01*
X278233333Y-85115276D01*
X278138095Y-85162895D01*
X279185714Y-85877180D02*
X279376190Y-85877180D01*
X279471428Y-85829561D01*
X279519047Y-85781942D01*
X279614285Y-85639085D01*
X279661904Y-85448609D01*
X279661904Y-85067657D01*
X279614285Y-84972419D01*
X279566666Y-84924800D01*
X279471428Y-84877180D01*
X279280952Y-84877180D01*
X279185714Y-84924800D01*
X279138095Y-84972419D01*
X279090476Y-85067657D01*
X279090476Y-85305752D01*
X279138095Y-85400990D01*
X279185714Y-85448609D01*
X279280952Y-85496228D01*
X279471428Y-85496228D01*
X279566666Y-85448609D01*
X279614285Y-85400990D01*
X279661904Y-85305752D01*
%TO.C,C26*%
X240533942Y-85781942D02*
X240486323Y-85829561D01*
X240343466Y-85877180D01*
X240248228Y-85877180D01*
X240105371Y-85829561D01*
X240010133Y-85734323D01*
X239962514Y-85639085D01*
X239914895Y-85448609D01*
X239914895Y-85305752D01*
X239962514Y-85115276D01*
X240010133Y-85020038D01*
X240105371Y-84924800D01*
X240248228Y-84877180D01*
X240343466Y-84877180D01*
X240486323Y-84924800D01*
X240533942Y-84972419D01*
X240914895Y-84972419D02*
X240962514Y-84924800D01*
X241057752Y-84877180D01*
X241295847Y-84877180D01*
X241391085Y-84924800D01*
X241438704Y-84972419D01*
X241486323Y-85067657D01*
X241486323Y-85162895D01*
X241438704Y-85305752D01*
X240867276Y-85877180D01*
X241486323Y-85877180D01*
X242343466Y-84877180D02*
X242152990Y-84877180D01*
X242057752Y-84924800D01*
X242010133Y-84972419D01*
X241914895Y-85115276D01*
X241867276Y-85305752D01*
X241867276Y-85686704D01*
X241914895Y-85781942D01*
X241962514Y-85829561D01*
X242057752Y-85877180D01*
X242248228Y-85877180D01*
X242343466Y-85829561D01*
X242391085Y-85781942D01*
X242438704Y-85686704D01*
X242438704Y-85448609D01*
X242391085Y-85353371D01*
X242343466Y-85305752D01*
X242248228Y-85258133D01*
X242057752Y-85258133D01*
X241962514Y-85305752D01*
X241914895Y-85353371D01*
X241867276Y-85448609D01*
%TO.C,U1*%
X230174895Y-58636180D02*
X230174895Y-59445704D01*
X230222514Y-59540942D01*
X230270133Y-59588561D01*
X230365371Y-59636180D01*
X230555847Y-59636180D01*
X230651085Y-59588561D01*
X230698704Y-59540942D01*
X230746323Y-59445704D01*
X230746323Y-58636180D01*
X231746323Y-59636180D02*
X231174895Y-59636180D01*
X231460609Y-59636180D02*
X231460609Y-58636180D01*
X231365371Y-58779038D01*
X231270133Y-58874276D01*
X231174895Y-58921895D01*
%TO.C,U35*%
X179305104Y-141607580D02*
X179305104Y-142417104D01*
X179352723Y-142512342D01*
X179400342Y-142559961D01*
X179495580Y-142607580D01*
X179686057Y-142607580D01*
X179781295Y-142559961D01*
X179828914Y-142512342D01*
X179876533Y-142417104D01*
X179876533Y-141607580D01*
X180257485Y-141607580D02*
X180876533Y-141607580D01*
X180543200Y-141988533D01*
X180686057Y-141988533D01*
X180781295Y-142036152D01*
X180828914Y-142083771D01*
X180876533Y-142179009D01*
X180876533Y-142417104D01*
X180828914Y-142512342D01*
X180781295Y-142559961D01*
X180686057Y-142607580D01*
X180400342Y-142607580D01*
X180305104Y-142559961D01*
X180257485Y-142512342D01*
X181781295Y-141607580D02*
X181305104Y-141607580D01*
X181257485Y-142083771D01*
X181305104Y-142036152D01*
X181400342Y-141988533D01*
X181638438Y-141988533D01*
X181733676Y-142036152D01*
X181781295Y-142083771D01*
X181828914Y-142179009D01*
X181828914Y-142417104D01*
X181781295Y-142512342D01*
X181733676Y-142559961D01*
X181638438Y-142607580D01*
X181400342Y-142607580D01*
X181305104Y-142559961D01*
X181257485Y-142512342D01*
%TO.C,C5*%
X167289333Y-196051142D02*
X167241714Y-196098761D01*
X167098857Y-196146380D01*
X167003619Y-196146380D01*
X166860761Y-196098761D01*
X166765523Y-196003523D01*
X166717904Y-195908285D01*
X166670285Y-195717809D01*
X166670285Y-195574952D01*
X166717904Y-195384476D01*
X166765523Y-195289238D01*
X166860761Y-195194000D01*
X167003619Y-195146380D01*
X167098857Y-195146380D01*
X167241714Y-195194000D01*
X167289333Y-195241619D01*
X168194095Y-195146380D02*
X167717904Y-195146380D01*
X167670285Y-195622571D01*
X167717904Y-195574952D01*
X167813142Y-195527333D01*
X168051238Y-195527333D01*
X168146476Y-195574952D01*
X168194095Y-195622571D01*
X168241714Y-195717809D01*
X168241714Y-195955904D01*
X168194095Y-196051142D01*
X168146476Y-196098761D01*
X168051238Y-196146380D01*
X167813142Y-196146380D01*
X167717904Y-196098761D01*
X167670285Y-196051142D01*
%TO.C,C11*%
X239132342Y-188666942D02*
X239084723Y-188714561D01*
X238941866Y-188762180D01*
X238846628Y-188762180D01*
X238703771Y-188714561D01*
X238608533Y-188619323D01*
X238560914Y-188524085D01*
X238513295Y-188333609D01*
X238513295Y-188190752D01*
X238560914Y-188000276D01*
X238608533Y-187905038D01*
X238703771Y-187809800D01*
X238846628Y-187762180D01*
X238941866Y-187762180D01*
X239084723Y-187809800D01*
X239132342Y-187857419D01*
X240084723Y-188762180D02*
X239513295Y-188762180D01*
X239799009Y-188762180D02*
X239799009Y-187762180D01*
X239703771Y-187905038D01*
X239608533Y-188000276D01*
X239513295Y-188047895D01*
X241037104Y-188762180D02*
X240465676Y-188762180D01*
X240751390Y-188762180D02*
X240751390Y-187762180D01*
X240656152Y-187905038D01*
X240560914Y-188000276D01*
X240465676Y-188047895D01*
%TO.C,C14*%
X211995942Y-163114542D02*
X211948323Y-163162161D01*
X211805466Y-163209780D01*
X211710228Y-163209780D01*
X211567371Y-163162161D01*
X211472133Y-163066923D01*
X211424514Y-162971685D01*
X211376895Y-162781209D01*
X211376895Y-162638352D01*
X211424514Y-162447876D01*
X211472133Y-162352638D01*
X211567371Y-162257400D01*
X211710228Y-162209780D01*
X211805466Y-162209780D01*
X211948323Y-162257400D01*
X211995942Y-162305019D01*
X212948323Y-163209780D02*
X212376895Y-163209780D01*
X212662609Y-163209780D02*
X212662609Y-162209780D01*
X212567371Y-162352638D01*
X212472133Y-162447876D01*
X212376895Y-162495495D01*
X213805466Y-162543114D02*
X213805466Y-163209780D01*
X213567371Y-162162161D02*
X213329276Y-162876447D01*
X213948323Y-162876447D01*
%TO.C,U6*%
X134152895Y-171138180D02*
X134152895Y-171947704D01*
X134200514Y-172042942D01*
X134248133Y-172090561D01*
X134343371Y-172138180D01*
X134533847Y-172138180D01*
X134629085Y-172090561D01*
X134676704Y-172042942D01*
X134724323Y-171947704D01*
X134724323Y-171138180D01*
X135629085Y-171138180D02*
X135438609Y-171138180D01*
X135343371Y-171185800D01*
X135295752Y-171233419D01*
X135200514Y-171376276D01*
X135152895Y-171566752D01*
X135152895Y-171947704D01*
X135200514Y-172042942D01*
X135248133Y-172090561D01*
X135343371Y-172138180D01*
X135533847Y-172138180D01*
X135629085Y-172090561D01*
X135676704Y-172042942D01*
X135724323Y-171947704D01*
X135724323Y-171709609D01*
X135676704Y-171614371D01*
X135629085Y-171566752D01*
X135533847Y-171519133D01*
X135343371Y-171519133D01*
X135248133Y-171566752D01*
X135200514Y-171614371D01*
X135152895Y-171709609D01*
%TO.C,C20*%
X277757142Y-54290942D02*
X277709523Y-54338561D01*
X277566666Y-54386180D01*
X277471428Y-54386180D01*
X277328571Y-54338561D01*
X277233333Y-54243323D01*
X277185714Y-54148085D01*
X277138095Y-53957609D01*
X277138095Y-53814752D01*
X277185714Y-53624276D01*
X277233333Y-53529038D01*
X277328571Y-53433800D01*
X277471428Y-53386180D01*
X277566666Y-53386180D01*
X277709523Y-53433800D01*
X277757142Y-53481419D01*
X278138095Y-53481419D02*
X278185714Y-53433800D01*
X278280952Y-53386180D01*
X278519047Y-53386180D01*
X278614285Y-53433800D01*
X278661904Y-53481419D01*
X278709523Y-53576657D01*
X278709523Y-53671895D01*
X278661904Y-53814752D01*
X278090476Y-54386180D01*
X278709523Y-54386180D01*
X279328571Y-53386180D02*
X279423809Y-53386180D01*
X279519047Y-53433800D01*
X279566666Y-53481419D01*
X279614285Y-53576657D01*
X279661904Y-53767133D01*
X279661904Y-54005228D01*
X279614285Y-54195704D01*
X279566666Y-54290942D01*
X279519047Y-54338561D01*
X279423809Y-54386180D01*
X279328571Y-54386180D01*
X279233333Y-54338561D01*
X279185714Y-54290942D01*
X279138095Y-54195704D01*
X279090476Y-54005228D01*
X279090476Y-53767133D01*
X279138095Y-53576657D01*
X279185714Y-53481419D01*
X279233333Y-53433800D01*
X279328571Y-53386180D01*
%TO.C,J2*%
X174792427Y-67253045D02*
X174792427Y-68254986D01*
X174725631Y-68455374D01*
X174592039Y-68588966D01*
X174391651Y-68655762D01*
X174258059Y-68655762D01*
X175393592Y-67386637D02*
X175460388Y-67319841D01*
X175593980Y-67253045D01*
X175927960Y-67253045D01*
X176061552Y-67319841D01*
X176128348Y-67386637D01*
X176195144Y-67520229D01*
X176195144Y-67653821D01*
X176128348Y-67854209D01*
X175326796Y-68655762D01*
X176195144Y-68655762D01*
%TO.C,R6*%
X172145047Y-95085057D02*
X171668857Y-95418391D01*
X172145047Y-95656486D02*
X171145047Y-95656486D01*
X171145047Y-95275533D01*
X171192667Y-95180295D01*
X171240286Y-95132676D01*
X171335524Y-95085057D01*
X171478381Y-95085057D01*
X171573619Y-95132676D01*
X171621238Y-95180295D01*
X171668857Y-95275533D01*
X171668857Y-95656486D01*
X171145047Y-94227914D02*
X171145047Y-94418391D01*
X171192667Y-94513629D01*
X171240286Y-94561248D01*
X171383143Y-94656486D01*
X171573619Y-94704105D01*
X171954571Y-94704105D01*
X172049809Y-94656486D01*
X172097428Y-94608867D01*
X172145047Y-94513629D01*
X172145047Y-94323152D01*
X172097428Y-94227914D01*
X172049809Y-94180295D01*
X171954571Y-94132676D01*
X171716476Y-94132676D01*
X171621238Y-94180295D01*
X171573619Y-94227914D01*
X171526000Y-94323152D01*
X171526000Y-94513629D01*
X171573619Y-94608867D01*
X171621238Y-94656486D01*
X171716476Y-94704105D01*
%TO.C,U26*%
X255947304Y-90061380D02*
X255947304Y-90870904D01*
X255994923Y-90966142D01*
X256042542Y-91013761D01*
X256137780Y-91061380D01*
X256328257Y-91061380D01*
X256423495Y-91013761D01*
X256471114Y-90966142D01*
X256518733Y-90870904D01*
X256518733Y-90061380D01*
X256947304Y-90156619D02*
X256994923Y-90109000D01*
X257090161Y-90061380D01*
X257328257Y-90061380D01*
X257423495Y-90109000D01*
X257471114Y-90156619D01*
X257518733Y-90251857D01*
X257518733Y-90347095D01*
X257471114Y-90489952D01*
X256899685Y-91061380D01*
X257518733Y-91061380D01*
X258375876Y-90061380D02*
X258185400Y-90061380D01*
X258090161Y-90109000D01*
X258042542Y-90156619D01*
X257947304Y-90299476D01*
X257899685Y-90489952D01*
X257899685Y-90870904D01*
X257947304Y-90966142D01*
X257994923Y-91013761D01*
X258090161Y-91061380D01*
X258280638Y-91061380D01*
X258375876Y-91013761D01*
X258423495Y-90966142D01*
X258471114Y-90870904D01*
X258471114Y-90632809D01*
X258423495Y-90537571D01*
X258375876Y-90489952D01*
X258280638Y-90442333D01*
X258090161Y-90442333D01*
X257994923Y-90489952D01*
X257947304Y-90537571D01*
X257899685Y-90632809D01*
%TO.C,R9*%
X175729780Y-95085057D02*
X175253590Y-95418391D01*
X175729780Y-95656486D02*
X174729780Y-95656486D01*
X174729780Y-95275533D01*
X174777400Y-95180295D01*
X174825019Y-95132676D01*
X174920257Y-95085057D01*
X175063114Y-95085057D01*
X175158352Y-95132676D01*
X175205971Y-95180295D01*
X175253590Y-95275533D01*
X175253590Y-95656486D01*
X175729780Y-94608867D02*
X175729780Y-94418391D01*
X175682161Y-94323152D01*
X175634542Y-94275533D01*
X175491685Y-94180295D01*
X175301209Y-94132676D01*
X174920257Y-94132676D01*
X174825019Y-94180295D01*
X174777400Y-94227914D01*
X174729780Y-94323152D01*
X174729780Y-94513629D01*
X174777400Y-94608867D01*
X174825019Y-94656486D01*
X174920257Y-94704105D01*
X175158352Y-94704105D01*
X175253590Y-94656486D01*
X175301209Y-94608867D01*
X175348828Y-94513629D01*
X175348828Y-94323152D01*
X175301209Y-94227914D01*
X175253590Y-94180295D01*
X175158352Y-94132676D01*
%TO.C,C29*%
X231877942Y-137562142D02*
X231830323Y-137609761D01*
X231687466Y-137657380D01*
X231592228Y-137657380D01*
X231449371Y-137609761D01*
X231354133Y-137514523D01*
X231306514Y-137419285D01*
X231258895Y-137228809D01*
X231258895Y-137085952D01*
X231306514Y-136895476D01*
X231354133Y-136800238D01*
X231449371Y-136705000D01*
X231592228Y-136657380D01*
X231687466Y-136657380D01*
X231830323Y-136705000D01*
X231877942Y-136752619D01*
X232258895Y-136752619D02*
X232306514Y-136705000D01*
X232401752Y-136657380D01*
X232639847Y-136657380D01*
X232735085Y-136705000D01*
X232782704Y-136752619D01*
X232830323Y-136847857D01*
X232830323Y-136943095D01*
X232782704Y-137085952D01*
X232211276Y-137657380D01*
X232830323Y-137657380D01*
X233306514Y-137657380D02*
X233496990Y-137657380D01*
X233592228Y-137609761D01*
X233639847Y-137562142D01*
X233735085Y-137419285D01*
X233782704Y-137228809D01*
X233782704Y-136847857D01*
X233735085Y-136752619D01*
X233687466Y-136705000D01*
X233592228Y-136657380D01*
X233401752Y-136657380D01*
X233306514Y-136705000D01*
X233258895Y-136752619D01*
X233211276Y-136847857D01*
X233211276Y-137085952D01*
X233258895Y-137181190D01*
X233306514Y-137228809D01*
X233401752Y-137276428D01*
X233592228Y-137276428D01*
X233687466Y-137228809D01*
X233735085Y-137181190D01*
X233782704Y-137085952D01*
%TO.C,R5*%
X179551480Y-95085057D02*
X179075290Y-95418391D01*
X179551480Y-95656486D02*
X178551480Y-95656486D01*
X178551480Y-95275533D01*
X178599100Y-95180295D01*
X178646719Y-95132676D01*
X178741957Y-95085057D01*
X178884814Y-95085057D01*
X178980052Y-95132676D01*
X179027671Y-95180295D01*
X179075290Y-95275533D01*
X179075290Y-95656486D01*
X178551480Y-94180295D02*
X178551480Y-94656486D01*
X179027671Y-94704105D01*
X178980052Y-94656486D01*
X178932433Y-94561248D01*
X178932433Y-94323152D01*
X178980052Y-94227914D01*
X179027671Y-94180295D01*
X179122909Y-94132676D01*
X179361004Y-94132676D01*
X179456242Y-94180295D01*
X179503861Y-94227914D01*
X179551480Y-94323152D01*
X179551480Y-94561248D01*
X179503861Y-94656486D01*
X179456242Y-94704105D01*
%TO.C,C23*%
X292675542Y-85781942D02*
X292627923Y-85829561D01*
X292485066Y-85877180D01*
X292389828Y-85877180D01*
X292246971Y-85829561D01*
X292151733Y-85734323D01*
X292104114Y-85639085D01*
X292056495Y-85448609D01*
X292056495Y-85305752D01*
X292104114Y-85115276D01*
X292151733Y-85020038D01*
X292246971Y-84924800D01*
X292389828Y-84877180D01*
X292485066Y-84877180D01*
X292627923Y-84924800D01*
X292675542Y-84972419D01*
X293056495Y-84972419D02*
X293104114Y-84924800D01*
X293199352Y-84877180D01*
X293437447Y-84877180D01*
X293532685Y-84924800D01*
X293580304Y-84972419D01*
X293627923Y-85067657D01*
X293627923Y-85162895D01*
X293580304Y-85305752D01*
X293008876Y-85877180D01*
X293627923Y-85877180D01*
X293961257Y-84877180D02*
X294580304Y-84877180D01*
X294246971Y-85258133D01*
X294389828Y-85258133D01*
X294485066Y-85305752D01*
X294532685Y-85353371D01*
X294580304Y-85448609D01*
X294580304Y-85686704D01*
X294532685Y-85781942D01*
X294485066Y-85829561D01*
X294389828Y-85877180D01*
X294104114Y-85877180D01*
X294008876Y-85829561D01*
X293961257Y-85781942D01*
%TO.C,R2*%
X190709114Y-95085057D02*
X190232924Y-95418391D01*
X190709114Y-95656486D02*
X189709114Y-95656486D01*
X189709114Y-95275533D01*
X189756734Y-95180295D01*
X189804353Y-95132676D01*
X189899591Y-95085057D01*
X190042448Y-95085057D01*
X190137686Y-95132676D01*
X190185305Y-95180295D01*
X190232924Y-95275533D01*
X190232924Y-95656486D01*
X189804353Y-94704105D02*
X189756734Y-94656486D01*
X189709114Y-94561248D01*
X189709114Y-94323152D01*
X189756734Y-94227914D01*
X189804353Y-94180295D01*
X189899591Y-94132676D01*
X189994829Y-94132676D01*
X190137686Y-94180295D01*
X190709114Y-94751724D01*
X190709114Y-94132676D01*
%TO.C,U27*%
X254428304Y-182852180D02*
X254428304Y-183661704D01*
X254475923Y-183756942D01*
X254523542Y-183804561D01*
X254618780Y-183852180D01*
X254809257Y-183852180D01*
X254904495Y-183804561D01*
X254952114Y-183756942D01*
X254999733Y-183661704D01*
X254999733Y-182852180D01*
X255428304Y-182947419D02*
X255475923Y-182899800D01*
X255571161Y-182852180D01*
X255809257Y-182852180D01*
X255904495Y-182899800D01*
X255952114Y-182947419D01*
X255999733Y-183042657D01*
X255999733Y-183137895D01*
X255952114Y-183280752D01*
X255380685Y-183852180D01*
X255999733Y-183852180D01*
X256333066Y-182852180D02*
X256999733Y-182852180D01*
X256571161Y-183852180D01*
%TO.C,C33*%
X292675542Y-54290942D02*
X292627923Y-54338561D01*
X292485066Y-54386180D01*
X292389828Y-54386180D01*
X292246971Y-54338561D01*
X292151733Y-54243323D01*
X292104114Y-54148085D01*
X292056495Y-53957609D01*
X292056495Y-53814752D01*
X292104114Y-53624276D01*
X292151733Y-53529038D01*
X292246971Y-53433800D01*
X292389828Y-53386180D01*
X292485066Y-53386180D01*
X292627923Y-53433800D01*
X292675542Y-53481419D01*
X293008876Y-53386180D02*
X293627923Y-53386180D01*
X293294590Y-53767133D01*
X293437447Y-53767133D01*
X293532685Y-53814752D01*
X293580304Y-53862371D01*
X293627923Y-53957609D01*
X293627923Y-54195704D01*
X293580304Y-54290942D01*
X293532685Y-54338561D01*
X293437447Y-54386180D01*
X293151733Y-54386180D01*
X293056495Y-54338561D01*
X293008876Y-54290942D01*
X293961257Y-53386180D02*
X294580304Y-53386180D01*
X294246971Y-53767133D01*
X294389828Y-53767133D01*
X294485066Y-53814752D01*
X294532685Y-53862371D01*
X294580304Y-53957609D01*
X294580304Y-54195704D01*
X294532685Y-54290942D01*
X294485066Y-54338561D01*
X294389828Y-54386180D01*
X294104114Y-54386180D01*
X294008876Y-54338561D01*
X293961257Y-54290942D01*
%TO.C,C21*%
X262972542Y-85781942D02*
X262924923Y-85829561D01*
X262782066Y-85877180D01*
X262686828Y-85877180D01*
X262543971Y-85829561D01*
X262448733Y-85734323D01*
X262401114Y-85639085D01*
X262353495Y-85448609D01*
X262353495Y-85305752D01*
X262401114Y-85115276D01*
X262448733Y-85020038D01*
X262543971Y-84924800D01*
X262686828Y-84877180D01*
X262782066Y-84877180D01*
X262924923Y-84924800D01*
X262972542Y-84972419D01*
X263353495Y-84972419D02*
X263401114Y-84924800D01*
X263496352Y-84877180D01*
X263734447Y-84877180D01*
X263829685Y-84924800D01*
X263877304Y-84972419D01*
X263924923Y-85067657D01*
X263924923Y-85162895D01*
X263877304Y-85305752D01*
X263305876Y-85877180D01*
X263924923Y-85877180D01*
X264877304Y-85877180D02*
X264305876Y-85877180D01*
X264591590Y-85877180D02*
X264591590Y-84877180D01*
X264496352Y-85020038D01*
X264401114Y-85115276D01*
X264305876Y-85162895D01*
%TO.C,Q3*%
X175053161Y-86353419D02*
X174957923Y-86305800D01*
X174862685Y-86210561D01*
X174719828Y-86067704D01*
X174624590Y-86020085D01*
X174529352Y-86020085D01*
X174576971Y-86258180D02*
X174481733Y-86210561D01*
X174386495Y-86115323D01*
X174338876Y-85924847D01*
X174338876Y-85591514D01*
X174386495Y-85401038D01*
X174481733Y-85305800D01*
X174576971Y-85258180D01*
X174767447Y-85258180D01*
X174862685Y-85305800D01*
X174957923Y-85401038D01*
X175005542Y-85591514D01*
X175005542Y-85924847D01*
X174957923Y-86115323D01*
X174862685Y-86210561D01*
X174767447Y-86258180D01*
X174576971Y-86258180D01*
X175338876Y-85258180D02*
X175957923Y-85258180D01*
X175624590Y-85639133D01*
X175767447Y-85639133D01*
X175862685Y-85686752D01*
X175910304Y-85734371D01*
X175957923Y-85829609D01*
X175957923Y-86067704D01*
X175910304Y-86162942D01*
X175862685Y-86210561D01*
X175767447Y-86258180D01*
X175481733Y-86258180D01*
X175386495Y-86210561D01*
X175338876Y-86162942D01*
%TO.C,U23*%
X233508704Y-90127180D02*
X233508704Y-90936704D01*
X233556323Y-91031942D01*
X233603942Y-91079561D01*
X233699180Y-91127180D01*
X233889657Y-91127180D01*
X233984895Y-91079561D01*
X234032514Y-91031942D01*
X234080133Y-90936704D01*
X234080133Y-90127180D01*
X234508704Y-90222419D02*
X234556323Y-90174800D01*
X234651561Y-90127180D01*
X234889657Y-90127180D01*
X234984895Y-90174800D01*
X235032514Y-90222419D01*
X235080133Y-90317657D01*
X235080133Y-90412895D01*
X235032514Y-90555752D01*
X234461085Y-91127180D01*
X235080133Y-91127180D01*
X235413466Y-90127180D02*
X236032514Y-90127180D01*
X235699180Y-90508133D01*
X235842038Y-90508133D01*
X235937276Y-90555752D01*
X235984895Y-90603371D01*
X236032514Y-90698609D01*
X236032514Y-90936704D01*
X235984895Y-91031942D01*
X235937276Y-91079561D01*
X235842038Y-91127180D01*
X235556323Y-91127180D01*
X235461085Y-91079561D01*
X235413466Y-91031942D01*
%TO.C,C25*%
X246957242Y-137562142D02*
X246909623Y-137609761D01*
X246766766Y-137657380D01*
X246671528Y-137657380D01*
X246528671Y-137609761D01*
X246433433Y-137514523D01*
X246385814Y-137419285D01*
X246338195Y-137228809D01*
X246338195Y-137085952D01*
X246385814Y-136895476D01*
X246433433Y-136800238D01*
X246528671Y-136705000D01*
X246671528Y-136657380D01*
X246766766Y-136657380D01*
X246909623Y-136705000D01*
X246957242Y-136752619D01*
X247338195Y-136752619D02*
X247385814Y-136705000D01*
X247481052Y-136657380D01*
X247719147Y-136657380D01*
X247814385Y-136705000D01*
X247862004Y-136752619D01*
X247909623Y-136847857D01*
X247909623Y-136943095D01*
X247862004Y-137085952D01*
X247290576Y-137657380D01*
X247909623Y-137657380D01*
X248814385Y-136657380D02*
X248338195Y-136657380D01*
X248290576Y-137133571D01*
X248338195Y-137085952D01*
X248433433Y-137038333D01*
X248671528Y-137038333D01*
X248766766Y-137085952D01*
X248814385Y-137133571D01*
X248862004Y-137228809D01*
X248862004Y-137466904D01*
X248814385Y-137562142D01*
X248766766Y-137609761D01*
X248671528Y-137657380D01*
X248433433Y-137657380D01*
X248338195Y-137609761D01*
X248290576Y-137562142D01*
%TO.C,U22*%
X179305104Y-200632180D02*
X179305104Y-201441704D01*
X179352723Y-201536942D01*
X179400342Y-201584561D01*
X179495580Y-201632180D01*
X179686057Y-201632180D01*
X179781295Y-201584561D01*
X179828914Y-201536942D01*
X179876533Y-201441704D01*
X179876533Y-200632180D01*
X180305104Y-200727419D02*
X180352723Y-200679800D01*
X180447961Y-200632180D01*
X180686057Y-200632180D01*
X180781295Y-200679800D01*
X180828914Y-200727419D01*
X180876533Y-200822657D01*
X180876533Y-200917895D01*
X180828914Y-201060752D01*
X180257485Y-201632180D01*
X180876533Y-201632180D01*
X181257485Y-200727419D02*
X181305104Y-200679800D01*
X181400342Y-200632180D01*
X181638438Y-200632180D01*
X181733676Y-200679800D01*
X181781295Y-200727419D01*
X181828914Y-200822657D01*
X181828914Y-200917895D01*
X181781295Y-201060752D01*
X181209866Y-201632180D01*
X181828914Y-201632180D01*
%TO.C,U17*%
X289490304Y-142725180D02*
X289490304Y-143534704D01*
X289537923Y-143629942D01*
X289585542Y-143677561D01*
X289680780Y-143725180D01*
X289871257Y-143725180D01*
X289966495Y-143677561D01*
X290014114Y-143629942D01*
X290061733Y-143534704D01*
X290061733Y-142725180D01*
X291061733Y-143725180D02*
X290490304Y-143725180D01*
X290776019Y-143725180D02*
X290776019Y-142725180D01*
X290680780Y-142868038D01*
X290585542Y-142963276D01*
X290490304Y-143010895D01*
X291395066Y-142725180D02*
X292061733Y-142725180D01*
X291633161Y-143725180D01*
%TO.C,C7*%
X152313733Y-196051142D02*
X152266114Y-196098761D01*
X152123257Y-196146380D01*
X152028019Y-196146380D01*
X151885161Y-196098761D01*
X151789923Y-196003523D01*
X151742304Y-195908285D01*
X151694685Y-195717809D01*
X151694685Y-195574952D01*
X151742304Y-195384476D01*
X151789923Y-195289238D01*
X151885161Y-195194000D01*
X152028019Y-195146380D01*
X152123257Y-195146380D01*
X152266114Y-195194000D01*
X152313733Y-195241619D01*
X152647066Y-195146380D02*
X153313733Y-195146380D01*
X152885161Y-196146380D01*
%TO.C,C10*%
X277596242Y-137562142D02*
X277548623Y-137609761D01*
X277405766Y-137657380D01*
X277310528Y-137657380D01*
X277167671Y-137609761D01*
X277072433Y-137514523D01*
X277024814Y-137419285D01*
X276977195Y-137228809D01*
X276977195Y-137085952D01*
X277024814Y-136895476D01*
X277072433Y-136800238D01*
X277167671Y-136705000D01*
X277310528Y-136657380D01*
X277405766Y-136657380D01*
X277548623Y-136705000D01*
X277596242Y-136752619D01*
X278548623Y-137657380D02*
X277977195Y-137657380D01*
X278262909Y-137657380D02*
X278262909Y-136657380D01*
X278167671Y-136800238D01*
X278072433Y-136895476D01*
X277977195Y-136943095D01*
X279167671Y-136657380D02*
X279262909Y-136657380D01*
X279358147Y-136705000D01*
X279405766Y-136752619D01*
X279453385Y-136847857D01*
X279501004Y-137038333D01*
X279501004Y-137276428D01*
X279453385Y-137466904D01*
X279405766Y-137562142D01*
X279358147Y-137609761D01*
X279262909Y-137657380D01*
X279167671Y-137657380D01*
X279072433Y-137609761D01*
X279024814Y-137562142D01*
X278977195Y-137466904D01*
X278929576Y-137276428D01*
X278929576Y-137038333D01*
X278977195Y-136847857D01*
X279024814Y-136752619D01*
X279072433Y-136705000D01*
X279167671Y-136657380D01*
D11*
%TO.C,R4*%
X156778300Y-90503800D02*
X156778300Y-91273800D01*
X155408300Y-97813800D02*
X158148300Y-97813800D01*
X155408300Y-91273800D02*
X155408300Y-97813800D01*
X156778300Y-98583800D02*
X156778300Y-97813800D01*
X158148300Y-91273800D02*
X155408300Y-91273800D01*
X158148300Y-97813800D02*
X158148300Y-91273800D01*
%TO.C,C15*%
X215268000Y-196760000D02*
X215268000Y-199500000D01*
X210028000Y-196760000D02*
X215268000Y-196760000D01*
X210028000Y-196760000D02*
X210028000Y-199500000D01*
X210028000Y-199500000D02*
X215268000Y-199500000D01*
%TO.C,C35*%
X180656400Y-138335000D02*
X180656400Y-141075000D01*
X180656400Y-138335000D02*
X185896400Y-138335000D01*
X185896400Y-138335000D02*
X185896400Y-141075000D01*
X180656400Y-141075000D02*
X185896400Y-141075000D01*
%TO.C,U7*%
X133914800Y-202179800D02*
X132264800Y-202179800D01*
X129774800Y-202119800D02*
X129774800Y-220139800D01*
X132264800Y-202179800D02*
X132264800Y-220079800D01*
X132264800Y-220079800D02*
X137564800Y-220079800D01*
X137564800Y-202179800D02*
X135914800Y-202179800D01*
X137564800Y-220079800D02*
X137564800Y-202179800D01*
X140054800Y-220139800D02*
X140054800Y-202119800D01*
X140054800Y-202119800D02*
X129774800Y-202119800D01*
X129774800Y-220139800D02*
X140054800Y-220139800D01*
X133914800Y-202179800D02*
G75*
G03*
X135914800Y-202179800I1000000J0D01*
G01*
%TO.C,C12*%
X185753200Y-196760000D02*
X185753200Y-199500000D01*
X180513200Y-196760000D02*
X185753200Y-196760000D01*
X180513200Y-199500000D02*
X185753200Y-199500000D01*
X180513200Y-196760000D02*
X180513200Y-199500000D01*
%TO.C,U4*%
X159726000Y-202119800D02*
X159726000Y-220139800D01*
X167516000Y-202179800D02*
X165866000Y-202179800D01*
X170006000Y-202119800D02*
X159726000Y-202119800D01*
X162216000Y-202179800D02*
X162216000Y-220079800D01*
X167516000Y-220079800D02*
X167516000Y-202179800D01*
X163866000Y-202179800D02*
X162216000Y-202179800D01*
X162216000Y-220079800D02*
X167516000Y-220079800D01*
X170006000Y-220139800D02*
X170006000Y-202119800D01*
X159726000Y-220139800D02*
X170006000Y-220139800D01*
X163866000Y-202179800D02*
G75*
G03*
X165866000Y-202179800I1000000J0D01*
G01*
%TO.C,U18*%
X259089400Y-143455000D02*
X257439400Y-143455000D01*
X265229400Y-143395000D02*
X254949400Y-143395000D01*
X254949400Y-143395000D02*
X254949400Y-169035000D01*
X257439400Y-143455000D02*
X257439400Y-168975000D01*
X262739400Y-168975000D02*
X262739400Y-143455000D01*
X262739400Y-143455000D02*
X261089400Y-143455000D01*
X265229400Y-169035000D02*
X265229400Y-143395000D01*
X257439400Y-168975000D02*
X262739400Y-168975000D01*
X254949400Y-169035000D02*
X265229400Y-169035000D01*
X259089400Y-143455000D02*
G75*
G03*
X261089400Y-143455000I1000000J0D01*
G01*
%TO.C,Q2*%
X167833200Y-84845801D02*
G75*
G03*
X169671678Y-80407322I0J2600001D01*
G01*
X165994722Y-80407322D02*
G75*
G03*
X167833200Y-84845800I1838478J-1838478D01*
G01*
X169633200Y-80395800D02*
X166033200Y-80395800D01*
%TO.C,C9*%
X149860400Y-167565800D02*
X155100400Y-167565800D01*
X155100400Y-167565800D02*
X155100400Y-170305800D01*
X149860400Y-170305800D02*
X155100400Y-170305800D01*
X149860400Y-167565800D02*
X149860400Y-170305800D01*
%TO.C,U11*%
X218481600Y-194499800D02*
X218481600Y-220139800D01*
X226271600Y-194559800D02*
X224621600Y-194559800D01*
X218481600Y-220139800D02*
X228761600Y-220139800D01*
X228761600Y-194499800D02*
X218481600Y-194499800D01*
X228761600Y-220139800D02*
X228761600Y-194499800D01*
X220971600Y-220079800D02*
X226271600Y-220079800D01*
X222621600Y-194559800D02*
X220971600Y-194559800D01*
X220971600Y-194559800D02*
X220971600Y-220079800D01*
X226271600Y-220079800D02*
X226271600Y-194559800D01*
X222621600Y-194559800D02*
G75*
G03*
X224621600Y-194559800I1000000J0D01*
G01*
%TO.C,U29*%
X232580800Y-169437200D02*
X232580800Y-143917200D01*
X232580800Y-143917200D02*
X230930800Y-143917200D01*
X227280800Y-143917200D02*
X227280800Y-169437200D01*
X227280800Y-169437200D02*
X232580800Y-169437200D01*
X224790800Y-169497200D02*
X235070800Y-169497200D01*
X228930800Y-143917200D02*
X227280800Y-143917200D01*
X224790800Y-143857200D02*
X224790800Y-169497200D01*
X235070800Y-143857200D02*
X224790800Y-143857200D01*
X235070800Y-169497200D02*
X235070800Y-143857200D01*
X228930800Y-143917200D02*
G75*
G03*
X230930800Y-143917200I1000000J0D01*
G01*
%TO.C,C28*%
X215228400Y-105213400D02*
X215228400Y-107953400D01*
X209988400Y-105213400D02*
X215228400Y-105213400D01*
X209988400Y-107953400D02*
X215228400Y-107953400D01*
X209988400Y-105213400D02*
X209988400Y-107953400D01*
%TO.C,C36*%
X195367600Y-105213400D02*
X195367600Y-107953400D01*
X200607600Y-105213400D02*
X200607600Y-107953400D01*
X195367600Y-107953400D02*
X200607600Y-107953400D01*
X195367600Y-105213400D02*
X200607600Y-105213400D01*
%TO.C,J7*%
X141509600Y-55697200D02*
X144109600Y-55697200D01*
X141509600Y-54427200D02*
X141509600Y-53097200D01*
X141509600Y-104017200D02*
X146709600Y-104017200D01*
X144109600Y-53097200D02*
X146709600Y-53097200D01*
X141509600Y-53097200D02*
X142839600Y-53097200D01*
X141509600Y-55697200D02*
X141509600Y-104017200D01*
X146709600Y-53097200D02*
X146709600Y-104017200D01*
X144109600Y-55697200D02*
X144109600Y-53097200D01*
%TO.C,R7*%
X187909300Y-91273800D02*
X185169300Y-91273800D01*
X186539300Y-90503800D02*
X186539300Y-91273800D01*
X185169300Y-97813800D02*
X187909300Y-97813800D01*
X185169300Y-91273800D02*
X185169300Y-97813800D01*
X187909300Y-97813800D02*
X187909300Y-91273800D01*
X186539300Y-98583800D02*
X186539300Y-97813800D01*
%TO.C,C16*%
X260059400Y-141075000D02*
X265299400Y-141075000D01*
X260059400Y-138335000D02*
X265299400Y-138335000D01*
X260059400Y-138335000D02*
X260059400Y-141075000D01*
X265299400Y-138335000D02*
X265299400Y-141075000D01*
%TO.C,U28*%
X278549100Y-220237200D02*
X278549100Y-194717200D01*
X278549100Y-194717200D02*
X276899100Y-194717200D01*
X270759100Y-194657200D02*
X270759100Y-220297200D01*
X281039100Y-220297200D02*
X281039100Y-194657200D01*
X270759100Y-220297200D02*
X281039100Y-220297200D01*
X273249100Y-220237200D02*
X278549100Y-220237200D01*
X281039100Y-194657200D02*
X270759100Y-194657200D01*
X273249100Y-194717200D02*
X273249100Y-220237200D01*
X274899100Y-194717200D02*
X273249100Y-194717200D01*
X274899100Y-194717200D02*
G75*
G03*
X276899100Y-194717200I1000000J0D01*
G01*
%TO.C,X1*%
X207142000Y-78235400D02*
X219292000Y-78235400D01*
X219292000Y-78235400D02*
X219292000Y-66085400D01*
X218542000Y-65335400D02*
X207142000Y-65335400D01*
X206392000Y-66085400D02*
X206392000Y-77485400D01*
X206392000Y-77485400D02*
G75*
G03*
X207142000Y-78235400I750000J0D01*
G01*
X207142000Y-65335400D02*
G75*
G03*
X206392000Y-66085400I0J-750000D01*
G01*
X219292000Y-66085400D02*
G75*
G03*
X218542000Y-65335400I-750000J0D01*
G01*
%TO.C,U13*%
X234535200Y-220079800D02*
X239835200Y-220079800D01*
X232045200Y-220139800D02*
X242325200Y-220139800D01*
X236185200Y-194559800D02*
X234535200Y-194559800D01*
X234535200Y-194559800D02*
X234535200Y-220079800D01*
X242325200Y-194499800D02*
X232045200Y-194499800D01*
X239835200Y-194559800D02*
X238185200Y-194559800D01*
X239835200Y-220079800D02*
X239835200Y-194559800D01*
X232045200Y-194499800D02*
X232045200Y-220139800D01*
X242325200Y-220139800D02*
X242325200Y-194499800D01*
X236185200Y-194559800D02*
G75*
G03*
X238185200Y-194559800I1000000J0D01*
G01*
%TO.C,R8*%
X161868500Y-91273800D02*
X159128500Y-91273800D01*
X159128500Y-97813800D02*
X161868500Y-97813800D01*
X160498500Y-90503800D02*
X160498500Y-91273800D01*
X161868500Y-97813800D02*
X161868500Y-91273800D01*
X160498500Y-98583800D02*
X160498500Y-97813800D01*
X159128500Y-91273800D02*
X159128500Y-97813800D01*
%TO.C,J1*%
X129719000Y-55499000D02*
X132319000Y-55499000D01*
X134919000Y-52899000D02*
X134919000Y-103819000D01*
X132319000Y-52899000D02*
X134919000Y-52899000D01*
X129719000Y-54229000D02*
X129719000Y-52899000D01*
X129719000Y-55499000D02*
X129719000Y-103819000D01*
X129719000Y-103819000D02*
X134919000Y-103819000D01*
X132319000Y-55499000D02*
X132319000Y-52899000D01*
X129719000Y-52899000D02*
X131049000Y-52899000D01*
%TO.C,C1*%
X251183100Y-55063800D02*
X251183100Y-57803800D01*
X245943100Y-55063800D02*
X245943100Y-57803800D01*
X245943100Y-57803800D02*
X251183100Y-57803800D01*
X245943100Y-55063800D02*
X251183100Y-55063800D01*
%TO.C,C6*%
X140124800Y-167565800D02*
X140124800Y-170305800D01*
X134884800Y-167565800D02*
X140124800Y-167565800D01*
X134884800Y-170305800D02*
X140124800Y-170305800D01*
X134884800Y-167565800D02*
X134884800Y-170305800D01*
%TO.C,U14*%
X295868400Y-117818600D02*
X295868400Y-92178600D01*
X295868400Y-92178600D02*
X285588400Y-92178600D01*
X288078400Y-117758600D02*
X293378400Y-117758600D01*
X285588400Y-92178600D02*
X285588400Y-117818600D01*
X293378400Y-117758600D02*
X293378400Y-92238600D01*
X288078400Y-92238600D02*
X288078400Y-117758600D01*
X289728400Y-92238600D02*
X288078400Y-92238600D01*
X293378400Y-92238600D02*
X291728400Y-92238600D01*
X285588400Y-117818600D02*
X295868400Y-117818600D01*
X289728400Y-92238600D02*
G75*
G03*
X291728400Y-92238600I1000000J0D01*
G01*
%TO.C,U9*%
X152540400Y-190585800D02*
X152540400Y-172685800D01*
X144750400Y-172625800D02*
X144750400Y-190645800D01*
X148890400Y-172685800D02*
X147240400Y-172685800D01*
X152540400Y-172685800D02*
X150890400Y-172685800D01*
X147240400Y-190585800D02*
X152540400Y-190585800D01*
X144750400Y-190645800D02*
X155030400Y-190645800D01*
X155030400Y-172625800D02*
X144750400Y-172625800D01*
X147240400Y-172685800D02*
X147240400Y-190585800D01*
X155030400Y-190645800D02*
X155030400Y-172625800D01*
X148890400Y-172685800D02*
G75*
G03*
X150890400Y-172685800I1000000J0D01*
G01*
%TO.C,U12*%
X190257600Y-169598800D02*
X200537600Y-169598800D01*
X200537600Y-143958800D02*
X190257600Y-143958800D01*
X190257600Y-143958800D02*
X190257600Y-169598800D01*
X194397600Y-144018800D02*
X192747600Y-144018800D01*
X192747600Y-169538800D02*
X198047600Y-169538800D01*
X192747600Y-144018800D02*
X192747600Y-169538800D01*
X198047600Y-169538800D02*
X198047600Y-144018800D01*
X198047600Y-144018800D02*
X196397600Y-144018800D01*
X200537600Y-169598800D02*
X200537600Y-143958800D01*
X194397600Y-144018800D02*
G75*
G03*
X196397600Y-144018800I1000000J0D01*
G01*
%TO.C,R10*%
X184189200Y-97813800D02*
X184189200Y-91273800D01*
X184189200Y-91273800D02*
X181449200Y-91273800D01*
X181449200Y-97813800D02*
X184189200Y-97813800D01*
X181449200Y-91273800D02*
X181449200Y-97813800D01*
X182819200Y-90503800D02*
X182819200Y-91273800D01*
X182819200Y-98583800D02*
X182819200Y-97813800D01*
%TO.C,R1*%
X192609600Y-97813800D02*
X195349600Y-97813800D01*
X195349600Y-97813800D02*
X195349600Y-91273800D01*
X195349600Y-91273800D02*
X192609600Y-91273800D01*
X192609600Y-91273800D02*
X192609600Y-97813800D01*
X193979600Y-98583800D02*
X193979600Y-97813800D01*
X193979600Y-90503800D02*
X193979600Y-91273800D01*
%TO.C,J8*%
X169976000Y-110247200D02*
X169976000Y-161167200D01*
X167376000Y-110247200D02*
X169976000Y-110247200D01*
X164776000Y-110247200D02*
X166106000Y-110247200D01*
X167376000Y-112847200D02*
X167376000Y-110247200D01*
X164776000Y-112847200D02*
X167376000Y-112847200D01*
X164776000Y-161167200D02*
X169976000Y-161167200D01*
X164776000Y-112847200D02*
X164776000Y-161167200D01*
X164776000Y-111577200D02*
X164776000Y-110247200D01*
%TO.C,U2*%
X244855300Y-60183800D02*
X243205300Y-60183800D01*
X250995300Y-80683800D02*
X250995300Y-60123800D01*
X243205300Y-80623800D02*
X248505300Y-80623800D01*
X250995300Y-60123800D02*
X240715300Y-60123800D01*
X248505300Y-60183800D02*
X246855300Y-60183800D01*
X240715300Y-80683800D02*
X250995300Y-80683800D01*
X248505300Y-80623800D02*
X248505300Y-60183800D01*
X243205300Y-60183800D02*
X243205300Y-80623800D01*
X240715300Y-60123800D02*
X240715300Y-80683800D01*
X244855300Y-60183800D02*
G75*
G03*
X246855300Y-60183800I1000000J0D01*
G01*
%TO.C,C3*%
X134884800Y-199564000D02*
X140124800Y-199564000D01*
X134884800Y-196824000D02*
X134884800Y-199564000D01*
X134884800Y-196824000D02*
X140124800Y-196824000D01*
X140124800Y-196824000D02*
X140124800Y-199564000D01*
%TO.C,U36*%
X177893200Y-109982800D02*
X177893200Y-135502800D01*
X183193200Y-135502800D02*
X183193200Y-109982800D01*
X175403200Y-135562800D02*
X185683200Y-135562800D01*
X175403200Y-109922800D02*
X175403200Y-135562800D01*
X179543200Y-109982800D02*
X177893200Y-109982800D01*
X185683200Y-135562800D02*
X185683200Y-109922800D01*
X177893200Y-135502800D02*
X183193200Y-135502800D01*
X185683200Y-109922800D02*
X175403200Y-109922800D01*
X183193200Y-109982800D02*
X181543200Y-109982800D01*
X179543200Y-109982800D02*
G75*
G03*
X181543200Y-109982800I1000000J0D01*
G01*
%TO.C,J6*%
X157936400Y-110247200D02*
X157936400Y-161167200D01*
X155336400Y-110247200D02*
X157936400Y-110247200D01*
X152736400Y-112847200D02*
X152736400Y-161167200D01*
X152736400Y-161167200D02*
X157936400Y-161167200D01*
X152736400Y-112847200D02*
X155336400Y-112847200D01*
X152736400Y-110247200D02*
X154066400Y-110247200D01*
X155336400Y-112847200D02*
X155336400Y-110247200D01*
X152736400Y-111577200D02*
X152736400Y-110247200D01*
%TO.C,U24*%
X270670000Y-81146000D02*
X280950000Y-81146000D01*
X274810000Y-60646000D02*
X273160000Y-60646000D01*
X273160000Y-60646000D02*
X273160000Y-81086000D01*
X280950000Y-81146000D02*
X280950000Y-60586000D01*
X280950000Y-60586000D02*
X270670000Y-60586000D01*
X270670000Y-60586000D02*
X270670000Y-81146000D01*
X278460000Y-60646000D02*
X276810000Y-60646000D01*
X273160000Y-81086000D02*
X278460000Y-81086000D01*
X278460000Y-81086000D02*
X278460000Y-60646000D01*
X274810000Y-60646000D02*
G75*
G03*
X276810000Y-60646000I1000000J0D01*
G01*
%TO.C,R3*%
X164218600Y-90503800D02*
X164218600Y-91273800D01*
X164218600Y-98583800D02*
X164218600Y-97813800D01*
X162848600Y-91273800D02*
X162848600Y-97813800D01*
X165588600Y-97813800D02*
X165588600Y-91273800D01*
X165588600Y-91273800D02*
X162848600Y-91273800D01*
X162848600Y-97813800D02*
X165588600Y-97813800D01*
%TO.C,U8*%
X162216000Y-173066400D02*
X162216000Y-190966400D01*
X170006000Y-173006400D02*
X159726000Y-173006400D01*
X162216000Y-190966400D02*
X167516000Y-190966400D01*
X167516000Y-190966400D02*
X167516000Y-173066400D01*
X167516000Y-173066400D02*
X165866000Y-173066400D01*
X170006000Y-191026400D02*
X170006000Y-173006400D01*
X159726000Y-173006400D02*
X159726000Y-191026400D01*
X163866000Y-173066400D02*
X162216000Y-173066400D01*
X159726000Y-191026400D02*
X170006000Y-191026400D01*
X163866000Y-173066400D02*
G75*
G03*
X165866000Y-173066400I1000000J0D01*
G01*
%TO.C,R11*%
X153058200Y-90503800D02*
X153058200Y-91273800D01*
X153058200Y-98583800D02*
X153058200Y-97813800D01*
X154428200Y-91273800D02*
X151688200Y-91273800D01*
X151688200Y-91273800D02*
X151688200Y-97813800D01*
X154428200Y-97813800D02*
X154428200Y-91273800D01*
X151688200Y-97813800D02*
X154428200Y-97813800D01*
%TO.C,C18*%
X180513200Y-173587000D02*
X185753200Y-173587000D01*
X185753200Y-170847000D02*
X185753200Y-173587000D01*
X180513200Y-170847000D02*
X180513200Y-173587000D01*
X180513200Y-170847000D02*
X185753200Y-170847000D01*
%TO.C,U16*%
X204918000Y-194592400D02*
X215198000Y-194592400D01*
X204918000Y-168952400D02*
X204918000Y-194592400D01*
X207408000Y-194532400D02*
X212708000Y-194532400D01*
X215198000Y-194592400D02*
X215198000Y-168952400D01*
X212708000Y-194532400D02*
X212708000Y-169012400D01*
X209058000Y-169012400D02*
X207408000Y-169012400D01*
X212708000Y-169012400D02*
X211058000Y-169012400D01*
X207408000Y-169012400D02*
X207408000Y-194532400D01*
X215198000Y-168952400D02*
X204918000Y-168952400D01*
X209058000Y-169012400D02*
G75*
G03*
X211058000Y-169012400I1000000J0D01*
G01*
%TO.C,C2*%
X164836000Y-167646600D02*
X164836000Y-170386600D01*
X164836000Y-167646600D02*
X170076000Y-167646600D01*
X164836000Y-170386600D02*
X170076000Y-170386600D01*
X170076000Y-167646600D02*
X170076000Y-170386600D01*
%TO.C,C30*%
X275869100Y-191773400D02*
X281109100Y-191773400D01*
X281109100Y-189033400D02*
X281109100Y-191773400D01*
X275869100Y-189033400D02*
X281109100Y-189033400D01*
X275869100Y-189033400D02*
X275869100Y-191773400D01*
%TO.C,C17*%
X194584800Y-192179800D02*
X199824800Y-192179800D01*
X194584800Y-189439800D02*
X194584800Y-192179800D01*
X194584800Y-189439800D02*
X199824800Y-189439800D01*
X199824800Y-189439800D02*
X199824800Y-192179800D01*
%TO.C,Q1*%
X180625122Y-80407322D02*
G75*
G03*
X182463600Y-84845800I1838478J-1838478D01*
G01*
X182463600Y-84845801D02*
G75*
G03*
X184302078Y-80407322I0J2600001D01*
G01*
X184263600Y-80395800D02*
X180663600Y-80395800D01*
%TO.C,J5*%
X144160400Y-110247200D02*
X146760400Y-110247200D01*
X141560400Y-161167200D02*
X146760400Y-161167200D01*
X146760400Y-110247200D02*
X146760400Y-161167200D01*
X141560400Y-112847200D02*
X144160400Y-112847200D01*
X141560400Y-112847200D02*
X141560400Y-161167200D01*
X141560400Y-110247200D02*
X142890400Y-110247200D01*
X141560400Y-111577200D02*
X141560400Y-110247200D01*
X144160400Y-112847200D02*
X144160400Y-110247200D01*
%TO.C,C32*%
X259452200Y-183101600D02*
X264692200Y-183101600D01*
X259452200Y-180361600D02*
X259452200Y-183101600D01*
X264692200Y-180361600D02*
X264692200Y-183101600D01*
X259452200Y-180361600D02*
X264692200Y-180361600D01*
%TO.C,U31*%
X295868400Y-60423600D02*
X285588400Y-60423600D01*
X289728400Y-60483600D02*
X288078400Y-60483600D01*
X295868400Y-80983600D02*
X295868400Y-60423600D01*
X293378400Y-60483600D02*
X291728400Y-60483600D01*
X288078400Y-60483600D02*
X288078400Y-80923600D01*
X288078400Y-80923600D02*
X293378400Y-80923600D01*
X293378400Y-80923600D02*
X293378400Y-60483600D01*
X285588400Y-60423600D02*
X285588400Y-80983600D01*
X285588400Y-80983600D02*
X295868400Y-80983600D01*
X289728400Y-60483600D02*
G75*
G03*
X291728400Y-60483600I1000000J0D01*
G01*
%TO.C,U5*%
X147240400Y-202179800D02*
X147240400Y-220079800D01*
X155030400Y-202119800D02*
X144750400Y-202119800D01*
X152540400Y-202179800D02*
X150890400Y-202179800D01*
X152540400Y-220079800D02*
X152540400Y-202179800D01*
X144750400Y-220139800D02*
X155030400Y-220139800D01*
X155030400Y-220139800D02*
X155030400Y-202119800D01*
X148890400Y-202179800D02*
X147240400Y-202179800D01*
X147240400Y-220079800D02*
X152540400Y-220079800D01*
X144750400Y-202119800D02*
X144750400Y-220139800D01*
X148890400Y-202179800D02*
G75*
G03*
X150890400Y-202179800I1000000J0D01*
G01*
%TO.C,C22*%
X200607600Y-138335000D02*
X200607600Y-141075000D01*
X195367600Y-138335000D02*
X200607600Y-138335000D01*
X195367600Y-138335000D02*
X195367600Y-141075000D01*
X195367600Y-141075000D02*
X200607600Y-141075000D01*
%TO.C,U20*%
X183193200Y-176266800D02*
X181543200Y-176266800D01*
X179543200Y-176266800D02*
X177893200Y-176266800D01*
X185683200Y-194226800D02*
X185683200Y-176206800D01*
X177893200Y-176266800D02*
X177893200Y-194166800D01*
X185683200Y-176206800D02*
X175403200Y-176206800D01*
X175403200Y-194226800D02*
X185683200Y-194226800D01*
X177893200Y-194166800D02*
X183193200Y-194166800D01*
X183193200Y-194166800D02*
X183193200Y-176266800D01*
X175403200Y-176206800D02*
X175403200Y-194226800D01*
X179543200Y-176266800D02*
G75*
G03*
X181543200Y-176266800I1000000J0D01*
G01*
%TO.C,J3*%
X129774800Y-111577200D02*
X129774800Y-110247200D01*
X134974800Y-110247200D02*
X134974800Y-161167200D01*
X129774800Y-110247200D02*
X131104800Y-110247200D01*
X129774800Y-112847200D02*
X129774800Y-161167200D01*
X129774800Y-112847200D02*
X132374800Y-112847200D01*
X132374800Y-112847200D02*
X132374800Y-110247200D01*
X129774800Y-161167200D02*
X134974800Y-161167200D01*
X132374800Y-110247200D02*
X134974800Y-110247200D01*
%TO.C,C4*%
X215420400Y-138335000D02*
X215420400Y-141075000D01*
X210180400Y-141075000D02*
X215420400Y-141075000D01*
X210180400Y-138335000D02*
X210180400Y-141075000D01*
X210180400Y-138335000D02*
X215420400Y-138335000D01*
%TO.C,U34*%
X205070400Y-143237600D02*
X205070400Y-161257600D01*
X215350400Y-143237600D02*
X205070400Y-143237600D01*
X207560400Y-161197600D02*
X212860400Y-161197600D01*
X212860400Y-161197600D02*
X212860400Y-143297600D01*
X209210400Y-143297600D02*
X207560400Y-143297600D01*
X212860400Y-143297600D02*
X211210400Y-143297600D01*
X207560400Y-143297600D02*
X207560400Y-161197600D01*
X215350400Y-161257600D02*
X215350400Y-143237600D01*
X205070400Y-161257600D02*
X215350400Y-161257600D01*
X209210400Y-143297600D02*
G75*
G03*
X211210400Y-143297600I1000000J0D01*
G01*
%TO.C,U21*%
X204918000Y-202119800D02*
X204918000Y-220139800D01*
X207408000Y-220079800D02*
X212708000Y-220079800D01*
X215198000Y-202119800D02*
X204918000Y-202119800D01*
X204918000Y-220139800D02*
X215198000Y-220139800D01*
X209058000Y-202179800D02*
X207408000Y-202179800D01*
X212708000Y-202179800D02*
X211058000Y-202179800D01*
X207408000Y-202179800D02*
X207408000Y-220079800D01*
X215198000Y-220139800D02*
X215198000Y-202119800D01*
X212708000Y-220079800D02*
X212708000Y-202179800D01*
X209058000Y-202179800D02*
G75*
G03*
X211058000Y-202179800I1000000J0D01*
G01*
%TO.C,U3*%
X259891500Y-60183800D02*
X258241500Y-60183800D01*
X255751500Y-60123800D02*
X255751500Y-80683800D01*
X263541500Y-80623800D02*
X263541500Y-60183800D01*
X255751500Y-80683800D02*
X266031500Y-80683800D01*
X266031500Y-60123800D02*
X255751500Y-60123800D01*
X263541500Y-60183800D02*
X261891500Y-60183800D01*
X258241500Y-60183800D02*
X258241500Y-80623800D01*
X258241500Y-80623800D02*
X263541500Y-80623800D01*
X266031500Y-80683800D02*
X266031500Y-60123800D01*
X259891500Y-60183800D02*
G75*
G03*
X261891500Y-60183800I1000000J0D01*
G01*
%TO.C,U15*%
X270670000Y-118072600D02*
X280950000Y-118072600D01*
X278460000Y-92492600D02*
X276810000Y-92492600D01*
X273160000Y-92492600D02*
X273160000Y-118012600D01*
X270670000Y-92432600D02*
X270670000Y-118072600D01*
X274810000Y-92492600D02*
X273160000Y-92492600D01*
X273160000Y-118012600D02*
X278460000Y-118012600D01*
X280950000Y-118072600D02*
X280950000Y-92432600D01*
X278460000Y-118012600D02*
X278460000Y-92492600D01*
X280950000Y-92432600D02*
X270670000Y-92432600D01*
X274810000Y-92492600D02*
G75*
G03*
X276810000Y-92492600I1000000J0D01*
G01*
%TO.C,U10*%
X242360100Y-144018800D02*
X242360100Y-169538800D01*
X244010100Y-144018800D02*
X242360100Y-144018800D01*
X239870100Y-169598800D02*
X250150100Y-169598800D01*
X242360100Y-169538800D02*
X247660100Y-169538800D01*
X247660100Y-169538800D02*
X247660100Y-144018800D01*
X247660100Y-144018800D02*
X246010100Y-144018800D01*
X239870100Y-143958800D02*
X239870100Y-169598800D01*
X250150100Y-169598800D02*
X250150100Y-143958800D01*
X250150100Y-143958800D02*
X239870100Y-143958800D01*
X244010100Y-144018800D02*
G75*
G03*
X246010100Y-144018800I1000000J0D01*
G01*
%TO.C,U30*%
X288078400Y-220207200D02*
X293378400Y-220207200D01*
X295868400Y-199707200D02*
X285588400Y-199707200D01*
X285588400Y-199707200D02*
X285588400Y-220267200D01*
X295868400Y-220267200D02*
X295868400Y-199707200D01*
X293378400Y-199767200D02*
X291728400Y-199767200D01*
X288078400Y-199767200D02*
X288078400Y-220207200D01*
X293378400Y-220207200D02*
X293378400Y-199767200D01*
X285588400Y-220267200D02*
X295868400Y-220267200D01*
X289728400Y-199767200D02*
X288078400Y-199767200D01*
X289728400Y-199767200D02*
G75*
G03*
X291728400Y-199767200I1000000J0D01*
G01*
%TO.C,U19*%
X274649100Y-143455000D02*
X272999100Y-143455000D01*
X278299100Y-143455000D02*
X276649100Y-143455000D01*
X278299100Y-168975000D02*
X278299100Y-143455000D01*
X272999100Y-143455000D02*
X272999100Y-168975000D01*
X280789100Y-169035000D02*
X280789100Y-143395000D01*
X270509100Y-169035000D02*
X280789100Y-169035000D01*
X270509100Y-143395000D02*
X270509100Y-169035000D01*
X280789100Y-143395000D02*
X270509100Y-143395000D01*
X272999100Y-168975000D02*
X278299100Y-168975000D01*
X274649100Y-143455000D02*
G75*
G03*
X276649100Y-143455000I1000000J0D01*
G01*
%TO.C,C24*%
X290698400Y-138335000D02*
X290698400Y-141075000D01*
X295938400Y-138335000D02*
X295938400Y-141075000D01*
X290698400Y-138335000D02*
X295938400Y-138335000D01*
X290698400Y-141075000D02*
X295938400Y-141075000D01*
%TO.C,R12*%
X169308700Y-91273800D02*
X166568700Y-91273800D01*
X166568700Y-91273800D02*
X166568700Y-97813800D01*
X167938700Y-90503800D02*
X167938700Y-91273800D01*
X166568700Y-97813800D02*
X169308700Y-97813800D01*
X167938700Y-98583800D02*
X167938700Y-97813800D01*
X169308700Y-97813800D02*
X169308700Y-91273800D01*
%TO.C,C13*%
X223591600Y-191362000D02*
X228831600Y-191362000D01*
X223591600Y-188622000D02*
X228831600Y-188622000D01*
X223591600Y-188622000D02*
X223591600Y-191362000D01*
X228831600Y-188622000D02*
X228831600Y-191362000D01*
%TO.C,R13*%
X201419800Y-98583800D02*
X201419800Y-97813800D01*
X201419800Y-90503800D02*
X201419800Y-91273800D01*
X200049800Y-97813800D02*
X202789800Y-97813800D01*
X202789800Y-97813800D02*
X202789800Y-91273800D01*
X200049800Y-91273800D02*
X200049800Y-97813800D01*
X202789800Y-91273800D02*
X200049800Y-91273800D01*
%TO.C,R14*%
X199069700Y-97813800D02*
X199069700Y-91273800D01*
X197699700Y-90503800D02*
X197699700Y-91273800D01*
X196329700Y-97813800D02*
X199069700Y-97813800D01*
X197699700Y-98583800D02*
X197699700Y-97813800D01*
X196329700Y-91273800D02*
X196329700Y-97813800D01*
X199069700Y-91273800D02*
X196329700Y-91273800D01*
%TO.C,C27*%
X230906800Y-55063800D02*
X230906800Y-57803800D01*
X236146800Y-55063800D02*
X236146800Y-57803800D01*
X230906800Y-57803800D02*
X236146800Y-57803800D01*
X230906800Y-55063800D02*
X236146800Y-55063800D01*
%TO.C,C31*%
X290699200Y-197254800D02*
X295939200Y-197254800D01*
X290699200Y-194514800D02*
X290699200Y-197254800D01*
X290699200Y-194514800D02*
X295939200Y-194514800D01*
X295939200Y-194514800D02*
X295939200Y-197254800D01*
%TO.C,C8*%
X260861500Y-55063800D02*
X266101500Y-55063800D01*
X260861500Y-57803800D02*
X266101500Y-57803800D01*
X260861500Y-55063800D02*
X260861500Y-57803800D01*
X266101500Y-55063800D02*
X266101500Y-57803800D01*
%TO.C,C34*%
X180554800Y-107953400D02*
X185794800Y-107953400D01*
X185794800Y-105213400D02*
X185794800Y-107953400D01*
X180554800Y-105213400D02*
X185794800Y-105213400D01*
X180554800Y-105213400D02*
X180554800Y-107953400D01*
%TO.C,U25*%
X193614800Y-194559800D02*
X191964800Y-194559800D01*
X197264800Y-194559800D02*
X195614800Y-194559800D01*
X199754800Y-194499800D02*
X189474800Y-194499800D01*
X191964800Y-220079800D02*
X197264800Y-220079800D01*
X197264800Y-220079800D02*
X197264800Y-194559800D01*
X189474800Y-194499800D02*
X189474800Y-220139800D01*
X191964800Y-194559800D02*
X191964800Y-220079800D01*
X199754800Y-220139800D02*
X199754800Y-194499800D01*
X189474800Y-220139800D02*
X199754800Y-220139800D01*
X193614800Y-194559800D02*
G75*
G03*
X195614800Y-194559800I1000000J0D01*
G01*
%TO.C,U33*%
X198047600Y-110633200D02*
X196397600Y-110633200D01*
X194397600Y-110633200D02*
X192747600Y-110633200D01*
X192747600Y-128533200D02*
X198047600Y-128533200D01*
X198047600Y-128533200D02*
X198047600Y-110633200D01*
X190257600Y-128593200D02*
X200537600Y-128593200D01*
X200537600Y-128593200D02*
X200537600Y-110573200D01*
X200537600Y-110573200D02*
X190257600Y-110573200D01*
X192747600Y-110633200D02*
X192747600Y-128533200D01*
X190257600Y-110573200D02*
X190257600Y-128593200D01*
X194397600Y-110633200D02*
G75*
G03*
X196397600Y-110633200I1000000J0D01*
G01*
%TO.C,U32*%
X209210400Y-110633200D02*
X207560400Y-110633200D01*
X215350400Y-131133200D02*
X215350400Y-110573200D01*
X207560400Y-131073200D02*
X212860400Y-131073200D01*
X205070400Y-110573200D02*
X205070400Y-131133200D01*
X212860400Y-131073200D02*
X212860400Y-110633200D01*
X215350400Y-110573200D02*
X205070400Y-110573200D01*
X212860400Y-110633200D02*
X211210400Y-110633200D01*
X205070400Y-131133200D02*
X215350400Y-131133200D01*
X207560400Y-110633200D02*
X207560400Y-131073200D01*
X209210400Y-110633200D02*
G75*
G03*
X211210400Y-110633200I1000000J0D01*
G01*
%TO.C,C19*%
X275780000Y-86554800D02*
X281020000Y-86554800D01*
X275780000Y-86554800D02*
X275780000Y-89294800D01*
X275780000Y-89294800D02*
X281020000Y-89294800D01*
X281020000Y-86554800D02*
X281020000Y-89294800D01*
%TO.C,C26*%
X238556800Y-86554800D02*
X243796800Y-86554800D01*
X243796800Y-86554800D02*
X243796800Y-89294800D01*
X238556800Y-86554800D02*
X238556800Y-89294800D01*
X238556800Y-89294800D02*
X243796800Y-89294800D01*
%TO.C,U1*%
X228286800Y-60183800D02*
X228286800Y-80623800D01*
X229936800Y-60183800D02*
X228286800Y-60183800D01*
X236076800Y-60123800D02*
X225796800Y-60123800D01*
X233586800Y-80623800D02*
X233586800Y-60183800D01*
X228286800Y-80623800D02*
X233586800Y-80623800D01*
X233586800Y-60183800D02*
X231936800Y-60183800D01*
X236076800Y-80683800D02*
X236076800Y-60123800D01*
X225796800Y-60123800D02*
X225796800Y-80683800D01*
X225796800Y-80683800D02*
X236076800Y-80683800D01*
X229936800Y-60183800D02*
G75*
G03*
X231936800Y-60183800I1000000J0D01*
G01*
%TO.C,U35*%
X175403200Y-143095200D02*
X175403200Y-168735200D01*
X177893200Y-143155200D02*
X177893200Y-168675200D01*
X183193200Y-168675200D02*
X183193200Y-143155200D01*
X185683200Y-168735200D02*
X185683200Y-143095200D01*
X185683200Y-143095200D02*
X175403200Y-143095200D01*
X183193200Y-143155200D02*
X181543200Y-143155200D01*
X179543200Y-143155200D02*
X177893200Y-143155200D01*
X177893200Y-168675200D02*
X183193200Y-168675200D01*
X175403200Y-168735200D02*
X185683200Y-168735200D01*
X179543200Y-143155200D02*
G75*
G03*
X181543200Y-143155200I1000000J0D01*
G01*
%TO.C,C5*%
X170076000Y-196824000D02*
X170076000Y-199564000D01*
X164836000Y-196824000D02*
X164836000Y-199564000D01*
X164836000Y-199564000D02*
X170076000Y-199564000D01*
X164836000Y-196824000D02*
X170076000Y-196824000D01*
%TO.C,C11*%
X237155200Y-192179800D02*
X242395200Y-192179800D01*
X237155200Y-189439800D02*
X242395200Y-189439800D01*
X237155200Y-189439800D02*
X237155200Y-192179800D01*
X242395200Y-189439800D02*
X242395200Y-192179800D01*
%TO.C,C14*%
X210018800Y-166627400D02*
X215258800Y-166627400D01*
X210018800Y-163887400D02*
X215258800Y-163887400D01*
X210018800Y-163887400D02*
X210018800Y-166627400D01*
X215258800Y-163887400D02*
X215258800Y-166627400D01*
%TO.C,U6*%
X132264800Y-172685800D02*
X132264800Y-193125800D01*
X140054800Y-172625800D02*
X129774800Y-172625800D01*
X133914800Y-172685800D02*
X132264800Y-172685800D01*
X137564800Y-193125800D02*
X137564800Y-172685800D01*
X140054800Y-193185800D02*
X140054800Y-172625800D01*
X129774800Y-172625800D02*
X129774800Y-193185800D01*
X132264800Y-193125800D02*
X137564800Y-193125800D01*
X137564800Y-172685800D02*
X135914800Y-172685800D01*
X129774800Y-193185800D02*
X140054800Y-193185800D01*
X133914800Y-172685800D02*
G75*
G03*
X135914800Y-172685800I1000000J0D01*
G01*
%TO.C,C20*%
X275780000Y-55063800D02*
X275780000Y-57803800D01*
X275780000Y-55063800D02*
X281020000Y-55063800D01*
X281020000Y-55063800D02*
X281020000Y-57803800D01*
X275780000Y-57803800D02*
X281020000Y-57803800D01*
D12*
%TO.C,J2*%
X170395000Y-78733000D02*
G75*
G03*
X170395000Y-78733000I-200000J0D01*
G01*
D13*
X159850000Y-77772000D02*
X159850000Y-61772000D01*
X159850000Y-61772000D02*
X190650000Y-61772000D01*
X190650000Y-77772000D02*
X159850000Y-77772000D01*
X190650000Y-61772000D02*
X190650000Y-77772000D01*
D11*
%TO.C,R6*%
X173028800Y-91273800D02*
X170288800Y-91273800D01*
X173028800Y-97813800D02*
X173028800Y-91273800D01*
X170288800Y-97813800D02*
X173028800Y-97813800D01*
X171658800Y-90503800D02*
X171658800Y-91273800D01*
X170288800Y-91273800D02*
X170288800Y-97813800D01*
X171658800Y-98583800D02*
X171658800Y-97813800D01*
%TO.C,U26*%
X256185400Y-91609000D02*
X250725400Y-91609000D01*
X266135400Y-127349000D02*
X266135400Y-91549000D01*
X263645400Y-91609000D02*
X258185400Y-91609000D01*
X248235400Y-127349000D02*
X266135400Y-127349000D01*
X248235400Y-91549000D02*
X248235400Y-127349000D01*
X250725400Y-91609000D02*
X250725400Y-127289000D01*
X250725400Y-127289000D02*
X263645400Y-127289000D01*
X266135400Y-91549000D02*
X248235400Y-91549000D01*
X263645400Y-127289000D02*
X263645400Y-91609000D01*
X256185400Y-91609000D02*
G75*
G03*
X258185400Y-91609000I1000000J0D01*
G01*
%TO.C,R9*%
X176749000Y-91273800D02*
X174009000Y-91273800D01*
X175379000Y-98583800D02*
X175379000Y-97813800D01*
X174009000Y-91273800D02*
X174009000Y-97813800D01*
X174009000Y-97813800D02*
X176749000Y-97813800D01*
X176749000Y-97813800D02*
X176749000Y-91273800D01*
X175379000Y-90503800D02*
X175379000Y-91273800D01*
%TO.C,C29*%
X229900800Y-138335000D02*
X229900800Y-141075000D01*
X229900800Y-141075000D02*
X235140800Y-141075000D01*
X229900800Y-138335000D02*
X235140800Y-138335000D01*
X235140800Y-138335000D02*
X235140800Y-141075000D01*
%TO.C,R5*%
X177729100Y-97813800D02*
X180469100Y-97813800D01*
X179099100Y-98583800D02*
X179099100Y-97813800D01*
X180469100Y-97813800D02*
X180469100Y-91273800D01*
X180469100Y-91273800D02*
X177729100Y-91273800D01*
X177729100Y-91273800D02*
X177729100Y-97813800D01*
X179099100Y-90503800D02*
X179099100Y-91273800D01*
%TO.C,C23*%
X295938400Y-86554800D02*
X295938400Y-89294800D01*
X290698400Y-89294800D02*
X295938400Y-89294800D01*
X290698400Y-86554800D02*
X295938400Y-86554800D01*
X290698400Y-86554800D02*
X290698400Y-89294800D01*
%TO.C,R2*%
X191629400Y-91273800D02*
X188889400Y-91273800D01*
X191629400Y-97813800D02*
X191629400Y-91273800D01*
X188889400Y-91273800D02*
X188889400Y-97813800D01*
X188889400Y-97813800D02*
X191629400Y-97813800D01*
X190259400Y-90503800D02*
X190259400Y-91273800D01*
X190259400Y-98583800D02*
X190259400Y-97813800D01*
%TO.C,U27*%
X262126400Y-184399800D02*
X256666400Y-184399800D01*
X246716400Y-220139800D02*
X264616400Y-220139800D01*
X264616400Y-220139800D02*
X264616400Y-184339800D01*
X264616400Y-184339800D02*
X246716400Y-184339800D01*
X249206400Y-220079800D02*
X262126400Y-220079800D01*
X246716400Y-184339800D02*
X246716400Y-220139800D01*
X262126400Y-220079800D02*
X262126400Y-184399800D01*
X249206400Y-184399800D02*
X249206400Y-220079800D01*
X254666400Y-184399800D02*
X249206400Y-184399800D01*
X254666400Y-184399800D02*
G75*
G03*
X256666400Y-184399800I1000000J0D01*
G01*
%TO.C,C33*%
X290698400Y-57803800D02*
X295938400Y-57803800D01*
X290698400Y-55063800D02*
X290698400Y-57803800D01*
X290698400Y-55063800D02*
X295938400Y-55063800D01*
X295938400Y-55063800D02*
X295938400Y-57803800D01*
%TO.C,C21*%
X260995400Y-89294800D02*
X266235400Y-89294800D01*
X260995400Y-86554800D02*
X266235400Y-86554800D01*
X260995400Y-86554800D02*
X260995400Y-89294800D01*
X266235400Y-86554800D02*
X266235400Y-89294800D01*
%TO.C,Q3*%
X175148400Y-84845801D02*
G75*
G03*
X176986878Y-80407322I0J2600001D01*
G01*
X173309922Y-80407322D02*
G75*
G03*
X175148400Y-84845800I1838478J-1838478D01*
G01*
X176948400Y-80395800D02*
X173348400Y-80395800D01*
%TO.C,U23*%
X241206800Y-127354800D02*
X241206800Y-91674800D01*
X225796800Y-91614800D02*
X225796800Y-127414800D01*
X228286800Y-127354800D02*
X241206800Y-127354800D01*
X243696800Y-127414800D02*
X243696800Y-91614800D01*
X233746800Y-91674800D02*
X228286800Y-91674800D01*
X243696800Y-91614800D02*
X225796800Y-91614800D01*
X241206800Y-91674800D02*
X235746800Y-91674800D01*
X225796800Y-127414800D02*
X243696800Y-127414800D01*
X228286800Y-91674800D02*
X228286800Y-127354800D01*
X233746800Y-91674800D02*
G75*
G03*
X235746800Y-91674800I1000000J0D01*
G01*
%TO.C,C25*%
X244980100Y-138335000D02*
X250220100Y-138335000D01*
X244980100Y-141075000D02*
X250220100Y-141075000D01*
X250220100Y-138335000D02*
X250220100Y-141075000D01*
X244980100Y-138335000D02*
X244980100Y-141075000D01*
%TO.C,U22*%
X175403200Y-202119800D02*
X175403200Y-220139800D01*
X175403200Y-220139800D02*
X185683200Y-220139800D01*
X183193200Y-202179800D02*
X181543200Y-202179800D01*
X179543200Y-202179800D02*
X177893200Y-202179800D01*
X177893200Y-220079800D02*
X183193200Y-220079800D01*
X183193200Y-220079800D02*
X183193200Y-202179800D01*
X185683200Y-202119800D02*
X175403200Y-202119800D01*
X185683200Y-220139800D02*
X185683200Y-202119800D01*
X177893200Y-202179800D02*
X177893200Y-220079800D01*
X179543200Y-202179800D02*
G75*
G03*
X181543200Y-202179800I1000000J0D01*
G01*
%TO.C,U17*%
X295868400Y-144212800D02*
X285588400Y-144212800D01*
X285588400Y-144212800D02*
X285588400Y-169852800D01*
X293378400Y-169792800D02*
X293378400Y-144272800D01*
X293378400Y-144272800D02*
X291728400Y-144272800D01*
X289728400Y-144272800D02*
X288078400Y-144272800D01*
X295868400Y-169852800D02*
X295868400Y-144212800D01*
X288078400Y-169792800D02*
X293378400Y-169792800D01*
X288078400Y-144272800D02*
X288078400Y-169792800D01*
X285588400Y-169852800D02*
X295868400Y-169852800D01*
X289728400Y-144272800D02*
G75*
G03*
X291728400Y-144272800I1000000J0D01*
G01*
%TO.C,C7*%
X149860400Y-196824000D02*
X149860400Y-199564000D01*
X155100400Y-196824000D02*
X155100400Y-199564000D01*
X149860400Y-196824000D02*
X155100400Y-196824000D01*
X149860400Y-199564000D02*
X155100400Y-199564000D01*
%TO.C,C10*%
X275619100Y-138335000D02*
X280859100Y-138335000D01*
X275619100Y-141075000D02*
X280859100Y-141075000D01*
X275619100Y-138335000D02*
X275619100Y-141075000D01*
X280859100Y-138335000D02*
X280859100Y-141075000D01*
%TD*%
M02*
